<svg width="21" height="21" viewBox="0 0 21 21" fill="none" xmlns="http://www.w3.org/2000/svg">
<path d="M7.91064 4.20618C8.31104 3.80578 8.96142 3.80578 9.36182 4.20618C9.7621 4.60658 9.76217 5.25699 9.36182 5.65735L5.4165 9.60168H18.8892C19.4551 9.60184 19.9143 10.0611 19.9146 10.6271C19.9146 11.1932 19.4553 11.6533 18.8892 11.6534H5.41748L9.36182 15.5978C9.76219 15.9982 9.76215 16.6486 9.36182 17.049C8.96142 17.4493 8.31104 17.4493 7.91064 17.049L2.21533 11.3527C2.18761 11.3249 2.16207 11.2957 2.13818 11.2657C2.10047 11.2184 2.06658 11.168 2.0376 11.1144C2.01084 11.0648 1.98821 11.0136 1.97021 10.9611C1.9662 10.9494 1.96209 10.9377 1.9585 10.9259C1.9579 10.9239 1.95713 10.922 1.95654 10.92L1.93506 10.8341C1.92141 10.7674 1.91455 10.6978 1.91455 10.6271C1.91459 10.5408 1.92568 10.4571 1.9458 10.3771C1.94988 10.3608 1.9536 10.3444 1.9585 10.3282C1.96201 10.3167 1.96631 10.3054 1.97021 10.2941C1.9984 10.2118 2.03674 10.1321 2.08643 10.0577C2.12397 10.0016 2.16775 9.95004 2.21533 9.90247L7.91064 4.20618Z" fill="#FF7500"/>
</svg>
