<svg width="1440" height="204" viewBox="0 0 1440 204" fill="none" xmlns="http://www.w3.org/2000/svg">
<g clip-path="url(#clip0_2136_1076)">
<rect width="1440" height="204" fill="#F7F7F7"/>
<path d="M207.5 -138C2.92261 -138 -163 27.9 -163 232.45C-163 436.999 2.92261 603 207.5 603C412.077 603 578 437.1 578 232.45C578 27.7991 412.077 -138 207.5 -138ZM202.353 15.9924C214.06 24.2672 224.355 34.3584 237.172 46.2661C239.595 48.3853 241.815 51.009 250.293 48.0825C267.652 42.936 307.417 23.359 335.878 20.7353C348.797 19.0198 352.228 20.7353 359.999 27.6982C374.936 40.4132 386.038 49.798 395.223 59.8893C365.853 63.2194 356.366 65.6413 350.008 67.155L346.98 67.8614H346.374C333.052 71.3933 328.914 80.5763 327.804 84.411C327.299 86.0256 326.896 88.2457 326.896 90.8694C326.896 95.1077 328.309 100.456 332.447 106.006C339.814 118.015 343.952 126.29 346.576 132.546C319.124 141.023 289.048 152.527 275.827 158.481C267.652 162.214 261.697 169.48 259.982 177.957C259.679 179.269 259.477 180.984 259.477 182.902C259.477 188.149 261.092 195.314 267.652 202.378C287.938 224.074 310.949 273.622 310.949 328.014C310.949 339.82 309.839 351.829 307.417 363.939C296.012 420.449 257.963 463.438 194.38 491.895C161.377 506.629 127.768 509.757 93.7562 508.546C95.6738 508.344 97.5914 508.142 99.408 507.941C163.294 500.17 208.106 478.07 239.191 422.871C282.084 346.682 249.586 253.238 185.296 200.259C167.029 185.223 145.935 173.618 125.649 161.508C120.502 158.481 117.676 153.94 124.135 146.169C134.631 131.234 152.192 108.025 181.461 84.7138C187.517 80.3745 184.993 76.9435 182.369 73.5125C171.974 64.9349 165.111 59.6875 152.192 51.9172C145.329 48.4862 142.503 44.8533 147.853 39.9086C154.312 34.0557 164.405 25.2763 188.829 14.8823C193.976 11.6531 199.426 13.6714 202.454 16.1942L202.353 15.9924ZM-38.8609 81.8882C-33.8145 71.7969 -21.8043 49.3944 -11.0052 35.8721C-8.38113 32.6429 -6.16073 31.3311 -0.407933 32.3402C9.98746 34.1566 28.4569 41.826 52.4774 48.5871C56.9181 49.798 59.5422 49.7981 63.2765 45.5597C73.0663 34.5603 100.72 9.13035 145.632 -9.53845C150.679 -11.6576 157.441 -11.7585 163.597 -8.73117C169.047 -6.10745 175.002 -3.48374 182.067 0.0481982C160.771 9.63488 149.669 18.3134 140.99 26.1845C133.622 32.9457 132.007 40.1104 132.007 45.1561C132.007 46.367 132.007 47.3762 132.209 48.2844C133.42 56.6601 138.87 63.4212 148.357 68.5678L149.568 69.2741C149.165 69.0723 148.761 68.7696 148.357 68.5678C155.22 72.7052 160.065 75.9344 164.808 79.3654C140.485 100.557 124.942 121.042 114.85 135.372C107.381 144.858 106.877 153.334 107.785 158.884C108.693 164.435 111.923 172.205 121.915 178.159L132.108 184.213C149.064 194.204 165.111 203.69 179.241 215.294C233.943 260.503 268.56 343.251 228.694 414.092C201.949 461.622 163.193 486.143 103.142 493.409C81.2414 496.134 60.3496 494.216 41.0727 489.272C49.0459 490.281 57.2209 490.785 65.7996 490.584C111.015 489.776 158.45 474.236 183.177 435.384C244.944 338.206 173.993 237.697 77.9108 205.91C56.1107 198.644 20.4837 190.874 -7.77558 187.342C-18.171 186.03 -20.6941 182.801 -17.4645 175.737C-11.8126 163.224 -0.508838 139.005 19.8782 108.226C20.7866 106.914 20.3828 103.483 16.4467 102.373C6.05132 99.447 -15.5469 93.594 -32.9062 90.9703C-39.0627 90.0621 -41.384 87.1356 -38.7599 82.09L-38.8609 81.8882ZM258.367 566.066C44.5042 598.863 -64.1933 438.21 -64.1933 438.21C-15.1431 485.74 68.3228 562.938 194.884 504.409C378.671 422.165 324.473 238.605 274.313 184.819C268.258 178.36 272.194 173.012 276.433 170.994C290.865 164.435 329.217 149.802 359.495 141.628C362.926 140.518 363.633 138.803 361.816 134.464C359.192 126.895 356.265 115.492 341.126 91.0712C336.383 85.9247 338.502 82.8973 343.75 81.5855C350.411 80.1727 355.962 77.549 394.213 73.4115C398.351 72.8061 402.792 74.4207 404.609 77.7508C412.784 92.2822 418.738 107.015 424.491 125.987C425.097 127.904 428.024 131.739 431.354 131.84C445.383 132.445 496.149 132.748 522.692 138.096C524.812 138.601 529.454 141.124 530.565 144.151C537.73 165.444 553.374 268.173 508.159 376.653C456.384 500.877 355.962 550.929 258.468 565.965L258.367 566.066Z" fill="#EDEDED"/>
</g>
<defs>
<clipPath id="clip0_2136_1076">
<rect width="1440" height="204" fill="white"/>
</clipPath>
</defs>
</svg>
