<svg width="26" height="21" viewBox="0 0 26 21" fill="none" xmlns="http://www.w3.org/2000/svg">
<path d="M11.5013 19.8196V11.5505C11.5013 10.6456 10.7522 9.9091 9.83214 9.90897H3.84858C2.92839 9.90897 2.17944 10.6456 2.17944 11.5505V19.8196C2.17944 20.2526 1.82237 20.6038 1.38208 20.6038C0.941782 20.6038 0.584717 20.2526 0.584717 19.8196V11.5505C0.584717 9.77952 2.0478 8.3406 3.84858 8.3406H9.83214C11.6328 8.34073 13.0954 9.77959 13.0954 11.5505V19.8196C13.0954 20.2525 12.7388 20.6036 12.2986 20.6038C11.8583 20.6038 11.5013 20.2526 11.5013 19.8196ZM23.99 19.5922V5.19247C23.9899 3.523 22.6164 2.17217 20.9189 2.17213H11.5342C9.83668 2.17214 8.46322 3.52298 8.46314 5.19247V7.30443C8.46307 7.73735 8.10598 8.08855 7.66578 8.08861C7.22553 8.08861 6.86849 7.73739 6.86842 7.30443V5.19247C6.8685 2.65695 8.95609 0.603776 11.5342 0.60376H20.9189C23.497 0.6038 25.5846 2.65696 25.5847 5.19247V19.5922C25.5847 20.0252 25.2276 20.3764 24.7874 20.3764C24.3471 20.3763 23.99 20.0251 23.99 19.5922Z" fill="white"/>
<path d="M22.474 6.6217H14.8387V9.12477H22.474V6.6217Z" fill="#FF7500"/>
<path d="M22.474 11.1727H14.8387V13.6757H22.474V11.1727Z" fill="#FF7500"/>
<path d="M22.474 15.7236H14.8387V18.2267H22.474V15.7236Z" fill="#FF7500"/>
<path d="M9.74843 11.1727H4.19542V13.6757H9.74843V11.1727Z" fill="#FF7500"/>
<path d="M9.74843 15.7236H4.19542V18.2267H9.74843V15.7236Z" fill="#FF7500"/>
</svg>
