<svg width="20" height="21" viewBox="0 0 20 21" fill="none" xmlns="http://www.w3.org/2000/svg">
<path d="M10.8837 10.6738L14.8169 6.74107C15.061 6.49692 15.061 6.10107 14.8169 5.85694C14.5727 5.61279 14.1769 5.61279 13.9328 5.85694L9.99999 9.7901L6.06724 5.85694C5.82309 5.61279 5.42724 5.61279 5.18311 5.85694C4.93898 6.10109 4.93896 6.49693 5.18311 6.74107L9.11628 10.6738L5.18311 14.6066C4.93896 14.8507 4.93896 15.2466 5.18311 15.4907C5.42726 15.7348 5.82311 15.7349 6.06724 15.4907L9.99999 11.5575L13.9327 15.4907C14.1769 15.7349 14.5727 15.7349 14.8169 15.4907C15.061 15.2466 15.061 14.8507 14.8169 14.6066L10.8837 10.6738Z" fill="#313131"/>
</svg>
