<svg width="24" height="24" viewBox="0 0 24 24" fill="none" xmlns="http://www.w3.org/2000/svg">
<g clip-path="url(#clip0_18117_21235)">
<path d="M23.3407 9.48L19.8397 3.48C18.9467 1.95 17.2927 1 15.5217 1H8.45067C6.67967 1 5.02467 1.951 4.13167 3.48L0.630672 9.48C-0.275328 11.034 -0.275328 12.965 0.630672 14.519L4.13167 20.519C5.02467 22.049 6.67867 22.999 8.44967 22.999H15.5207C17.2917 22.999 18.9467 22.048 19.8397 20.519L23.3397 14.519C24.2457 12.965 24.2467 11.034 23.3407 9.48ZM15.7067 14.292C16.0977 14.683 16.0977 15.315 15.7067 15.706C15.5117 15.901 15.2557 15.999 14.9997 15.999C14.7437 15.999 14.4877 15.901 14.2927 15.706L11.9997 13.413L9.70667 15.706C9.51167 15.901 9.25567 15.999 8.99967 15.999C8.74367 15.999 8.48767 15.901 8.29267 15.706C7.90167 15.315 7.90167 14.683 8.29267 14.292L10.5857 11.999L8.29267 9.706C7.90167 9.315 7.90167 8.683 8.29267 8.292C8.68367 7.901 9.31567 7.901 9.70667 8.292L11.9997 10.585L14.2927 8.292C14.6837 7.901 15.3157 7.901 15.7067 8.292C16.0977 8.683 16.0977 9.315 15.7067 9.706L13.4137 11.999L15.7067 14.292Z" fill="#E60003"/>
</g>
<defs>
<clipPath id="clip0_18117_21235">
<rect width="24" height="24" fill="white"/>
</clipPath>
</defs>
</svg>
