<svg width="32" height="31" viewBox="0 0 32 31" fill="none" xmlns="http://www.w3.org/2000/svg">
<path d="M13.6435 20.6215C13.6435 19.3231 13.6435 18.0247 13.6435 16.7263C13.6435 16.528 13.5406 16.4289 13.335 16.4289C12.5723 16.4289 11.8096 16.424 11.0469 16.4313C10.8744 16.4313 10.8186 16.3781 10.821 16.204C10.8283 15.2465 10.8283 14.289 10.821 13.3315C10.821 13.1598 10.872 13.1018 11.0469 13.1042C11.8412 13.1115 12.633 13.1042 13.4273 13.1115C13.6046 13.1115 13.6508 13.0535 13.6508 12.8842C13.6435 12.1903 13.641 11.4963 13.6508 10.8024C13.6605 10.1181 13.7358 9.44111 13.9932 8.79794C14.5009 7.53338 15.4458 6.7935 16.7623 6.50093C17.5274 6.33168 18.3047 6.38729 19.0771 6.41147C19.473 6.42356 19.8665 6.47433 20.2624 6.4961C20.4033 6.50335 20.447 6.55896 20.447 6.69436C20.4421 7.55514 20.4421 8.41833 20.447 9.27911C20.447 9.43143 20.3911 9.47254 20.2478 9.47254C19.7742 9.46529 19.2981 9.46045 18.8245 9.47254C18.533 9.47979 18.2366 9.48946 17.95 9.56925C17.5638 9.68048 17.2966 9.9126 17.1825 10.3043C17.129 10.4832 17.0926 10.6646 17.0926 10.8507C17.0902 11.5398 17.0926 12.2265 17.0877 12.9156C17.0877 13.0655 17.1363 13.1115 17.2845 13.1115C18.2221 13.1067 19.1596 13.1091 20.0972 13.1115C20.3353 13.1115 20.3377 13.1163 20.3086 13.3557C20.1847 14.3156 20.0584 15.2755 19.9418 16.2378C19.9223 16.3926 19.8543 16.4361 19.7086 16.4361C18.9143 16.4313 18.1225 16.4361 17.3282 16.4361C17.0926 16.4361 17.0902 16.4361 17.0902 16.6755C17.0902 19.2917 17.0902 21.9054 17.0902 24.5216C17.0902 24.7118 16.9954 24.8077 16.806 24.8093C15.8514 24.8093 14.8944 24.8093 13.9398 24.8093C13.7471 24.8093 13.6499 24.715 13.6483 24.5264C13.6483 23.228 13.6483 21.9296 13.6483 20.6312L13.6435 20.6215Z" fill="white"/>
<path d="M30.336 10.9589C30.3358 6.04102 26.3304 2.04873 21.382 2.04859H11.1073C6.15879 2.04859 2.15274 6.04093 2.15259 10.9589V20.2487L2.15542 20.4787C2.27796 25.2906 6.23606 29.1589 11.1073 29.1589H21.382C26.3305 29.1588 30.336 25.1666 30.336 20.2487V10.9589ZM31.7808 20.2487C31.7808 25.9708 27.1222 30.6036 21.382 30.6038H11.1073C5.45664 30.6038 0.853711 26.1145 0.711291 20.516L0.707764 20.2487V10.9589C0.707905 5.23676 5.36706 0.60376 11.1073 0.60376H21.382C27.1221 0.603895 31.7807 5.23685 31.7808 10.9589V20.2487Z" fill="white"/>
</svg>
