<svg width="48" height="48" viewBox="0 0 48 48" fill="none" xmlns="http://www.w3.org/2000/svg">
<path d="M24.0032 0C10.9816 0 0.42041 10.6091 0.42041 23.6898C0.42041 36.7704 10.9816 47.386 24.0032 47.386C37.0249 47.386 47.5861 36.7769 47.5861 23.6898C47.5861 10.6026 37.0249 0 24.0032 0ZM23.6756 9.84761C24.4208 10.3768 25.0761 11.0221 25.8919 11.7836C26.0461 11.9191 26.1874 12.0869 26.7271 11.8997C27.832 11.5706 30.3631 10.3187 32.1747 10.1509C32.997 10.0412 33.2154 10.1509 33.71 10.5962C34.6608 11.4093 35.3675 12.0094 35.9521 12.6548C34.0826 12.8677 33.4788 13.0226 33.0741 13.1194L32.8813 13.1646H32.8428C31.9948 13.3904 31.7314 13.9777 31.6608 14.2229C31.6286 14.3261 31.6029 14.4681 31.6029 14.6359C31.6029 14.9069 31.6929 15.2489 31.9563 15.6039C32.4252 16.3718 32.6886 16.901 32.8556 17.3011C31.1083 17.8431 29.1939 18.5788 28.3524 18.9595C27.832 19.1983 27.453 19.6629 27.3438 20.205C27.3245 20.2889 27.3117 20.3986 27.3117 20.5212C27.3117 20.8568 27.4144 21.315 27.832 21.7667C29.1232 23.1541 30.5879 26.3227 30.5879 29.8009C30.5879 30.556 30.5173 31.3239 30.3631 32.0983C29.6372 35.7121 27.2153 38.4612 23.1681 40.281C21.0674 41.2231 18.9282 41.4232 16.7633 41.3458C16.8854 41.3328 17.0074 41.3199 17.123 41.307C21.1895 40.8101 24.0418 39.3969 26.0204 35.867C28.7506 30.9948 26.6821 25.0191 22.5899 21.6312C21.4272 20.6697 20.0845 19.9275 18.7933 19.1531C18.4657 18.9595 18.2858 18.6692 18.6969 18.1723C19.3651 17.2172 20.4828 15.7329 22.3458 14.2422C22.7313 13.9648 22.5707 13.7453 22.4036 13.5259C21.742 12.9774 21.3051 12.6419 20.4828 12.145C20.046 11.9255 19.8661 11.6932 20.2066 11.377C20.6177 11.0027 21.2602 10.4413 22.8148 9.77662C23.1424 9.57012 23.4893 9.69918 23.682 9.86051L23.6756 9.84761ZM8.32204 14.0616C8.64324 13.4162 9.40771 11.9836 10.0951 11.1189C10.2621 10.9124 10.4034 10.8285 10.7696 10.893C11.4313 11.0092 12.6069 11.4996 14.1358 11.932C14.4185 12.0094 14.5855 12.0094 14.8232 11.7384C15.4464 11.035 17.2066 9.40879 20.0653 8.21494C20.3865 8.07943 20.8169 8.07297 21.2088 8.26657C21.5557 8.43435 21.9347 8.60214 22.3844 8.828C21.0289 9.44105 20.3222 9.99603 19.7698 10.4994C19.3008 10.9317 19.198 11.3899 19.198 11.7126C19.198 11.79 19.198 11.8546 19.2109 11.9126C19.288 12.4483 19.6349 12.8806 20.2387 13.2097L20.3158 13.2549C20.2901 13.242 20.2644 13.2226 20.2387 13.2097C20.6756 13.4743 20.9839 13.6808 21.2859 13.9002C19.7376 15.2554 18.7483 16.5654 18.1059 17.4818C17.6305 18.0884 17.5984 18.6304 17.6562 18.9854C17.7141 19.3403 17.9196 19.8372 18.5556 20.2179L19.2044 20.6051C20.2837 21.244 21.3051 21.8506 22.2045 22.5927C25.6864 25.4837 27.8898 30.7754 25.3523 35.3055C23.6499 38.345 21.1831 39.9131 17.3607 40.3778C15.9667 40.552 14.6369 40.4294 13.4099 40.1132C13.9174 40.1777 14.4378 40.21 14.9838 40.1971C17.8618 40.1455 20.8811 39.1517 22.455 36.6672C26.3866 30.4527 21.8704 24.0253 15.7547 21.9926C14.3671 21.5279 12.0994 21.031 10.3007 20.8052C9.63898 20.7213 9.47838 20.5148 9.68395 20.063C10.0437 19.2628 10.7632 17.7141 12.0609 15.7458C12.1187 15.662 12.093 15.4425 11.8424 15.3716C11.1808 15.1844 9.80601 14.8101 8.70106 14.6423C8.30919 14.5843 8.16144 14.3971 8.32846 14.0745L8.32204 14.0616ZM27.241 45.0241C13.6283 47.1214 6.7096 36.8479 6.7096 36.8479C9.8317 39.8873 15.1444 44.824 23.2002 41.0812C34.8985 35.8218 31.4488 24.0834 28.256 20.6438C27.8705 20.2308 28.1211 19.8888 28.3909 19.7597C29.3095 19.3403 31.7507 18.4046 33.6779 17.8819C33.8963 17.8109 33.9413 17.7012 33.8257 17.4237C33.6586 16.9397 33.4724 16.2105 32.5087 14.6488C32.2068 14.3197 32.3417 14.1261 32.6758 14.0422C33.0998 13.9519 33.4531 13.7841 35.8878 13.5195C36.1512 13.4808 36.4339 13.584 36.5495 13.797C37.0698 14.7262 37.4489 15.6684 37.815 16.8816C37.8536 17.0042 38.0399 17.2494 38.2519 17.2559C39.1448 17.2946 42.3761 17.314 44.0657 17.656C44.2006 17.6883 44.4961 17.8496 44.5668 18.0432C45.0229 19.4048 46.0186 25.9742 43.1406 32.9114C39.845 40.8553 33.4531 44.0561 27.2474 45.0176L27.241 45.0241Z" fill="#FF7500"/>
</svg>
