<svg width="19" height="15" viewBox="0 0 19 15" fill="none" xmlns="http://www.w3.org/2000/svg">
<path d="M6.91064 1.20618C7.31104 0.805785 7.96142 0.805785 8.36182 1.20618C8.7621 1.60658 8.76217 2.25699 8.36182 2.65735L4.4165 6.60168H17.8892C18.4551 6.60184 18.9143 7.06113 18.9146 7.62708C18.9146 8.19322 18.4553 8.65329 17.8892 8.65344H4.41748L8.36182 12.5978C8.76219 12.9982 8.76215 13.6486 8.36182 14.049C7.96142 14.4493 7.31104 14.4493 6.91064 14.049L1.21533 8.35266C1.18761 8.32494 1.16207 8.29569 1.13818 8.26575C1.10047 8.21843 1.06658 8.16797 1.0376 8.11438C1.01084 8.06478 0.988215 8.01358 0.970215 7.96106C0.966204 7.9494 0.962094 7.93775 0.958496 7.9259C0.9579 7.92393 0.957127 7.92202 0.956543 7.92004L0.935059 7.83411C0.921405 7.76739 0.914551 7.69781 0.914551 7.62708C0.914587 7.54081 0.925685 7.45713 0.945801 7.37708C0.949883 7.36079 0.953604 7.34436 0.958496 7.32825C0.962013 7.31671 0.966306 7.30543 0.970215 7.29407C0.998401 7.2118 1.03674 7.13206 1.08643 7.05774C1.12397 7.00161 1.16775 6.95004 1.21533 6.90247L6.91064 1.20618Z" fill="#FF7500"/>
</svg>
