<svg width="21" height="15" viewBox="0 0 21 15" fill="none" xmlns="http://www.w3.org/2000/svg">
<path d="M10.4993 11.4378C11.5841 11.4378 12.5046 11.0597 13.2608 10.3035C14.0171 9.5472 14.3952 8.62671 14.3952 7.54199C14.3952 6.45727 14.0171 5.53678 13.2608 4.78053C12.5046 4.02428 11.5841 3.64616 10.4993 3.64616C9.41463 3.64616 8.49414 4.02428 7.73789 4.78053C6.98164 5.53678 6.60352 6.45727 6.60352 7.54199C6.60352 8.62671 6.98164 9.5472 7.73789 10.3035C8.49414 11.0597 9.41463 11.4378 10.4993 11.4378ZM10.4993 10.1087C9.78129 10.1087 9.174 9.8604 8.67747 9.36387C8.18095 8.86734 7.93268 8.26005 7.93268 7.54199C7.93268 6.82394 8.18095 6.21664 8.67747 5.72012C9.174 5.22359 9.78129 4.97533 10.4993 4.97533C11.2174 4.97533 11.8247 5.22359 12.3212 5.72012C12.8178 6.21664 13.066 6.82394 13.066 7.54199C13.066 8.26005 12.8178 8.86734 12.3212 9.36387C11.8247 9.8604 11.2174 10.1087 10.4993 10.1087ZM10.4993 14.417C8.26879 14.417 6.25213 13.783 4.44935 12.5149C2.64657 11.2469 1.30213 9.58921 0.416016 7.54199C1.30213 5.49477 2.64657 3.83713 4.44935 2.56908C6.25213 1.30102 8.26879 0.666992 10.4993 0.666992C12.7299 0.666992 14.7466 1.30102 16.5493 2.56908C18.3521 3.83713 19.6966 5.49477 20.5827 7.54199C19.6966 9.58921 18.3521 11.2469 16.5493 12.5149C14.7466 13.783 12.7299 14.417 10.4993 14.417ZM10.4993 13.042C12.348 13.042 14.0476 12.5416 15.5983 11.541C17.149 10.5403 18.3292 9.20727 19.1389 7.54199C18.3292 5.87671 17.149 4.54373 15.5983 3.54303C14.0476 2.54234 12.348 2.04199 10.4993 2.04199C8.65074 2.04199 6.95108 2.54234 5.40039 3.54303C3.8497 4.54373 2.66185 5.87671 1.83685 7.54199C2.66185 9.20727 3.8497 10.5403 5.40039 11.541C6.95108 12.5416 8.65074 13.042 10.4993 13.042Z" fill="#5D6977"/>
</svg>
