<svg width="22" height="19" viewBox="0 0 22 19" fill="none" xmlns="http://www.w3.org/2000/svg">
<path d="M14.4139 10.3978L13.4056 9.3895C13.8028 8.30478 13.5966 7.40339 12.7868 6.68533C11.9771 5.96728 11.0987 5.78395 10.1514 6.13533L9.1431 5.127C9.40282 4.95895 9.6931 4.83672 10.0139 4.76033C10.3348 4.68395 10.6632 4.64575 10.9993 4.64575C12.0841 4.64575 13.0046 5.02388 13.7608 5.78013C14.5171 6.53638 14.8952 7.45686 14.8952 8.54158C14.8952 8.8777 14.8532 9.20999 14.7691 9.53846C14.6851 9.86693 14.5667 10.1534 14.4139 10.3978ZM17.3702 13.3541L16.4535 12.4374C17.2021 11.8874 17.8553 11.2725 18.4129 10.5926C18.9705 9.91276 19.3792 9.22908 19.6389 8.54158C18.875 6.84575 17.7292 5.50513 16.2014 4.51971C14.6737 3.53429 13.016 3.04159 11.2285 3.04159C10.5868 3.04159 9.9299 3.1027 9.25768 3.22492C8.58546 3.34714 8.05838 3.49228 7.67643 3.66034L6.62226 2.58325C7.15699 2.33881 7.84067 2.12492 8.67331 1.94159C9.50594 1.75825 10.3195 1.66659 11.1139 1.66659C13.2987 1.66659 15.2962 2.28915 17.1066 3.53429C18.9171 4.77943 20.2424 6.44853 21.0827 8.54158C20.6855 9.51936 20.1737 10.4131 19.5473 11.2228C18.9209 12.0326 18.1952 12.743 17.3702 13.3541ZM18.6993 18.5332L14.8493 14.752C14.3146 14.9659 13.7112 15.1301 13.0389 15.2447C12.3667 15.3593 11.6868 15.4166 10.9993 15.4166C8.76879 15.4166 6.74449 14.794 4.92643 13.5489C3.10838 12.3037 1.77157 10.6346 0.916016 8.54158C1.22157 7.74714 1.64553 6.97179 2.18789 6.21554C2.73025 5.45929 3.39102 4.73742 4.17018 4.04992L1.28268 1.16242L2.24518 0.177002L19.5931 17.5249L18.6993 18.5332ZM5.10976 5.01242C4.54449 5.42492 3.99831 5.96728 3.47122 6.6395C2.94414 7.31172 2.56602 7.94575 2.33685 8.54158C3.11602 10.2374 4.28858 11.578 5.85456 12.5635C7.42053 13.5489 9.19657 14.0416 11.1827 14.0416C11.6868 14.0416 12.1834 14.011 12.6723 13.9499C13.1612 13.8888 13.5278 13.7971 13.7723 13.6749L12.3056 12.2083C12.1375 12.2846 11.9313 12.3419 11.6868 12.3801C11.4424 12.4183 11.2132 12.4374 10.9993 12.4374C9.9299 12.4374 9.01324 12.0631 8.24935 11.3145C7.48546 10.5659 7.10351 9.64158 7.10351 8.54158C7.10351 8.31242 7.12261 8.08325 7.16081 7.85408C7.199 7.62492 7.25629 7.41867 7.33268 7.23533L5.10976 5.01242Z" fill="#5D6977"/>
</svg>
