<svg width="15" height="15" viewBox="0 0 15 15" fill="none" xmlns="http://www.w3.org/2000/svg">
<path d="M7.91406 14.6276C9.86823 14.6276 11.5234 13.9494 12.8797 12.5932C14.2359 11.2369 14.9141 9.58173 14.9141 7.62756C14.9141 5.6734 14.2359 4.01819 12.8797 2.66194C11.5234 1.30569 9.86823 0.627563 7.91406 0.627563C6.90781 0.627563 5.94531 0.835376 5.02656 1.251C4.10781 1.66663 3.32031 2.2609 2.66406 3.03381V0.627563H0.914062V6.75256H7.03906V5.00256H3.36406C3.83073 4.1859 4.46875 3.54423 5.27812 3.07756C6.0875 2.6109 6.96615 2.37756 7.91406 2.37756C9.3724 2.37756 10.612 2.88798 11.6328 3.90881C12.6536 4.92965 13.1641 6.16923 13.1641 7.62756C13.1641 9.0859 12.6536 10.3255 11.6328 11.3463C10.612 12.3671 9.3724 12.8776 7.91406 12.8776C6.79115 12.8776 5.7776 12.5567 4.87344 11.9151C3.96927 11.2734 3.3349 10.4276 2.97031 9.37756H1.13281C1.54115 10.9234 2.3724 12.1849 3.62656 13.1619C4.88073 14.139 6.3099 14.6276 7.91406 14.6276Z" fill="#FF7500"/>
</svg>
