<svg width="29" height="20" viewBox="0 0 29 20" fill="none" xmlns="http://www.w3.org/2000/svg">
<path d="M0.273358 18.7935C0.260219 18.7345 0.25365 18.685 0.25 18.6507C0.258029 12.8356 0.266059 7.01979 0.273358 1.20395C0.312775 1.06411 0.440516 0.675904 0.822278 0.367086C1.08725 0.154409 1.42375 0.0320472 1.82887 0C10.0992 0 18.3694 0 26.6397 0C26.7536 0.00509842 27.5733 0.0524409 28.0128 0.707223C28.1682 0.939565 28.2266 1.17409 28.25 1.34016C28.2456 7.11156 28.2412 12.883 28.2369 18.6544C28.2383 18.6784 28.2391 18.7126 28.2369 18.7534C28.2157 19.181 27.9266 19.481 27.8478 19.5626C27.4011 20.0266 26.7412 20.0033 26.6405 19.9982C18.3702 19.9982 10.0999 19.9982 1.8296 19.9982C1.68215 19.9909 1.12594 19.945 0.685048 19.4985C0.428837 19.2392 0.320805 18.9545 0.274088 18.7942L0.273358 18.7935ZM1.56901 0.887853C1.2982 1.00366 1.08287 1.25057 1.0909 1.5572V18.441C1.08506 18.7789 1.37558 19.1212 1.71865 19.1242L27.0325 19.0805C27.0609 19.079 27.196 19.071 27.3011 18.961C27.4288 18.827 27.4062 18.6536 27.4033 18.6318C27.4128 12.9405 27.4222 7.24849 27.4317 1.5572C27.4179 1.22945 27.1492 0.869644 26.8032 0.874743L1.56901 0.887853Z" fill="#173748"/>
<path d="M14.5199 7.11636L25.5625 7.13967C26.1144 7.36618 25.8866 7.99402 25.3275 7.97945H14.6688C14.0469 7.98601 13.89 7.27077 14.5199 7.11636Z" fill="#173748"/>
<path d="M19.0782 14.451H25.837C26.1541 15.2093 25.6755 17.39 25.3542 17.3412H19.0783C18.7209 17.3631 18.7162 14.9679 19.0782 14.451Z" fill="#FF7500"/>
<path d="M14.5199 9.84756L25.5625 9.87087C26.1144 10.0974 25.8866 10.7252 25.3275 10.7107H14.6688C14.0469 10.7172 13.89 10.002 14.5199 9.84756Z" fill="#173748"/>
<path d="M3.14697 2.8902H11.353C11.7607 5.67066 11.7661 10.2945 11.353 10.1157L9.4231 8.6706L8.94034 5.7804L7.0093 4.817L5.56103 5.7804L5.07827 8.6706L3.14723 10.5974C2.68774 10.6779 2.68154 4.78556 3.14697 2.8902Z" fill="#FF7500"/>
<path d="M16.9789 4.38539L25.3806 4.37228C26.0448 4.42617 26.0434 5.19239 25.3806 5.24629H17.0753C16.5125 5.24848 16.4169 4.4859 16.9789 4.38539Z" fill="#173748"/>
<path d="M5.23121 16.9493L11.5577 16.9354C12.2037 17.0127 12.1788 17.7454 11.5577 17.8124L5.32757 17.8109C4.74945 17.8058 4.65383 17.0534 5.23121 16.9493Z" fill="#173748"/>
<path d="M14.5197 4.38539C15.6789 4.17344 15.6789 5.44513 14.5197 5.23318C13.9854 5.13559 13.9854 4.48299 14.5197 4.38539Z" fill="#173748"/>
<path d="M2.82676 16.9493C3.8173 16.7461 3.85598 17.9581 2.87202 17.8066C2.32529 17.7221 2.30923 17.0556 2.82676 16.9493Z" fill="#173748"/>
<path d="M19.5483 13.6732C21.3834 13.6681 23.2192 13.6623 25.0543 13.6572C25.1309 13.6572 25.5237 13.6674 25.8134 13.9784C25.9806 14.1568 26.0383 14.3542 26.0594 14.4547C26.0609 15.2916 26.0624 16.1285 26.0638 16.9653C26.0638 17.0105 26.0529 17.4125 25.7105 17.6616C25.4251 17.8699 25.112 17.8226 25.0536 17.8124H19.695C19.6556 17.8219 19.2906 17.9049 18.9826 17.6514C18.6899 17.4096 18.6884 17.06 18.6892 17.0156C18.6877 16.1787 18.6863 15.3418 18.6848 14.505C18.6797 14.446 18.6614 14.1794 18.8498 13.9485C19.1074 13.6324 19.5169 13.671 19.5469 13.6739L19.5483 13.6732ZM25.2441 14.5327H19.5067V16.9362H25.2441V14.5327Z" fill="#173748"/>
<path d="M3.32015 2.20177L11.0123 2.18575C11.1036 2.1872 11.4182 2.2025 11.6926 2.4414C11.8831 2.60673 11.9634 2.8012 11.9948 2.89661V13.2784C11.9467 13.4117 11.8598 13.5894 11.6919 13.7337C11.5678 13.8407 11.3634 13.9594 11.0116 13.9893C10.4649 14.0359 7.5115 14.0447 3.4676 13.9893C3.37636 13.9879 3.06175 13.9726 2.78729 13.7337C2.59678 13.5683 2.51648 13.3739 2.48509 13.2784L2.45809 3.03354C2.55152 2.57323 2.85153 2.26951 3.32088 2.2025L3.32015 2.20177ZM11.2014 9.72558V3.14352L11.1196 3.06195H3.36103L3.27928 3.14352V9.7263C3.74206 9.11522 4.30266 8.60902 4.96837 8.22518C4.2501 7.01103 4.75158 5.40722 5.95526 4.72694C8.23415 3.43996 10.7758 5.96076 9.51301 8.22518C10.178 8.60975 10.7393 9.11449 11.2014 9.72558ZM9.00716 6.99282C9.00716 6.01684 8.2159 5.22513 7.23923 5.22513C6.26257 5.22513 5.4713 6.01684 5.4713 6.99282C5.4713 7.96881 6.26257 8.76052 7.23923 8.76052C8.2159 8.76052 9.00716 7.96881 9.00716 6.99282ZM3.27855 12.1022C3.25081 12.3993 3.29825 12.7293 3.27855 13.0308L3.3603 13.1124H11.1189L11.2007 13.0308V12.1022C11.2007 11.9303 11.0569 11.4044 10.9977 11.2129C10.6977 10.2463 9.8977 9.34902 8.98745 8.92221C8.01006 9.82463 6.46987 9.82463 5.49174 8.92221C4.28514 9.49178 3.40191 10.7686 3.27855 12.1022Z" fill="#173748"/>
</svg>
