<svg width="16" height="21" viewBox="0 0 16 21" fill="none" xmlns="http://www.w3.org/2000/svg">
<path d="M2.04102 20.166C1.65907 20.166 1.33442 20.0323 1.06706 19.765C0.799696 19.4976 0.666016 19.173 0.666016 18.791V8.84518C0.666016 8.46324 0.799696 8.13858 1.06706 7.87122C1.33442 7.60386 1.65907 7.47018 2.04102 7.47018H3.64518V5.27018C3.64518 4.06324 4.06914 3.03581 4.91706 2.18789C5.76497 1.33997 6.7924 0.916016 7.99935 0.916016C9.20629 0.916016 10.2337 1.33997 11.0816 2.18789C11.9296 3.03581 12.3535 4.06324 12.3535 5.27018V7.47018H13.9577C14.3396 7.47018 14.6643 7.60386 14.9316 7.87122C15.199 8.13858 15.3327 8.46324 15.3327 8.84518V18.791C15.3327 19.173 15.199 19.4976 14.9316 19.765C14.6643 20.0323 14.3396 20.166 13.9577 20.166H2.04102ZM2.04102 18.791H13.9577V8.84518H2.04102V18.791ZM7.99935 15.5827C8.48824 15.5827 8.90456 15.4146 9.24831 15.0785C9.59206 14.7424 9.76393 14.3375 9.76393 13.8639C9.76393 13.4056 9.59206 12.9893 9.24831 12.615C8.90456 12.2407 8.48824 12.0535 7.99935 12.0535C7.51046 12.0535 7.09414 12.2407 6.75039 12.615C6.40664 12.9893 6.23477 13.4056 6.23477 13.8639C6.23477 14.3375 6.40664 14.7424 6.75039 15.0785C7.09414 15.4146 7.51046 15.5827 7.99935 15.5827ZM5.02018 7.47018H10.9785V5.27018C10.9785 4.44518 10.6882 3.7424 10.1077 3.16185C9.52713 2.58129 8.82435 2.29102 7.99935 2.29102C7.17435 2.29102 6.47157 2.58129 5.89102 3.16185C5.31046 3.7424 5.02018 4.44518 5.02018 5.27018V7.47018Z" fill="#5D6977"/>
</svg>
