<svg width="24" height="20" viewBox="0 0 24 20" fill="none" xmlns="http://www.w3.org/2000/svg">
<path d="M11.7458 20C8.16818 20 4.59054 20 1.01289 20C0.344425 20 0.255995 19.9168 0.255995 19.3022C0.255995 15.6441 0.260492 11.9874 0.25 8.33075C0.25 8.0103 0.351919 7.78973 0.629197 7.59691C1.18675 7.20849 1.71583 6.78539 2.27039 6.39419C2.48172 6.24438 2.55366 6.0793 2.55066 5.83792C2.53867 4.81138 2.54317 3.78484 2.54617 2.7583C2.54767 2.25058 2.68106 2.1299 3.23712 2.12851C4.68346 2.12573 6.12981 2.12157 7.57465 2.13267C7.87741 2.13545 8.11572 2.07025 8.35253 1.88297C8.94007 1.41825 9.55008 0.978508 10.1571 0.535986C11.1373 -0.179817 12.2959 -0.178429 13.2836 0.538761C13.9206 1.00209 14.5441 1.48068 15.1916 1.93152C15.346 2.03973 15.5678 2.11741 15.7596 2.1188C17.2434 2.13406 18.7258 2.12712 20.2096 2.12712C20.8391 2.12712 20.9455 2.227 20.9455 2.81657C20.9455 3.84311 20.9365 4.86965 20.9575 5.89618C20.9605 6.05155 21.0669 6.24854 21.1943 6.35119C21.7713 6.80897 22.3858 7.22514 22.9599 7.68569C23.1068 7.8036 23.2372 8.02833 23.2372 8.20451C23.2536 11.9542 23.2506 15.7024 23.2476 19.4521C23.2476 19.889 23.1023 20 22.5537 20C18.9506 20 15.349 20 11.7458 20ZM3.5084 2.99829C3.49641 3.07043 3.48292 3.11482 3.48292 3.15782C3.48292 5.15403 3.47692 7.14884 3.49041 9.14504C3.49041 9.26157 3.60732 9.41555 3.71823 9.48907C4.72243 10.1522 5.73712 10.8014 6.75031 11.4534C7.67957 12.0513 8.61033 12.6464 9.5246 13.2318C9.56657 13.2165 9.58006 13.2151 9.58905 13.2082C9.68197 13.1499 9.7764 13.0944 9.86483 13.0306C11.0114 12.1941 12.182 12.0998 13.402 12.9044C13.4919 12.964 13.7138 12.9418 13.8217 12.8794C15.8016 11.7197 17.7695 10.5461 19.7479 9.38364C19.9503 9.26434 20.0282 9.13533 20.0267 8.9106C20.0162 7.05312 20.0207 5.19564 20.0207 3.33816C20.0207 3.22857 20.0072 3.11759 19.9997 2.99691H3.5084V2.99829ZM21.1448 19.1358C21.1598 19.1108 21.1748 19.0858 21.1898 19.0622C20.7896 18.7987 20.3894 18.5351 19.9878 18.2729C17.5867 16.704 15.1871 15.1323 12.783 13.5675C12.0651 13.1 11.3891 13.0903 10.7027 13.5397C7.97783 15.3251 5.2605 17.116 2.54017 18.9069C2.45924 18.9596 2.39029 19.0289 2.26139 19.1358H21.1463H21.1448ZM22.3169 8.87731C19.655 10.4546 17.0516 11.9958 14.3957 13.5689C17.0591 15.3084 19.664 17.0092 22.3169 18.7418V8.87592V8.87731ZM1.20024 8.92309V18.7321C3.73772 17.0633 6.22273 15.4291 8.73773 13.7742C6.20475 12.1442 3.72723 10.5489 1.20024 8.92309ZM13.7977 2.11464C13.8112 2.09105 13.8247 2.06747 13.8382 2.04389C13.444 1.75257 13.0558 1.45432 12.6541 1.17133C12.0501 0.745456 11.3636 0.752392 10.7611 1.18243C10.4359 1.41548 10.1196 1.65686 9.80188 1.89823C9.73443 1.94956 9.68347 2.01753 9.59204 2.11464H13.7977ZM20.971 8.65535C21.3442 8.4334 21.6514 8.25168 21.9916 8.05053C21.6334 7.78696 21.3262 7.56223 20.971 7.30005V8.65535ZM2.52219 7.29727C2.15048 7.57749 1.83873 7.81193 1.4985 8.06856C1.85672 8.29745 2.16547 8.49583 2.52219 8.72333V7.29727Z" fill="#173748"/>
<path d="M13.7975 2.11317H9.59184C9.68477 2.01745 9.73572 1.94809 9.80167 1.89676C10.1179 1.65538 10.4357 1.41401 10.7609 1.18096C11.3634 0.749533 12.0499 0.743984 12.6539 1.16986C13.0556 1.45285 13.4438 1.7511 13.838 2.04242C13.8245 2.066 13.811 2.08958 13.7975 2.11317Z" fill="#FF7500"/>
<path d="M20.971 8.65535V7.30005C21.3262 7.56223 21.6319 7.78696 21.9916 8.05053C21.6529 8.25168 21.3442 8.43479 20.971 8.65535Z" fill="#FF7500"/>
<path d="M2.52219 7.29727V8.72333C2.16547 8.49583 1.85522 8.29745 1.4985 8.06856C1.84023 7.81193 2.15048 7.57749 2.52219 7.29727Z" fill="#FF7500"/>
<path d="M11.7549 17.4536C12.5198 17.4536 13.1398 16.8798 13.1398 16.1719C13.1398 15.4639 12.5198 14.8901 11.7549 14.8901C10.9901 14.8901 10.37 15.4639 10.37 16.1719C10.37 16.8798 10.9901 17.4536 11.7549 17.4536Z" fill="#FF7500"/>
<path d="M13.2683 5.35496L13.3429 5.36193C13.5119 5.39529 13.6393 5.53957 13.6393 5.71214C13.6393 5.8847 13.5119 6.02899 13.3429 6.06235L13.2683 6.06932L6.18565 6.06932C5.98077 6.06932 5.81467 5.90941 5.81467 5.71214C5.81467 5.51487 5.98077 5.35496 6.18565 5.35496L13.2683 5.35496Z" fill="#173748"/>
<path d="M17.315 7.31946C17.5199 7.31946 17.686 7.47938 17.686 7.67665C17.686 7.87391 17.5199 8.03383 17.315 8.03383L6.18565 8.03383C5.98077 8.03383 5.81467 7.87391 5.81467 7.67665C5.81467 7.47938 5.98077 7.31946 6.18565 7.31946L17.315 7.31946Z" fill="#173748"/>
<path d="M17.3149 5.35496C17.5198 5.35496 17.6859 5.51487 17.6859 5.71214C17.6859 5.90941 17.5198 6.06932 17.3149 6.06932H14.2797C14.0748 6.06932 13.9087 5.90941 13.9087 5.71214C13.9087 5.51487 14.0748 5.35496 14.2797 5.35496H17.3149Z" fill="#173748"/>
<path d="M9.22086 9.28397C9.42575 9.28397 9.59184 9.44389 9.59184 9.64115C9.59184 9.83842 9.42575 9.99834 9.22086 9.99834H6.18565C5.98077 9.99834 5.81467 9.83842 5.81467 9.64115C5.81467 9.44389 5.98077 9.28397 6.18565 9.28397H9.22086Z" fill="#173748"/>
</svg>
