<svg width="98" height="97" viewBox="0 0 98 97" fill="none" xmlns="http://www.w3.org/2000/svg">
<g clip-path="url(#clip0_17878_406171)">
<path d="M19.2067 43.4828C19.5767 43.5028 19.957 43.4885 20.3166 43.5487C20.9804 43.6605 21.3953 44.0273 21.4022 44.589C21.4057 45.1535 20.9873 45.5318 20.3235 45.6292C19.5629 45.741 18.778 45.7381 18.0174 45.6349C17.3259 45.5404 16.8764 45.185 16.8972 44.5603C16.9179 43.9728 17.357 43.6547 18.0105 43.5487C18.3977 43.4857 18.8057 43.5028 19.2067 43.4857V43.4828Z" fill="#FF7500"/>
<path d="M28.2167 43.4857C28.587 43.5057 28.9676 43.4914 29.3274 43.5515C29.9952 43.6632 30.4069 44.027 30.4139 44.5884C30.4208 45.1527 30.0021 45.5308 29.3378 45.6282C28.5766 45.7427 27.7912 45.737 27.0299 45.6339C26.3379 45.5394 25.8881 45.1842 25.9089 44.5598C25.9262 43.9726 26.3691 43.6518 27.0196 43.5458C27.4071 43.4828 27.8154 43.5 28.2167 43.4828V43.4857Z" fill="#FF7500"/>
<path d="M82.7628 55.9059C83.5326 55.9396 84.0599 55.8848 84.5787 56.0367C85.2676 56.2392 85.6546 56.6737 85.7014 57.3825C85.7524 58.1335 85.4207 58.7115 84.702 58.9267C83.5708 59.2642 82.4014 59.26 81.2659 58.9562C80.5515 58.7664 80.1348 58.2221 80.1603 57.4754C80.1858 56.6864 80.6621 56.1675 81.4361 56.0114C81.9464 55.9059 82.4822 55.927 82.7671 55.9059H82.7628Z" fill="#FF7500"/>
<path d="M27.3656 6.7464C27.7823 6.77171 28.2501 6.7464 28.6924 6.83922C29.5046 7.0122 30.0107 7.53958 30.0064 8.37917C30.0064 9.16813 29.5471 9.69129 28.7647 9.86005C27.7568 10.071 26.7362 10.0752 25.7283 9.86005C24.9118 9.68707 24.4228 9.15969 24.4611 8.30323C24.4994 7.45098 25.0437 6.97423 25.8517 6.83078C26.3322 6.7464 26.8297 6.77593 27.3656 6.75062V6.7464Z" fill="#FF7500"/>
<path d="M38.6351 10.0288C38.1545 9.97395 37.6229 9.96129 37.1169 9.83894C36.3472 9.6533 35.8964 9.13858 35.9219 8.33274C35.9474 7.47628 36.479 6.94046 37.287 6.84764C38.1885 6.74216 39.1156 6.74638 40.0214 6.82654C40.8889 6.90671 41.4502 7.46362 41.4673 8.35384C41.4843 9.19765 40.9782 9.72081 40.1532 9.88113C39.6727 9.97395 39.1794 9.98239 38.6393 10.033L38.6351 10.0288Z" fill="#FF7500"/>
<path d="M71.5609 55.8884C72.0287 55.9263 72.5262 55.9263 73.0068 56.0149C73.7425 56.15 74.189 56.6056 74.2443 57.3735C74.2996 58.1751 73.9253 58.7742 73.1684 58.9725C72.0712 59.2636 70.9315 59.2594 69.8344 58.9641C69.0732 58.7573 68.6734 58.154 68.716 57.3777C68.7585 56.6351 69.2433 56.1584 69.9662 56.0107C70.4765 55.9095 71.0123 55.9221 71.5609 55.8842V55.8884Z" fill="#FF7500"/>
<path d="M34.4839 2.72582C34.4839 3.18147 34.5391 3.64135 34.4711 4.08435C34.3563 4.85643 33.9055 5.35428 33.072 5.40069C32.2683 5.4471 31.6602 5.08426 31.4518 4.33327C31.1584 3.27851 31.1711 2.17734 31.4348 1.11836C31.6346 0.304086 32.2768 -0.0545322 33.123 0.00875341C33.9608 0.072039 34.3775 0.5952 34.4796 1.36307C34.5391 1.81028 34.4924 2.27016 34.4924 2.7216C34.4924 2.7216 34.4881 2.7216 34.4839 2.7216V2.72582Z" fill="#FF7500"/>
<path d="M34.5137 14.1129C34.5137 14.4631 34.5307 14.8133 34.5137 15.1593C34.4542 16.0832 34.0034 16.695 33.0296 16.7414C32.0642 16.7878 31.4689 16.2351 31.3668 15.3322C31.2647 14.4715 31.2775 13.5856 31.3753 12.7249C31.4816 11.8009 32.0855 11.3199 33.0593 11.3621C34.0204 11.4043 34.4201 11.995 34.5052 12.8557C34.5477 13.2691 34.5137 13.691 34.5137 14.1129C34.5137 14.1129 34.5179 14.1129 34.5222 14.1129H34.5137Z" fill="#FF7500"/>
<path d="M78.7193 63.1792C78.7193 63.6349 78.7576 64.0948 78.7108 64.5462C78.6215 65.4153 78.0686 65.871 77.2266 65.8963C76.4272 65.9216 75.8403 65.4997 75.7085 64.7065C75.5426 63.7024 75.5426 62.6687 75.7 61.6646C75.8275 60.8503 76.4187 60.3651 77.2777 60.3989C78.1452 60.4368 78.6257 60.9684 78.7108 61.8123C78.7576 62.2637 78.7193 62.7236 78.7193 63.1792Z" fill="#FF7500"/>
<path d="M78.7195 51.948C78.7195 52.3699 78.7578 52.7918 78.711 53.2095C78.626 54.0238 78.1072 54.4752 77.3162 54.5343C76.4699 54.5934 75.8491 54.1757 75.7087 53.3319C75.5471 52.3277 75.5429 51.2983 75.7087 50.2984C75.8448 49.4672 76.4742 49.0411 77.3119 49.058C78.1369 49.0749 78.609 49.5896 78.7025 50.3785C78.7663 50.8975 78.7153 51.4291 78.7153 51.9522C78.7153 51.9522 78.7195 51.9522 78.7238 51.9522L78.7195 51.948Z" fill="#FF7500"/>
<path d="M22.5402 40.0896C22.5402 39.7174 22.5098 39.3452 22.5463 38.9764C22.6133 38.3181 22.9877 37.9493 23.554 37.9114C24.1598 37.8701 24.6012 38.2147 24.6956 38.9006C24.8113 39.7174 24.8082 40.5583 24.6956 41.3752C24.6073 42.0128 24.1902 42.3746 23.624 42.3678C23.0243 42.3609 22.6194 41.9921 22.5493 41.2855C22.5098 40.8926 22.5433 40.4894 22.5433 40.0896C22.5433 40.0896 22.5433 40.0896 22.5402 40.0896Z" fill="#FF7500"/>
<path d="M22.543 49.075C22.543 48.6975 22.5154 48.3166 22.5492 47.9426C22.6136 47.2366 22.9791 46.8276 23.6086 46.8276C24.2534 46.8276 24.6987 47.1911 24.7478 47.9531C24.7939 48.6765 24.7908 49.407 24.7478 50.1305C24.7079 50.8855 24.3025 51.2874 23.6393 51.2874C22.9699 51.2874 22.5983 50.875 22.54 50.12C22.5154 49.774 22.5369 49.4245 22.54 49.075H22.543Z" fill="#FF7500"/>
<path d="M68.0352 18.954H38.9771C36.7377 18.954 34.9199 20.7717 34.9199 23.0183V40.5333C34.9199 42.7767 36.7345 44.5977 38.9771 44.5977H68.0352C70.2746 44.5977 72.0923 42.7799 72.0923 40.5333V23.0183C72.0923 20.7749 70.2778 18.954 68.0352 18.954ZM62.2466 27.9563C58.5472 31.6654 54.8479 35.3713 51.1453 39.0804C50.171 40.0565 49.6822 40.0501 48.6951 39.0612C47.3437 37.7107 45.9956 36.357 44.59 34.9553C45.1874 34.3728 45.6985 33.8736 46.331 33.2527C46.97 33.9184 47.6121 34.6097 48.2798 35.2785C49.4043 36.405 50.4617 36.4018 51.5958 35.2657C54.7329 32.123 57.8636 28.9772 61.0614 25.7673C61.5661 26.3818 62.0453 26.9674 62.5692 27.6075C62.5532 27.6235 62.4063 27.7995 62.2434 27.9627L62.2466 27.9563Z" fill="#FF7500"/>
<path d="M26.6283 85.1901C28.0699 85.1901 29.4031 85.1901 30.7364 85.1901C31.1478 85.1901 31.5623 85.2242 31.9707 85.1839C33.6751 85.0136 35.1043 85.3232 36.3849 86.6981C37.6687 88.0698 39.4938 88.5436 41.3932 88.5467C46.5653 88.5467 51.7406 88.5467 56.9128 88.5529C57.8284 88.5529 58.5151 88.1999 58.8802 87.3452C59.1895 86.6176 58.9946 85.7289 58.3728 85.2396C58.0666 85.0012 57.6552 84.8681 57.2685 84.769C56.953 84.6885 56.6003 84.7504 56.2693 84.7101C55.5579 84.6265 55.0598 84.1063 55.131 83.4932C55.2114 82.8151 55.6166 82.428 56.3126 82.4002C57.1602 82.3692 58.014 82.3971 58.8554 82.3228C59.6195 82.2546 60.0959 81.7654 60.3526 81.0532C60.6094 80.3472 60.4609 79.6815 59.9412 79.2108C59.5886 78.8919 59.0689 78.6689 58.5925 78.6008C57.8872 78.4986 57.154 78.5884 56.4333 78.5575C55.6228 78.5234 55.0907 78.0032 55.1217 77.3374C55.1495 76.6841 55.6507 76.2568 56.4488 76.232C57.4758 76.201 58.509 76.232 59.5298 76.1422C60.3495 76.0679 60.928 75.4238 61.0765 74.6311C61.2157 73.8818 60.8507 73.0272 60.1546 72.6618C59.8515 72.5008 59.4741 72.4233 59.1276 72.4079C58.2553 72.3707 57.3768 72.411 56.5044 72.3893C55.6507 72.3676 55.0877 71.8412 55.1248 71.1538C55.1619 70.4726 55.6692 70.0824 56.5385 70.0607C57.7727 70.0329 59.0101 70.0669 60.2351 69.9493C61.1105 69.8657 61.6859 69.0946 61.7261 68.2369C61.7663 67.3544 61.2837 66.5772 60.464 66.3295C60.1052 66.2211 59.703 66.218 59.3225 66.2149C54.8711 66.2087 50.4166 66.2118 45.9652 66.2087C45.7332 66.2087 45.4981 66.2242 45.2723 66.1933C44.6134 66.1035 44.1679 65.6049 44.1865 64.998C44.2051 64.3694 44.6412 63.9142 45.3372 63.8926C46.4694 63.8616 47.6016 63.8771 48.7338 63.874C49.0122 63.874 49.2906 63.874 49.6216 63.874V59.3532C46.3055 59.0435 43.1904 59.2293 40.725 61.9821C38.9246 63.9917 36.9077 65.8093 35.0238 67.7508C34.4732 68.3174 33.8886 68.5435 33.1121 68.528C31.2592 68.4908 29.4062 68.5156 27.5533 68.5156H26.6345C26.6345 69.3609 26.6345 70.1289 26.6345 70.8937C26.6345 72.8785 26.6407 74.8603 26.6283 76.8451C26.6283 77.1486 26.6531 77.5573 26.4799 77.7307C26.1674 78.0434 25.691 78.4243 25.326 78.381C24.9641 78.3407 24.6053 77.8515 24.3547 77.483C24.2186 77.2848 24.3021 76.9318 24.3021 76.65C24.3021 73.9964 24.3052 71.3427 24.3021 68.689C24.299 66.7475 23.337 65.7938 21.4036 65.7907C20.324 65.7907 19.2413 65.8 18.1617 65.7845C17.3605 65.7721 16.8996 65.3386 16.8965 64.6419C16.8934 63.9607 17.3729 63.4776 18.1462 63.4653C19.4578 63.4436 20.7756 63.4064 22.0841 63.4776C23.6958 63.5674 24.9455 64.3509 25.8828 65.6792C26.053 65.9208 26.4304 66.1468 26.7181 66.153C28.7257 66.1932 30.7333 66.1963 32.7409 66.153C33.075 66.1468 33.4833 65.9517 33.7277 65.7133C35.6425 63.8399 37.5357 61.948 39.4165 60.0375C41.4736 57.9504 43.9297 56.8667 46.8778 56.9441C47.7748 56.9689 48.675 56.9472 49.6278 56.9472V52.2065C46.2189 51.8721 46.1199 49.4166 46.3179 46.735C45.9281 46.735 45.628 46.7381 45.3311 46.735C43.3265 46.6979 41.3065 46.797 39.3206 46.5895C36.5489 46.2984 34.4608 43.9854 34.2103 41.2202C34.1855 40.9632 34.1577 40.7062 34.1577 40.4492C34.1546 35.0118 34.1268 29.5775 34.1639 24.1401C34.1855 20.8238 36.1839 18.4767 39.3484 17.9038C39.6237 17.8543 39.9114 17.8419 40.1929 17.8419C46.423 17.8388 52.6501 17.8419 58.8802 17.8419C59.0101 17.8419 59.14 17.8326 59.2668 17.8481C59.9134 17.9379 60.2877 18.3156 60.3403 18.9628C60.3867 19.5697 59.9103 20.0837 59.2668 20.1549C59.0379 20.1797 58.8028 20.1642 58.5739 20.1642C52.5758 20.1642 46.5808 20.1642 40.5827 20.1642C38.0801 20.1642 36.5149 21.6846 36.5056 24.1803C36.487 29.5899 36.487 35.0025 36.5056 40.412C36.5149 42.8552 38.0894 44.3972 40.5456 44.4003C49.3216 44.4096 58.0975 44.4096 66.8766 44.4003C69.3297 44.4003 70.8826 42.8459 70.8888 40.3935C70.9042 34.9839 70.9042 29.5713 70.8888 24.1618C70.8826 21.697 69.3266 20.1735 66.8797 20.1642C66.029 20.1642 65.1814 20.1704 64.3307 20.1642C63.4862 20.1549 62.9851 19.7276 62.9727 19.0247C62.9604 18.3187 63.4646 17.8388 64.2905 17.8512C65.6516 17.8728 67.0344 17.7892 68.3645 18.0091C71.0867 18.455 73.1408 20.7804 73.1779 23.5518C73.2521 29.3731 73.2026 35.1945 73.1964 41.0189C73.1964 41.3255 73.1562 41.6382 73.0882 41.9355C72.42 44.7997 70.0659 46.6855 67.0653 46.735C65.3918 46.7629 63.7183 46.7412 62.0478 46.7412C61.7694 46.7412 61.491 46.7412 61.1198 46.7412C61.1198 47.3079 61.1198 47.8157 61.1198 48.3235C61.1198 50.7635 60.1763 51.869 57.717 52.2282C57.717 53.3181 57.7232 54.4205 57.717 55.5228C57.714 56.0895 57.4881 56.6097 56.9251 56.6995C56.5354 56.7614 56.0342 56.5911 55.694 56.362C55.4867 56.2226 55.4156 55.7736 55.4063 55.4609C55.3722 54.4081 55.3939 53.3522 55.3939 52.2282H52.0623V63.8337H55.3939C55.3939 62.8243 55.3877 61.8272 55.3939 60.8333C55.4001 59.9291 55.8332 59.4182 56.5601 59.4275C57.2809 59.4398 57.7078 59.957 57.717 60.8611C57.7263 61.8365 57.717 62.8088 57.717 63.8833C58.3667 63.8833 58.9513 63.8833 59.5329 63.8833C61.5962 63.8895 63.0934 64.7813 63.7585 66.4998C64.4607 68.3205 64.0647 69.9307 62.6634 71.29C62.6108 71.3427 62.5644 71.4046 62.484 71.5006C63.9781 73.7053 63.777 75.7706 61.8406 77.6904C62.5706 78.7556 63.0099 79.8982 62.7438 81.2266C62.484 82.5147 61.7632 83.4654 60.6465 84.1992C61.4291 85.5307 61.6395 86.9055 61.0115 88.333C60.3928 89.7357 59.2792 90.5284 57.7232 90.8721C57.7232 91.5967 57.7263 92.3336 57.7232 93.0737C57.7047 95.4797 56.1209 97.0031 53.643 97C51.2797 96.9969 49.7113 95.4456 49.6989 93.1016C49.6959 92.408 49.6989 91.7175 49.6989 90.9371C49.3556 90.9217 49.0617 90.8969 48.7647 90.8938C46.0642 90.8752 43.3575 90.9155 40.66 90.8257C38.1977 90.7452 36.1158 89.6893 34.3 88.0419C33.9968 87.7664 33.5112 87.562 33.1059 87.5527C30.9962 87.5032 28.8865 87.5403 26.7737 87.5217C26.3468 87.5186 26.0932 87.6425 25.8457 88.0172C24.8775 89.4663 23.504 90.2064 21.747 90.2033C20.59 90.2033 19.43 90.2095 18.2731 90.2033C17.4162 90.1971 16.9274 89.7791 16.9151 89.07C16.9027 88.3268 17.4038 87.8902 18.3009 87.884C19.4083 87.8778 20.5158 87.884 21.6201 87.8809C23.2627 87.8716 24.2712 86.9024 24.3145 85.2613C24.3392 84.3076 24.3083 83.3539 24.3269 82.4033C24.3423 81.5827 24.7476 81.1089 25.4188 81.0811C26.1272 81.0501 26.6191 81.5363 26.6469 82.3692C26.6747 83.2672 26.6531 84.1683 26.6531 85.1994L26.6283 85.1901ZM48.5977 46.7567C48.5977 47.4937 48.5946 48.1563 48.5977 48.819C48.6039 49.4754 48.9473 49.8253 49.5969 49.8284C52.3191 49.8377 55.0413 49.8563 57.7635 49.8005C58.0944 49.7943 58.6451 49.398 58.6946 49.1162C58.8245 48.3545 58.7379 47.5556 58.7379 46.7567H48.5946H48.5977ZM51.9973 90.9278C51.9973 91.222 51.9973 91.4233 51.9973 91.6277C51.9973 92.1943 51.9726 92.761 52.0097 93.3276C52.0592 94.0986 52.582 94.6065 53.3399 94.6777C54.438 94.7799 55.1712 94.4485 55.2825 93.6187C55.4001 92.7486 55.3073 91.8506 55.3073 90.9309H51.9973V90.9278Z" fill="#173748"/>
<path d="M50.4249 33.721C50.7084 33.4444 50.9118 33.2505 51.109 33.047C53.935 30.1317 56.761 27.2133 59.5901 24.3012C60.7427 23.1122 61.7289 23.1186 62.8969 24.3171C63.4978 24.9307 64.1049 25.5379 64.6874 26.1705C65.538 27.0925 65.5595 28.2243 64.6874 29.1303C60.7673 33.1964 56.8412 37.2594 52.8872 41.2937C51.485 42.7243 49.4818 42.7211 48.055 41.3128C46.4987 39.7772 44.9886 38.1972 43.4847 36.6076C42.5632 35.6348 42.5879 34.5794 43.5001 33.6002C44.1565 32.8976 44.8253 32.2014 45.5125 31.5274C46.4031 30.6531 47.4879 30.6627 48.3755 31.556C49.0535 32.2363 49.7007 32.9548 50.4249 33.721ZM45.3153 35.1198C46.6682 36.5154 47.9718 37.857 49.2754 39.1986C50.2307 40.181 50.7022 40.1873 51.6391 39.2177C55.2109 35.5363 58.7796 31.8517 62.3483 28.167C62.5055 28.0049 62.6472 27.8301 62.6626 27.8142C62.1572 27.1815 61.695 26.5997 61.208 25.9862C58.1232 29.1748 55.103 32.3031 52.0767 35.4218C50.9827 36.5504 49.9626 36.5536 48.8778 35.4345C48.2337 34.7701 47.6143 34.0834 46.9979 33.4221C46.3846 34.0389 45.8916 34.5348 45.3184 35.1134L45.3153 35.1198Z" fill="#173748"/>
</g>
<defs>
<clipPath id="clip0_17878_406171">
<rect width="98" height="97" fill="white"/>
</clipPath>
</defs>
</svg>
