<svg width="32" height="31" viewBox="0 0 32 31" fill="none" xmlns="http://www.w3.org/2000/svg">
<path d="M24.2126 15.7518C24.2126 16.8785 24.2053 18.0053 24.2126 19.1296C24.2223 20.312 23.8142 21.3275 22.9956 22.1689C22.3204 22.8628 21.4873 23.2691 20.5205 23.4045C20.3262 23.431 20.1295 23.4359 19.9351 23.4359C17.6325 23.4359 15.3274 23.4238 13.0247 23.4407C11.0257 23.4552 9.23554 22.0553 8.82019 20.0484C8.77403 19.8235 8.74003 19.5963 8.74003 19.3641C8.74003 16.9462 8.73031 14.5283 8.74489 12.1104C8.75217 11.1021 9.13838 10.2196 9.80635 9.4628C10.4233 8.76403 11.1981 8.32155 12.109 8.12328C12.3446 8.07251 12.5827 8.03624 12.8256 8.03624C15.2594 8.03624 17.6932 8.02415 20.127 8.04349C21.1351 8.05074 22.0168 8.43519 22.7722 9.0977C23.479 9.71668 23.9235 10.4904 24.1227 11.4044C24.1858 11.6897 24.2101 11.9774 24.2077 12.2676C24.2053 13.4282 24.2077 14.5912 24.2077 15.7518H24.2126ZM12.262 15.7349C12.262 18.0488 14.1493 19.9299 16.4714 19.9323C18.796 19.9348 20.6881 18.0585 20.693 15.7445C20.6978 13.4233 18.8057 11.5374 16.4739 11.5398C14.1493 11.5398 12.262 13.4209 12.2596 15.7349H12.262ZM20.9723 12.519C21.6767 12.519 22.2354 11.9581 22.2329 11.2569C22.2329 10.5605 21.6597 10.002 20.9577 10.0068C20.2631 10.0117 19.7092 10.5702 19.7092 11.2641C19.7092 11.9702 20.2631 12.519 20.9723 12.519Z" fill="white"/>
<path d="M19.8088 15.8775C19.7603 17.6136 18.281 19.0812 16.4569 19.0619C14.5283 19.0425 13.1195 17.4733 13.1389 15.7155C13.1608 13.7957 14.7347 12.3957 16.5006 12.4126C18.4753 12.432 19.9133 14.0979 19.8088 15.8775Z" fill="white"/>
<path d="M20.9602 10.8797C21.1739 10.8749 21.3561 11.0538 21.3585 11.2666C21.3585 11.4672 21.1812 11.651 20.9796 11.6583C20.7804 11.6655 20.5788 11.4697 20.5788 11.269C20.5788 11.0683 20.761 10.8845 20.9626 10.8797H20.9602Z" fill="white"/>
<path d="M30.409 10.9589C30.4088 6.04101 26.4034 2.04872 21.455 2.04859H11.1803C6.23179 2.04859 2.22574 6.04093 2.22559 10.9589V20.2487C2.22559 25.1667 6.2317 29.1589 11.1803 29.1589H21.455C26.4035 29.1588 30.409 25.1666 30.409 20.2487V10.9589ZM31.8538 20.2487C31.8538 25.9708 27.1952 30.6036 21.455 30.6038H11.1803C5.43997 30.6038 0.780762 25.9709 0.780762 20.2487V10.9589C0.780904 5.23676 5.44006 0.60376 11.1803 0.60376H21.455C27.1951 0.603893 31.8537 5.23685 31.8538 10.9589V20.2487Z" fill="white"/>
</svg>
