<svg width="96" height="78" viewBox="0 0 96 78" fill="none" xmlns="http://www.w3.org/2000/svg">
<path d="M0.732986 69.8815L1.77369 69.7976C2.89791 69.6814 2.89791 69.5394 2.89791 65.9966V55.8973C2.89791 52.361 2.89791 52.2126 1.77369 52.0964L0.732986 52.0061V51.3672H8.27487C11.018 51.3672 15.29 51.7996 15.29 56.5878C15.29 60.5372 10.9023 62.3635 8.18493 62.3635H7.6967V61.7246C8.93655 61.7246 12.2578 61.1438 12.2578 56.7621C12.2578 53.3677 9.97725 52.3223 7.37549 52.3223C6.77163 52.3223 6.16134 52.4384 5.58318 52.5546V65.9902C5.58318 69.5265 5.58317 69.675 7.16992 69.7911L8.21063 69.875V70.5139H0.726562V69.875L0.732986 69.8815Z" fill="#FF7500"/>
<path d="M15.0469 62.9377C15.0469 57.8978 18.927 54.7744 23.4046 54.7744C27.8822 54.7744 31.2806 57.5041 31.2806 62.6861C31.2806 67.868 27.561 70.8752 22.9678 70.8752C18.3746 70.8752 15.0469 67.9841 15.0469 62.9442V62.9377ZM23.4046 70.1008C27.3554 70.1008 28.8394 66.6935 28.8394 63.2862C28.8394 58.8787 26.6552 55.5423 23.0127 55.5423C19.3703 55.5423 17.488 58.4592 17.488 62.4925C17.488 67.2485 19.9035 70.0943 23.411 70.0943L23.4046 70.1008Z" fill="#FF7500"/>
<path d="M38.3084 61.679C40.1457 62.7308 42.0473 63.7053 42.0473 66.506C42.0473 69.6551 39.1436 70.8684 36.6831 70.8684C34.8715 70.8684 33.7538 70.3779 33.0343 69.9326C32.6167 69.0227 32.2891 67.2933 32.2891 65.8284L33.0343 65.6412C33.2912 67.3191 34.1456 70.094 37.332 70.094C38.9316 70.094 40.12 69.0421 40.12 67.2223C40.12 65.5186 38.7003 64.3506 36.8887 63.5375L35.4047 62.7179C34.0814 61.9952 32.848 60.5497 32.848 58.8008C32.848 55.955 35.2184 54.7676 37.6789 54.7676C39.1179 54.7676 40.2806 55.1419 40.8845 55.5161C41.0708 56.2647 41.1158 58.1555 41.1158 58.7363H40.5376C40.3063 57.5683 39.9337 55.542 37.3063 55.542C35.9572 55.542 34.7752 56.5229 34.7752 58.0845C34.7752 59.4591 35.7773 60.2076 37.03 60.9562L38.3084 61.679Z" fill="#FF7500"/>
<path d="M42.125 70.0106L42.9601 69.9396C43.8659 69.8428 43.8659 69.7267 43.8659 66.8808V58.7627C43.8659 55.9168 43.8659 55.8006 42.9601 55.7103L42.125 55.6393V55.123H47.7654V55.6393L46.9302 55.7103C46.0244 55.8006 46.0244 55.9233 46.0244 58.7627V66.8808C46.0244 69.7267 46.0244 69.8428 46.9302 69.9396L47.7654 70.0106V70.5269H42.125V70.0106Z" fill="#FF7500"/>
<path d="M52.3566 70.0106L53.2174 69.9396C54.4958 69.8428 54.4958 69.7267 54.4958 66.8808V55.7748H53.2881C50.0118 55.7748 49.9668 56.1233 49.4593 58.8336H48.9004C48.9004 58.7368 48.8555 58.1109 48.8555 57.8076C48.8555 56.7364 49.0161 55.6393 49.1124 55.123H62.0505C62.1405 55.6393 62.3075 56.7299 62.3075 57.8076C62.3075 58.1109 62.2625 58.7433 62.2625 58.8336H61.7037C61.1897 56.1297 61.1448 55.7748 57.8685 55.7748H56.6607V66.8808C56.6607 69.7267 56.6607 69.8428 57.9584 69.9396L58.7935 70.0106V70.5269H52.363V70.0106H52.3566Z" fill="#FF7500"/>
<path d="M63.1094 70.0106L63.9445 69.9396C64.8503 69.8428 64.8503 69.7267 64.8503 66.8808V58.7627C64.8503 55.9168 64.8503 55.8006 63.9445 55.7103L63.1094 55.6393V55.123H68.7497V55.6393L67.9146 55.7103C67.0088 55.8006 67.0088 55.9233 67.0088 58.7627V66.8808C67.0088 69.7267 67.0088 69.8428 67.9146 69.9396L68.7497 70.0106V70.5269H63.1094V70.0106Z" fill="#FF7500"/>
<path d="M71.4686 57.5043C71.1217 56.6396 70.8648 55.7748 70.1003 55.7103L69.4258 55.6393V55.123H75.2075V55.6393L74.488 55.7103C74.1154 55.7555 73.4408 55.8265 73.4408 56.2911C73.4408 56.4072 73.6271 56.9429 73.7428 57.2203L77.7578 67.6294C78.291 66.229 81.9399 57.1558 81.9399 56.4331C81.9399 55.9684 81.4774 55.8523 81.0341 55.7813L79.987 55.6393V55.123H85.0042V55.6393L84.4003 55.7813C84.1434 55.8265 83.8864 55.9684 83.7065 56.1556C83.1926 56.6718 82.4538 58.9111 81.8692 60.0275L80.2889 63.8542C78.9655 67.0744 77.8028 69.9203 77.5972 70.5269C77.4816 70.6172 77.109 70.785 76.8071 70.8753L71.4622 57.5043H71.4686Z" fill="#FF7500"/>
<path d="M79.918 70.0108L80.3612 69.9399C81.2413 69.7979 81.3634 69.5462 81.9159 68.191L86.7468 56.3881C86.9331 55.9235 87.1194 55.4588 87.3057 55.0136L87.9802 54.7812L93.158 68.2878C93.5049 69.2236 93.7362 69.7592 94.3401 69.8753L95.2716 70.0173V70.5336H89.5091V70.0173L90.5563 69.8302C90.9738 69.7592 91.2758 69.643 91.2758 69.3849C91.2758 69.2235 91.1858 69.0558 91.1344 68.8944L89.5091 64.4869C88.6483 64.3256 87.7939 64.2546 86.9331 64.2546C86.1172 64.2546 85.3078 64.3449 84.4919 64.4869L83.3099 67.7264C83.0337 68.475 82.8474 69.1009 82.8474 69.2881C82.8474 69.7333 83.1493 69.7979 83.4063 69.8237L84.8003 70.0108V70.5271H79.9244V70.0108H79.918ZM84.7939 63.5963C85.4877 63.5512 86.2072 63.4802 86.9074 63.4802C87.6526 63.4802 88.3978 63.4995 89.1365 63.5963L86.9973 57.9498L84.7939 63.5963Z" fill="#FF7500"/>
<path d="M19.0933 76.4125C19.0483 76.89 18.9648 77.2514 18.785 77.7096C18.573 77.8064 17.9563 78 17.2239 78C15.7785 78 14.4102 77.3224 14.4102 75.3864C14.4102 73.3537 16.0419 72.7471 17.2368 72.7471C18.0076 72.7471 18.5858 72.9407 18.7785 73.0568C18.8492 73.3601 18.9006 73.8054 18.9006 74.1861L18.695 74.2313C18.6179 73.928 18.5216 72.9987 17.2239 72.9987C15.9262 72.9987 15.2003 73.8183 15.2003 75.2445C15.2003 76.548 15.8235 77.7483 17.2046 77.7483C18.4638 77.7483 18.6501 76.9804 18.8877 76.3673L19.0933 76.4125Z" fill="#FF7500"/>
<path d="M19.3438 75.8895C19.3438 74.5666 20.3588 73.7471 21.5344 73.7471C22.71 73.7471 23.6029 74.4634 23.6029 75.8186C23.6029 77.1737 22.6265 77.9675 21.4252 77.9675C20.2238 77.9675 19.3502 77.206 19.3502 75.8895H19.3438ZM21.5344 77.7674C22.5686 77.7674 22.9605 76.8704 22.9605 75.9799C22.9605 74.8248 22.3888 73.9471 21.4316 73.9471C20.4744 73.9471 19.9797 74.7151 19.9797 75.7734C19.9797 77.0189 20.6157 77.7674 21.5344 77.7674Z" fill="#FF7500"/>
<path d="M23.9453 77.7418L24.0995 77.7031C24.1894 77.6837 24.2537 77.6579 24.2922 77.6321C24.35 77.5675 24.395 77.1804 24.4335 76.6189L24.5299 75.0766C24.5556 74.6571 24.5941 73.9989 24.5941 73.8311L24.7612 73.7731C24.9475 74.0893 26.3351 76.7286 26.5214 77.0642C26.7141 76.7544 28.0824 74.1409 28.1981 73.8247L28.3587 73.7666C28.3587 73.8182 28.4036 74.5023 28.4422 75.3089L28.4936 76.3672C28.5193 76.89 28.5578 77.4837 28.6092 77.574C28.6413 77.6385 28.7313 77.6708 28.8405 77.6902L29.0203 77.7289V77.8644H27.4593V77.7289L27.697 77.6902C27.9604 77.6579 27.9861 77.5611 27.9861 77.2836C27.9861 76.606 27.8833 75.3154 27.8833 74.9282H27.8704C27.7676 75.1992 27.1445 76.3931 26.5406 77.5934C26.5085 77.6514 26.4828 77.7289 26.4571 77.787L26.2837 77.8644C26.1488 77.5805 25.3779 76.0898 24.9539 75.2831C24.8897 75.167 24.8383 75.0508 24.7869 74.9282H24.774C24.7547 75.2767 24.6712 77.0061 24.6712 77.1997C24.6712 77.5611 24.6712 77.6644 24.9603 77.6966L25.2044 77.7353V77.8708H23.9453V77.7353V77.7418Z" fill="#FF7500"/>
<path d="M29.2955 77.7421L29.5139 77.7227C29.7516 77.6969 29.7516 77.6646 29.7516 76.9225V74.793C29.7516 74.0444 29.7516 74.0121 29.5139 73.9928L29.2955 73.9734V73.8379H30.8822C31.4604 73.8379 32.3598 73.9282 32.3598 74.9414C32.3598 75.7739 31.4347 76.1611 30.863 76.1611H30.7602V76.0255C31.0236 76.0255 31.7238 75.9029 31.7238 74.9801C31.7238 74.2638 31.242 74.0444 30.6959 74.0444C30.5675 74.0444 30.439 74.0702 30.3169 74.0896V76.9225C30.3169 77.6711 30.3169 77.7034 30.651 77.7227L30.8694 77.7421V77.8776H29.2891V77.7421H29.2955Z" fill="#FF7500"/>
<path d="M32.0195 77.7416L32.1352 77.7223C32.3664 77.6835 32.3986 77.619 32.5463 77.2641L33.8119 74.1665C33.8632 74.0439 33.9082 73.9213 33.9596 73.8051L34.1395 73.7471L35.495 77.2899C35.5849 77.5351 35.6491 77.6771 35.8033 77.7093L36.0474 77.7481V77.8836H34.5378V77.7481L34.814 77.6964C34.9232 77.6771 35.0003 77.6513 35.0003 77.5803C35.0003 77.5351 34.9746 77.4964 34.9618 77.4512L34.5378 76.2961C34.3129 76.2509 34.0881 76.2316 33.8632 76.2316C33.6512 76.2316 33.4393 76.2574 33.2208 76.2961L32.9125 77.1479C32.8418 77.348 32.7904 77.5093 32.7904 77.5609C32.7904 77.6771 32.8675 77.6964 32.9382 77.7029L33.3043 77.7545V77.89H32.026V77.7545L32.0195 77.7416ZM33.2979 76.0573C33.4842 76.0444 33.6705 76.0251 33.8504 76.0251C34.0431 76.0251 34.2423 76.0251 34.435 76.0573L33.8761 74.5731L33.2979 76.0573Z" fill="#FF7500"/>
<path d="M35.9375 77.7422L36.1559 77.7229C36.3936 77.7035 36.4386 77.5164 36.4386 76.8517V73.8316L36.5799 73.7735C37.0874 74.4253 38.8862 76.2967 39.5478 76.9485V74.8512C39.5478 74.1801 39.5478 74.0123 39.2138 73.98L38.9954 73.9607V73.8251H40.3123V73.9607L40.0939 73.98C39.8755 73.9994 39.8305 74.1865 39.8305 74.8512V77.8649L39.6956 77.9229C39.5607 77.781 39.1817 77.3809 38.5521 76.7226L36.7212 74.7802V76.8452C36.7212 77.5164 36.7212 77.6842 37.036 77.7164L37.2544 77.7358V77.8713H35.9375V77.7358V77.7422ZM37.2801 73.2895C37.3508 73.1669 37.5692 72.7733 37.8968 72.7733C38.0446 72.7733 38.1924 72.8313 38.3337 72.8894C38.4879 72.954 38.6485 73.012 38.8026 73.012C38.9761 73.012 39.0917 72.8249 39.1367 72.7539L39.2138 72.8249C39.1495 72.9733 38.9697 73.3347 38.6356 73.3347C38.3465 73.3347 37.9354 73.0959 37.7298 73.0959C37.5564 73.0959 37.4215 73.2831 37.3636 73.367L37.2801 73.2895Z" fill="#FF7500"/>
<path d="M40.5898 77.7421L40.8083 77.7227C41.046 77.6969 41.046 77.6646 41.046 76.9225V74.793C41.046 74.0444 41.046 74.0121 40.8083 73.9928L40.5898 73.9734V73.8379H42.0738V73.9734L41.8554 73.9928C41.6177 74.0186 41.6177 74.0444 41.6177 74.793V76.9225C41.6177 77.6711 41.6177 77.7034 41.8554 77.7227L42.0738 77.7421V77.8776H40.5898V77.7421Z" fill="#FF7500"/>
<path d="M42.0781 77.7416L42.1938 77.7223C42.425 77.6835 42.4571 77.619 42.6049 77.2641L43.8704 74.1665C43.9218 74.0439 43.9668 73.9213 44.0182 73.8051L44.1981 73.7471L45.5536 77.2899C45.6435 77.5351 45.7077 77.6771 45.8683 77.7093L46.1125 77.7481V77.8836H44.6028V77.7481L44.879 77.6964C44.9882 77.6771 45.0653 77.6513 45.0653 77.5803C45.0653 77.5351 45.0396 77.4964 45.0268 77.4512L44.6028 76.2961C44.3779 76.2509 44.1531 76.2316 43.9283 76.2316C43.7034 76.2316 43.5043 76.2574 43.2859 76.2961L42.9775 77.1479C42.9068 77.348 42.8554 77.5093 42.8554 77.5609C42.8554 77.6771 42.9325 77.6964 43.0032 77.7029L43.3694 77.7545V77.89H42.091V77.7545L42.0781 77.7416ZM43.3565 76.0573C43.5364 76.0444 43.7291 76.0251 43.909 76.0251C44.1017 76.0251 44.3009 76.0251 44.4936 76.0573L43.9347 74.5731L43.3565 76.0573Z" fill="#FF7500"/>
<path d="M47.4609 77.7672L47.6408 77.7543C47.84 77.735 47.84 77.7092 47.84 77.0897V75.3215C47.84 74.702 47.84 74.6762 47.6408 74.6568L47.4609 74.6439V74.5342H49.1183C50.1976 74.5342 50.8464 75.1021 50.8464 76.083C50.8464 77.4059 49.87 77.877 48.8164 77.877H47.4609V77.7672ZM48.3089 77.6446C48.5016 77.6834 48.6944 77.7156 48.8871 77.7156C49.8057 77.7156 50.3197 77.2058 50.3197 76.212C50.3197 75.1472 49.7415 74.6955 48.8421 74.6955C48.6687 74.6955 48.4888 74.7213 48.3089 74.7471V77.6382V77.6446Z" fill="#FF7500"/>
<path d="M51.2266 77.7672L51.4064 77.7543C51.6056 77.735 51.6056 77.7092 51.6056 77.0897V75.3215C51.6056 74.702 51.6056 74.6762 51.4064 74.6568L51.2266 74.6439V74.5342H53.4043C53.4236 74.6439 53.4621 74.8375 53.4621 75.0698C53.4621 75.186 53.4493 75.2247 53.4493 75.2698L53.3272 75.2892C53.218 74.7471 53.2052 74.6697 52.4921 74.6697H52.0745V76.0636H52.5242C52.9161 76.0636 53.006 76.0636 53.0382 75.8506L53.0639 75.6764H53.1923V76.5928H53.0639L53.0382 76.4185C53.006 76.212 52.9161 76.2056 52.5242 76.2056H52.0745V77.664C52.2544 77.6963 52.4407 77.7285 52.627 77.7285C53.43 77.7285 53.4814 77.4252 53.5842 77.0122L53.7127 77.0316C53.6998 77.3542 53.6292 77.593 53.5457 77.8705H51.233V77.7608L51.2266 77.7672Z" fill="#FF7500"/>
<path d="M57.2992 74.9928C57.8966 75.3348 58.5198 75.6575 58.5198 76.5674C58.5198 77.5934 57.5754 77.9935 56.7724 77.9935C56.1814 77.9935 55.8152 77.8322 55.584 77.6902C55.4491 77.3934 55.3398 76.832 55.3398 76.348L55.584 76.2899C55.6675 76.8384 55.9501 77.7419 56.9844 77.7419C57.5048 77.7419 57.8966 77.3998 57.8966 76.8061C57.8966 76.2512 57.4341 75.8704 56.8431 75.6058L56.3613 75.3413C55.9309 75.1025 55.5261 74.6314 55.5261 74.0635C55.5261 73.1343 56.297 72.7471 57.1 72.7471C57.569 72.7471 57.948 72.8697 58.1472 72.9923C58.2114 73.2375 58.2243 73.8506 58.2243 74.0442H58.038C57.9609 73.6634 57.8388 72.9987 56.9844 72.9987C56.5476 72.9987 56.1557 73.3214 56.1557 73.8248C56.1557 74.2765 56.4833 74.5153 56.8945 74.7605L57.312 74.9928H57.2992Z" fill="#FF7500"/>
<path d="M58.8906 77.7421L59.109 77.7227C59.3467 77.6969 59.3467 77.6646 59.3467 76.9225V74.793C59.3467 74.0444 59.3467 74.0121 59.109 73.9928L58.8906 73.9734V73.8379H61.5181C61.5438 73.9734 61.5823 74.2057 61.5823 74.4832C61.5823 74.6252 61.5695 74.6768 61.5695 74.7284L61.4217 74.7542C61.2868 74.1025 61.274 74.0057 60.4196 74.0057H59.9121V75.69H60.4517C60.9271 75.69 61.0363 75.6835 61.0748 75.4318L61.1069 75.2253H61.2675V76.3288H61.1069L61.0748 76.1223C61.0363 75.8707 60.9271 75.8642 60.4517 75.8642H59.9121V77.6259C60.1305 77.6711 60.3553 77.7034 60.5737 77.7034C61.5438 77.7034 61.6016 77.3355 61.7237 76.8322L61.8778 76.858C61.8586 77.2516 61.7815 77.5356 61.6787 77.8712H58.8906V77.7356V77.7421Z" fill="#FF7500"/>
<path d="M66.0213 77.6642C65.8157 77.7416 65.1476 77.9675 64.4988 77.9675C63.2718 77.9675 62.1797 77.4319 62.1797 75.8702C62.1797 74.3085 63.4902 73.7471 64.4538 73.7471C65.0769 73.7471 65.5395 73.9019 65.7001 73.9987C65.7515 74.244 65.7964 74.5989 65.7964 74.9022L65.6294 74.9409C65.5716 74.6957 65.4881 73.9471 64.4474 73.9471C63.4067 73.9471 62.8221 74.6118 62.8221 75.754C62.8221 76.7994 63.3489 77.7674 64.5437 77.7674C64.7622 77.7674 65.0448 77.7416 65.2568 77.69V77.4641C65.2568 76.7156 65.2568 76.6897 64.8328 76.6639L64.6144 76.6446V76.509H66.1626V76.6446L65.9442 76.6639C65.8286 76.6897 65.8286 76.722 65.8286 77.3157C65.8286 77.4964 65.8286 77.5351 65.9249 77.5351H65.9827L66.0277 77.6706L66.0213 77.6642Z" fill="#FF7500"/>
<path d="M69.774 77.7544C69.6904 77.6705 69.639 77.5866 69.5491 77.5866C69.4656 77.5866 68.9581 77.9738 68.1487 77.9738C66.8895 77.9738 66.7803 77.2446 66.7803 76.4121V74.7988C66.7803 74.0503 66.7803 74.018 66.5426 73.9986L66.3242 73.9793V73.8438H67.8082V73.9793L67.5898 73.9986C67.3521 74.0244 67.3521 74.0503 67.3521 74.7988V76.3153C67.3521 77.193 67.4998 77.7738 68.4442 77.7738C69.0802 77.7738 69.4527 77.393 69.5491 77.2833V74.7988C69.5491 74.0503 69.5491 74.018 69.3114 73.9986L69.093 73.9793V73.8438H70.5705V73.9793L70.3521 73.9986C70.1144 74.0244 70.1144 74.0503 70.1144 74.7988V77.8835L69.9346 77.9415L69.7804 77.7608L69.774 77.7544Z" fill="#FF7500"/>
<path d="M70.8722 77.7421L71.0906 77.7227C71.3283 77.6969 71.3283 77.6646 71.3283 76.9225V74.793C71.3283 74.0444 71.3283 74.0121 71.0906 73.9928L70.8722 73.9734V73.8379H72.4654C73.0436 73.8379 73.8594 73.9218 73.8594 74.8511C73.8594 75.4189 73.3519 75.7609 73.0179 75.9158C73.1078 76.0901 73.3069 76.4773 73.474 76.7741C73.7309 77.2323 74.0008 77.5937 74.1485 77.6776C74.2127 77.7163 74.322 77.7421 74.4504 77.7421V77.8776H73.9815C73.5768 77.8776 73.3005 77.6001 73.1142 77.2645L72.8701 76.7935C72.7095 76.4966 72.5682 76.2579 72.4911 76.1933C72.3947 76.1159 72.2406 76.1159 72.1121 76.1159H71.8872V76.9225C71.8872 77.6711 71.8872 77.7034 72.1185 77.7227L72.3369 77.7421V77.8776H70.8594V77.7421H70.8722ZM71.9001 75.9416H72.247C72.7609 75.9416 73.2234 75.6642 73.2234 74.9737C73.2234 74.2832 72.7545 74.0379 72.2791 74.0379C72.1506 74.0379 72.0221 74.0638 71.9001 74.0831V75.9416Z" fill="#FF7500"/>
<path d="M74.3672 75.8895C74.3672 74.5666 75.3822 73.7471 76.5642 73.7471C77.7463 73.7471 78.6328 74.4634 78.6328 75.8186C78.6328 77.1737 77.6563 77.9675 76.4486 77.9675C75.2409 77.9675 74.3736 77.206 74.3736 75.8895H74.3672ZM76.5642 77.7674C77.5985 77.7674 77.9904 76.8704 77.9904 75.9799C77.9904 74.8248 77.4186 73.9471 76.4614 73.9471C75.5043 73.9471 75.0096 74.7151 75.0096 75.7734C75.0096 77.0189 75.6456 77.7674 76.5642 77.7674Z" fill="#FF7500"/>
<path d="M80.6091 75.5604C81.0909 75.8379 81.5919 76.0896 81.5919 76.8253C81.5919 77.6513 80.8275 77.9675 80.1851 77.9675C79.7097 77.9675 79.4142 77.8384 79.2279 77.7223C79.1187 77.4835 79.0352 77.0318 79.0352 76.6446L79.2279 76.5994C79.2921 77.0382 79.517 77.7674 80.3521 77.7674C80.7761 77.7674 81.0844 77.4899 81.0844 77.0124C81.0844 76.5671 80.7118 76.2574 80.2365 76.0444L79.8446 75.8315C79.4977 75.6443 79.1765 75.2636 79.1765 74.8054C79.1765 74.0568 79.7996 73.7471 80.442 73.7471C80.8211 73.7471 81.123 73.8439 81.2836 73.9407C81.335 74.1343 81.3414 74.6312 81.3414 74.786H81.1872C81.123 74.4827 81.0266 73.9471 80.3392 73.9471C79.9859 73.9471 79.6776 74.2053 79.6776 74.6183C79.6776 74.9796 79.941 75.1732 80.2686 75.3733L80.6026 75.5604H80.6091Z" fill="#FF7500"/>
<path d="M48.0008 0C34.9792 0 24.418 10.6091 24.418 23.6898C24.418 36.7704 34.9792 47.386 48.0008 47.386C61.0224 47.386 71.5836 36.7769 71.5836 23.6898C71.5836 10.6026 61.0224 0 48.0008 0ZM47.6732 9.84761C48.4184 10.3768 49.0736 11.0221 49.8895 11.7836C50.0437 11.9191 50.185 12.0869 50.7246 11.8997C51.8296 11.5706 54.3607 10.3187 56.1722 10.1509C56.9945 10.0412 57.2129 10.1509 57.7076 10.5962C58.6584 11.4093 59.365 12.0094 59.9496 12.6548C58.0802 12.8677 57.4763 13.0226 57.0716 13.1194L56.8789 13.1646H56.8403C55.9924 13.3904 55.729 13.9777 55.6583 14.2229C55.6262 14.3261 55.6005 14.4681 55.6005 14.6359C55.6005 14.9069 55.6904 15.2489 55.9538 15.6039C56.4228 16.3718 56.6862 16.901 56.8532 17.3011C55.1058 17.8431 53.1915 18.5788 52.3499 18.9595C51.8296 19.1983 51.4505 19.6629 51.3413 20.205C51.3221 20.2889 51.3092 20.3986 51.3092 20.5212C51.3092 20.8568 51.412 21.315 51.8296 21.7667C53.1208 23.1541 54.5855 26.3227 54.5855 29.8009C54.5855 30.556 54.5148 31.3239 54.3606 32.0983C53.6347 35.7121 51.2128 38.4612 47.1657 40.281C45.065 41.2231 42.9258 41.4232 40.7609 41.3458C40.8829 41.3328 41.005 41.3199 41.1206 41.307C45.1871 40.8101 48.0393 39.3969 50.018 35.867C52.7482 30.9948 50.6797 25.0191 46.5875 21.6312C45.4247 20.6697 44.0821 19.9275 42.7909 19.1531C42.4632 18.9595 42.2834 18.6692 42.6945 18.1723C43.3626 17.2172 44.4804 15.7329 46.3434 14.2422C46.7288 13.9648 46.5682 13.7453 46.4012 13.5259C45.7395 12.9774 45.3027 12.6419 44.4804 12.145C44.0436 11.9255 43.8637 11.6932 44.2042 11.377C44.6153 11.0027 45.2577 10.4413 46.8123 9.77662C47.14 9.57012 47.4869 9.69918 47.6796 9.86051L47.6732 9.84761ZM32.3196 14.0616C32.6408 13.4162 33.4053 11.9836 34.0926 11.1189C34.2597 10.9124 34.401 10.8285 34.7672 10.893C35.4289 11.0092 36.6045 11.4996 38.1334 11.932C38.4161 12.0094 38.5831 12.0094 38.8208 11.7384C39.4439 11.035 41.2041 9.40879 44.0628 8.21494C44.384 8.07943 44.8145 8.07297 45.2063 8.26657C45.5532 8.43435 45.9322 8.60214 46.3819 8.828C45.0265 9.44105 44.3198 9.99603 43.7673 10.4994C43.2984 10.9317 43.1956 11.3899 43.1956 11.7126C43.1956 11.79 43.1956 11.8546 43.2084 11.9126C43.2855 12.4483 43.6324 12.8806 44.2363 13.2097L44.3134 13.2549C44.2877 13.242 44.262 13.2226 44.2363 13.2097C44.6731 13.4743 44.9815 13.6808 45.2834 13.9002C43.7352 15.2554 42.7459 16.5654 42.1035 17.4818C41.6281 18.0884 41.596 18.6304 41.6538 18.9854C41.7116 19.3403 41.9172 19.8372 42.5532 20.2179L43.202 20.6051C44.2813 21.244 45.3027 21.8506 46.2021 22.5927C49.6839 25.4837 51.8874 30.7754 49.3499 35.3055C47.6475 38.345 45.1806 39.9131 41.3583 40.3778C39.9643 40.552 38.6345 40.4294 37.4075 40.1132C37.915 40.1777 38.4353 40.21 38.9814 40.1971C41.8594 40.1455 44.8787 39.1517 46.4526 36.6672C50.3841 30.4527 45.868 24.0253 39.7523 21.9926C38.3647 21.5279 36.097 21.031 34.2982 20.8052C33.6365 20.7213 33.4759 20.5148 33.6815 20.063C34.0413 19.2628 34.7608 17.7141 36.0584 15.7458C36.1162 15.662 36.0905 15.4425 35.84 15.3716C35.1783 15.1844 33.8036 14.8101 32.6986 14.6423C32.3068 14.5843 32.159 14.3971 32.326 14.0745L32.3196 14.0616ZM51.2385 45.0241C37.6259 47.1214 30.7072 36.8479 30.7072 36.8479C33.8293 39.8873 39.142 44.824 47.1978 41.0812C58.8961 35.8218 55.4463 24.0834 52.2536 20.6438C51.8681 20.2308 52.1186 19.8888 52.3885 19.7597C53.3071 19.3403 55.7483 18.4046 57.6755 17.8819C57.8939 17.8109 57.9389 17.7012 57.8232 17.4237C57.6562 16.9397 57.4699 16.2105 56.5063 14.6488C56.2044 14.3197 56.3393 14.1261 56.6733 14.0422C57.0973 13.9519 57.4506 13.7841 59.8854 13.5195C60.1488 13.4808 60.4314 13.584 60.5471 13.797C61.0674 14.7262 61.4464 15.6684 61.8126 16.8816C61.8511 17.0042 62.0374 17.2494 62.2494 17.2559C63.1424 17.2946 66.3737 17.314 68.0632 17.656C68.1981 17.6883 68.4936 17.8496 68.5643 18.0432C69.0204 19.4048 70.0162 25.9742 67.1382 32.9114C63.8426 40.8553 57.4506 44.0561 51.245 45.0176L51.2385 45.0241Z" fill="#FF7500"/>
</svg>
