<svg width="119" height="27" viewBox="0 0 119 27" fill="none" xmlns="http://www.w3.org/2000/svg">
<g id="Frame">
<g id="Group">
<path id="Vector" d="M23.9753 9.70476L22.7072 10.1844L22.585 10.5263L22.301 10.7107C22.2205 9.65946 22.1685 9.2424 22.1461 9.2424L22.6042 9.23633L23.448 8.20885L22.221 8.73427L22.1105 9.09201L20.9065 10.0032C20.9331 10.2283 21.0019 10.9125 20.9556 11.5822L21.2219 11.4034C21.337 16.4104 19.0435 18.294 19.0435 18.294C18.4637 18.0268 18.314 17.8311 18.314 17.8311C20.4057 15.5048 20.3098 12.1417 20.3061 12.0217L20.0857 12.167C20.0857 12.167 20.176 11.1031 20.117 10.6001L19.7314 10.892C19.7225 10.5482 19.7024 10.2624 19.679 10.063C19.912 10.0784 20.1526 10.0434 20.3501 9.90138C20.5583 9.75053 20.6687 9.30591 20.7034 9.1149C20.738 8.92482 20.6973 8.86036 20.5817 8.78564C20.4661 8.71138 20.2228 8.49141 20.124 8.3924C20.124 8.3924 20.3234 8.30693 20.7899 8.5255C21.2935 8.76322 21.6758 8.6474 22.1054 8.01177L21.5897 8.08696L21.6351 7.73201C21.6435 7.73575 21.6524 7.74042 21.6617 7.74602C21.7333 7.79553 21.9772 7.88473 22.0927 7.90762C22.2088 7.93097 22.2055 7.91416 22.2785 7.95759C22.3515 8.00009 22.4138 8.0183 22.4521 8.00009C22.4521 8.00009 22.7399 8.16168 22.8555 8.00009C22.8555 8.00009 22.9669 8.06641 23.023 8.08649C23.1096 8.11825 23.2495 8.16775 23.2949 8.15888C23.3413 8.15001 23.4512 8.19671 23.469 8.20512C23.6506 8.29619 23.7615 8.24902 23.7872 8.20512C23.8139 8.16168 23.6744 8.01784 23.5668 7.92817C23.4597 7.8385 23.367 7.82122 23.367 7.82122C23.4021 7.79786 23.3932 7.76284 23.3235 7.67924C23.2542 7.59471 23.0259 7.48262 23.0259 7.48262C23.0287 7.41583 22.7675 7.25424 22.6122 7.13608C22.4545 7.01745 22.5191 7.02352 22.3539 6.85352C22.1891 6.68212 21.4329 6.08339 21.0562 5.81531C20.68 5.54723 19.6467 4.76122 18.7627 4.47773C17.8806 4.19377 17.3579 4.25822 16.9849 4.4894C16.611 4.72058 16.7037 5.02976 16.7711 5.22078C16.8366 5.41179 16.9653 5.65138 17.0406 5.7985C17.1155 5.94608 17.0547 5.94328 17.02 5.9671C16.9854 5.98905 17.0224 6.04742 16.9887 6.04135C16.9541 6.03575 16.9325 6.07918 16.889 6.12822C16.8675 6.15297 16.8034 6.17446 16.7201 6.19127C16.7037 6.12168 16.7472 6.06938 16.7472 6.06938C16.6887 6.03528 16.5886 6.02407 16.5886 6.02407C16.6007 5.99979 16.6466 5.98297 16.6466 5.98297C16.583 5.96663 16.4613 5.98811 16.4613 5.98811C16.4809 5.95682 16.4983 5.95168 16.4983 5.95168C16.3841 5.91292 16.2821 6.00539 16.2409 6.05069C16.1903 5.96056 16.1258 5.89704 16.0617 5.83679C15.9929 5.77281 15.9578 5.68034 15.8838 5.60795C15.8838 5.60795 15.9442 5.51641 15.9007 5.42487C15.8581 5.3338 15.7397 5.26047 15.6704 5.24319C15.6704 5.24319 15.7317 5.2119 15.7228 5.14278C15.7144 5.07366 15.6494 5.04751 15.5797 5.06992C15.5095 5.09094 15.428 5.09094 15.3756 5.13905C15.3756 5.13905 15.3185 5.14512 15.2741 5.13951C15.3312 4.94943 15.3597 4.68976 15.0331 4.48894C14.6601 4.25775 14.1393 4.19377 13.2558 4.47726C12.3727 4.76122 11.339 5.54677 10.9632 5.81484C10.587 6.08292 9.82981 6.68166 9.66649 6.85306C9.50036 7.02306 9.56401 7.01699 9.40864 7.13561C9.25188 7.25377 8.99122 7.41536 8.99403 7.48215C8.99403 7.48215 8.76566 7.59471 8.69594 7.67877C8.62668 7.76237 8.61779 7.7974 8.65195 7.82075C8.65195 7.82075 8.56023 7.83803 8.4526 7.9277C8.34543 8.01737 8.20645 8.16122 8.23219 8.20465C8.25886 8.24855 8.3679 8.29572 8.55087 8.20465C8.56772 8.19624 8.67815 8.14954 8.72448 8.15841C8.77081 8.16682 8.91026 8.11778 8.99684 8.08602C9.05299 8.06547 9.16483 7.99962 9.16483 7.99962C9.28042 8.16122 9.56728 7.99962 9.56728 7.99962C9.60472 8.01737 9.66883 7.99962 9.74043 7.95712C9.81296 7.91369 9.81015 7.9305 9.92527 7.90715C10.0418 7.88427 10.2856 7.79553 10.3572 7.74556C10.367 7.73808 10.3773 7.73388 10.3862 7.73061L10.4325 8.08696L9.91685 8.01177C10.345 8.6474 10.7278 8.76369 11.2314 8.5255C11.6984 8.30693 11.8977 8.3924 11.8977 8.3924C11.7995 8.49141 11.5552 8.71138 11.4401 8.78564C11.3245 8.86083 11.2838 8.92482 11.3189 9.1149C11.353 9.30591 11.4625 9.75053 11.6722 9.90138C11.8697 10.0434 12.1102 10.0779 12.3432 10.063C12.3198 10.2619 12.3002 10.5482 12.2903 10.892L11.901 10.5973C11.842 11.0998 11.9319 12.167 11.9319 12.167L11.7119 12.0217C11.7073 12.1422 11.6123 15.5048 13.705 17.8311C13.705 17.8311 13.5538 18.0268 12.975 18.294C12.975 18.294 10.6806 16.41 10.7976 11.4034L11.0638 11.5822C11.0166 10.9106 11.0858 10.2241 11.112 10.0009L9.9117 9.09201L9.80079 8.73427L8.5738 8.20885L9.41847 9.23633L9.87614 9.2424C9.85274 9.2424 9.80079 9.65946 9.71984 10.7107L9.43672 10.5263L9.31458 10.1844L8.04688 9.70476L8.94396 10.7042L9.38992 10.6762C9.38992 10.6762 8.93319 15.1088 10.441 17.4939C11.697 19.4784 13.5239 19.4942 15.187 18.3794C15.1281 18.5732 14.9273 19.15 14.3653 20.2013C14.3653 20.2013 14.6896 20.2013 15.0368 20.2602C15.0368 20.2602 14.968 20.5488 14.9315 20.6357C14.896 20.7249 14.902 20.8711 15.0728 20.879C15.2446 20.8841 15.4673 20.9056 15.4673 20.9056C15.4673 20.9056 15.4369 21.1139 15.4322 21.2246C15.4271 21.374 15.4126 21.4362 16.0088 21.4614C16.6335 21.4362 16.5928 21.374 16.5867 21.2246C16.582 21.1139 16.5535 20.9056 16.5535 20.9056C16.5535 20.9056 16.7767 20.8846 16.948 20.879C17.1188 20.8711 17.1249 20.7249 17.0888 20.6357C17.0537 20.5483 16.9821 20.2602 16.9821 20.2602C17.3303 20.2013 17.6546 20.2013 17.6546 20.2013C17.0916 19.1463 16.8899 18.5714 16.8305 18.3794C18.4951 19.4938 20.3234 19.4802 21.5803 17.4939C23.0876 15.1088 22.6309 10.6762 22.6309 10.6762L23.0769 10.7042L23.9753 9.70476ZM16.7177 7.98888C16.7673 7.76564 16.8076 7.57789 16.8539 7.60965C16.8998 7.64141 16.9812 7.64468 17.0102 7.60731C17.0397 7.56855 17.0481 7.56388 17.0715 7.60358C17.0949 7.64374 17.2334 7.71053 17.3266 7.55174C17.4192 7.39295 17.393 7.47374 17.4192 7.53446C17.4459 7.5947 17.5179 7.62086 17.5989 7.55734C17.6799 7.49429 17.7435 7.43825 17.8015 7.40976C17.8586 7.38174 17.8614 7.39575 17.8933 7.33784C17.9255 7.27946 17.9775 7.2533 17.9798 7.21594C17.9826 7.17811 17.9452 7.13514 18.0009 7.10619C18.0556 7.07723 18.0818 7.05668 18.1314 7.08003C18.181 7.10339 18.1946 7.05668 18.2208 7.08844C18.2466 7.1202 18.2807 7.12347 18.3135 7.08844C18.3453 7.05388 18.3687 6.99924 18.4061 7.06275C18.4436 7.1258 18.5273 7.14028 18.5447 7.10852C18.5629 7.07723 18.5769 7.07396 18.5999 7.12347C18.6233 7.17251 18.707 7.21034 18.7969 7.19586C18.7969 7.19586 18.8807 7.31122 18.9827 7.29394C19.0847 7.27619 19.1245 7.22482 19.1268 7.15616C19.1301 7.08657 19.0922 6.85306 19.1614 6.90396C19.2312 6.9558 19.2283 6.93292 19.248 6.89182C19.2686 6.85259 19.3004 6.89462 19.3355 6.88575C19.3701 6.87828 19.3641 6.83391 19.4221 6.89182C19.4806 6.9502 19.4857 6.97869 19.5409 6.99317C19.5957 7.00718 19.6191 7.02212 19.6771 7.08284C19.7356 7.14355 19.7993 7.20987 19.9027 7.17204C19.9027 7.17204 19.9691 7.25844 20.0393 7.25284C20.0393 7.25284 20.1811 7.40649 20.2621 7.38361C20.2621 7.38361 20.4006 7.44058 20.4474 7.43545C20.4942 7.42984 20.5026 7.39855 20.5321 7.41443C20.5606 7.43264 20.5494 7.35979 20.5925 7.40883C20.635 7.45833 20.7141 7.5452 20.7633 7.53072C20.7633 7.53072 20.8798 7.6288 20.9687 7.63907C21.059 7.65122 21.0852 7.67784 21.1138 7.67784C21.1423 7.67784 21.1283 7.64888 21.1807 7.68951C21.2322 7.73014 21.3084 7.74976 21.3576 7.73014C21.4067 7.70913 21.4264 7.71193 21.4708 7.718C21.4853 7.71987 21.504 7.718 21.5246 7.71613C21.3791 7.88894 21.1891 8.02624 20.8358 7.91743C20.3674 7.77265 20.227 7.84177 20.1301 7.94031C20.0314 8.03792 19.8175 8.32188 19.7585 8.50122C19.7019 8.68009 19.7309 8.8188 20.0768 9.22372C20.0768 9.22372 19.6252 9.25221 19.0295 9.06119C18.4328 8.87111 17.8825 8.80152 17.327 9.05045C17.2306 9.09388 17.1412 9.13358 17.0579 9.17515C16.9962 9.11256 16.8422 8.95424 16.7851 8.88232C16.7851 8.88232 16.8226 8.69784 16.8197 8.59042C16.8165 8.46899 16.8113 8.41201 16.7678 8.35083C16.7233 8.29245 16.6695 8.21119 16.7177 7.98888ZM19.1034 9.94575C18.8404 10.1115 18.3935 10.3063 17.7313 10.3063C17.2147 10.3063 16.8165 10.1877 16.5338 10.0555C16.6513 9.98358 17.1066 9.72531 17.6799 9.71037C18.3458 9.69262 18.6354 9.78462 18.9541 9.89578C18.9976 9.91119 19.0486 9.92754 19.1034 9.94575ZM16.3602 9.00188C16.364 9.00374 16.3672 9.00468 16.371 9.00608C16.4884 9.05232 16.6106 9.03504 16.6106 9.03504C16.6485 9.05839 16.8132 9.21297 16.8726 9.27135C16.7046 9.36242 16.5563 9.4577 16.4112 9.58053C16.3761 9.43715 16.3246 9.20317 16.3396 9.12471C16.348 9.0808 16.3555 9.03877 16.3602 9.00188ZM15.5352 5.84146C15.6002 5.88443 15.7266 5.95869 15.7706 6.06611C15.7827 6.09833 15.7926 6.12916 15.801 6.15858C15.7088 6.13569 15.6377 6.13429 15.5834 6.14317C15.4893 5.99138 15.3845 5.89237 15.2867 5.82699C15.3892 5.81251 15.4776 5.8027 15.5352 5.84146ZM14.9779 5.79803C14.9793 5.79476 14.9811 5.79242 14.9825 5.78729C15.0621 5.90451 15.2338 6.10767 15.509 6.16699C15.4804 6.181 15.4589 6.19874 15.4435 6.21416C15.2942 6.19454 15.1632 6.16699 15.1281 6.12729C15.0845 6.07825 15.0649 6.03481 15.0298 6.04042C14.9956 6.04649 15.0326 5.98764 14.9984 5.96616C14.9633 5.94328 14.9039 5.94561 14.9779 5.79803ZM14.8632 7.65122C14.8754 7.72921 14.8964 7.81515 14.9371 7.90061C14.9264 7.92023 14.9161 7.93984 14.9063 7.96039C14.8829 7.78245 14.8099 7.66663 14.7953 7.64514C14.8192 7.65308 14.8421 7.65402 14.8632 7.65122ZM11.9436 9.22558C12.2908 8.8202 12.3194 8.68196 12.2618 8.50308C12.2038 8.32374 11.9899 8.03979 11.8912 7.94218C11.7929 7.8441 11.6544 7.77451 11.185 7.91929C10.8317 8.02764 10.6431 7.89174 10.4967 7.71847C10.5163 7.71987 10.5336 7.72127 10.5472 7.7194C10.5916 7.71333 10.6108 7.711 10.6614 7.73155C10.71 7.75116 10.7859 7.73155 10.8373 7.69091C10.8897 7.65075 10.8752 7.67924 10.9038 7.67924C10.9328 7.67924 10.959 7.65262 11.0484 7.64047C11.1382 7.62973 11.2543 7.53212 11.2543 7.53212C11.3039 7.54613 11.3811 7.45927 11.4256 7.41023C11.4691 7.36119 11.4569 7.43405 11.4864 7.41583C11.5149 7.39995 11.5243 7.43124 11.5702 7.43685C11.616 7.44199 11.7559 7.38501 11.7559 7.38501C11.8364 7.40836 11.9792 7.25424 11.9792 7.25424C12.0479 7.26031 12.1149 7.17344 12.1149 7.17344C12.2188 7.21127 12.2833 7.14449 12.3414 7.08424C12.3984 7.02352 12.4218 7.00858 12.4771 6.99457C12.5323 6.97962 12.5374 6.95113 12.595 6.89322C12.6535 6.83531 12.6469 6.88014 12.682 6.88715C12.7167 6.89602 12.749 6.85352 12.7691 6.89322C12.7901 6.93432 12.7869 6.9572 12.8556 6.90536C12.9244 6.85399 12.8875 7.08751 12.8903 7.15756C12.8945 7.22622 12.9343 7.27806 13.0353 7.29534C13.1369 7.31308 13.2211 7.19726 13.2211 7.19726C13.31 7.21127 13.3947 7.17391 13.4177 7.12487C13.4411 7.07536 13.4556 7.07863 13.4724 7.10992C13.4897 7.14215 13.574 7.12721 13.6123 7.06416C13.6493 7.00064 13.6718 7.05482 13.7045 7.08984C13.7364 7.12487 13.771 7.1216 13.7972 7.08984C13.8229 7.05808 13.8384 7.10432 13.8875 7.08144C13.9362 7.05808 13.9628 7.07863 14.0171 7.10759C14.0719 7.13655 14.0349 7.17951 14.0377 7.21734C14.0405 7.25471 14.0934 7.28086 14.1248 7.33924C14.157 7.39715 14.1603 7.38267 14.2174 7.41116C14.2754 7.43965 14.3391 7.49569 14.42 7.55874C14.4944 7.61666 14.5604 7.57976 14.5918 7.53025C14.6035 7.58163 14.6208 7.66569 14.6456 7.66569C14.6704 7.66569 14.6915 7.60031 14.7097 7.55968C14.7354 7.59517 14.764 7.5863 14.7921 7.59704C14.7785 7.62319 14.5759 8.02951 14.823 8.39333H14.8234C14.8351 8.39333 14.8445 8.37839 14.8534 8.3541C14.8791 8.59042 14.8651 8.64366 14.8651 8.64366C14.8651 8.64366 14.7537 8.78517 14.6737 9.03504C14.1252 8.79732 13.581 8.87204 12.9928 9.05979C12.3952 9.24987 11.9436 9.22558 11.9436 9.22558ZM14.4818 9.71924C14.413 9.9252 14.3222 10.1363 14.1987 10.3044C13.5866 10.2871 13.1678 10.105 12.9174 9.94575C12.9726 9.92754 13.0227 9.91119 13.0667 9.89578C13.3854 9.78462 13.6755 9.69308 14.341 9.71037C14.3892 9.71177 14.4355 9.71597 14.4818 9.71924ZM12.5098 10.0265C12.5632 10.0172 12.6161 10.0149 12.6774 9.99993C12.8486 10.1713 13.3297 10.5538 14.2361 10.5538C15.4098 10.5538 16.0092 9.99105 16.0092 9.99105C16.0092 9.99105 16.6078 10.5557 17.7814 10.5557C18.6888 10.5557 19.1689 10.1774 19.3397 10.0065C19.4024 10.0214 19.4544 10.0172 19.5077 10.0261C19.65 11.203 19.4137 12.874 19.4137 12.874H16.0088H12.6034C12.6034 12.8745 12.368 11.2035 12.5098 10.0265ZM12.6034 13.0777H16.0088H19.4132C19.4132 13.0777 19.3088 14.3779 18.7534 15.4684H16.0088H13.2632C12.7073 14.3774 12.6034 13.0777 12.6034 13.0777ZM16.0088 18.6433C13.968 17.1689 13.3676 15.6604 13.3676 15.6604H16.0088H18.649C18.649 15.6604 18.051 17.1689 16.0088 18.6433Z" fill="white"/>
<path id="Vector_2" d="M17.2861 12.7173C17.4045 12.7145 17.5135 12.6724 17.6052 12.6024C17.6544 12.6187 17.7044 12.6271 17.7568 12.6253C17.9403 12.6234 18.0999 12.5038 18.1874 12.3287C18.2707 12.3399 18.3549 12.3287 18.4316 12.2881C18.5987 12.1989 18.675 11.9976 18.6389 11.7939C18.6488 11.7879 18.6563 11.7804 18.6652 11.7739C18.8168 11.6473 18.8135 11.397 18.6605 11.2111C18.6558 11.205 18.6516 11.2004 18.6455 11.1957C18.6974 11.1569 18.7321 11.1013 18.7321 11.036C18.7321 10.9206 18.5926 10.8281 18.4644 10.8281C18.3376 10.8281 18.1977 10.9206 18.1977 11.036V11.0369C18.1977 11.0434 18.1176 11.0654 18.0718 11.1051C18.0067 11.1583 17.9894 11.2368 17.9805 11.3218C17.9571 11.3302 17.9426 11.3377 17.9202 11.3503C17.8888 11.3657 17.8663 11.3881 17.842 11.4114C17.8046 11.4021 17.7704 11.397 17.7311 11.3984C17.6754 11.3988 17.623 11.4114 17.5725 11.432C17.4807 11.3694 17.3745 11.3335 17.2594 11.3367C16.9285 11.3419 16.6669 11.6571 16.674 12.0377C16.6815 12.4202 16.9561 12.7233 17.2861 12.7173Z" fill="white"/>
<path id="Vector_3" d="M13.3812 11.7734C13.3892 11.7799 13.3976 11.7874 13.4074 11.7935C13.3714 11.9971 13.4472 12.1984 13.6138 12.2876C13.6896 12.3282 13.7748 12.3394 13.8586 12.3282C13.9461 12.5034 14.1052 12.6229 14.2886 12.6248C14.341 12.6267 14.3916 12.6187 14.4402 12.6019C14.5315 12.672 14.6405 12.714 14.7589 12.7168C15.0898 12.7229 15.3635 12.4198 15.3715 12.0377C15.378 11.6566 15.116 11.3419 14.7851 11.3367C14.6709 11.3335 14.5638 11.3694 14.4711 11.4315C14.422 11.4114 14.3682 11.3993 14.312 11.3984C14.2732 11.397 14.2353 11.4021 14.2002 11.4105C14.1749 11.3881 14.1478 11.3657 14.1159 11.3503C14.0939 11.3377 14.0701 11.3293 14.0467 11.3218C14.0387 11.2368 14.028 11.1583 13.9624 11.1051C13.9166 11.0649 13.8258 11.0434 13.8258 11.0369V11.036C13.8258 10.9206 13.6971 10.8281 13.5698 10.8281C13.4416 10.8281 13.3255 10.9206 13.3255 11.036C13.3255 11.1013 13.3527 11.1569 13.4042 11.1957C13.4 11.1999 13.3929 11.205 13.3878 11.2111C13.2334 11.3956 13.2291 11.6464 13.3812 11.7734Z" fill="white"/>
<path id="Vector_4" d="M16.0305 15.3214L16.3132 14.894L16.2594 14.6918L16.4817 14.7222C16.4966 14.8147 16.5565 14.9207 16.6454 14.9337C16.7353 14.9496 16.8836 14.9337 16.8836 14.9337L16.9679 14.8357C16.864 14.7367 16.7353 14.6531 16.7353 14.6531C16.7053 14.0632 16.6019 13.6625 16.5257 13.45C16.4517 13.2375 16.353 13.2314 16.1639 13.2562C15.9758 13.2809 15.4648 13.5887 15.4648 13.5887L15.4297 13.8848L15.6042 13.9039C15.6042 13.9039 15.5046 14.236 15.4695 14.3556C15.4348 14.4751 15.4648 14.4695 15.5289 14.5148C15.593 14.5587 15.8368 14.6176 15.8368 14.6176L15.7671 14.9249L16.0305 15.3214Z" fill="white"/>
<path id="Vector_5" d="M15.3672 11.5732C15.4687 12.1584 15.8464 12.2116 15.9957 12.2084C15.9933 12.4148 15.9578 12.5783 15.9578 12.5783L16.1435 12.7053C16.1637 12.4596 16.1594 12.2649 16.144 12.1098C16.5904 12.0454 16.6817 11.3826 16.6817 11.3826C16.247 11.5783 16.1552 11.8922 16.136 12.0346C16.1052 11.7983 16.0485 11.6694 16.0186 11.6162C16.3012 11.5849 16.5202 11.3462 16.5202 11.0557C16.5202 10.8932 16.4515 10.7465 16.3396 10.6438L16.4323 10.4705L16.2353 10.5098L16.1543 10.3594L16.0097 10.4757L15.9231 10.3594L15.8305 10.4929L15.6564 10.3949L15.7051 10.5523C15.5188 10.6438 15.3906 10.8348 15.3906 11.0557C15.3906 11.335 15.5946 11.5657 15.8614 11.612C15.9493 11.7497 15.984 11.9249 15.9938 12.0883C15.75 11.6998 15.3672 11.5732 15.3672 11.5732ZM15.9797 11.6068C15.8436 11.6068 15.7327 11.364 15.7327 11.0637C15.7327 10.7657 15.8436 10.5228 15.9797 10.5228C16.1159 10.5228 16.2264 10.7657 16.2264 11.0637C16.2264 11.364 16.1159 11.6068 15.9797 11.6068Z" fill="white"/>
<path id="Vector_6" d="M16.4713 16.3859C16.4212 16.2649 16.4212 16.1453 16.4713 16.0234H15.7918C15.7413 16.1453 15.7413 16.2649 15.7918 16.3859H16.4713Z" fill="white"/>
<path id="Vector_7" d="M15.7918 17.2344C15.7413 17.3553 15.7413 17.5982 15.7918 17.7201H16.4713C16.4212 17.5982 16.4212 17.3558 16.4713 17.2344H15.7918Z" fill="white"/>
<path id="Vector_8" d="M16.6335 16.7515L16.7852 16.5086H15.7467L15.6326 16.3867H15.5853H15.1992L15.253 16.5086H15.3574L15.4683 16.7515H16.6335Z" fill="white"/>
<path id="Vector_9" d="M16.6255 17.8441H16.5871H16.4149H16.2684H16.0967H15.9862H15.8028H15.7462L15.6834 17.7227H15.4551L15.5248 17.8609L15.7111 17.9632H16.6067L16.7874 17.859L16.8126 17.7227H16.6662L16.6255 17.8441Z" fill="white"/>
</g>
<g id="Group_2">
<g id="Group_3">
<path id="Vector_10" d="M44.3142 9.20282C43.3333 8.24353 41.8817 7.73446 40.607 7.73446C37.3902 7.73446 35.5268 10.142 35.5464 13.0395C35.5464 15.5451 37.0374 17.9728 40.607 17.9728C41.7839 17.9728 42.8626 17.679 43.9609 16.7589V13.9792H40.1362V12.0218H46.0012V17.6402C44.6282 19.1478 42.9215 20.0286 40.607 20.0286C35.5661 20.0286 33.3887 16.6814 33.3887 13.04C33.3887 9.08559 35.9189 5.71875 40.607 5.71875C42.4311 5.71875 44.2749 6.40389 45.6872 7.79378L44.3142 9.20282Z" fill="white"/>
<path id="Vector_11" d="M61.834 12.9129C61.834 16.6277 59.5691 20.0286 54.7832 20.0286C49.9974 20.0286 47.7324 16.5492 47.7324 12.9325C47.7324 8.74559 50.667 5.71875 54.8225 5.71875C59.5297 5.73837 61.834 9.19768 61.834 12.9129ZM54.7832 18.0036C58.2101 18.0036 59.6481 15.5858 59.6481 12.9517C59.6481 10.4162 58.1904 7.7821 54.823 7.72326C51.6324 7.72326 49.9187 9.94446 49.9187 12.9517C49.958 15.3896 51.376 18.0036 54.7832 18.0036Z" fill="white"/>
<path id="Vector_12" d="M70.4679 20.0277H68.0888L62.1719 5.76172H64.734L69.2685 17.3086L73.8231 5.76172H76.3646L70.4679 20.0277Z" fill="white"/>
<path id="Vector_13" d="M77.8537 18.5904C77.8537 20.5099 74.9805 20.5099 74.9805 18.5904C74.98 16.6938 77.8537 16.6938 77.8537 18.5904Z" fill="white"/>
<path id="Vector_14" d="M91.7726 17.9788C90.3504 19.3781 88.5137 20.0286 86.5787 20.0286C81.5621 20.0286 79.3108 16.5791 79.2911 12.9526C79.2715 9.32611 81.6412 5.71875 86.5787 5.71875C88.4351 5.71875 90.2325 6.40856 91.6345 7.80826L90.1534 9.22757C89.166 8.26174 87.8623 7.80826 86.5787 7.80826C83.0634 7.80826 81.4634 10.3905 81.4835 12.933C81.5032 15.4559 83.0044 17.9592 86.5787 17.9592C87.8623 17.9592 89.2844 17.4268 90.2522 16.461L91.7726 17.9788Z" fill="white"/>
<path id="Vector_15" d="M107.687 12.9339C107.687 16.6375 105.429 20.0277 100.658 20.0277C95.8868 20.0277 93.6289 16.5591 93.6289 12.9536C93.6289 8.77969 96.5546 5.76172 100.697 5.76172C105.39 5.78133 107.687 9.23037 107.687 12.9339ZM100.658 18.0097C104.075 18.0097 105.508 15.5993 105.508 12.9732C105.508 10.4451 104.055 7.81947 100.697 7.76062C97.5167 7.76062 95.8082 9.97482 95.8082 12.9732C95.8475 15.4031 97.2612 18.0097 100.658 18.0097Z" fill="white"/>
</g>
</g>
<g id="Group_4">
<path id="Vector_16" d="M29.1972 2.85938H27.6543V11.4453H29.1972V2.85938Z" fill="#FBD000"/>
<path id="Vector_17" d="M29.1972 11.4453H27.6543V17.1693H29.1972V11.4453Z" fill="#00549F"/>
<path id="Vector_18" d="M29.1972 17.168H27.6543V22.8924H29.1972V17.168Z" fill="#D21A3A"/>
</g>
</g>
</svg>
