<svg width="403" height="41" viewBox="0 0 403 41" fill="none" xmlns="http://www.w3.org/2000/svg">
<path d="M45.512 30.0359L46.8025 29.9066C48.2216 29.7727 48.2216 29.5787 48.2216 25.1727V12.5321C48.2216 8.12606 48.2216 7.92747 46.8025 7.79815L45.512 7.66884V6.82367H54.9222C58.339 6.82367 63.6894 7.34093 63.6894 13.3726C63.6894 18.3005 58.2104 20.6328 54.7936 20.6328H54.1506V19.8523C55.6983 19.8523 59.8867 19.141 59.8867 13.6266C59.8867 9.34995 57.0485 8.05217 53.7648 8.05217C52.9933 8.05217 52.2172 8.18149 51.5099 8.37546V25.2327C51.5099 29.6433 51.5099 29.8373 53.5077 29.9666L54.7982 30.096V30.8765H45.4477V30.0313H45.512V30.0359Z" fill="white"/>
<path d="M63.4323 21.3484C63.4323 15.0581 68.2683 11.1047 73.8758 11.1047C79.2261 11.1047 83.7406 14.5409 83.7406 21.0251C83.7406 27.4448 79.0975 31.2688 73.2971 31.2688C67.6253 31.2642 63.4323 27.6341 63.4323 21.3484ZM73.9401 30.2943C78.9047 30.2943 80.7738 26.0177 80.7738 21.7364C80.7738 16.2266 78.0642 12.01 73.49 12.01C69.1087 12.01 66.592 15.64 66.592 20.6972C66.5277 26.7289 69.5588 30.2943 73.9401 30.2943Z" fill="white"/>
<path d="M92.572 19.792C94.8913 21.0898 97.2794 22.3183 97.2794 25.8191C97.2794 29.7724 93.6696 31.2642 90.5743 31.2642C88.3193 31.2642 86.9002 30.6823 85.9955 30.0957C85.4811 28.9273 85.0953 26.7889 85.0953 24.9739L85.9955 24.7153C86.317 26.7889 87.4146 30.2897 91.3458 30.2897C93.3436 30.2897 94.827 28.9919 94.827 26.7243C94.827 24.5859 93.0221 23.1588 90.7671 22.1197L88.898 21.0805C87.2217 20.1707 85.674 18.3557 85.674 16.1527C85.674 12.5872 88.6408 11.0955 91.7316 11.0955C93.5365 11.0955 95.0199 11.5481 95.7271 12.0007C95.9843 12.9105 96.0486 15.3075 96.0486 16.0187H95.3413C95.0199 14.527 94.5698 12.0007 91.2815 12.0007C89.6052 12.0007 88.1218 13.2338 88.1218 15.1782C88.1218 16.9286 89.348 17.8338 90.96 18.7436L92.572 19.792Z" fill="white"/>
<path d="M97.344 30.2296L98.3773 30.1649C99.5392 30.0356 99.5392 29.9063 99.5392 26.3408V16.1618C99.5392 12.5964 99.5392 12.4671 98.3773 12.3377L97.344 12.2731V11.6265H104.435V12.2731L103.406 12.3377C102.244 12.4671 102.244 12.5964 102.244 16.1618V26.2762C102.244 29.8416 102.244 29.9709 103.406 30.1002L104.435 30.1649V30.8115H97.344V30.2296Z" fill="white"/>
<path d="M110.171 30.2292L111.268 30.1646C112.88 30.0352 112.88 29.9059 112.88 26.3405V12.4021H111.397C107.273 12.4021 107.209 12.8547 106.625 16.2261H105.918C105.918 16.0968 105.854 15.3163 105.854 14.9283C105.854 13.5659 106.047 12.2035 106.175 11.5569H122.355C122.483 12.2035 122.676 13.5659 122.676 14.9283C122.676 15.3163 122.612 16.0968 122.612 16.2261H121.905C121.262 12.8547 121.197 12.4021 117.133 12.4021H115.65V26.2758C115.65 29.8413 115.65 29.9706 117.262 30.0999L118.295 30.1646V30.8111H110.235V30.2292H110.171Z" fill="white"/>
<path d="M123.645 30.2296L124.678 30.1649C125.84 30.0356 125.84 29.9063 125.84 26.3408V16.1618C125.84 12.5964 125.84 12.4671 124.678 12.3377L123.645 12.2731V11.6265H130.736V12.2731L129.707 12.3377C128.545 12.4671 128.545 12.5964 128.545 16.1618V26.2762C128.545 29.8416 128.545 29.9709 129.707 30.1002L130.736 30.1649V30.8115H123.645V30.2296Z" fill="white"/>
<path d="M134.089 14.5407C133.639 13.4369 133.318 12.4023 132.349 12.273L131.508 12.2084V11.5618H138.728V12.2084L137.823 12.273C137.373 12.3377 136.532 12.4023 136.532 12.9843C136.532 13.1136 136.79 13.8248 136.918 14.1527L141.947 27.1813C142.59 25.4309 147.169 14.0234 147.169 13.1136C147.169 12.5317 146.59 12.4023 146.007 12.273L144.716 12.079V11.4325H150.971V12.079L150.2 12.273C149.878 12.3377 149.557 12.5317 149.295 12.7256C148.652 13.3722 147.747 16.1617 146.976 17.5888L144.978 22.3874C143.302 26.4054 141.883 29.9709 141.626 30.7514C141.497 30.8807 141.047 31.0747 140.661 31.204L134.089 14.5407Z" fill="white"/>
<path d="M144.725 30.2296L145.304 30.165C146.401 29.971 146.53 29.6477 147.237 27.962L153.295 13.183C153.552 12.6011 153.745 12.0145 154.002 11.4326L154.842 11.174L161.355 28.0959C161.805 29.2644 162.062 29.911 162.838 30.1049L164 30.2989V30.9455H156.781V30.2989L158.071 30.0403C158.585 29.9756 158.971 29.7817 158.971 29.4584C158.971 29.2644 158.843 29.0704 158.778 28.8764L156.716 23.3667C155.619 23.1727 154.59 23.0434 153.492 23.0434C152.464 23.0434 151.43 23.1727 150.461 23.3667L148.978 27.4494C148.656 28.3592 148.399 29.1997 148.399 29.3937C148.399 29.9756 148.785 30.0403 149.106 30.0403L150.847 30.2989V30.9455H144.725V30.2296ZM150.783 22.189C151.683 22.1243 152.587 22.0596 153.423 22.0596C154.328 22.0596 155.292 22.0596 156.197 22.189L153.552 15.1228L150.783 22.189Z" fill="white"/>
<path d="M62.7895 38.3951C62.7252 39.1064 62.5967 39.6283 62.3395 40.2748C62.018 40.4042 61.1776 40.6628 60.0845 40.6628C58.0225 40.6628 56.0247 39.6883 56.0247 36.9034C56.0247 33.9845 58.3439 33.0793 60.0845 33.0793C61.1821 33.0793 62.018 33.3379 62.3395 33.5319C62.4681 33.9845 62.5324 34.6357 62.5324 35.153L62.2109 35.2176C62.0823 34.765 61.9537 33.4673 60.0845 33.4673C58.2796 33.4673 57.182 34.6357 57.182 36.7094C57.182 38.5891 58.0822 40.3395 60.0845 40.3395C61.8894 40.3395 62.1466 39.2357 62.5324 38.3305L62.7895 38.3951Z" fill="white"/>
<path d="M63.1109 37.6193C63.1109 35.7396 64.5943 34.5065 66.2706 34.5065C67.8826 34.5065 69.2374 35.5456 69.2374 37.49C69.2374 39.4343 67.8183 40.6028 66.0777 40.6028C64.4014 40.6028 63.1109 39.5637 63.1109 37.6193ZM66.3349 40.3442C67.8183 40.3442 68.3969 39.0464 68.3969 37.7532C68.3969 36.0675 67.5611 34.8344 66.2063 34.8344C64.9158 34.8344 64.1442 35.9382 64.1442 37.4946C64.0799 39.2404 64.9801 40.3442 66.3349 40.3442Z" fill="white"/>
<path d="M69.7519 40.2747L69.9447 40.21C70.0733 40.21 70.1376 40.1453 70.2019 40.0807C70.2662 40.016 70.3305 39.4341 70.3948 38.6536L70.5234 36.4506C70.5877 35.8687 70.5877 34.8942 70.5877 34.6356L70.8449 34.5709C71.1021 35.0235 73.0998 38.8476 73.357 39.3048C73.6142 38.8522 75.612 35.0928 75.7405 34.6356L75.9977 34.5709C75.9977 34.6356 76.062 35.61 76.1263 36.7739L76.1906 38.3303C76.2549 39.1062 76.3192 39.9514 76.3835 40.0807C76.4478 40.1453 76.5764 40.21 76.705 40.2747L76.9622 40.3393V40.5333H74.7072V40.3393L75.0287 40.2747C75.4145 40.21 75.4145 40.0807 75.4145 39.6927C75.4145 38.7183 75.2859 36.8386 75.2859 36.3213C75.1573 36.7092 74.2526 38.4596 73.3524 40.1453C73.2881 40.21 73.2881 40.3393 73.2238 40.404L72.9666 40.5333C72.7738 40.1453 71.6761 37.9424 71.0332 36.7739C70.9689 36.5799 70.8403 36.4506 70.776 36.2566C70.776 36.7739 70.6474 39.2401 70.6474 39.5634C70.6474 40.0807 70.6474 40.21 71.0332 40.2747L71.3547 40.3393V40.5333H69.5498V40.2747H69.7519Z" fill="white"/>
<path d="M77.4861 40.2744H77.8075C78.129 40.2097 78.129 40.2097 78.129 39.1059V36.0578C78.129 34.954 78.129 34.954 77.8075 34.8893H77.4861V34.6953H79.8053C80.6457 34.6953 81.9316 34.8246 81.9316 36.3164C81.9316 37.5495 80.5768 38.0668 79.741 38.0668H79.6124V37.8728C79.9982 37.8728 81.0315 37.6788 81.0315 36.3811C81.0315 35.3419 80.3243 35.0186 79.5481 35.0186C79.3552 35.0186 79.1623 35.0833 79.0337 35.0833V39.166C79.0337 40.2698 79.0337 40.2698 79.5481 40.3344H79.8696V40.5284H77.6146V40.2698H77.4861V40.2744Z" fill="white"/>
<path d="M81.6142 40.2791C81.9356 40.2145 81.9999 40.1498 82.1928 39.6325L83.9977 35.1573C84.062 34.9633 84.1263 34.834 84.1906 34.64L84.4478 34.5753L86.3812 39.6972C86.5098 40.0205 86.5741 40.2791 86.8313 40.2791L87.1528 40.3438V40.5377H84.9621V40.3438L85.3479 40.2791C85.4765 40.2791 85.6051 40.2145 85.6051 40.0851C85.6051 40.0205 85.5408 39.9558 85.5408 39.8912L84.8978 38.2054C84.5763 38.1408 84.2549 38.1408 83.9334 38.1408C83.6119 38.1408 83.2904 38.2054 83.0287 38.2054L82.5786 39.4386C82.45 39.6972 82.3857 39.9558 82.3857 40.0205C82.3857 40.2145 82.5143 40.2145 82.5786 40.2145L83.0929 40.2791V40.4731H81.2238V40.2791H81.6142ZM83.2904 37.8775C83.5476 37.8775 83.8048 37.8129 84.062 37.8129C84.3192 37.8129 84.6406 37.8129 84.9024 37.8775L84.062 35.7392L83.2904 37.8775Z" fill="white"/>
<path d="M87.4146 40.2748C87.7361 40.2748 87.8004 39.9515 87.8004 39.0417V34.7004L87.9933 34.6357C88.7005 35.5455 91.3459 38.2658 92.246 39.2403V36.1921C92.246 35.2222 92.246 34.959 91.7959 34.959H91.4744V34.765H93.3436V34.959H93.0221C92.7007 34.959 92.6364 35.2823 92.6364 36.1921V40.5334L92.4435 40.5981C92.2506 40.4041 91.7362 39.8222 90.7672 38.8477L88.1219 36.0582V39.0417C88.1219 40.0162 88.1219 40.2748 88.572 40.2748H88.8934V40.4688H87.0243V40.2748H87.4146ZM89.0266 33.8598C89.1552 33.6658 89.4767 33.1486 89.9268 33.1486C90.1196 33.1486 90.3768 33.2132 90.5697 33.3425C90.7626 33.4072 91.0198 33.5365 91.2127 33.5365C91.4699 33.5365 91.5984 33.2779 91.6627 33.1486L91.7913 33.2779C91.6627 33.4719 91.4699 33.9891 90.9555 33.9891C90.5054 33.9891 89.9222 33.6658 89.665 33.6658C89.4078 33.6658 89.2149 33.9245 89.1506 34.0538L89.0266 33.8598Z" fill="white"/>
<path d="M93.7983 40.2744H94.1198C94.4412 40.2097 94.4412 40.2097 94.4412 39.1059V36.0578C94.4412 34.954 94.4412 34.954 94.1198 34.8893H93.7983V34.6953H95.9246V34.8893H95.6032C95.2817 34.954 95.2817 34.954 95.2817 36.0578V39.1059C95.2817 40.2097 95.2817 40.2097 95.6032 40.2744H95.9246V40.4684H93.7983V40.2744Z" fill="white"/>
<path d="M96.1176 40.2791C96.439 40.2145 96.5033 40.1498 96.6962 39.6325L98.5011 35.1573C98.5654 34.9633 98.6297 34.834 98.694 34.64L98.9512 34.5753L100.885 39.6972C101.013 40.0205 101.078 40.2791 101.335 40.2791L101.656 40.3438V40.5377H99.4655V40.3438L99.8513 40.2791C99.9799 40.2791 100.108 40.2145 100.108 40.0851C100.108 40.0205 100.044 39.9558 100.044 39.8912L99.4013 38.2054C99.0798 38.1408 98.7583 38.1408 98.4368 38.1408C98.1153 38.1408 97.7939 38.2054 97.5321 38.2054L97.082 39.4386C96.9534 39.6972 96.8891 39.9558 96.8891 40.0205C96.8891 40.2145 97.0177 40.2145 97.082 40.2145L97.5964 40.2791V40.4731H95.7272V40.2791H96.1176ZM97.7939 37.8775C98.051 37.8775 98.3082 37.8129 98.5654 37.8129C98.8226 37.8129 99.1441 37.8129 99.4058 37.8775L98.5654 35.7392L97.7939 37.8775Z" fill="white"/>
<path d="M103.659 40.344H103.916C104.173 40.344 104.173 40.2793 104.173 39.3741V36.8432C104.173 35.938 104.173 35.938 103.916 35.8733H103.659V35.744H106.042C107.59 35.744 108.554 36.5846 108.554 38.0117C108.554 39.8914 107.135 40.6026 105.652 40.6026H103.718V40.344H103.659ZM104.885 40.1454C105.142 40.21 105.464 40.2747 105.721 40.2747C107.076 40.2747 107.783 39.5635 107.783 38.1364C107.783 36.58 106.942 35.9334 105.656 35.9334C105.399 35.9334 105.142 35.998 104.885 35.998V40.1454Z" fill="white"/>
<path d="M109.138 40.3442H109.395C109.652 40.3442 109.652 40.2795 109.652 39.3743V36.848C109.652 35.9382 109.652 35.9382 109.395 35.8782H109.138V35.7488H112.298C112.298 35.8782 112.362 36.2014 112.362 36.5247V36.848H112.169C112.04 36.0721 111.976 35.9382 110.943 35.9382H110.364V37.9472H111.007C111.586 37.9472 111.714 37.9472 111.779 37.6239L111.843 37.3653H112.036V38.6631H111.843L111.779 38.4044C111.714 38.0811 111.586 38.0811 111.007 38.0811H110.364V40.2195C110.621 40.2841 110.878 40.2841 111.136 40.2841C112.298 40.2841 112.362 39.8315 112.49 39.245H112.683C112.683 39.6976 112.555 40.0855 112.426 40.4781H109.074V40.3488H109.138V40.3442Z" fill="white"/>
<path d="M117.84 36.3215C118.676 36.8387 119.581 37.2959 119.581 38.5891C119.581 40.0809 118.226 40.6628 117.069 40.6628C116.228 40.6628 115.714 40.4042 115.328 40.2102C115.135 39.7576 115.007 38.9771 115.007 38.2658L115.328 38.2012C115.457 38.9771 115.843 40.2748 117.326 40.2748C118.098 40.2748 118.617 39.7576 118.617 38.9124C118.617 38.1319 117.974 37.55 117.069 37.162L116.362 36.7741C115.719 36.4508 115.135 35.7349 115.135 34.959C115.135 33.5966 116.233 33.0793 117.39 33.0793C118.098 33.0793 118.617 33.2733 118.874 33.4026C118.938 33.7259 119.002 34.6357 119.002 34.8944H118.745C118.617 34.3771 118.488 33.4026 117.197 33.4026C116.554 33.4026 116.035 33.8552 116.035 34.5711C116.035 35.2176 116.486 35.5456 117.069 35.9335L117.84 36.3215Z" fill="white"/>
<path d="M120.164 40.2744H120.486C120.807 40.2097 120.807 40.2097 120.807 39.1059V36.0578C120.807 34.954 120.807 34.954 120.486 34.8893H120.164V34.6953H123.967C124.031 34.8893 124.031 35.2126 124.031 35.6052V35.9284L123.838 35.9931C123.646 35.0186 123.646 34.8893 122.419 34.8893H121.712V37.2863H122.484C123.191 37.2863 123.324 37.2863 123.384 36.8983L123.448 36.575H123.705V38.1961H123.448L123.384 37.8728C123.319 37.4849 123.191 37.4849 122.484 37.4849H121.712V40.0111C122.034 40.0758 122.355 40.1405 122.681 40.1405C124.1 40.1405 124.165 39.6232 124.357 38.9073L124.55 38.972C124.55 39.5539 124.422 39.9419 124.229 40.4637H120.233V40.2698H120.164V40.2744Z" fill="white"/>
<path d="M130.415 40.2102C130.093 40.3395 129.189 40.6628 128.224 40.6628C126.484 40.6628 124.872 39.8823 124.872 37.6146C124.872 35.2823 126.741 34.5665 128.16 34.5665C129.06 34.5665 129.708 34.7604 129.965 34.9544C130.029 35.2777 130.093 35.795 130.093 36.2522L129.836 36.3169C129.772 35.9936 129.643 34.8898 128.16 34.8898C126.741 34.8898 125.841 35.8596 125.841 37.4807C125.841 38.9724 126.612 40.3995 128.353 40.3995C128.674 40.3995 129.06 40.3349 129.386 40.2702V39.8823C129.386 38.7785 129.386 38.7785 128.743 38.7138H128.422V38.5198H130.677V38.7138H130.355C130.162 38.7785 130.162 38.7785 130.162 39.6236C130.162 39.8823 130.162 39.9469 130.291 39.9469H130.355L130.415 40.2102Z" fill="white"/>
<path d="M135.829 40.3437C135.701 40.2144 135.636 40.0851 135.508 40.0851C135.379 40.0851 134.667 40.667 133.51 40.667C131.705 40.667 131.512 39.6278 131.512 38.3993V36.067C131.512 34.9632 131.512 34.9632 131.191 34.8986H130.869V34.7046H132.996V34.8986H132.674C132.353 34.9632 132.353 34.9632 132.353 36.067V38.27C132.353 39.5031 132.546 40.3437 133.9 40.3437C134.805 40.3437 135.384 39.8264 135.512 39.6325V36.067C135.512 34.9632 135.512 34.9632 135.191 34.8986H134.869V34.7046H136.996V34.8986H136.674C136.353 34.9632 136.353 34.9632 136.353 36.067V40.5423L136.096 40.607L135.829 40.3437Z" fill="white"/>
<path d="M137.442 40.2792H137.763C138.085 40.2145 138.085 40.2145 138.085 39.1107V36.0626C138.085 34.9588 138.085 34.9588 137.763 34.8941H137.442V34.7001H139.761C140.601 34.7001 141.759 34.8294 141.759 36.1919C141.759 37.0324 141.051 37.4897 140.532 37.7483C140.661 38.0069 140.983 38.5889 141.175 38.9814C141.561 39.628 141.947 40.1499 142.14 40.2792C142.204 40.3439 142.397 40.3439 142.59 40.3439V40.5378H141.883C141.304 40.5378 140.914 40.1499 140.656 39.6326L140.335 38.986C140.078 38.5334 139.885 38.2101 139.821 38.1455C139.692 38.0162 139.435 38.0162 139.306 38.0162H138.985V39.1846C138.985 40.2884 138.985 40.2884 139.306 40.3531H139.628V40.5471H137.501V40.2884H137.442V40.2792ZM138.92 37.6836H139.435C140.142 37.6836 140.854 37.2957 140.854 36.2565C140.854 35.2174 140.211 34.8941 139.499 34.8941C139.306 34.8941 139.113 34.9588 138.985 34.9588V37.6836H138.92Z" fill="white"/>
<path d="M142.466 37.6193C142.466 35.7396 143.949 34.5065 145.626 34.5065C147.237 34.5065 148.592 35.5456 148.592 37.49C148.592 39.4343 147.173 40.6028 145.433 40.6028C143.692 40.6028 142.466 39.5637 142.466 37.6193ZM145.626 40.3442C147.109 40.3442 147.688 39.0464 147.688 37.7532C147.688 36.0675 146.852 34.8344 145.497 34.8344C144.206 34.8344 143.435 35.9382 143.435 37.4946C143.371 39.2404 144.271 40.3442 145.626 40.3442Z" fill="white"/>
<path d="M151.495 37.1665C152.202 37.5545 152.914 37.9471 152.914 38.9816C152.914 40.1501 151.816 40.6027 150.916 40.6027C150.209 40.6027 149.818 40.4087 149.561 40.2794C149.433 39.9561 149.304 39.3049 149.304 38.723L149.561 38.6583C149.625 39.3049 150.011 40.344 151.173 40.344C151.752 40.344 152.206 39.9561 152.206 39.2402C152.206 38.5936 151.692 38.1364 150.98 37.8131L150.402 37.4898C149.887 37.2312 149.433 36.6493 149.433 35.9981C149.433 34.8943 150.333 34.4417 151.237 34.4417C151.752 34.4417 152.202 34.571 152.464 34.7003C152.528 34.9589 152.528 35.6748 152.528 35.9334H152.335C152.271 35.4808 152.078 34.7003 151.109 34.7003C150.594 34.7003 150.14 35.0882 150.14 35.6748C150.14 36.1921 150.526 36.4507 150.98 36.7786L151.495 37.1665Z" fill="white"/>
<path d="M19.7893 0.666992C8.83148 0.666992 0 9.6129 0 20.5678C0 31.5874 8.89578 40.4687 19.7893 40.4687C30.7472 40.4687 39.5786 31.5227 39.5786 20.5678C39.5786 9.6129 30.7518 0.666992 19.7893 0.666992ZM19.5321 8.96632C20.1751 9.41892 20.6941 9.94081 21.4013 10.5874C21.5299 10.7167 21.6585 10.846 22.1086 10.7167C23.0087 10.4581 25.1396 9.41892 26.6873 9.22495C27.3946 9.16029 27.5875 9.22495 27.9778 9.6129C28.7494 10.3241 29.3969 10.7814 29.847 11.3633C28.2993 11.5573 27.785 11.6866 27.4635 11.7512L27.2706 11.8159C26.5633 12.0099 26.3705 12.4625 26.3016 12.7257C26.3016 12.7904 26.2373 12.9197 26.2373 13.049C26.2373 13.3076 26.3016 13.5663 26.5588 13.8896C26.9445 14.5361 27.2017 14.9934 27.3303 15.3167C25.8469 15.7693 24.2349 16.4205 23.5277 16.7438C23.0776 16.9377 22.7561 17.3257 22.6918 17.7829V18.0415C22.6918 18.3002 22.7561 18.6881 23.1419 19.0807C24.2395 20.2491 25.4611 22.9047 25.4611 25.8236C25.4611 26.4702 25.3968 27.1214 25.2682 27.768C24.6896 30.8161 22.6229 33.1484 19.2061 34.6402C17.4655 35.4161 15.6606 35.6147 13.8557 35.55H14.1772C17.5941 35.1621 19.9776 33.9289 21.6539 30.9454C23.9731 26.8627 22.2326 21.8056 18.7514 18.9514C17.7824 18.1755 16.6251 17.5243 15.5917 16.8777C15.3345 16.6837 15.1417 16.4897 15.5274 16.0371C16.1061 15.2612 17.0108 13.9635 18.6228 12.7303C18.9443 12.4717 18.8157 12.3424 18.6871 12.1484C18.1084 11.6958 17.787 11.4372 17.0751 10.98C16.6893 10.786 16.5608 10.592 16.8179 10.3334C17.1394 10.0101 17.7181 9.55748 19.0086 8.97094C19.0821 8.70768 19.3393 8.837 19.5321 8.96632ZM6.64084 12.4671C6.89802 11.9498 7.54557 10.7167 8.12423 10.0055C8.25282 9.81149 8.38141 9.74683 8.70289 9.81149C9.28156 9.87615 10.2506 10.3288 11.5411 10.652C11.7983 10.7167 11.9269 10.7167 12.1198 10.4581C12.6341 9.87615 14.1175 8.51371 16.5056 7.47456C16.7628 7.34525 17.1486 7.34525 17.4747 7.53922C17.7319 7.66854 18.0533 7.79785 18.4437 7.99183C17.2818 8.50909 16.7031 8.9617 16.2531 9.41892C15.8673 9.80687 15.803 10.1948 15.803 10.4581V10.652C15.8673 11.1047 16.1245 11.4926 16.6388 11.7559L16.7031 11.8205C16.7031 11.8205 16.6388 11.8205 16.6388 11.7559C17.0246 11.9498 17.2818 12.1438 17.5436 12.3378C16.2531 13.5062 15.4172 14.6054 14.8982 15.3213C14.5125 15.8385 14.4482 16.2958 14.5125 16.6191C14.5768 16.9424 14.7054 17.3303 15.284 17.6582L15.7984 17.9815C16.6985 18.4988 17.539 19.0206 18.3105 19.6672C21.213 22.0642 23.0822 26.5395 20.9558 30.3635C19.5367 32.8898 17.4747 34.2522 14.2507 34.6402C13.0888 34.7695 11.9958 34.7048 10.9624 34.4462C11.4125 34.5109 11.7983 34.5109 12.2529 34.5109C14.6365 34.4462 17.2175 33.601 18.508 31.5274C21.7963 26.2762 17.9936 20.8957 12.9005 19.21C11.7386 18.8221 9.80511 18.4341 8.32171 18.2401C7.74305 18.1755 7.61446 17.9815 7.80734 17.5936C8.12882 16.947 8.71208 15.6492 9.80511 13.9635C9.8694 13.8988 9.80511 13.7048 9.61222 13.6402C9.03356 13.5109 7.93594 13.1876 6.96691 13.0582C6.64084 12.9197 6.51224 12.7904 6.64084 12.4671ZM22.4989 38.5243C11.0864 40.2747 5.28603 31.6567 5.28603 31.6567C7.93134 34.183 12.3769 38.3349 19.1464 35.2221C28.9469 30.8161 26.0444 20.9604 23.3991 18.0415C23.0776 17.7182 23.2705 17.395 23.5277 17.3303C24.2992 17.007 26.3659 16.1618 27.9778 15.7739C28.1707 15.7092 28.1707 15.6446 28.1064 15.3859C27.9778 14.998 27.785 14.3468 27.0088 13.0536C26.7516 12.795 26.8802 12.601 27.1374 12.5364C27.5232 12.4717 27.7804 12.3424 29.8424 12.0838C30.0353 12.0191 30.2925 12.1484 30.4211 12.3424C30.8712 13.1229 31.1926 13.8988 31.5187 14.9333C31.5187 15.0626 31.7116 15.2566 31.9045 15.2566C32.676 15.2566 35.3856 15.3213 36.8047 15.5799C36.9333 15.5799 37.1905 15.7092 37.1905 15.9032C37.5763 17.0717 38.4167 22.5815 35.9643 28.4145C33.071 35.0281 27.7207 37.6837 22.4989 38.5243Z" fill="white"/>
<path d="M194 26.8269C194.305 26.8485 194.607 26.8918 194.912 26.8918C220.203 26.8945 245.495 26.8945 270.787 26.8945C271.089 26.8945 271.391 26.8945 271.718 26.8945C271.718 27.3457 271.718 27.7185 271.718 28.167C245.797 28.167 219.899 28.167 194 28.167C194 27.7185 194 27.2727 194 26.8269Z" fill="white"/>
<path d="M271.725 13.1702C271.725 13.5863 271.725 14.0023 271.725 14.4887C271.391 14.4887 271.111 14.4887 270.828 14.4887C245.505 14.4887 220.181 14.4887 194.858 14.4887C194.572 14.4887 194.285 14.5022 194 14.5103C194 14.0618 194 13.616 194 13.1702C219.908 13.1702 245.817 13.1702 271.725 13.1702Z" fill="white"/>
<path d="M279.584 13.1697C279.83 13.2534 280.083 13.3264 280.324 13.4237C280.994 13.6938 281.282 14.1234 281.378 15.0096C281.186 15.0447 280.992 15.0798 280.805 15.1122C280.193 14.0288 279.631 13.71 278.788 14.0802C278.518 14.1991 278.208 14.5584 278.169 14.8502C278.139 15.0555 278.491 15.4392 278.744 15.5553C279.265 15.7931 279.842 15.8849 280.385 16.0768C281.225 16.3767 281.599 16.917 281.569 17.714C281.542 18.4678 281.076 19.1811 280.306 19.2972C279.645 19.3972 278.923 19.3513 278.277 19.1676C277.562 18.9676 277.26 18.2868 277.201 17.4249C277.432 17.3871 277.623 17.3547 277.805 17.3223C278.338 18.5002 278.896 18.8487 279.921 18.6515C280.368 18.5651 280.756 18.357 280.825 17.8059C280.899 17.2088 280.496 16.9818 280.073 16.8332C279.628 16.6765 279.164 16.582 278.714 16.4334C277.79 16.1308 277.37 15.6094 277.4 14.8421C277.432 14.0342 277.925 13.5074 278.837 13.2913C278.928 13.2697 279.012 13.2102 279.1 13.167C279.257 13.1697 279.419 13.1697 279.584 13.1697Z" fill="white"/>
<path d="M345.399 13.1699C346.305 13.4104 347.094 13.8049 347.369 14.9855C347.148 15.0558 346.927 15.1287 346.708 15.199C346.735 15.1314 346.763 15.0639 346.79 14.9963C346.347 14.6559 345.947 14.1561 345.458 14.0129C344.539 13.7427 343.733 14.3371 343.531 15.3665C343.416 15.9608 343.411 16.6147 343.504 17.2145C343.649 18.1547 344.217 18.6545 344.998 18.722C345.797 18.7923 346.298 18.4113 346.662 17.4657C346.684 17.4063 346.726 17.3549 346.782 17.2631C346.986 17.3063 347.2 17.3495 347.409 17.3928C347.291 18.8112 346.106 19.6703 344.676 19.4164C343.33 19.1786 342.521 17.8467 342.612 16.1094C342.701 14.4046 343.549 13.4861 345.033 13.1699C345.153 13.1699 345.276 13.1699 345.399 13.1699Z" fill="white"/>
<path d="M382.726 13.17C383.545 13.3726 384.287 13.6941 384.636 14.6262C384.673 14.7262 384.69 14.8369 384.729 14.9882C384.505 15.0612 384.299 15.1287 384.252 15.1449C383.783 14.7126 383.456 14.2425 383.026 14.0507C382.169 13.6671 381.156 14.2344 380.94 15.2179C380.802 15.8474 380.79 16.5444 380.879 17.1874C381.011 18.1412 381.559 18.6383 382.343 18.7193C383.139 18.8031 383.672 18.4221 384.034 17.5035C384.066 17.4252 384.098 17.3441 384.139 17.2361C384.365 17.2955 384.577 17.3495 384.837 17.4171C384.643 18.3843 384.179 19.0327 383.351 19.3191C381.677 19.9 380.2 18.8085 380.021 16.8821C379.829 14.8261 380.397 13.9237 382.358 13.17C382.481 13.17 382.604 13.17 382.726 13.17Z" fill="white"/>
<path d="M251.312 24.9439C251.312 22.1151 251.312 19.2945 251.312 16.3118C252.747 16.3929 254.173 16.3767 255.568 16.5874C256.561 16.7387 257.185 17.5897 257.512 18.6137C257.986 20.0969 257.962 21.5829 257.392 23.0391C256.952 24.1604 256.153 24.8412 255.057 24.9223C253.838 25.0141 252.61 24.9439 251.312 24.9439ZM252.367 23.8983C253.217 23.8983 254.01 23.9334 254.799 23.8875C255.561 23.8443 256.092 23.3796 256.382 22.6123C256.834 21.41 256.853 20.1753 256.47 18.9568C256.266 18.3057 255.866 17.7113 255.219 17.6059C254.288 17.4546 253.335 17.4655 252.369 17.406C252.367 19.6458 252.367 21.7315 252.367 23.8983Z" fill="white"/>
<path d="M221.036 18.7895C220.918 18.8435 220.832 18.8948 220.739 18.9246C220.545 18.984 220.348 19.0299 220.162 19.0786C219.277 17.3522 218.176 16.8469 216.685 17.4683C216.459 17.5629 216.237 17.6953 216.046 17.8547C214.974 18.7544 214.628 21.0427 215.323 22.5422C215.896 23.7796 217.297 24.3713 218.712 23.9768C218.731 23.9714 218.751 23.9633 218.771 23.9579C220.076 23.5608 220.272 23.2284 220.071 21.6533C219.356 21.6533 218.631 21.6533 217.864 21.6533C217.864 21.2832 217.864 20.9833 217.864 20.6429C218.94 20.6429 220.017 20.6429 221.194 20.6429C221.194 21.6371 221.203 22.6314 221.181 23.6256C221.179 23.7661 221.034 23.939 220.913 24.0336C219.513 25.1359 217.98 25.479 216.328 24.8657C214.527 24.1957 213.569 22.1586 213.93 19.8648C214.39 16.9307 216.906 15.4204 219.437 16.5686C220.329 16.9739 220.845 17.7223 221.036 18.7895Z" fill="white"/>
<path d="M269.494 21.0452C269.425 22.3528 269.025 23.7929 267.622 24.6169C266.3 25.3923 264.941 25.395 263.658 24.5169C262.332 23.6091 261.892 22.1691 261.931 20.5481C262.005 17.4708 264.184 15.6309 266.796 16.3901C268.47 16.8791 269.502 18.5407 269.494 21.0452ZM262.997 20.7642C263.044 21.1208 263.069 21.4991 263.142 21.8665C263.408 23.1904 264.41 24.109 265.607 24.1468C266.875 24.1873 267.89 23.3714 268.229 22.0097C268.465 21.0641 268.455 20.1158 268.16 19.1837C267.762 17.922 266.769 17.1844 265.587 17.2574C264.346 17.333 263.432 18.1597 263.16 19.4836C263.079 19.897 263.054 20.3211 262.997 20.7642Z" fill="white"/>
<path d="M403 19.3078C402.69 19.3078 402.45 19.3078 402.155 19.3078C402.032 18.9809 401.852 18.6459 401.784 18.2893C401.656 17.6301 401.3 17.4247 400.732 17.5247C400.712 17.5274 400.69 17.5247 400.671 17.5247C399.295 17.5247 399.285 17.5193 398.808 18.9053C398.697 19.2268 398.543 19.3051 398.238 19.3457C397.213 19.4889 396.577 19.0998 396.073 18.065C395.398 16.6709 395.09 16.5845 393.746 16.7277C393.746 17.5652 393.746 18.419 393.746 19.2997C393.439 19.2997 393.22 19.2997 392.972 19.2997C392.96 19.1052 392.938 18.9296 392.938 18.7567C392.935 16.9789 392.935 15.1985 392.935 13.2776C394.107 13.337 395.226 13.337 396.331 13.4667C396.943 13.5369 397.248 14.0962 397.329 14.7446C397.42 15.4633 397.145 16.0549 396.597 16.3711C396.437 16.4629 396.26 16.5223 396.09 16.5953C396.658 17.468 397.221 18.3352 397.833 19.2754C397.948 18.9782 398.046 18.7432 398.13 18.5027C398.68 16.9465 399.236 15.3903 399.774 13.8287C399.882 13.5126 399.988 13.2992 400.363 13.3073C400.698 13.3154 400.816 13.4775 400.926 13.7747C401.604 15.6119 402.295 17.4355 403 19.3078ZM393.746 16.0117C394.481 15.9712 395.189 15.9685 395.884 15.8793C396.348 15.8199 396.651 15.3957 396.538 14.9364C396.459 14.6068 396.098 14.1799 395.813 14.1286C395.149 14.0097 394.456 14.0908 393.746 14.0908C393.746 14.7338 393.746 15.3201 393.746 16.0117ZM401.246 16.8006C400.946 15.9253 400.666 15.1066 400.361 14.2151C400.064 15.1147 399.798 15.9253 399.511 16.8006C400.11 16.8006 400.644 16.8006 401.246 16.8006Z" fill="white"/>
<path d="M240.081 24.9224C241.052 22.1774 241.996 19.4757 242.973 16.7874C243.042 16.601 243.342 16.4254 243.546 16.4065C243.826 16.3795 244.18 16.212 244.367 16.7172C245.359 19.4216 246.382 22.1153 247.389 24.8116C247.401 24.8467 247.382 24.8954 247.379 24.9359C246.305 25.1736 246.305 25.1736 245.922 24.0903C245.327 22.4098 245.327 22.4017 243.75 22.4125C243.185 22.4152 242.484 22.2531 242.091 22.5503C241.72 22.8312 241.671 23.6174 241.482 24.1794C241.163 25.1331 241.128 25.1547 240.081 24.9224ZM243.666 17.5791C243.239 18.8894 242.831 20.1349 242.413 21.4155C243.288 21.4155 244.094 21.4155 244.964 21.4155C244.526 20.1187 244.106 18.8786 243.666 17.5791Z" fill="white"/>
<path d="M196.901 16.4361C198.029 16.3065 198.031 16.3065 198.368 17.3358C199.061 19.4486 199.751 21.564 200.479 23.7795C200.57 23.5768 200.636 23.458 200.678 23.331C201.366 21.3074 202.049 19.2838 202.734 17.2575C203.061 16.2929 203.059 16.2902 204.118 16.4523C203.697 17.6222 203.28 18.7758 202.867 19.9322C202.309 21.4857 201.769 23.0473 201.184 24.59C201.11 24.7845 200.815 24.9899 200.619 24.9953C200.366 25.0034 199.943 24.8872 199.874 24.7008C198.864 21.9801 197.901 19.2405 196.901 16.4361Z" fill="white"/>
<path d="M348.442 26.5893C348.921 25.0709 349.346 23.7308 349.771 22.3908C350.056 21.4911 350.056 21.4938 351.019 21.6532C351.019 23.5822 351.019 25.514 351.019 27.5268C350.818 27.5376 350.606 27.5457 350.326 27.5592C350.326 26.0165 350.326 24.5197 350.326 23.0257C350.284 23.0176 350.245 23.0122 350.203 23.0041C349.778 24.3387 349.351 25.6734 348.926 27.008C348.832 27.3025 348.761 27.6835 348.378 27.5403C348.179 27.4673 347.967 27.2242 347.894 27.0026C347.446 25.6572 347.039 24.2955 346.498 22.9689C346.498 24.4738 346.498 25.976 346.498 27.5241C346.257 27.5376 346.061 27.5484 345.815 27.5619C345.815 25.5761 345.815 23.6282 345.815 21.6775C346.79 21.4046 346.874 21.4506 347.191 22.4826C347.591 23.7957 347.987 25.1033 348.442 26.5893Z" fill="white"/>
<path d="M231.798 16.4122C232.123 16.4122 232.425 16.4122 232.806 16.4122C232.806 18.8924 232.806 21.3726 232.806 23.9392C234.138 23.9392 235.393 23.9392 236.678 23.9392C236.678 24.331 236.678 24.6336 236.678 24.9794C235.052 24.9794 233.447 24.9794 231.798 24.9794C231.798 22.1155 231.798 19.2787 231.798 16.4122Z" fill="white"/>
<path d="M355.407 24.3552C356.205 24.963 356.431 25.498 356.244 26.2734C356.053 27.065 355.611 27.473 354.709 27.5324C353.878 27.5864 353.043 27.5432 352.18 27.5432C352.18 25.5466 352.18 23.5987 352.18 21.6129C353.062 21.6129 353.918 21.5724 354.765 21.6264C355.355 21.6642 355.787 22.0398 355.969 22.6909C356.144 23.3096 356.009 23.7202 355.407 24.3552ZM352.9 26.8164C353.517 26.8164 354.085 26.8489 354.65 26.8056C355.156 26.7678 355.485 26.4517 355.507 25.8654C355.529 25.2764 355.217 24.9198 354.714 24.8712C354.117 24.8117 353.512 24.8577 352.9 24.8577C352.9 25.5223 352.9 26.1194 352.9 26.8164ZM352.922 24.0201C353.522 24.0201 354.099 24.0985 354.645 23.985C354.888 23.9337 355.178 23.5338 355.249 23.2366C355.35 22.8206 355.124 22.4342 354.679 22.3856C354.102 22.3207 353.52 22.3153 352.925 22.2829C352.922 22.9286 352.922 23.4744 352.922 24.0201Z" fill="white"/>
<path d="M309.468 17.6569C309.468 16.2439 309.468 14.8336 309.468 13.3665C309.726 13.3503 309.918 13.3395 310.166 13.326C310.166 15.3388 310.166 17.3057 310.166 19.2725C309.653 19.4725 309.348 19.2509 309.065 18.7646C308.309 17.457 307.5 16.1817 306.613 14.7336C306.613 16.3655 306.613 17.8001 306.613 19.2833C306.358 19.2833 306.151 19.2833 305.91 19.2833C305.91 17.3192 305.91 15.3685 305.91 13.4179C306.419 13.1855 306.704 13.4043 306.974 13.8609C307.734 15.1524 308.535 16.4168 309.318 17.692C309.37 17.6758 309.419 17.665 309.468 17.6569Z" fill="white"/>
<path d="M324.756 17.8894C324.756 16.2954 324.756 14.8608 324.756 13.3748C325.014 13.3748 325.225 13.3748 325.468 13.3748C325.468 15.3336 325.468 17.2842 325.468 19.2619C324.987 19.4429 324.667 19.3078 324.378 18.8053C323.631 17.5085 322.827 16.2468 321.923 14.9905C321.923 16.4116 321.923 17.8354 321.923 19.2916C321.635 19.2916 321.439 19.2916 321.193 19.2916C321.193 17.3275 321.193 15.3606 321.193 13.3991C321.697 13.1884 321.992 13.3856 322.262 13.853C322.925 15.0013 323.635 16.1198 324.328 17.2491C324.436 17.4247 324.557 17.5922 324.756 17.8894Z" fill="white"/>
<path d="M299.028 19.2976C298.702 19.2976 298.503 19.2976 298.277 19.2976C298.277 17.3172 298.277 15.3638 298.277 13.2808C299.412 13.3348 300.53 13.3402 301.636 13.4645C302.257 13.532 302.55 14.0994 302.641 14.7397C302.734 15.4179 302.523 15.9744 301.97 16.3337C301.783 16.4553 301.569 16.5256 301.407 16.6039C301.967 17.4766 302.52 18.3384 303.098 19.2408C302.444 19.4597 302.036 19.33 301.776 18.7086C301.643 18.3871 301.407 18.1169 301.255 17.8035C300.79 16.8444 300.075 16.4959 299.026 16.7417C299.028 17.5576 299.028 18.4114 299.028 19.2976ZM299.026 16.023C299.8 15.9744 300.513 15.969 301.215 15.8745C301.653 15.815 301.933 15.426 301.837 14.964C301.773 14.6533 301.493 14.1913 301.267 14.1588C300.537 14.0562 299.79 14.121 299.028 14.121C299.026 14.7424 299.026 15.3152 299.026 16.023Z" fill="white"/>
<path d="M374.748 13.3886C375.244 13.1968 375.512 13.421 375.765 13.856C376.534 15.1664 377.342 16.4497 378.254 17.7276C378.254 16.2876 378.254 14.8476 378.254 13.3643C378.534 13.3508 378.728 13.34 378.974 13.3265C378.974 15.3393 378.974 17.3088 378.974 19.2703C378.446 19.4621 378.138 19.2595 377.858 18.7651C377.215 17.6276 376.512 16.5307 375.831 15.4176C375.723 15.242 375.603 15.0772 375.391 14.7665C375.391 16.374 375.391 17.8087 375.391 19.2892C375.165 19.3081 374.991 19.3216 374.748 19.3405C374.748 17.3467 374.748 15.3879 374.748 13.3886Z" fill="white"/>
<path d="M367.641 17.6842C367.641 16.2658 367.641 14.8474 367.641 13.3749C367.876 13.3533 368.071 13.3371 368.324 13.3128C368.324 15.3175 368.324 17.2844 368.324 19.2701C367.857 19.443 367.555 19.2809 367.279 18.8108C366.515 17.5032 365.704 16.2253 364.793 14.9663C364.793 16.3955 364.793 17.822 364.793 19.2918C364.525 19.3053 364.328 19.3161 364.095 19.3296C364.095 17.3195 364.095 15.3472 364.095 13.3857C364.581 13.2155 364.869 13.383 365.132 13.8288C365.901 15.1419 366.714 16.4225 367.508 17.7166C367.555 17.7085 367.599 17.6977 367.641 17.6842Z" fill="white"/>
<path d="M337.337 13.3915C337.841 13.1889 338.133 13.3996 338.403 13.8589C339.163 15.1531 339.961 16.4202 340.873 17.6819C340.873 16.2608 340.873 14.8397 340.873 13.3726C341.16 13.3726 341.349 13.3726 341.576 13.3726C341.576 15.3395 341.576 17.2928 341.576 19.2624C341.094 19.4488 340.797 19.2759 340.524 18.8085C339.757 17.4928 338.946 16.2094 338.052 14.7478C338.052 16.3743 338.052 17.8197 338.052 19.2975C337.777 19.2975 337.578 19.2975 337.337 19.2975C337.337 17.3334 337.337 15.3611 337.337 13.3915Z" fill="white"/>
<path d="M320.05 13.3749C320.06 13.5884 320.069 13.7802 320.084 14.0531C319.02 14.0531 317.988 14.0531 316.905 14.0531C316.905 14.6718 316.905 15.2148 316.905 15.8443C317.853 15.8443 318.824 15.8443 319.824 15.8443C319.824 16.1388 319.824 16.3496 319.824 16.6224C318.851 16.6224 317.897 16.6224 316.897 16.6224C316.897 17.2925 316.897 17.8977 316.897 18.5866C318.001 18.5866 319.074 18.5866 320.175 18.5866C320.175 18.8622 320.175 19.054 320.175 19.2891C318.829 19.2891 317.489 19.2891 316.111 19.2891C316.111 17.3222 316.111 15.3715 316.111 13.3749C317.421 13.3749 318.716 13.3749 320.05 13.3749Z" fill="white"/>
<path d="M296.877 15.8633C296.877 16.1416 296.877 16.3523 296.877 16.6306C295.899 16.6306 294.948 16.6306 293.963 16.6306C293.963 17.2925 293.963 17.8842 293.963 18.5596C295.037 18.5596 296.108 18.5596 297.226 18.5596C297.241 18.846 297.251 19.0541 297.263 19.2972C295.897 19.2972 294.572 19.2972 293.199 19.2972C293.199 17.3276 293.199 15.3608 293.199 13.3615C294.506 13.3615 295.786 13.3615 297.103 13.3615C297.103 13.5938 297.103 13.8046 297.103 14.0856C296.059 14.0856 295.027 14.0856 293.961 14.0856C293.961 14.7016 293.961 15.2473 293.961 15.8633C294.938 15.8633 295.889 15.8633 296.877 15.8633Z" fill="white"/>
<path d="M326.734 19.3165C326.734 17.2983 326.734 15.3666 326.734 13.2673C327.763 13.343 328.768 13.4132 329.773 13.4889C329.793 13.4916 329.81 13.5078 329.83 13.5159C330.832 13.9266 331.405 15.2558 331.228 16.7715C331.046 18.3385 330.395 19.2085 329.228 19.3057C328.419 19.3706 327.601 19.3165 326.734 19.3165ZM327.488 18.5871C328.441 18.4898 329.478 18.9734 330.144 17.8522C330.606 17.0714 330.557 15.3855 330.075 14.7236C329.353 13.7293 328.373 14.2021 327.488 14.0833C327.488 15.6422 327.488 17.0822 327.488 18.5871Z" fill="white"/>
<path d="M311.442 21.6314C312.388 21.6314 313.307 21.5558 314.212 21.653C315.037 21.7449 315.595 22.3879 315.767 23.2417C315.912 23.963 315.961 24.7546 315.853 25.4787C315.647 26.8674 314.9 27.5023 313.61 27.5537C312.9 27.5834 312.189 27.5591 311.442 27.5591C311.442 25.5436 311.442 23.601 311.442 21.6314ZM312.175 26.8431C313.162 26.7053 314.285 27.2402 314.875 26.0137C315.349 25.0248 315.396 23.9225 314.787 22.9688C314.133 21.9475 313.108 22.3798 312.175 22.3069C312.175 23.8334 312.175 25.2896 312.175 26.8431Z" fill="white"/>
<path d="M342.252 27.6534C340.708 27.648 339.632 26.4079 339.627 24.6302C339.622 22.7255 340.662 21.4746 342.254 21.4719C343.851 21.4692 344.918 22.7282 344.905 24.6032C344.893 26.4566 343.846 27.6561 342.252 27.6534ZM344.107 24.5735C344.104 23.3442 343.645 22.539 342.792 22.2662C341.819 21.9555 340.856 22.5039 340.551 23.5468C340.121 25.0219 340.591 26.4323 341.652 26.8375C341.822 26.9024 342.008 26.9456 342.188 26.9537C343.35 27.0104 344.112 26.0594 344.107 24.5735Z" fill="white"/>
<path d="M332.057 21.4719C333.654 21.4665 334.725 22.7282 334.715 24.6005C334.706 26.4485 333.654 27.6562 332.062 27.6535C330.519 27.6481 329.445 26.4107 329.437 24.6329C329.43 22.7228 330.462 21.4746 332.057 21.4719ZM333.914 24.5978C333.919 23.3766 333.462 22.5526 332.62 22.2716C331.651 21.9474 330.678 22.485 330.359 23.5225C329.917 24.9571 330.388 26.4188 331.438 26.8321C331.627 26.9078 331.833 26.9483 332.035 26.9564C333.175 26.9888 333.907 26.0621 333.914 24.5978Z" fill="white"/>
<path d="M333.027 15.8552C333.995 15.8552 334.948 15.8552 335.96 15.8552C335.975 16.1146 335.988 16.3226 336.002 16.6144C334.983 16.6144 334.014 16.6144 333.014 16.6144C333.014 17.3033 333.014 17.9139 333.014 18.5948C334.125 18.5948 335.201 18.5948 336.302 18.5948C336.302 18.8622 336.302 19.0568 336.302 19.2918C334.978 19.2918 333.656 19.2918 332.287 19.2918C332.287 17.3276 332.287 15.3635 332.287 13.3615C333.592 13.3615 334.869 13.3615 336.177 13.3615C336.177 13.5911 336.177 13.7857 336.177 14.0477C335.14 14.0477 334.108 14.0477 333.027 14.0477C333.027 14.661 333.027 15.2068 333.027 15.8552Z" fill="white"/>
<path d="M388.657 15.8608C389.637 15.8608 390.576 15.8608 391.568 15.8608C391.568 16.1202 391.568 16.3444 391.568 16.6308C390.59 16.6308 389.637 16.6308 388.654 16.6308C388.654 17.3008 388.654 17.9141 388.654 18.5815C389.745 18.5815 390.802 18.5815 391.912 18.5815C391.93 18.8435 391.942 19.0489 391.957 19.2947C390.59 19.2947 389.268 19.2947 387.905 19.2947C387.905 17.3305 387.905 15.3826 387.905 13.3779C389.178 13.3779 390.453 13.3779 391.79 13.3779C391.802 13.5724 391.817 13.7805 391.836 14.0641C390.758 14.0641 389.726 14.0641 388.657 14.0641C388.657 14.6828 388.657 15.2286 388.657 15.8608Z" fill="white"/>
<path d="M321.037 26.8269C321.037 27.0889 321.037 27.2808 321.037 27.5185C319.678 27.5185 318.342 27.5185 316.968 27.5185C316.968 25.5463 316.968 23.601 316.968 21.6206C318.283 21.6206 319.563 21.6206 320.892 21.6206C320.912 21.807 320.929 21.9935 320.956 22.2663C319.865 22.2663 318.813 22.2663 317.715 22.2663C317.715 22.9094 317.715 23.474 317.715 24.1062C318.693 24.1062 319.666 24.1062 320.673 24.1062C320.693 24.3602 320.705 24.5493 320.725 24.8087C319.72 24.8087 318.749 24.8087 317.722 24.8087C317.722 25.5003 317.722 26.1271 317.722 26.8269C318.826 26.8269 319.919 26.8269 321.037 26.8269Z" fill="white"/>
<path d="M288.786 16.9192C288.786 17.7649 288.786 18.4998 288.786 19.2968C288.553 19.3076 288.341 19.3184 288.093 19.3319C288.093 17.3353 288.093 15.382 288.093 13.2746C289.147 13.3394 290.204 13.3448 291.243 13.4961C291.88 13.588 292.238 14.2823 292.248 15.0658C292.258 15.8791 291.899 16.5626 291.27 16.7436C290.823 16.8733 290.344 16.8814 289.877 16.9138C289.523 16.9382 289.165 16.9192 288.786 16.9192ZM288.825 14.1067C288.825 14.8362 288.825 15.4738 288.825 16.1276C289.462 16.1276 290.071 16.1682 290.671 16.1168C291.226 16.0682 291.491 15.6521 291.464 15.0577C291.437 14.4931 291.147 14.1392 290.619 14.1148C290.034 14.0851 289.447 14.1067 288.825 14.1067Z" fill="white"/>
<path d="M354.989 19.2485C354.352 19.5079 354.077 19.235 353.888 18.6163C353.546 17.5086 353.517 17.5221 352.453 17.5221C352.411 17.5221 352.372 17.5221 352.33 17.5221C351.278 17.5221 351.278 17.5221 350.91 18.6325C350.666 19.362 350.666 19.362 349.89 19.2701C350.104 18.6595 350.308 18.0651 350.517 17.4734C350.954 16.2252 351.381 14.9743 351.843 13.7396C351.91 13.564 352.131 13.3749 352.3 13.3506C352.477 13.3263 352.794 13.437 352.851 13.5829C353.581 15.4607 354.278 17.3573 354.989 19.2485ZM353.269 16.8169C352.959 15.9226 352.681 15.1148 352.367 14.2097C352.065 15.15 351.804 15.9551 351.526 16.8169C352.121 16.8169 352.642 16.8169 353.269 16.8169Z" fill="white"/>
<path d="M368.995 19.262C369.656 17.3816 370.297 15.5336 370.966 13.6964C371.027 13.5316 371.282 13.3479 371.442 13.3533C371.636 13.3614 371.929 13.51 371.998 13.6829C372.715 15.5201 373.398 17.3762 374.098 19.2485C373.504 19.4727 373.204 19.2863 373.01 18.646C372.666 17.5085 372.631 17.5221 371.531 17.5221C371.489 17.5221 371.45 17.5221 371.408 17.5221C370.386 17.5221 370.359 17.5139 370.034 18.6028C369.862 19.1701 369.648 19.524 368.995 19.262ZM371.489 14.1935C371.187 15.1175 370.924 15.928 370.636 16.8034C371.231 16.8034 371.749 16.8034 372.359 16.8034C372.071 15.9388 371.803 15.1364 371.489 14.1935Z" fill="white"/>
<path d="M363.889 27.4837C363.339 27.6917 363.037 27.5458 362.845 26.9487C362.462 25.7464 362.432 25.7572 361.241 25.7572C360.181 25.7572 360.181 25.7572 359.798 26.9163C359.575 27.5971 359.575 27.5971 358.852 27.5107C358.882 27.3648 358.896 27.2162 358.943 27.0838C359.525 25.4222 360.115 23.7661 360.695 22.1045C360.801 21.7992 360.887 21.5641 361.272 21.5668C361.626 21.5722 361.769 21.7235 361.889 22.0532C362.511 23.7444 363.152 25.4276 363.784 27.1135C363.825 27.2297 363.853 27.354 363.889 27.4837ZM362.194 25.0656C361.887 24.1632 361.604 23.3419 361.295 22.4341C360.99 23.3716 360.72 24.1983 360.437 25.0656C361.041 25.0656 361.567 25.0656 362.194 25.0656Z" fill="white"/>
<path d="M282.564 13.3531C282.81 13.3531 283.007 13.3531 283.287 13.3531C283.287 14.0394 283.287 14.6986 283.287 15.3605C283.287 15.963 283.262 16.5655 283.294 17.1653C283.365 18.4405 284.257 19.0349 285.366 18.5783C285.913 18.3541 286.073 17.8651 286.085 17.3031C286.11 16.2791 286.103 15.2525 286.11 14.2285C286.113 13.9637 286.11 13.699 286.11 13.3802C286.361 13.3802 286.567 13.3802 286.805 13.3802C286.805 14.8553 286.857 16.3224 286.786 17.7813C286.744 18.6405 286.211 19.2051 285.415 19.3537C283.508 19.713 282.555 18.9403 282.537 17.0221C282.528 15.909 282.532 14.7932 282.532 13.6801C282.532 13.5936 282.55 13.5071 282.564 13.3531Z" fill="white"/>
<path d="M328.709 23.2286C328.446 23.2934 328.235 23.3474 328.038 23.3961C327.348 22.2559 326.81 21.975 325.927 22.2749C325.109 22.5504 324.645 23.4879 324.714 24.7253C324.785 26.0141 325.259 26.7489 326.139 26.9354C326.996 27.1164 327.586 26.6868 328.104 25.4629C328.321 25.5251 328.549 25.5899 328.778 25.6547C328.478 26.9191 327.775 27.5946 326.736 27.6513C325.36 27.7243 324.485 27.2136 324.178 25.9114C323.991 25.1225 323.967 24.2282 324.094 23.4258C324.279 22.2532 325.252 21.5211 326.372 21.4724C327.552 21.4211 328.249 21.9236 328.709 23.2286Z" fill="white"/>
<path d="M226.924 24.9812C226.568 24.9812 226.268 24.9812 225.939 24.9812C225.939 22.1227 225.939 19.3048 225.939 16.4329C226.251 16.4329 226.565 16.4329 226.924 16.4329C226.924 19.2562 226.924 22.0903 226.924 24.9812Z" fill="white"/>
<path d="M208.288 16.4009C208.63 16.4009 208.932 16.4009 209.281 16.4009C209.281 19.2512 209.281 22.088 209.281 24.9708C208.964 24.9708 208.65 24.9708 208.288 24.9708C208.288 22.1367 208.288 19.3025 208.288 16.4009Z" fill="white"/>
<path d="M358.036 16.6117C358.036 17.5762 358.036 18.4164 358.036 19.2918C357.785 19.2918 357.574 19.2918 357.335 19.2918C357.335 17.3141 357.335 15.3634 357.335 13.3696C358.549 13.3696 359.743 13.3696 360.972 13.3696C360.972 13.5992 360.972 13.8072 360.972 14.0639C360.011 14.0639 359.075 14.0639 358.092 14.0639C358.092 14.6718 358.092 15.2338 358.092 15.8525C358.908 15.8525 359.716 15.8525 360.576 15.8525C360.593 16.1145 360.608 16.3226 360.63 16.6089C359.765 16.6117 358.94 16.6117 358.036 16.6117Z" fill="white"/>
<path d="M312.819 14.0858C312.16 14.0858 311.617 14.0858 311.037 14.0858C311.037 13.8183 311.037 13.6103 311.037 13.3644C312.46 13.3644 313.861 13.3644 315.318 13.3644C315.318 13.5833 315.318 13.8075 315.318 14.0858C314.743 14.0858 314.2 14.0858 313.593 14.0858C313.593 15.8392 313.593 17.5413 313.593 19.2867C313.315 19.2867 313.101 19.2867 312.819 19.2867C312.819 17.59 312.819 15.8879 312.819 14.0858Z" fill="white"/>
<path d="M339.017 26.8104C339.005 27.1076 338.997 27.3048 338.987 27.5317C337.86 27.5317 336.761 27.5317 335.619 27.5317C335.619 25.5649 335.619 23.6169 335.619 21.6257C335.832 21.6257 336.044 21.6257 336.324 21.6257C336.324 23.3386 336.324 25.0461 336.324 26.8104C337.24 26.8104 338.091 26.8104 339.017 26.8104Z" fill="white"/>
<path d="M386.54 19.2949C386.322 19.2949 386.105 19.2949 385.852 19.2949C385.852 17.3335 385.852 15.3855 385.852 13.3646C386.064 13.3511 386.275 13.3403 386.54 13.3241C386.54 15.3342 386.54 17.2984 386.54 19.2949Z" fill="white"/>
<path d="M362.117 13.351C362.363 13.351 362.542 13.351 362.769 13.351C362.769 15.3368 362.769 17.3009 362.769 19.2948C362.552 19.2948 362.356 19.2948 362.117 19.2948C362.117 17.3307 362.117 15.3665 362.117 13.351Z" fill="white"/>
<path d="M348.495 19.3347C348.495 17.3003 348.495 15.3551 348.495 13.3666C348.731 13.3666 348.942 13.3666 349.188 13.3666C349.188 15.3389 349.188 17.2841 349.188 19.2969C348.979 19.3077 348.765 19.3185 348.495 19.3347Z" fill="white"/>
<path d="M304.6 19.2993C304.352 19.2993 304.155 19.2993 303.926 19.2993C303.926 17.319 303.926 15.3683 303.926 13.3717C304.15 13.3717 304.359 13.3717 304.6 13.3717C304.6 15.344 304.6 17.2946 304.6 19.2993Z" fill="white"/>
<path d="M358.108 27.521C357.904 27.5345 357.71 27.548 357.462 27.5669C357.462 25.5622 357.462 23.6008 357.462 21.6123C357.675 21.6123 357.872 21.6123 358.108 21.6123C358.108 23.5792 358.108 25.5244 358.108 27.521Z" fill="white"/>
</svg>
