<svg width="209" height="81" viewBox="0 0 209 81" fill="none" xmlns="http://www.w3.org/2000/svg">
<path d="M57.8678 37.3954L59.5087 37.2307C61.313 37.0602 61.313 36.8132 61.313 31.2026V15.1062C61.313 9.49562 61.313 9.24273 59.5087 9.07806L57.8678 8.91339V7.83716H69.8326C74.1771 7.83716 80.98 8.49583 80.98 16.1765C80.98 22.4516 74.0136 25.4215 69.6691 25.4215H68.8516V24.4276C70.8195 24.4276 76.145 23.522 76.145 16.5C76.145 11.0541 72.5363 9.40152 68.3611 9.40152C67.3801 9.40152 66.3933 9.56619 65.494 9.81319V31.2791C65.494 36.8955 65.494 37.1425 68.0341 37.3072L69.675 37.4718V38.4657H57.7861V37.3895H57.8678V37.3954Z" fill="white"/>
<path d="M80.6532 26.3328C80.6532 18.3228 86.802 13.2886 93.9319 13.2886C100.735 13.2886 106.475 17.6642 106.475 25.9212C106.475 34.0958 100.571 38.9654 93.1961 38.9654C85.9845 38.9595 80.6532 34.337 80.6532 26.3328ZM94.0136 37.7245C100.326 37.7245 102.703 32.2786 102.703 26.8268C102.703 19.8107 99.2573 14.4413 93.4414 14.4413C87.8706 14.4413 84.6706 19.0638 84.6706 25.5036C84.5889 33.1843 88.4429 37.7245 94.0136 37.7245Z" fill="white"/>
<path d="M117.704 24.3509C120.653 26.0035 123.689 27.5678 123.689 32.0257C123.689 37.0599 119.099 38.9595 115.164 38.9595C112.297 38.9595 110.492 38.2184 109.342 37.4715C108.688 35.9836 108.197 33.2607 108.197 30.9495L109.342 30.6201C109.751 33.2607 111.146 37.7186 116.145 37.7186C118.685 37.7186 120.571 36.066 120.571 33.1784C120.571 30.4554 118.276 28.6382 115.409 27.315L113.032 25.9917C110.901 24.8331 108.933 22.5219 108.933 19.7166C108.933 15.1764 112.705 13.2769 116.635 13.2769C118.93 13.2769 120.816 13.8532 121.715 14.4295C122.042 15.5881 122.124 18.6404 122.124 19.5461H121.225C120.816 17.6465 120.244 14.4295 116.063 14.4295C113.932 14.4295 112.045 15.9998 112.045 18.4757C112.045 20.7046 113.605 21.8573 115.654 23.0159L117.704 24.3509Z" fill="white"/>
<path d="M123.771 37.642L125.085 37.5596C126.562 37.395 126.562 37.2303 126.562 32.6901V19.7282C126.562 15.1881 126.562 15.0234 125.085 14.8587L123.771 14.7764V13.953H132.787V14.7764L131.479 14.8587C130.002 15.0234 130.002 15.1881 130.002 19.7282V32.6078C130.002 37.148 130.002 37.3126 131.479 37.4773L132.787 37.5596V38.383H123.771V37.642Z" fill="white"/>
<path d="M140.08 37.6415L141.476 37.5592C143.525 37.3945 143.525 37.2299 143.525 32.6897V14.9406H141.639C136.396 14.9406 136.314 15.517 135.572 19.8101H134.673C134.673 19.6455 134.591 18.6516 134.591 18.1576C134.591 16.4227 134.837 14.6877 135 13.8644H155.572C155.736 14.6877 155.981 16.4227 155.981 18.1576C155.981 18.6516 155.899 19.6455 155.899 19.8101H155C154.182 15.517 154.101 14.9406 148.933 14.9406H147.047V32.6073C147.047 37.1475 147.047 37.3122 149.096 37.4769L150.41 37.5592V38.3825H140.162V37.6415H140.08Z" fill="white"/>
<path d="M157.213 37.642L158.527 37.5596C160.004 37.395 160.004 37.2303 160.004 32.6901V19.7282C160.004 15.1881 160.004 15.0234 158.527 14.8587L157.213 14.7764V13.953H166.229V14.7764L164.921 14.8587C163.443 15.0234 163.443 15.1881 163.443 19.7282V32.6078C163.443 37.148 163.443 37.3126 164.921 37.4773L166.229 37.5596V38.383H157.213V37.642Z" fill="white"/>
<path d="M170.492 17.6639C169.92 16.2583 169.511 14.941 168.279 14.7763L167.21 14.694V13.8706H176.39V14.694L175.239 14.7763C174.667 14.8586 173.599 14.941 173.599 15.682C173.599 15.8467 173.926 16.7523 174.089 17.1699L180.483 33.7604C181.301 31.5315 187.122 17.0052 187.122 15.8467C187.122 15.1056 186.387 14.941 185.645 14.7763L184.004 14.5293V13.706H191.957V14.5293L190.976 14.7763C190.568 14.8586 190.159 15.1056 189.826 15.3527C189.009 16.176 187.858 19.7282 186.877 21.5454L184.337 27.6558C182.206 32.7724 180.401 37.3125 180.074 38.3064C179.911 38.4711 179.339 38.7181 178.848 38.8828L170.492 17.6639Z" fill="white"/>
<path d="M184.015 37.6421L184.751 37.5597C186.147 37.3127 186.31 36.9011 187.21 34.7545L194.912 15.9351C195.239 15.1941 195.484 14.4472 195.811 13.7062L196.879 13.3768L205.16 34.925C205.732 36.4129 206.059 37.2363 207.046 37.4833L208.523 37.7303V38.5536H199.344V37.7303L200.985 37.401C201.639 37.3186 202.129 37.0716 202.129 36.6599C202.129 36.4129 201.966 36.1659 201.884 35.9189L199.262 28.9028C197.866 28.6558 196.558 28.4911 195.163 28.4911C193.855 28.4911 192.541 28.6558 191.309 28.9028L189.423 34.1017C189.014 35.2603 188.687 36.3306 188.687 36.5776C188.687 37.3186 189.177 37.401 189.586 37.401L191.799 37.7303V38.5536H184.015V37.6421ZM191.717 27.4032C192.862 27.3208 194.012 27.2385 195.075 27.2385C196.225 27.2385 197.452 27.2385 198.602 27.4032L195.239 18.4051L191.717 27.4032Z" fill="white"/>
<path d="M79.8359 48.0399C79.7541 48.9456 79.5906 49.6102 79.2636 50.4335C78.8549 50.5982 77.7862 50.9275 76.3965 50.9275C73.7746 50.9275 71.2345 49.6866 71.2345 46.1403C71.2345 42.4235 74.1834 41.2708 76.3965 41.2708C77.7921 41.2708 78.8549 41.6002 79.2636 41.8472C79.4271 42.4235 79.5089 43.2527 79.5089 43.9114L79.1001 43.9937C78.9366 43.4174 78.7731 41.7648 76.3965 41.7648C74.1016 41.7648 72.706 43.2527 72.706 45.8933C72.706 48.2869 73.8505 50.5159 76.3965 50.5159C78.6914 50.5159 79.0184 49.1103 79.5089 47.9576L79.8359 48.0399Z" fill="white"/>
<path d="M80.2445 47.052C80.2445 44.6584 82.1306 43.0882 84.2619 43.0882C86.3116 43.0882 88.0342 44.4114 88.0342 46.8873C88.0342 49.3633 86.2298 50.8512 84.0167 50.8512C81.8853 50.8512 80.2445 49.5279 80.2445 47.052ZM84.3437 50.5218C86.2298 50.5218 86.9656 48.8692 86.9656 47.2225C86.9656 45.076 85.9028 43.5057 84.1802 43.5057C82.5393 43.5057 81.5583 44.9113 81.5583 46.8932C81.4766 49.1162 82.6211 50.5218 84.3437 50.5218Z" fill="white"/>
<path d="M88.6883 50.4333L88.9336 50.351C89.0971 50.351 89.1788 50.2686 89.2606 50.1863C89.3423 50.104 89.4241 49.3629 89.5058 48.369L89.6693 45.5638C89.7511 44.8228 89.7511 43.5819 89.7511 43.2525L90.0781 43.1702C90.4051 43.7465 92.9452 48.6161 93.2722 49.1983C93.5992 48.6219 96.1393 43.8347 96.3028 43.2525L96.6298 43.1702C96.6298 43.2525 96.7116 44.4934 96.7933 45.9754L96.8751 47.9574C96.9568 48.9454 97.0386 50.0216 97.1203 50.1863C97.2021 50.2686 97.3656 50.351 97.5291 50.4333L97.8561 50.5156V50.7626H94.989V50.5156L95.3977 50.4333C95.8882 50.351 95.8882 50.1863 95.8882 49.6923C95.8882 48.4514 95.7247 46.0578 95.7247 45.3991C95.5612 45.8931 94.4109 48.122 93.2664 50.2686C93.1846 50.351 93.1846 50.5156 93.1029 50.598L92.7759 50.7626C92.5306 50.2686 91.135 47.4634 90.3175 45.9754C90.2357 45.7284 90.0722 45.5638 89.9905 45.3168C89.9905 45.9754 89.827 49.1159 89.827 49.5276C89.827 50.1863 89.827 50.351 90.3175 50.4333L90.7262 50.5156V50.7626H88.4314V50.4333H88.6883Z" fill="white"/>
<path d="M98.5222 50.433H98.931C99.3397 50.3506 99.3397 50.3506 99.3397 48.945V45.0635C99.3397 43.658 99.3397 43.658 98.931 43.5756H98.5222V43.3286H101.471C102.54 43.3286 104.175 43.4933 104.175 45.3929C104.175 46.9631 102.452 47.6218 101.389 47.6218H101.226V47.3748C101.716 47.3748 103.03 47.1278 103.03 45.4752C103.03 44.152 102.131 43.7403 101.144 43.7403C100.899 43.7403 100.654 43.8226 100.49 43.8226V49.0215C100.49 50.4271 100.49 50.4271 101.144 50.5094H101.553V50.7564H98.6857V50.4271H98.5222V50.433Z" fill="white"/>
<path d="M103.771 50.439C104.18 50.3566 104.262 50.2743 104.507 49.6156L106.802 43.9169C106.883 43.6699 106.965 43.5052 107.047 43.2582L107.374 43.1758L109.832 49.6979C109.996 50.1096 110.078 50.439 110.405 50.439L110.813 50.5213V50.7683H108.028V50.5213L108.518 50.439C108.682 50.439 108.845 50.3566 108.845 50.192C108.845 50.1096 108.764 50.0273 108.764 49.9449L107.946 47.7984C107.537 47.716 107.129 47.716 106.72 47.716C106.311 47.716 105.902 47.7984 105.57 47.7984L104.997 49.3686C104.834 49.6979 104.752 50.0273 104.752 50.1096C104.752 50.3566 104.916 50.3566 104.997 50.3566L105.651 50.439V50.686H103.275V50.439H103.771ZM105.902 47.3808C106.229 47.3808 106.556 47.2985 106.883 47.2985C107.21 47.2985 107.619 47.2985 107.952 47.3808L106.883 44.6579L105.902 47.3808Z" fill="white"/>
<path d="M111.146 50.4335C111.555 50.4335 111.637 50.0218 111.637 48.8632V43.335L111.882 43.2527C112.781 44.4113 116.145 47.8752 117.289 49.1161V45.2346C117.289 43.9996 117.289 43.6644 116.717 43.6644H116.308V43.4174H118.685V43.6644H118.276C117.867 43.6644 117.786 44.0761 117.786 45.2346V50.7628L117.54 50.8452C117.295 50.5982 116.641 49.8571 115.409 48.6162L112.045 45.0641V48.8632C112.045 50.1041 112.045 50.4335 112.618 50.4335H113.026V50.6805H110.65V50.4335H111.146ZM113.196 42.2647C113.359 42.0177 113.768 41.359 114.34 41.359C114.586 41.359 114.913 41.4413 115.158 41.606C115.403 41.6884 115.73 41.853 115.975 41.853C116.302 41.853 116.466 41.5237 116.548 41.359L116.711 41.5237C116.548 41.7707 116.302 42.4294 115.648 42.4294C115.076 42.4294 114.335 42.0177 114.008 42.0177C113.681 42.0177 113.435 42.347 113.353 42.5117L113.196 42.2647Z" fill="white"/>
<path d="M119.263 50.433H119.672C120.08 50.3506 120.08 50.3506 120.08 48.945V45.0635C120.08 43.658 120.08 43.658 119.672 43.5756H119.263V43.3286H121.967V43.5756H121.558C121.149 43.658 121.149 43.658 121.149 45.0635V48.945C121.149 50.3506 121.149 50.3506 121.558 50.433H121.967V50.68H119.263V50.433Z" fill="white"/>
<path d="M122.212 50.439C122.621 50.3566 122.702 50.2743 122.948 49.6156L125.242 43.9169C125.324 43.6699 125.406 43.5052 125.488 43.2582L125.815 43.1758L128.273 49.6979C128.437 50.1096 128.518 50.439 128.845 50.439L129.254 50.5213V50.7683H126.469V50.5213L126.959 50.439C127.123 50.439 127.286 50.3566 127.286 50.192C127.286 50.1096 127.205 50.0273 127.205 49.9449L126.387 47.7984C125.978 47.716 125.569 47.716 125.161 47.716C124.752 47.716 124.343 47.7984 124.01 47.7984L123.438 49.3686C123.275 49.6979 123.193 50.0273 123.193 50.1096C123.193 50.3566 123.356 50.3566 123.438 50.3566L124.092 50.439V50.686H121.716V50.439H122.212ZM124.343 47.3808C124.67 47.3808 124.997 47.2985 125.324 47.2985C125.651 47.2985 126.06 47.2985 126.393 47.3808L125.324 44.6579L124.343 47.3808Z" fill="white"/>
<path d="M131.8 50.5216H132.127C132.454 50.5216 132.454 50.4392 132.454 49.2865V46.0637C132.454 44.911 132.454 44.911 132.127 44.8287H131.8V44.664H134.831C136.799 44.664 138.025 45.7344 138.025 47.5516C138.025 49.9452 136.221 50.8509 134.334 50.8509H131.876V50.5216H131.8ZM133.359 50.2687C133.686 50.351 134.095 50.4333 134.422 50.4333C136.145 50.4333 137.044 49.5277 137.044 47.7104C137.044 45.7285 135.975 44.9051 134.34 44.9051C134.013 44.9051 133.686 44.9875 133.359 44.9875V50.2687Z" fill="white"/>
<path d="M138.767 50.5218H139.094C139.421 50.5218 139.421 50.4395 139.421 49.2868V46.0698C139.421 44.9113 139.421 44.9113 139.094 44.8348H138.767V44.6702H142.784C142.784 44.8348 142.866 45.2465 142.866 45.6582V46.0698H142.621C142.457 45.0818 142.376 44.9113 141.062 44.9113H140.326V47.4695H141.144C141.879 47.4695 142.043 47.4695 142.125 47.0579L142.206 46.7285H142.452V48.3811H142.206L142.125 48.0518C142.043 47.6401 141.879 47.6401 141.144 47.6401H140.326V50.363C140.653 50.4454 140.98 50.4454 141.307 50.4454C142.784 50.4454 142.866 49.869 143.03 49.1221H143.275C143.275 49.6985 143.111 50.1925 142.948 50.6924H138.685V50.5277H138.767V50.5218Z" fill="white"/>
<path d="M149.832 45.3993C150.895 46.058 152.045 46.6402 152.045 48.2869C152.045 50.1865 150.323 50.9275 148.851 50.9275C147.782 50.9275 147.128 50.5982 146.638 50.3512C146.393 49.7748 146.229 48.7809 146.229 47.8753L146.638 47.7929C146.801 48.7809 147.292 50.4335 149.178 50.4335C150.159 50.4335 150.819 49.7748 150.819 48.6986C150.819 47.7047 150.001 46.9637 148.851 46.4697L147.952 45.9757C147.134 45.564 146.393 44.6524 146.393 43.6644C146.393 41.9295 147.788 41.2708 149.26 41.2708C150.159 41.2708 150.819 41.5178 151.146 41.6825C151.228 42.0942 151.309 43.2527 151.309 43.5821H150.982C150.819 42.9234 150.655 41.6825 149.014 41.6825C148.197 41.6825 147.537 42.2588 147.537 43.1704C147.537 43.9937 148.109 44.4113 148.851 44.9053L149.832 45.3993Z" fill="white"/>
<path d="M152.787 50.433H153.196C153.604 50.3506 153.604 50.3506 153.604 48.945V45.0635C153.604 43.658 153.604 43.658 153.196 43.5756H152.787V43.3286H157.622C157.704 43.5756 157.704 43.9873 157.704 44.4872V44.8989L157.458 44.9812C157.213 43.7403 157.213 43.5756 155.654 43.5756H154.755V46.6279H155.736C156.635 46.6279 156.804 46.6279 156.88 46.1339L156.962 45.7222H157.289V47.7865H156.962L156.88 47.3748C156.799 46.8808 156.635 46.8808 155.736 46.8808H154.755V50.0977C155.164 50.1801 155.572 50.2624 155.987 50.2624C157.791 50.2624 157.873 49.6037 158.118 48.6922L158.364 48.7745C158.364 49.5155 158.2 50.0095 157.955 50.6741H152.875V50.4271H152.787V50.433Z" fill="white"/>
<path d="M165.82 50.3512C165.411 50.5159 164.261 50.9275 163.035 50.9275C160.822 50.9275 158.772 49.9336 158.772 47.046C158.772 44.0761 161.149 43.1645 162.953 43.1645C164.098 43.1645 164.921 43.4115 165.248 43.6585C165.33 44.0702 165.411 44.7289 165.411 45.3111L165.084 45.3935C165.003 44.9818 164.839 43.5762 162.953 43.5762C161.149 43.5762 160.004 44.8112 160.004 46.8755C160.004 48.7751 160.985 50.5923 163.198 50.5923C163.607 50.5923 164.098 50.51 164.512 50.4277V49.9336C164.512 48.5281 164.512 48.5281 163.695 48.4457H163.286V48.1987H166.153V48.4457H165.744C165.499 48.5281 165.499 48.5281 165.499 49.6043C165.499 49.9336 165.499 50.016 165.663 50.016H165.744L165.82 50.3512Z" fill="white"/>
<path d="M172.705 50.5212C172.541 50.3565 172.459 50.1919 172.296 50.1919C172.132 50.1919 171.227 50.9329 169.756 50.9329C167.461 50.9329 167.216 49.6096 167.216 48.0453V45.0753C167.216 43.6698 167.216 43.6698 166.807 43.5874H166.398V43.3404H169.102V43.5874H168.693C168.284 43.6698 168.284 43.6698 168.284 45.0753V47.8806C168.284 49.4509 168.529 50.5212 170.252 50.5212C171.402 50.5212 172.138 49.8625 172.302 49.6155V45.0753C172.302 43.6698 172.302 43.6698 171.893 43.5874H171.484V43.3404H174.188V43.5874H173.779C173.37 43.6698 173.37 43.6698 173.37 45.0753V50.7741L173.043 50.8564L172.705 50.5212Z" fill="white"/>
<path d="M174.755 50.4391H175.163C175.572 50.3567 175.572 50.3567 175.572 48.9512V45.0697C175.572 43.6641 175.572 43.6641 175.163 43.5818H174.755V43.3347H177.704C178.772 43.3347 180.244 43.4994 180.244 45.2343C180.244 46.3047 179.344 46.8869 178.685 47.2162C178.848 47.5456 179.257 48.2866 179.502 48.7865C179.993 49.6098 180.483 50.2744 180.728 50.4391C180.81 50.5214 181.055 50.5214 181.301 50.5214V50.7684H180.401C179.666 50.7684 179.169 50.2744 178.842 49.6157L178.433 48.7924C178.106 48.216 177.861 47.8044 177.779 47.722C177.616 47.5574 177.289 47.5574 177.125 47.5574H176.717V49.0453C176.717 50.4508 176.717 50.4508 177.125 50.5332H177.534V50.7802H174.831V50.4508H174.755V50.4391ZM176.635 47.1339H177.289C178.188 47.1339 179.093 46.6399 179.093 45.3167C179.093 43.9934 178.276 43.5818 177.371 43.5818C177.125 43.5818 176.88 43.6641 176.717 43.6641V47.1339H176.635Z" fill="white"/>
<path d="M181.143 47.052C181.143 44.6584 183.029 43.0882 185.16 43.0882C187.21 43.0882 188.933 44.4114 188.933 46.8873C188.933 49.3633 187.128 50.8512 184.915 50.8512C182.702 50.8512 181.143 49.5279 181.143 47.052ZM185.16 50.5218C187.046 50.5218 187.782 48.8692 187.782 47.2225C187.782 45.076 186.719 43.5057 184.997 43.5057C183.356 43.5057 182.375 44.9113 182.375 46.8932C182.293 49.1162 183.438 50.5218 185.16 50.5218Z" fill="white"/>
<path d="M192.623 46.4754C193.522 46.9695 194.427 47.4693 194.427 48.7867C194.427 50.2746 193.032 50.851 191.887 50.851C190.988 50.851 190.491 50.604 190.164 50.4393C190.001 50.0276 189.837 49.1984 189.837 48.4574L190.164 48.375C190.246 49.1984 190.737 50.5216 192.214 50.5216C192.95 50.5216 193.528 50.0276 193.528 49.116C193.528 48.2927 192.874 47.7105 191.969 47.2988L191.233 46.8871C190.579 46.5578 190.001 45.8168 190.001 44.9875C190.001 43.582 191.145 43.0056 192.296 43.0056C192.95 43.0056 193.522 43.1703 193.855 43.335C193.937 43.6643 193.937 44.5759 193.937 44.9052H193.691C193.61 44.3289 193.364 43.335 192.132 43.335C191.478 43.335 190.9 43.829 190.9 44.5759C190.9 45.2345 191.391 45.5639 191.969 45.9814L192.623 46.4754Z" fill="white"/>
<path d="M25.1619 -0.00268555C11.2292 -0.00268555 9.15527e-05 11.3889 9.15527e-05 25.3388C9.15527e-05 39.371 11.3109 50.6803 25.1619 50.6803C39.0946 50.6803 50.3236 39.2887 50.3236 25.3388C50.3236 11.3889 39.1004 -0.00268555 25.1619 -0.00268555ZM24.8349 10.5656C25.6524 11.1419 26.3122 11.8065 27.2115 12.6298C27.375 12.7945 27.5385 12.9592 28.1107 12.7945C29.2552 12.4652 31.9647 11.1419 33.9326 10.8949C34.8318 10.8126 35.0771 10.8949 35.5734 11.3889C36.5544 12.2946 37.3778 12.8768 37.95 13.6179C35.9822 13.8649 35.3282 14.0295 34.9194 14.1119L34.6742 14.1942C33.7749 14.4412 33.5297 15.0176 33.4421 15.3528C33.4421 15.4351 33.3603 15.5998 33.3603 15.7644C33.3603 16.0938 33.4421 16.4231 33.7691 16.8348C34.2596 17.6581 34.5866 18.2404 34.7501 18.652C32.864 19.2284 30.8144 20.0576 29.9151 20.4693C29.3428 20.7163 28.9341 21.2103 28.8523 21.7925V22.1219C28.8523 22.4512 28.9341 22.9452 29.4246 23.4451C30.8202 24.933 32.3735 28.3146 32.3735 32.0315C32.3735 32.8548 32.2917 33.684 32.1282 34.5074C31.3924 38.3889 28.7647 41.3588 24.4203 43.2584C22.2071 44.2464 19.9123 44.4993 17.6174 44.417H18.0262C22.3706 43.923 25.4013 42.3527 27.5326 38.5536C30.4815 33.3547 28.2684 26.9149 23.8422 23.2804C22.6101 22.2924 21.1385 21.4632 19.8247 20.6398C19.4977 20.3928 19.2524 20.1458 19.7429 19.5695C20.4787 18.5815 21.6291 16.9289 23.6787 15.3587C24.0874 15.0293 23.9239 14.8646 23.7604 14.6176C23.0247 14.0413 22.6159 13.712 21.7108 13.1297C21.2203 12.8827 21.0568 12.6357 21.3838 12.3064C21.7926 11.8947 22.5283 11.3184 24.1692 10.5715C24.2626 10.2362 24.5896 10.4009 24.8349 10.5656ZM8.44379 15.0234C8.7708 14.3648 9.59415 12.7945 10.3299 11.8888C10.4934 11.6418 10.6569 11.5595 11.0657 11.6418C11.8014 11.7242 13.0335 12.3005 14.6744 12.7122C15.0014 12.7945 15.1649 12.7945 15.4101 12.4652C16.0641 11.7242 17.9503 9.98924 20.9867 8.666C21.3137 8.50133 21.8042 8.50133 22.2188 8.74834C22.5458 8.91301 22.9546 9.07768 23.4509 9.32468C21.9736 9.98336 21.2378 10.5597 20.6656 11.1419C20.1751 11.6359 20.0933 12.1299 20.0933 12.4652V12.7122C20.1751 13.2885 20.5021 13.7825 21.1561 14.1177L21.2378 14.2001C21.2378 14.2001 21.1561 14.2001 21.1561 14.1177C21.6466 14.3648 21.9736 14.6118 22.3064 14.8588C20.6656 16.3467 19.6028 17.7464 18.9429 18.6579C18.4524 19.3166 18.3707 19.8988 18.4524 20.3105C18.5342 20.7222 18.6977 21.2162 19.4335 21.6337L20.0875 22.0454C21.232 22.7041 22.3006 23.3687 23.2816 24.192C26.9721 27.2443 29.3487 32.943 26.6451 37.8126C24.8407 41.0295 22.2188 42.7644 18.1196 43.2584C16.6422 43.4231 15.2525 43.3408 13.9386 43.0114C14.5109 43.0937 15.0014 43.0937 15.5795 43.0937C18.6101 43.0114 21.8918 41.9352 23.5327 39.2946C27.7137 32.6078 22.8787 25.7564 16.4028 23.6098C14.9255 23.1158 12.4671 22.6218 10.581 22.3748C9.84524 22.2924 9.68174 22.0454 9.92699 21.5514C10.3357 20.7281 11.0773 19.0755 12.4671 16.9289C12.5489 16.8466 12.4671 16.5996 12.2219 16.5172C11.4861 16.3526 10.0905 15.9409 8.85839 15.7762C8.44379 15.5998 8.28029 15.4351 8.44379 15.0234ZM28.6071 48.2044C14.0963 50.4333 6.72119 39.4592 6.72119 39.4592C10.0847 42.6762 15.7371 47.9633 24.3443 43.9994C36.8055 38.3889 33.1151 25.8387 29.7516 22.1219C29.3428 21.7102 29.5881 21.2985 29.9151 21.2162C30.8961 20.8045 33.5238 19.7283 35.5734 19.2343C35.8187 19.1519 35.8187 19.0696 35.7369 18.7403C35.5734 18.2463 35.3282 17.417 34.3413 15.7703C34.0143 15.441 34.1778 15.194 34.5048 15.1116C34.9953 15.0293 35.3223 14.8646 37.9442 14.5353C38.1895 14.453 38.5165 14.6176 38.68 14.8646C39.2522 15.8585 39.661 16.8466 40.0756 18.1639C40.0756 18.3286 40.3208 18.5756 40.5661 18.5756C41.5471 18.5756 44.9923 18.6579 46.7967 18.9873C46.9602 18.9873 47.2872 19.1519 47.2872 19.3989C47.7777 20.8869 48.8463 27.903 45.7281 35.3307C42.0493 43.7524 35.2464 47.134 28.6071 48.2044Z" fill="white"/>
<path d="M-5.97095e-07 79.5928C0.304687 79.6144 0.606918 79.6576 0.911605 79.6576C26.2033 79.6603 51.495 79.6603 76.7867 79.6603C77.0889 79.6603 77.3911 79.6603 77.7179 79.6603C77.7179 80.1115 77.7179 80.4844 77.7179 80.9329C51.7972 80.9329 25.8986 80.9329 -6.55671e-07 80.9329C-6.36067e-07 80.4844 -6.16581e-07 80.0386 -5.97095e-07 79.5928Z" fill="white"/>
<path d="M77.7253 65.9361C77.7253 66.3521 77.7253 66.7682 77.7253 67.2545C77.3911 67.2545 77.111 67.2545 76.8284 67.2545C51.5048 67.2545 26.1812 67.2545 0.857544 67.2545C0.57251 67.2545 0.285034 67.268 -5.87171e-08 67.2761C-3.91131e-08 66.8277 -1.96271e-08 66.3819 -1.41114e-10 65.9361C25.9084 65.9361 51.8169 65.9361 77.7253 65.9361Z" fill="white"/>
<path d="M85.584 65.9356C85.8298 66.0193 86.0829 66.0923 86.3237 66.1895C86.9945 66.4597 87.282 66.8893 87.3778 67.7754C87.1861 67.8106 86.992 67.8457 86.8053 67.8781C86.1934 66.7947 85.6307 66.4759 84.7879 66.846C84.5176 66.9649 84.208 67.3243 84.1687 67.616C84.1392 67.8214 84.4906 68.205 84.7437 68.3212C85.2646 68.5589 85.8421 68.6508 86.3851 68.8426C87.2254 69.1425 87.5989 69.6829 87.5694 70.4799C87.5424 71.2337 87.0756 71.9469 86.3065 72.0631C85.6455 72.1631 84.9231 72.1171 84.2768 71.9334C83.5618 71.7335 83.2596 71.0527 83.2006 70.1908C83.4316 70.153 83.6232 70.1206 83.8051 70.0881C84.3383 71.2661 84.896 71.6146 85.9207 71.4174C86.3679 71.3309 86.7561 71.1229 86.8249 70.5717C86.8986 69.9747 86.4957 69.7477 86.073 69.5991C85.6283 69.4424 85.1639 69.3479 84.7142 69.1993C83.7903 68.8967 83.3701 68.3752 83.3996 67.6079C83.4316 66.8001 83.9255 66.2733 84.8371 66.0571C84.928 66.0355 85.0115 65.9761 85.1 65.9329C85.2572 65.9356 85.4194 65.9356 85.584 65.9356Z" fill="white"/>
<path d="M151.399 65.9358C152.305 66.1763 153.094 66.5707 153.369 67.7514C153.148 67.8216 152.927 67.8946 152.708 67.9648C152.735 67.8973 152.763 67.8297 152.79 67.7622C152.347 67.4218 151.947 66.922 151.458 66.7788C150.539 66.5086 149.733 67.103 149.531 68.1323C149.416 68.7267 149.411 69.3805 149.504 69.9803C149.649 70.9205 150.217 71.4204 150.998 71.4879C151.797 71.5581 152.298 71.1772 152.662 70.2316C152.684 70.1721 152.726 70.1208 152.782 70.029C152.986 70.0722 153.2 70.1154 153.409 70.1586C153.291 71.5771 152.106 72.4362 150.676 72.1822C149.33 71.9445 148.521 70.6125 148.612 68.8753C148.701 67.1705 149.549 66.2519 151.033 65.9358C151.153 65.9358 151.276 65.9358 151.399 65.9358Z" fill="white"/>
<path d="M188.726 65.9358C189.545 66.1385 190.287 66.46 190.636 67.3921C190.673 67.492 190.69 67.6028 190.729 67.7541C190.505 67.827 190.299 67.8946 190.252 67.9108C189.783 67.4785 189.456 67.0084 189.026 66.8166C188.169 66.4329 187.156 67.0003 186.94 67.9837C186.802 68.6132 186.79 69.3103 186.879 69.9533C187.011 70.907 187.559 71.4041 188.343 71.4852C189.139 71.569 189.672 71.188 190.034 70.2694C190.066 70.1911 190.098 70.11 190.139 70.0019C190.365 70.0614 190.577 70.1154 190.837 70.183C190.643 71.1502 190.179 71.7986 189.351 72.085C187.677 72.6659 186.2 71.5744 186.021 69.648C185.829 67.592 186.397 66.6896 188.358 65.9358C188.481 65.9358 188.604 65.9358 188.726 65.9358Z" fill="white"/>
<path d="M57.3125 77.7097C57.3125 74.881 57.3125 72.0604 57.3125 69.0777C58.7475 69.1587 60.1726 69.1425 61.5683 69.3533C62.561 69.5046 63.1851 70.3556 63.5119 71.3796C63.9862 72.8628 63.9616 74.3488 63.3915 75.805C62.9517 76.9262 62.1531 77.6071 61.0572 77.6881C59.8385 77.78 58.6099 77.7097 57.3125 77.7097ZM58.3666 76.6642C59.2168 76.6642 60.0105 76.6993 60.7992 76.6534C61.5609 76.6101 62.0917 76.1454 62.3816 75.3781C62.8338 74.1759 62.8534 72.9412 62.4701 71.7227C62.2662 71.0716 61.8656 70.4772 61.2194 70.3718C60.2881 70.2205 59.3347 70.2313 58.3691 70.1719C58.3666 72.4116 58.3666 74.4974 58.3666 76.6642Z" fill="white"/>
<path d="M27.0363 71.5553C26.9184 71.6094 26.8324 71.6607 26.739 71.6904C26.5449 71.7499 26.3483 71.7958 26.1616 71.8444C25.277 70.118 24.1762 69.6128 22.6847 70.2342C22.4586 70.3288 22.2375 70.4611 22.0458 70.6205C20.9745 71.5202 20.628 73.8086 21.3234 75.3081C21.8959 76.5455 23.2965 77.1371 24.7119 76.7427C24.7315 76.7373 24.7512 76.7292 24.7708 76.7238C26.0756 76.3266 26.2721 75.9943 26.0707 74.4192C25.3556 74.4192 24.6308 74.4192 23.8641 74.4192C23.8641 74.0491 23.8641 73.7492 23.8641 73.4087C24.9404 73.4087 26.0166 73.4087 27.1936 73.4087C27.1936 74.403 27.2034 75.3972 27.1813 76.3915C27.1788 76.532 27.0339 76.7049 26.9135 76.7994C25.5129 77.9017 23.9796 78.2449 22.3284 77.6316C20.5273 76.9615 19.569 74.9244 19.9302 72.6306C20.3897 69.6966 22.9058 68.1863 25.4367 69.3345C26.3287 69.7398 26.8447 70.4882 27.0363 71.5553Z" fill="white"/>
<path d="M75.4943 73.8111C75.4255 75.1187 75.0249 76.5587 73.6219 77.3828C72.2999 78.1582 70.9411 78.1609 69.6585 77.2828C68.3316 76.375 67.8918 74.935 67.9311 73.3139C68.0048 70.2367 70.1843 68.3968 72.7963 69.156C74.4696 69.645 75.5016 71.3065 75.4943 73.8111ZM68.9975 73.5301C69.0442 73.8867 69.0688 74.265 69.1425 74.6324C69.4079 75.9562 70.4104 76.8748 71.607 76.9127C72.8749 76.9532 73.8897 76.1373 74.2288 74.7756C74.4647 73.83 74.4549 72.8817 74.16 71.9496C73.762 70.6879 72.7693 69.9503 71.5874 70.0232C70.3465 70.0989 69.4324 70.9256 69.1597 72.2495C69.0786 72.6628 69.054 73.087 68.9975 73.5301Z" fill="white"/>
<path d="M209 72.0737C208.69 72.0737 208.45 72.0737 208.155 72.0737C208.032 71.7468 207.852 71.4118 207.784 71.0552C207.656 70.3959 207.3 70.1906 206.732 70.2906C206.712 70.2933 206.69 70.2906 206.671 70.2906C205.295 70.2906 205.285 70.2852 204.808 71.6712C204.697 71.9927 204.543 72.071 204.238 72.1115C203.213 72.2547 202.577 71.8657 202.073 70.8309C201.398 69.4368 201.09 69.3504 199.746 69.4936C199.746 70.3311 199.746 71.1848 199.746 72.0656C199.439 72.0656 199.22 72.0656 198.972 72.0656C198.96 71.8711 198.938 71.6955 198.938 71.5226C198.935 69.7448 198.935 67.9644 198.935 66.0434C200.107 66.1029 201.226 66.1029 202.331 66.2325C202.943 66.3028 203.248 66.8621 203.329 67.5105C203.42 68.2291 203.145 68.8208 202.597 69.1369C202.437 69.2288 202.26 69.2882 202.09 69.3612C202.658 70.2338 203.221 71.1011 203.833 72.0413C203.948 71.7441 204.046 71.509 204.13 71.2686C204.68 69.7124 205.236 68.1562 205.774 66.5946C205.882 66.2785 205.988 66.065 206.363 66.0731C206.698 66.0813 206.816 66.2434 206.926 66.5405C207.604 68.3777 208.295 70.2014 209 72.0737ZM199.746 68.7776C200.481 68.7371 201.189 68.7344 201.884 68.6452C202.348 68.5858 202.651 68.1616 202.538 67.7023C202.459 67.3727 202.098 66.9458 201.813 66.8945C201.149 66.7756 200.456 66.8567 199.746 66.8567C199.746 67.4997 199.746 68.0859 199.746 68.7776ZM207.246 69.5665C206.946 68.6911 206.666 67.8725 206.361 66.9809C206.064 67.8806 205.798 68.6911 205.511 69.5665C206.11 69.5665 206.644 69.5665 207.246 69.5665Z" fill="white"/>
<path d="M46.0814 77.6883C47.052 74.9433 47.9955 72.2415 48.9735 69.5533C49.0423 69.3669 49.3421 69.1913 49.546 69.1724C49.8261 69.1454 50.1799 68.9778 50.3667 69.4831C51.3594 72.1875 52.3816 74.8811 53.389 77.5775C53.4013 77.6126 53.3817 77.6612 53.3792 77.7018C52.3054 77.9395 52.3054 77.9395 51.9221 76.8561C51.3275 75.1756 51.3275 75.1675 49.7499 75.1783C49.1848 75.181 48.4845 75.0189 48.0914 75.3161C47.7203 75.5971 47.6712 76.3833 47.482 76.9453C47.1625 77.899 47.1281 77.9206 46.0814 77.6883ZM49.6664 70.3449C49.2388 71.6553 48.831 72.9008 48.4132 74.1814C49.288 74.1814 50.0939 74.1814 50.9638 74.1814C50.5264 72.8846 50.1062 71.6445 49.6664 70.3449Z" fill="white"/>
<path d="M2.90097 69.202C4.02881 69.0723 4.03128 69.0723 4.3679 70.1017C5.06082 72.2145 5.7513 74.3299 6.47861 76.5453C6.56953 76.3427 6.63588 76.2238 6.67764 76.0969C7.36566 74.0732 8.04875 72.0496 8.7343 70.0233C9.06111 69.0588 9.05865 69.0561 10.1177 69.2182C9.69751 70.3881 9.2798 71.5417 8.86699 72.6981C8.30922 74.2516 7.76863 75.8132 7.18384 77.3559C7.11012 77.5504 6.81525 77.7557 6.61868 77.7611C6.36558 77.7692 5.94295 77.6531 5.87415 77.4666C4.86424 74.746 3.90103 72.0064 2.90097 69.202Z" fill="white"/>
<path d="M154.442 79.3551C154.921 77.8368 155.346 76.4967 155.771 75.1566C156.056 74.257 156.056 74.2597 157.019 74.4191C157.019 76.3481 157.019 78.2798 157.019 80.2926C156.818 80.3034 156.606 80.3116 156.326 80.3251C156.326 78.7824 156.326 77.2856 156.326 75.7915C156.284 75.7834 156.245 75.778 156.203 75.7699C155.778 77.1046 155.351 78.4392 154.926 79.7739C154.832 80.0684 154.761 80.4493 154.378 80.3061C154.179 80.2332 153.967 79.99 153.894 79.7685C153.446 78.423 153.039 77.0614 152.498 75.7348C152.498 77.2397 152.498 78.7418 152.498 80.2899C152.257 80.3034 152.061 80.3143 151.815 80.3278C151.815 78.342 151.815 76.394 151.815 74.4434C152.79 74.1705 152.874 74.2164 153.191 75.2485C153.591 76.5615 153.987 77.8692 154.442 79.3551Z" fill="white"/>
<path d="M37.7984 69.178C38.1227 69.178 38.425 69.178 38.8058 69.178C38.8058 71.6582 38.8058 74.1384 38.8058 76.7051C40.1376 76.7051 41.3932 76.7051 42.6783 76.7051C42.6783 77.0968 42.6783 77.3994 42.6783 77.7452C41.0517 77.7452 39.4472 77.7452 37.7984 77.7452C37.7984 74.8814 37.7984 72.0446 37.7984 69.178Z" fill="white"/>
<path d="M161.407 77.121C162.205 77.7289 162.431 78.2639 162.244 79.0393C162.053 79.8309 161.611 80.2388 160.709 80.2983C159.878 80.3523 159.043 80.3091 158.18 80.3091C158.18 78.3125 158.18 76.3645 158.18 74.3788C159.062 74.3788 159.918 74.3382 160.765 74.3923C161.355 74.4301 161.787 74.8056 161.969 75.4567C162.144 76.0754 162.009 76.4861 161.407 77.121ZM158.9 79.5823C159.517 79.5823 160.085 79.6147 160.65 79.5715C161.156 79.5337 161.485 79.2176 161.507 78.6313C161.529 78.0423 161.217 77.6857 160.714 77.6371C160.117 77.5776 159.512 77.6235 158.9 77.6235C158.9 78.2882 158.9 78.8853 158.9 79.5823ZM158.922 76.786C159.522 76.786 160.099 76.8644 160.645 76.7509C160.888 76.6995 161.178 76.2997 161.249 76.0025C161.35 75.5864 161.124 75.2001 160.679 75.1515C160.102 75.0866 159.52 75.0812 158.925 75.0488C158.922 75.6945 158.922 76.2403 158.922 76.786Z" fill="white"/>
<path d="M115.468 70.4228C115.468 69.0097 115.468 67.5994 115.468 66.1324C115.726 66.1162 115.918 66.1054 116.166 66.0919C116.166 68.1047 116.166 70.0715 116.166 72.0384C115.653 72.2383 115.348 72.0168 115.065 71.5305C114.309 70.2228 113.5 68.9476 112.613 67.4995C112.613 69.1313 112.613 70.566 112.613 72.0492C112.358 72.0492 112.151 72.0492 111.91 72.0492C111.91 70.085 111.91 68.1344 111.91 66.1837C112.419 65.9514 112.704 66.1702 112.974 66.6268C113.734 67.9182 114.535 69.1827 115.319 70.4579C115.37 70.4417 115.419 70.4309 115.468 70.4228Z" fill="white"/>
<path d="M130.756 70.6553C130.756 69.0613 130.756 67.6266 130.756 66.1407C131.014 66.1407 131.225 66.1407 131.468 66.1407C131.468 68.0995 131.468 70.0501 131.468 72.0278C130.987 72.2088 130.667 72.0737 130.378 71.5712C129.631 70.2744 128.827 69.0126 127.923 67.7563C127.923 69.1774 127.923 70.6013 127.923 72.0575C127.635 72.0575 127.439 72.0575 127.193 72.0575C127.193 70.0933 127.193 68.1265 127.193 66.165C127.697 65.9543 127.992 66.1515 128.262 66.6189C128.925 67.7671 129.635 68.8857 130.328 70.015C130.437 70.1906 130.557 70.3581 130.756 70.6553Z" fill="white"/>
<path d="M105.028 72.0634C104.702 72.0634 104.503 72.0634 104.277 72.0634C104.277 70.0831 104.277 68.1297 104.277 66.0467C105.412 66.1007 106.53 66.1061 107.636 66.2304C108.257 66.2979 108.55 66.8653 108.641 67.5056C108.734 68.1837 108.523 68.7403 107.97 69.0996C107.783 69.2212 107.569 69.2914 107.407 69.3698C107.967 70.2425 108.52 71.1043 109.098 72.0067C108.444 72.2255 108.036 72.0958 107.776 71.4744C107.643 71.1529 107.407 70.8828 107.255 70.5694C106.79 69.6102 106.075 69.2617 105.026 69.5076C105.028 70.3235 105.028 71.1773 105.028 72.0634ZM105.026 68.7889C105.8 68.7403 106.513 68.7349 107.215 68.6403C107.653 68.5809 107.933 68.1918 107.837 67.7298C107.773 67.4191 107.493 66.9571 107.267 66.9247C106.537 66.8221 105.79 66.8869 105.028 66.8869C105.026 67.5083 105.026 68.0811 105.026 68.7889Z" fill="white"/>
<path d="M180.748 66.1545C181.244 65.9627 181.512 66.1869 181.765 66.6219C182.534 67.9322 183.342 69.2156 184.254 70.4935C184.254 69.0534 184.254 67.6134 184.254 66.1302C184.534 66.1167 184.728 66.1058 184.974 66.0923C184.974 68.1051 184.974 70.0747 184.974 72.0362C184.446 72.228 184.138 72.0254 183.858 71.5309C183.215 70.3935 182.512 69.2966 181.831 68.1835C181.723 68.0079 181.603 67.8431 181.391 67.5324C181.391 69.1399 181.391 70.5745 181.391 72.0551C181.165 72.074 180.991 72.0875 180.748 72.1064C180.748 70.1125 180.748 68.1538 180.748 66.1545Z" fill="white"/>
<path d="M173.641 70.4501C173.641 69.0317 173.641 67.6133 173.641 66.1408C173.876 66.1192 174.071 66.103 174.324 66.0787C174.324 68.0834 174.324 70.0502 174.324 72.036C173.857 72.2089 173.555 72.0468 173.279 71.5767C172.515 70.2691 171.704 68.9911 170.793 67.7321C170.793 69.1614 170.793 70.5879 170.793 72.0576C170.525 72.0711 170.328 72.0819 170.095 72.0954C170.095 70.0853 170.095 68.1131 170.095 66.1516C170.581 65.9814 170.869 66.1489 171.132 66.5947C171.901 67.9077 172.714 69.1884 173.508 70.4825C173.555 70.4744 173.599 70.4636 173.641 70.4501Z" fill="white"/>
<path d="M143.337 66.1574C143.841 65.9548 144.133 66.1655 144.403 66.6248C145.163 67.9189 145.961 69.1861 146.873 70.4478C146.873 69.0267 146.873 67.6055 146.873 66.1385C147.16 66.1385 147.35 66.1385 147.576 66.1385C147.576 68.1054 147.576 70.0587 147.576 72.0283C147.094 72.2147 146.797 72.0418 146.524 71.5744C145.757 70.2586 144.946 68.9753 144.052 67.5137C144.052 69.1401 144.052 70.5856 144.052 72.0634C143.777 72.0634 143.578 72.0634 143.337 72.0634C143.337 70.0992 143.337 68.127 143.337 66.1574Z" fill="white"/>
<path d="M126.05 66.1408C126.06 66.3542 126.069 66.5461 126.084 66.8189C125.02 66.8189 123.988 66.8189 122.905 66.8189C122.905 67.4376 122.905 67.9807 122.905 68.6102C123.853 68.6102 124.824 68.6102 125.824 68.6102C125.824 68.9047 125.824 69.1154 125.824 69.3883C124.851 69.3883 123.897 69.3883 122.897 69.3883C122.897 70.0583 122.897 70.6635 122.897 71.3525C124.001 71.3525 125.074 71.3525 126.175 71.3525C126.175 71.628 126.175 71.8199 126.175 72.0549C124.829 72.0549 123.489 72.0549 122.111 72.0549C122.111 70.0881 122.111 68.1374 122.111 66.1408C123.421 66.1408 124.716 66.1408 126.05 66.1408Z" fill="white"/>
<path d="M102.877 68.6292C102.877 68.9074 102.877 69.1182 102.877 69.3965C101.899 69.3965 100.948 69.3965 99.963 69.3965C99.963 70.0584 99.963 70.6501 99.963 71.3255C101.037 71.3255 102.108 71.3255 103.226 71.3255C103.241 71.6119 103.251 71.8199 103.263 72.0631C101.897 72.0631 100.572 72.0631 99.1988 72.0631C99.1988 70.0935 99.1988 68.1266 99.1988 66.1274C100.506 66.1274 101.786 66.1274 103.103 66.1274C103.103 66.3597 103.103 66.5704 103.103 66.8514C102.059 66.8514 101.027 66.8514 99.9605 66.8514C99.9605 67.4674 99.9605 68.0132 99.9605 68.6292C100.938 68.6292 101.889 68.6292 102.877 68.6292Z" fill="white"/>
<path d="M132.734 72.0824C132.734 70.0642 132.734 68.1325 132.734 66.0332C133.763 66.1089 134.768 66.1791 135.773 66.2547C135.793 66.2574 135.81 66.2737 135.83 66.2818C136.832 66.6924 137.405 68.0217 137.228 69.5374C137.046 71.1044 136.395 71.9743 135.228 72.0716C134.419 72.1364 133.601 72.0824 132.734 72.0824ZM133.488 71.3529C134.441 71.2557 135.478 71.7393 136.144 70.6181C136.606 69.8373 136.557 68.1514 136.075 67.4894C135.353 66.4952 134.373 66.968 133.488 66.8491C133.488 68.408 133.488 69.8481 133.488 71.3529Z" fill="white"/>
<path d="M117.442 74.3973C118.388 74.3973 119.307 74.3217 120.212 74.4189C121.037 74.5108 121.595 75.1538 121.767 76.0075C121.912 76.7289 121.961 77.5205 121.853 78.2446C121.647 79.6333 120.9 80.2682 119.61 80.3195C118.9 80.3492 118.189 80.3249 117.442 80.3249C117.442 78.3094 117.442 76.3669 117.442 74.3973ZM118.175 79.609C119.162 79.4712 120.285 80.0061 120.875 78.7795C121.349 77.7907 121.396 76.6884 120.787 75.7347C120.133 74.7134 119.108 75.1457 118.175 75.0727C118.175 76.5992 118.175 78.0555 118.175 79.609Z" fill="white"/>
<path d="M148.252 80.4193C146.708 80.4139 145.632 79.1738 145.627 77.3961C145.622 75.4913 146.662 74.2404 148.254 74.2377C149.851 74.235 150.918 75.494 150.905 77.369C150.893 79.2224 149.846 80.422 148.252 80.4193ZM150.107 77.3393C150.104 76.11 149.645 75.3049 148.792 75.032C147.819 74.7213 146.856 75.2698 146.551 76.3127C146.121 77.7878 146.591 79.1981 147.652 79.6034C147.822 79.6682 148.008 79.7115 148.188 79.7196C149.35 79.7763 150.112 78.8253 150.107 77.3393Z" fill="white"/>
<path d="M138.057 74.2377C139.654 74.2323 140.725 75.4941 140.715 77.3664C140.706 79.2143 139.654 80.422 138.062 80.4193C136.519 80.4139 135.445 79.1765 135.437 77.3988C135.43 75.4886 136.462 74.2404 138.057 74.2377ZM139.914 77.3637C139.919 76.1425 139.462 75.3184 138.62 75.0375C137.651 74.7132 136.678 75.2509 136.359 76.2884C135.917 77.723 136.388 79.1846 137.438 79.598C137.627 79.6736 137.833 79.7142 138.035 79.7223C139.175 79.7547 139.907 78.828 139.914 77.3637Z" fill="white"/>
<path d="M139.027 68.6211C139.995 68.6211 140.948 68.6211 141.96 68.6211C141.975 68.8804 141.988 69.0885 142.002 69.3803C140.983 69.3803 140.014 69.3803 139.014 69.3803C139.014 70.0692 139.014 70.6798 139.014 71.3606C140.125 71.3606 141.201 71.3606 142.302 71.3606C142.302 71.6281 142.302 71.8226 142.302 72.0577C140.978 72.0577 139.656 72.0577 138.287 72.0577C138.287 70.0935 138.287 68.1293 138.287 66.1274C139.592 66.1274 140.869 66.1274 142.177 66.1274C142.177 66.357 142.177 66.5515 142.177 66.8136C141.14 66.8136 140.108 66.8136 139.027 66.8136C139.027 67.4269 139.027 67.9726 139.027 68.6211Z" fill="white"/>
<path d="M194.657 68.6267C195.637 68.6267 196.576 68.6267 197.568 68.6267C197.568 68.886 197.568 69.1103 197.568 69.3967C196.59 69.3967 195.637 69.3967 194.654 69.3967C194.654 70.0667 194.654 70.68 194.654 71.3473C195.745 71.3473 196.802 71.3473 197.912 71.3473C197.93 71.6094 197.942 71.8147 197.957 72.0606C196.59 72.0606 195.268 72.0606 193.905 72.0606C193.905 70.0964 193.905 68.1485 193.905 66.1438C195.178 66.1438 196.453 66.1438 197.79 66.1438C197.802 66.3383 197.817 66.5463 197.836 66.83C196.758 66.83 195.726 66.83 194.657 66.83C194.657 67.4487 194.657 67.9945 194.657 68.6267Z" fill="white"/>
<path d="M127.037 79.5927C127.037 79.8548 127.037 80.0466 127.037 80.2844C125.678 80.2844 124.342 80.2844 122.968 80.2844C122.968 78.3121 122.968 76.3669 122.968 74.3865C124.283 74.3865 125.563 74.3865 126.892 74.3865C126.912 74.5729 126.929 74.7593 126.956 75.0322C125.865 75.0322 124.813 75.0322 123.715 75.0322C123.715 75.6752 123.715 76.2399 123.715 76.8721C124.693 76.8721 125.666 76.8721 126.673 76.8721C126.693 77.1261 126.705 77.3152 126.725 77.5745C125.72 77.5745 124.749 77.5745 123.722 77.5745C123.722 78.2662 123.722 78.893 123.722 79.5927C124.826 79.5927 125.919 79.5927 127.037 79.5927Z" fill="white"/>
<path d="M94.7861 69.6851C94.7861 70.5308 94.7861 71.2656 94.7861 72.0626C94.5527 72.0735 94.3414 72.0843 94.0932 72.0978C94.0932 70.1012 94.0932 68.1478 94.0932 66.0405C95.1473 66.1053 96.2039 66.1107 97.2433 66.262C97.8797 66.3539 98.2384 67.0482 98.2483 67.8317C98.2581 68.6449 97.8993 69.3285 97.2703 69.5095C96.8231 69.6392 96.344 69.6473 95.8771 69.6797C95.5233 69.704 95.1645 69.6851 94.7861 69.6851ZM94.8254 66.8726C94.8254 67.6021 94.8254 68.2397 94.8254 68.8935C95.4618 68.8935 96.0712 68.934 96.6708 68.8827C97.2261 68.8341 97.4915 68.418 97.4644 67.8236C97.4374 67.2589 97.1475 66.905 96.6192 66.8807C96.0344 66.851 95.4471 66.8726 94.8254 66.8726Z" fill="white"/>
<path d="M160.989 72.0144C160.352 72.2737 160.077 72.0009 159.888 71.3822C159.546 70.2744 159.517 70.2879 158.453 70.2879C158.411 70.2879 158.372 70.2879 158.33 70.2879C157.278 70.2879 157.278 70.2879 156.91 71.3984C156.666 72.1278 156.666 72.1278 155.89 72.036C156.104 71.4254 156.308 70.831 156.517 70.2393C156.954 68.9911 157.381 67.7402 157.843 66.5055C157.91 66.3299 158.131 66.1408 158.3 66.1165C158.477 66.0921 158.794 66.2029 158.851 66.3488C159.581 68.2265 160.278 70.1231 160.989 72.0144ZM159.269 69.5828C158.959 68.6885 158.681 67.8807 158.367 66.9756C158.065 67.9158 157.804 68.7209 157.526 69.5828C158.121 69.5828 158.642 69.5828 159.269 69.5828Z" fill="white"/>
<path d="M174.995 72.0278C175.656 70.1474 176.297 68.2994 176.966 66.4623C177.027 66.2975 177.282 66.1137 177.442 66.1191C177.636 66.1272 177.929 66.2758 177.998 66.4487C178.715 68.2859 179.398 70.142 180.098 72.0143C179.504 72.2386 179.204 72.0522 179.01 71.4118C178.666 70.2744 178.631 70.2879 177.531 70.2879C177.489 70.2879 177.45 70.2879 177.408 70.2879C176.386 70.2879 176.359 70.2798 176.034 71.3686C175.862 71.936 175.648 72.2899 174.995 72.0278ZM177.489 66.9594C177.187 67.8834 176.924 68.6939 176.636 69.5693C177.231 69.5693 177.749 69.5693 178.359 69.5693C178.071 68.7047 177.803 67.9023 177.489 66.9594Z" fill="white"/>
<path d="M169.889 80.2495C169.339 80.4576 169.037 80.3117 168.845 79.7146C168.462 78.5123 168.432 78.5231 167.241 78.5231C166.181 78.5231 166.181 78.5231 165.798 79.6822C165.575 80.363 165.575 80.363 164.852 80.2765C164.882 80.1306 164.896 79.9821 164.943 79.8497C165.525 78.1881 166.115 76.5319 166.695 74.8704C166.801 74.5651 166.887 74.33 167.272 74.3327C167.626 74.3381 167.769 74.4894 167.889 74.819C168.511 76.5103 169.152 78.1935 169.784 79.8794C169.825 79.9956 169.853 80.1198 169.889 80.2495ZM168.194 77.8315C167.887 76.9291 167.604 76.1078 167.295 75.2C166.99 76.1375 166.72 76.9642 166.437 77.8315C167.041 77.8315 167.567 77.8315 168.194 77.8315Z" fill="white"/>
<path d="M88.5644 66.119C88.8101 66.119 89.0067 66.119 89.2868 66.119C89.2868 66.8053 89.2868 67.4645 89.2868 68.1264C89.2868 68.7289 89.2622 69.3314 89.2942 69.9312C89.3654 71.2064 90.2573 71.8008 91.3655 71.3442C91.9135 71.1199 92.0732 70.6309 92.0855 70.069C92.1101 69.045 92.1027 68.0183 92.1101 66.9944C92.1125 66.7296 92.1101 66.4648 92.1101 66.146C92.3607 66.146 92.5671 66.146 92.8054 66.146C92.8054 67.6212 92.857 69.0882 92.7858 70.5472C92.744 71.4063 92.2108 71.971 91.4147 72.1196C89.5079 72.4789 88.5545 71.7062 88.5373 69.788C88.5275 68.6749 88.5324 67.559 88.5324 66.4459C88.5324 66.3595 88.5496 66.273 88.5644 66.119Z" fill="white"/>
<path d="M134.709 75.9944C134.446 76.0593 134.235 76.1133 134.038 76.1619C133.348 75.0218 132.81 74.7408 131.927 75.0407C131.109 75.3163 130.645 76.2538 130.714 77.4912C130.785 78.7799 131.259 79.5148 132.139 79.7012C132.996 79.8822 133.586 79.4527 134.105 78.2288C134.321 78.2909 134.549 78.3558 134.778 78.4206C134.478 79.685 133.775 80.3605 132.736 80.4172C131.36 80.4901 130.485 79.9795 130.178 78.6773C129.991 77.8884 129.967 76.9941 130.094 76.1917C130.279 75.0191 131.252 74.2869 132.372 74.2383C133.552 74.187 134.249 74.6895 134.709 75.9944Z" fill="white"/>
<path d="M32.9239 77.747C32.5676 77.747 32.2679 77.747 31.9386 77.747C31.9386 74.8886 31.9386 72.0707 31.9386 69.1987C32.2506 69.1987 32.5652 69.1987 32.9239 69.1987C32.9239 72.0221 32.9239 74.8562 32.9239 77.747Z" fill="white"/>
<path d="M14.2885 69.1667C14.63 69.1667 14.9323 69.1667 15.2812 69.1667C15.2812 72.0171 15.2812 74.8539 15.2812 77.7366C14.9642 77.7366 14.6497 77.7366 14.2885 77.7366C14.2885 74.9025 14.2885 72.0684 14.2885 69.1667Z" fill="white"/>
<path d="M164.036 69.3775C164.036 70.342 164.036 71.1823 164.036 72.0576C163.785 72.0576 163.574 72.0576 163.335 72.0576C163.335 70.08 163.335 68.1293 163.335 66.1354C164.549 66.1354 165.743 66.1354 166.972 66.1354C166.972 66.3651 166.972 66.5731 166.972 66.8298C166.011 66.8298 165.075 66.8298 164.092 66.8298C164.092 67.4377 164.092 67.9996 164.092 68.6183C164.908 68.6183 165.716 68.6183 166.576 68.6183C166.593 68.8804 166.608 69.0884 166.63 69.3748C165.765 69.3775 164.94 69.3775 164.036 69.3775Z" fill="white"/>
<path d="M118.819 66.8517C118.16 66.8517 117.617 66.8517 117.037 66.8517C117.037 66.5842 117.037 66.3762 117.037 66.1303C118.46 66.1303 119.861 66.1303 121.318 66.1303C121.318 66.3492 121.318 66.5734 121.318 66.8517C120.743 66.8517 120.2 66.8517 119.593 66.8517C119.593 68.6051 119.593 70.3072 119.593 72.0525C119.315 72.0525 119.101 72.0525 118.819 72.0525C118.819 70.3558 118.819 68.6537 118.819 66.8517Z" fill="white"/>
<path d="M145.017 79.5762C145.005 79.8734 144.997 80.0707 144.987 80.2976C143.86 80.2976 142.761 80.2976 141.619 80.2976C141.619 78.3307 141.619 76.3828 141.619 74.3916C141.832 74.3916 142.044 74.3916 142.324 74.3916C142.324 76.1045 142.324 77.812 142.324 79.5762C143.24 79.5762 144.091 79.5762 145.017 79.5762Z" fill="white"/>
<path d="M192.54 72.0608C192.322 72.0608 192.105 72.0608 191.852 72.0608C191.852 70.0994 191.852 68.1514 191.852 66.1305C192.064 66.117 192.275 66.1062 192.54 66.09C192.54 68.1001 192.54 70.0642 192.54 72.0608Z" fill="white"/>
<path d="M168.117 66.1169C168.363 66.1169 168.542 66.1169 168.769 66.1169C168.769 68.1026 168.769 70.0668 168.769 72.0607C168.552 72.0607 168.356 72.0607 168.117 72.0607C168.117 70.0965 168.117 68.1324 168.117 66.1169Z" fill="white"/>
<path d="M154.495 72.1006C154.495 70.0662 154.495 68.121 154.495 66.1325C154.731 66.1325 154.942 66.1325 155.188 66.1325C155.188 68.1047 155.188 70.05 155.188 72.0628C154.979 72.0736 154.765 72.0844 154.495 72.1006Z" fill="white"/>
<path d="M110.6 72.0652C110.352 72.0652 110.155 72.0652 109.926 72.0652C109.926 70.0848 109.926 68.1342 109.926 66.1376C110.15 66.1376 110.359 66.1376 110.6 66.1376C110.6 68.1099 110.6 70.0605 110.6 72.0652Z" fill="white"/>
<path d="M164.108 80.2869C163.904 80.3004 163.71 80.3139 163.462 80.3328C163.462 78.3281 163.462 76.3666 163.462 74.3782C163.675 74.3782 163.872 74.3782 164.108 74.3782C164.108 76.345 164.108 78.2903 164.108 80.2869Z" fill="white"/>
</svg>
