<svg width="164" height="40" viewBox="0 0 164 40" fill="none" xmlns="http://www.w3.org/2000/svg">
<path d="M45.4439 29.3689L46.7324 29.2396C48.1494 29.1057 48.1494 28.9117 48.1494 24.5057V11.8651C48.1494 7.45907 48.1494 7.26048 46.7324 7.13116L45.4439 7.00185V6.15667H54.8399C58.2516 6.15667 63.594 6.67394 63.594 12.7056C63.594 17.6335 58.1232 19.9658 54.7115 19.9658H54.0695V19.1853C55.6149 19.1853 59.797 18.474 59.797 12.9596C59.797 8.68296 56.9631 7.38518 53.6843 7.38518C52.9139 7.38518 52.1389 7.51449 51.4328 7.70847V24.5658C51.4328 28.9764 51.4327 29.1703 53.4275 29.2996L54.7161 29.429V30.2095H45.3797V29.3643H45.4439V29.3689Z" fill="white"/>
<path d="M63.3373 20.6814C63.3373 14.3911 68.166 10.4378 73.7652 10.4378C79.1075 10.4378 83.6152 13.8739 83.6152 20.3582C83.6152 26.7778 78.9791 30.6018 73.1874 30.6018C67.5241 30.5972 63.3373 26.9671 63.3373 20.6814ZM73.8294 29.6273C78.7865 29.6273 80.6528 25.3507 80.6528 21.0694C80.6528 15.5596 77.9473 11.343 73.38 11.343C69.0052 11.343 66.4923 14.9731 66.4923 20.0302C66.4281 26.0619 69.4546 29.6273 73.8294 29.6273Z" fill="white"/>
<path d="M92.4334 19.125C94.7491 20.4228 97.1337 21.6513 97.1337 25.1521C97.1337 29.1054 93.5294 30.5972 90.4386 30.5972C88.187 30.5972 86.7701 30.0153 85.8667 29.4287C85.3531 28.2603 84.9679 26.1219 84.9679 24.3069L85.8667 24.0483C86.1877 26.1219 87.2837 29.6227 91.209 29.6227C93.2038 29.6227 94.6849 28.3249 94.6849 26.0573C94.6849 23.9189 92.8828 22.4918 90.6312 21.4527L88.7648 20.4136C87.0911 19.5037 85.5457 17.6887 85.5457 15.4857C85.5457 11.9203 88.508 10.4285 91.5942 10.4285C93.3964 10.4285 94.8775 10.8811 95.5837 11.3337C95.8405 12.2435 95.9047 14.6405 95.9047 15.3518H95.1985C94.8775 13.86 94.4281 11.3337 91.1448 11.3337C89.471 11.3337 87.9898 12.5668 87.9898 14.5112C87.9898 16.2616 89.2142 17.1668 90.8238 18.0766L92.4334 19.125Z" fill="white"/>
<path d="M97.1982 29.5626L98.2299 29.4979C99.3901 29.3686 99.3901 29.2393 99.3901 25.6738V15.4948C99.3901 11.9294 99.3901 11.8001 98.2299 11.6708L97.1982 11.6061V10.9595H104.278V11.6061L103.251 11.6708C102.091 11.8001 102.091 11.9294 102.091 15.4948V25.6092C102.091 29.1746 102.091 29.3039 103.251 29.4333L104.278 29.4979V30.1445H97.1982V29.5626Z" fill="white"/>
<path d="M110.006 29.5622L111.102 29.4976C112.711 29.3682 112.711 29.2389 112.711 25.6735V11.7351H111.23C107.112 11.7351 107.048 12.1877 106.466 15.5591H105.759C105.759 15.4298 105.695 14.6493 105.695 14.2614C105.695 12.8989 105.888 11.5365 106.016 10.8899H122.172C122.3 11.5365 122.493 12.8989 122.493 14.2614C122.493 14.6493 122.428 15.4298 122.428 15.5591H121.722C121.08 12.1877 121.016 11.7351 116.958 11.7351H115.476V25.6088C115.476 29.1743 115.476 29.3036 117.086 29.4329L118.118 29.4976V30.1441H110.07V29.5622H110.006Z" fill="white"/>
<path d="M123.46 29.5626L124.492 29.4979C125.652 29.3686 125.652 29.2393 125.652 25.6738V15.4948C125.652 11.9294 125.652 11.8001 124.492 11.6708L123.46 11.6061V10.9595H130.54V11.6061L129.513 11.6708C128.353 11.8001 128.353 11.9294 128.353 15.4948V25.6092C128.353 29.1746 128.353 29.3039 129.513 29.4333L130.54 29.4979V30.1445H123.46V29.5626Z" fill="white"/>
<path d="M133.888 13.8737C133.439 12.7699 133.118 11.7353 132.15 11.606L131.311 11.5414V10.8948H138.52V11.5414L137.616 11.606C137.167 11.6707 136.328 11.7353 136.328 12.3173C136.328 12.4466 136.585 13.1578 136.713 13.4857L141.734 26.5143C142.376 24.7639 146.948 13.3564 146.948 12.4466C146.948 11.8647 146.37 11.7353 145.788 11.606L144.5 11.4121V10.7655H150.745V11.4121L149.975 11.606C149.654 11.6707 149.333 11.8647 149.071 12.0586C148.429 12.7052 147.526 15.4948 146.756 16.9218L144.761 21.7204C143.087 25.7384 141.67 29.3039 141.413 30.0844C141.285 30.2137 140.836 30.4077 140.45 30.537L133.888 13.8737Z" fill="white"/>
<path d="M144.508 29.5627L145.086 29.498C146.182 29.304 146.31 28.9807 147.017 27.295L153.065 12.516C153.322 11.9341 153.515 11.3476 153.771 10.7656L154.611 10.507L161.113 27.4289C161.562 28.5974 161.819 29.244 162.594 29.438L163.754 29.6319V30.2785H156.546V29.6319L157.834 29.3733C158.348 29.3086 158.733 29.1147 158.733 28.7914C158.733 28.5974 158.605 28.4034 158.54 28.2095L156.481 22.6997C155.385 22.5057 154.358 22.3764 153.262 22.3764C152.235 22.3764 151.203 22.5057 150.236 22.6997L148.755 26.7824C148.434 27.6922 148.177 28.5327 148.177 28.7267C148.177 29.3086 148.562 29.3733 148.883 29.3733L150.621 29.6319V30.2785H144.508V29.5627ZM150.557 21.522C151.456 21.4573 152.359 21.3926 153.194 21.3926C154.097 21.3926 155.06 21.3926 155.963 21.522L153.322 14.4558L150.557 21.522Z" fill="white"/>
<path d="M62.6955 37.7281C62.6313 38.4394 62.5029 38.9613 62.2461 39.6078C61.9251 39.7372 61.0859 39.9958 59.9945 39.9958C57.9356 39.9958 55.9408 39.0213 55.9408 36.2364C55.9408 33.3175 58.2566 32.4123 59.9945 32.4123C61.0905 32.4123 61.9251 32.671 62.2461 32.8649C62.3745 33.3175 62.4387 33.9687 62.4387 34.486L62.1177 34.5507C61.9893 34.098 61.8609 32.8003 59.9945 32.8003C58.1924 32.8003 57.0964 33.9687 57.0964 36.0424C57.0964 37.9221 57.9952 39.6725 59.9945 39.6725C61.7967 39.6725 62.0535 38.5687 62.4387 37.6635L62.6955 37.7281Z" fill="white"/>
<path d="M63.0164 36.9523C63.0164 35.0726 64.4976 33.8395 66.1713 33.8395C67.7809 33.8395 69.1337 34.8786 69.1337 36.823C69.1337 38.7674 67.7167 39.9358 65.9787 39.9358C64.305 39.9358 63.0164 38.8967 63.0164 36.9523ZM66.2355 39.6772C67.7167 39.6772 68.2945 38.3794 68.2945 37.0862C68.2945 35.4005 67.4599 34.1674 66.1071 34.1674C64.8186 34.1674 64.0481 35.2712 64.0481 36.8276C63.984 38.5734 64.8827 39.6772 66.2355 39.6772Z" fill="white"/>
<path d="M69.6474 39.6077L69.84 39.543C69.9684 39.543 70.0326 39.4784 70.0968 39.4137C70.161 39.349 70.2252 38.7671 70.2894 37.9866L70.4178 35.7836C70.482 35.2017 70.482 34.2272 70.482 33.9686L70.7388 33.9039C70.9956 34.3565 72.9903 38.1806 73.2471 38.6378C73.5039 38.1852 75.4987 34.4258 75.6271 33.9686L75.8839 33.9039C75.8839 33.9686 75.9481 34.9431 76.0123 36.1069L76.0765 37.6633C76.1407 38.4392 76.2049 39.2844 76.2691 39.4137C76.3333 39.4784 76.4617 39.543 76.5901 39.6077L76.8469 39.6723V39.8663H74.5953V39.6723L74.9163 39.6077C75.3015 39.543 75.3015 39.4137 75.3015 39.0257C75.3015 38.0513 75.1731 36.1716 75.1731 35.6543C75.0447 36.0422 74.1413 37.7926 73.2426 39.4784C73.1784 39.543 73.1783 39.6723 73.1141 39.737L72.8574 39.8663C72.6648 39.4784 71.5688 37.2754 70.9268 36.1069C70.8626 35.9129 70.7342 35.7836 70.67 35.5896C70.67 36.1069 70.5416 38.5731 70.5416 38.8964C70.5416 39.4137 70.5416 39.543 70.9268 39.6077L71.2478 39.6723V39.8663H69.4456V39.6077H69.6474Z" fill="white"/>
<path d="M77.37 39.6074H77.691C78.012 39.5427 78.012 39.5427 78.012 38.4389V35.3908C78.012 34.287 78.012 34.287 77.691 34.2223H77.37V34.0283H79.6858C80.5249 34.0283 81.8089 34.1576 81.8089 35.6494C81.8089 36.8825 80.4562 37.3998 79.6216 37.3998H79.4932V37.2058C79.8784 37.2058 80.9101 37.0118 80.9101 35.7141C80.9101 34.6749 80.2039 34.3516 79.429 34.3516C79.2364 34.3516 79.0438 34.4163 78.9154 34.4163V38.499C78.9154 39.6028 78.9154 39.6028 79.429 39.6674H79.75V39.8614H77.4984V39.6028H77.37V39.6074Z" fill="white"/>
<path d="M81.4919 39.6121C81.8129 39.5475 81.8771 39.4828 82.0697 38.9655L83.8719 34.4903C83.9361 34.2963 84.0003 34.167 84.0645 33.973L84.3213 33.9083L86.2518 39.0302C86.3802 39.3535 86.4444 39.6121 86.7012 39.6121L87.0222 39.6768V39.8708H84.8349V39.6768L85.2201 39.6121C85.3485 39.6121 85.4769 39.5475 85.4769 39.4181C85.4769 39.3535 85.4127 39.2888 85.4127 39.2242L84.7707 37.5384C84.4497 37.4738 84.1287 37.4738 83.8077 37.4738C83.4867 37.4738 83.1657 37.5384 82.9043 37.5384L82.4549 38.7716C82.3265 39.0302 82.2623 39.2888 82.2623 39.3535C82.2623 39.5475 82.3907 39.5475 82.4549 39.5475L82.9685 39.6121V39.8061H81.1021V39.6121H81.4919ZM83.1657 37.2105C83.4225 37.2105 83.6793 37.1459 83.9361 37.1459C84.1929 37.1459 84.5139 37.1459 84.7753 37.2105L83.9361 35.0722L83.1657 37.2105Z" fill="white"/>
<path d="M87.2837 39.6078C87.6047 39.6078 87.6689 39.2845 87.6689 38.3747V34.0334L87.8615 33.9687C88.5677 34.8785 91.209 37.5988 92.1078 38.5733V35.5251C92.1078 34.5553 92.1078 34.292 91.6584 34.292H91.3374V34.098H93.2038V34.292H92.8828C92.5618 34.292 92.4976 34.6153 92.4976 35.5251V39.8665L92.305 39.9311C92.1124 39.7371 91.5988 39.1552 90.6312 38.1807L87.9899 35.3912V38.3747C87.9899 39.3492 87.9899 39.6078 88.4393 39.6078H88.7603V39.8018H86.8939V39.6078H87.2837ZM88.8933 33.1928C89.0217 32.9988 89.3427 32.4816 89.7921 32.4816C89.9847 32.4816 90.2415 32.5462 90.4341 32.6756C90.6267 32.7402 90.8835 32.8695 91.076 32.8695C91.3328 32.8695 91.4613 32.6109 91.5255 32.4816L91.6538 32.6109C91.5255 32.8049 91.3329 33.3221 90.8193 33.3221C90.3699 33.3221 89.7875 32.9988 89.5307 32.9988C89.2739 32.9988 89.0813 33.2575 89.0171 33.3868L88.8933 33.1928Z" fill="white"/>
<path d="M93.6578 39.6074H93.9788C94.2998 39.5427 94.2998 39.5427 94.2998 38.4389V35.3908C94.2998 34.287 94.2998 34.287 93.9788 34.2223H93.6578V34.0283H95.781V34.2223H95.46C95.139 34.287 95.139 34.287 95.139 35.3908V38.4389C95.139 39.5427 95.139 39.5427 95.46 39.6074H95.781V39.8014H93.6578V39.6074Z" fill="white"/>
<path d="M95.9736 39.6121C96.2946 39.5475 96.3588 39.4828 96.5514 38.9655L98.3536 34.4903C98.4178 34.2963 98.482 34.167 98.5462 33.973L98.803 33.9083L100.734 39.0302C100.862 39.3535 100.926 39.6121 101.183 39.6121L101.504 39.6768V39.8708H99.3166V39.6768L99.7018 39.6121C99.8302 39.6121 99.9586 39.5475 99.9586 39.4181C99.9586 39.3535 99.8944 39.2888 99.8944 39.2242L99.2524 37.5384C98.9314 37.4738 98.6104 37.4738 98.2894 37.4738C97.9684 37.4738 97.6474 37.5384 97.386 37.5384L96.9366 38.7716C96.8082 39.0302 96.744 39.2888 96.744 39.3535C96.744 39.5475 96.8724 39.5475 96.9366 39.5475L97.4502 39.6121V39.8061H95.5838V39.6121H95.9736ZM97.6474 37.2105C97.9042 37.2105 98.161 37.1459 98.4178 37.1459C98.6746 37.1459 98.9956 37.1459 99.257 37.2105L98.4178 35.0722L97.6474 37.2105Z" fill="white"/>
<path d="M103.503 39.677H103.76C104.017 39.677 104.017 39.6123 104.017 38.7071V36.1762C104.017 35.271 104.017 35.271 103.76 35.2063H103.503V35.077H105.883C107.429 35.077 108.392 35.9176 108.392 37.3447C108.392 39.2244 106.975 39.9356 105.494 39.9356H103.563V39.677H103.503ZM104.728 39.4784C104.985 39.543 105.306 39.6077 105.562 39.6077C106.915 39.6077 107.621 38.8965 107.621 37.4694C107.621 35.913 106.782 35.2664 105.498 35.2664C105.241 35.2664 104.985 35.331 104.728 35.331V39.4784Z" fill="white"/>
<path d="M108.974 39.6772H109.231C109.488 39.6772 109.488 39.6125 109.488 38.7073V36.181C109.488 35.2712 109.488 35.2712 109.231 35.2112H108.974V35.0818H112.129C112.129 35.2112 112.194 35.5345 112.194 35.8577V36.181H112.001C111.873 35.4051 111.808 35.2712 110.777 35.2712H110.199V37.2802H110.841C111.419 37.2802 111.547 37.2802 111.611 36.9569L111.675 36.6983H111.868V37.9961H111.675L111.611 37.7374C111.547 37.4142 111.419 37.4142 110.841 37.4142H110.199V39.5525C110.456 39.6171 110.712 39.6171 110.969 39.6171C112.129 39.6171 112.194 39.1645 112.322 38.578H112.515C112.515 39.0306 112.386 39.4186 112.258 39.8111H108.91V39.6818H108.974V39.6772Z" fill="white"/>
<path d="M117.664 35.6545C118.498 36.1717 119.402 36.629 119.402 37.9221C119.402 39.4139 118.049 39.9958 116.893 39.9958C116.054 39.9958 115.541 39.7372 115.156 39.5432C114.963 39.0906 114.835 38.3101 114.835 37.5988L115.156 37.5342C115.284 38.3101 115.669 39.6078 117.15 39.6078C117.921 39.6078 118.439 39.0906 118.439 38.2454C118.439 37.4649 117.797 36.883 116.893 36.495L116.187 36.1071C115.545 35.7838 114.963 35.0679 114.963 34.292C114.963 32.9296 116.059 32.4123 117.214 32.4123C117.921 32.4123 118.439 32.6063 118.696 32.7356C118.76 33.0589 118.824 33.9687 118.824 34.2274H118.567C118.439 33.7101 118.31 32.7356 117.022 32.7356C116.38 32.7356 115.862 33.1882 115.862 33.9041C115.862 34.5507 116.311 34.8786 116.893 35.2665L117.664 35.6545Z" fill="white"/>
<path d="M119.984 39.6074H120.305C120.626 39.5427 120.626 39.5427 120.626 38.4389V35.3908C120.626 34.287 120.626 34.287 120.305 34.2223H119.984V34.0283H123.781C123.846 34.2223 123.846 34.5456 123.846 34.9382V35.2615L123.653 35.3261C123.46 34.3516 123.46 34.2223 122.236 34.2223H121.53V36.6193H122.3C123.006 36.6193 123.139 36.6193 123.199 36.2313L123.263 35.908H123.52V37.5291H123.263L123.199 37.2058C123.135 36.8179 123.006 36.8179 122.3 36.8179H121.53V39.3442C121.851 39.4088 122.172 39.4735 122.497 39.4735C123.914 39.4735 123.979 38.9562 124.171 38.2403L124.364 38.305C124.364 38.8869 124.235 39.2749 124.043 39.7968H120.053V39.6028H119.984V39.6074Z" fill="white"/>
<path d="M130.219 39.5432C129.898 39.6725 128.995 39.9958 128.032 39.9958C126.294 39.9958 124.685 39.2153 124.685 36.9476C124.685 34.6153 126.551 33.8995 127.968 33.8995C128.867 33.8995 129.513 34.0934 129.77 34.2874C129.834 34.6107 129.898 35.128 129.898 35.5852L129.642 35.6499C129.577 35.3266 129.449 34.2228 127.968 34.2228C126.551 34.2228 125.652 35.1926 125.652 36.8137C125.652 38.3055 126.423 39.7326 128.161 39.7326C128.482 39.7326 128.867 39.6679 129.192 39.6032V39.2153C129.192 38.1115 129.192 38.1115 128.55 38.0468H128.229V37.8528H130.481V38.0468H130.16C129.967 38.1115 129.967 38.1115 129.967 38.9567C129.967 39.2153 129.967 39.2799 130.096 39.2799H130.16L130.219 39.5432Z" fill="white"/>
<path d="M135.626 39.6767C135.497 39.5474 135.433 39.4181 135.305 39.4181C135.176 39.4181 134.466 40 133.31 40C131.508 40 131.315 38.9609 131.315 37.7323V35.4C131.315 34.2962 131.315 34.2962 130.994 34.2316H130.673V34.0376H132.796V34.2316H132.475C132.154 34.2962 132.154 34.2962 132.154 35.4V37.603C132.154 38.8362 132.347 39.6767 133.7 39.6767C134.603 39.6767 135.181 39.1594 135.309 38.9655V35.4C135.309 34.2962 135.309 34.2962 134.988 34.2316H134.667V34.0376H136.791V34.2316H136.47C136.149 34.2962 136.149 34.2962 136.149 35.4V39.8753L135.892 39.94L135.626 39.6767Z" fill="white"/>
<path d="M137.236 39.6122H137.557C137.878 39.5476 137.878 39.5475 137.878 38.4437V35.3956C137.878 34.2918 137.878 34.2918 137.557 34.2271H137.236V34.0331H139.552C140.391 34.0331 141.546 34.1625 141.546 35.5249C141.546 36.3654 140.84 36.8227 140.322 37.0813C140.45 37.3399 140.771 37.9219 140.964 38.3144C141.349 38.961 141.734 39.4829 141.927 39.6122C141.991 39.6769 142.184 39.6769 142.376 39.6769V39.8708H141.67C141.092 39.8708 140.703 39.4829 140.446 38.9656L140.125 38.319C139.868 37.8664 139.675 37.5432 139.611 37.4785C139.483 37.3492 139.226 37.3492 139.098 37.3492H138.777V38.5176C138.777 39.6214 138.777 39.6214 139.098 39.6861H139.419V39.8801H137.295V39.6214H137.236V39.6122ZM138.712 37.0166H139.226C139.932 37.0166 140.643 36.6287 140.643 35.5895C140.643 34.5504 140.001 34.2271 139.29 34.2271C139.098 34.2271 138.905 34.2918 138.777 34.2918V37.0166H138.712Z" fill="white"/>
<path d="M142.252 36.9523C142.252 35.0726 143.734 33.8395 145.407 33.8395C147.017 33.8395 148.37 34.8786 148.37 36.823C148.37 38.7674 146.953 39.9358 145.215 39.9358C143.477 39.9358 142.252 38.8967 142.252 36.9523ZM145.407 39.6772C146.889 39.6772 147.466 38.3794 147.466 37.0862C147.466 35.4005 146.632 34.1674 145.279 34.1674C143.99 34.1674 143.22 35.2712 143.22 36.8276C143.156 38.5734 144.055 39.6772 145.407 39.6772Z" fill="white"/>
<path d="M151.268 36.4995C151.974 36.8875 152.685 37.2801 152.685 38.3146C152.685 39.4831 151.589 39.9357 150.69 39.9357C149.984 39.9357 149.594 39.7417 149.337 39.6124C149.209 39.2891 149.08 38.6379 149.08 38.056L149.337 37.9913C149.401 38.6379 149.787 39.677 150.947 39.677C151.525 39.677 151.979 39.2891 151.979 38.5732C151.979 37.9266 151.465 37.4694 150.754 37.1461L150.176 36.8228C149.663 36.5642 149.209 35.9823 149.209 35.3311C149.209 34.2273 150.108 33.7747 151.011 33.7747C151.525 33.7747 151.974 33.904 152.235 34.0333C152.299 34.2919 152.299 35.0078 152.299 35.2664H152.107C152.043 34.8138 151.85 34.0333 150.883 34.0333C150.369 34.0333 149.915 34.4213 149.915 35.0078C149.915 35.5251 150.3 35.7837 150.754 36.1116L151.268 36.4995Z" fill="white"/>
<path d="M19.7597 0C8.81826 0 0 8.94591 0 19.9008C0 30.9204 8.88246 39.8017 19.7597 39.8017C30.7011 39.8017 39.5194 30.8558 39.5194 19.9008C39.5194 8.94591 30.7057 0 19.7597 0ZM19.5029 8.29932C20.1449 8.75193 20.6631 9.27381 21.3693 9.92039C21.4977 10.0497 21.6261 10.179 22.0754 10.0497C22.9742 9.79108 25.102 8.75193 26.6474 8.55796C27.3536 8.4933 27.5462 8.55796 27.9359 8.94591C28.7063 9.65715 29.3529 10.1144 29.8023 10.6963C28.2569 10.8903 27.7433 11.0196 27.4223 11.0842L27.2297 11.1489C26.5236 11.3429 26.331 11.7955 26.2622 12.0587C26.2622 12.1234 26.198 12.2527 26.198 12.382C26.198 12.6407 26.2622 12.8993 26.519 13.2226C26.9042 13.8692 27.161 14.3264 27.2894 14.6497C25.8082 15.1023 24.1986 15.7535 23.4924 16.0768C23.043 16.2707 22.722 16.6587 22.6578 17.1159V17.3745C22.6578 17.6332 22.722 18.0211 23.1072 18.4137C24.2032 19.5822 25.423 22.2378 25.423 25.1566C25.423 25.8032 25.3588 26.4544 25.2304 27.101C24.6526 30.1491 22.589 32.4814 19.1773 33.9732C17.4393 34.7491 15.6372 34.9477 13.835 34.883H14.156C17.5677 34.4951 19.9477 33.262 21.6215 30.2784C23.9372 26.1958 22.1993 21.1386 18.7233 18.2844C17.7557 17.5085 16.6002 16.8573 15.5684 16.2107C15.3116 16.0167 15.119 15.8228 15.5042 15.3701C16.082 14.5942 16.9853 13.2965 18.5949 12.0633C18.9159 11.8047 18.7875 11.6754 18.6591 11.4814C18.0813 11.0288 17.7603 10.7702 17.0495 10.313C16.6644 10.119 16.536 9.92501 16.7927 9.66638C17.1137 9.34309 17.6915 8.89048 18.9801 8.30394C19.0535 8.04069 19.3103 8.17001 19.5029 8.29932ZM6.63089 11.8001C6.88769 11.2828 7.53427 10.0497 8.11206 9.33847C8.24046 9.1445 8.36886 9.07984 8.68986 9.1445C9.26765 9.20916 10.2352 9.66176 11.5238 9.98505C11.7806 10.0497 11.909 10.0497 12.1016 9.79108C12.6152 9.20916 14.0964 7.84672 16.4809 6.80757C16.7377 6.67826 17.1229 6.67826 17.4485 6.87223C17.7053 7.00155 18.0263 7.13086 18.4161 7.32483C17.2559 7.8421 16.6781 8.29471 16.2287 8.75193C15.8435 9.13988 15.7793 9.52783 15.7793 9.79108V9.98505C15.8435 10.4377 16.1003 10.8256 16.6139 11.0889L16.6781 11.1535C16.6781 11.1535 16.6139 11.1535 16.6139 11.0889C16.9991 11.2828 17.2559 11.4768 17.5173 11.6708C16.2287 12.8392 15.3941 13.9384 14.8759 14.6543C14.4907 15.1716 14.4265 15.6288 14.4907 15.9521C14.5549 16.2754 14.6833 16.6633 15.2611 16.9912L15.7747 17.3145C16.6735 17.8318 17.5127 18.3537 18.2831 19.0002C21.1812 21.3972 23.0476 25.8725 20.9244 29.6965C19.5075 32.2228 17.4485 33.5852 14.2294 33.9732C13.0692 34.1025 11.9778 34.0379 10.946 33.7792C11.3954 33.8439 11.7806 33.8439 12.2346 33.8439C14.6146 33.7792 17.1917 32.934 18.4803 30.8604C21.7636 25.6092 17.9667 20.2287 12.8812 18.543C11.721 18.1551 9.79042 17.7671 8.30925 17.5731C7.73145 17.5085 7.60305 17.3145 7.79565 16.9266C8.11665 16.28 8.69903 14.9822 9.79042 13.2965C9.85462 13.2318 9.79042 13.0378 9.59782 12.9732C9.02003 12.8439 7.92405 12.5206 6.95647 12.3913C6.63089 12.2527 6.50249 12.1234 6.63089 11.8001ZM22.4652 37.8573C11.0698 39.6077 5.27811 30.9897 5.27811 30.9897C7.91946 33.516 12.3584 37.6679 19.1177 34.5551C28.9035 30.1491 26.0054 20.2934 23.364 17.3745C23.043 17.0513 23.2356 16.728 23.4924 16.6633C24.2628 16.34 26.3264 15.4948 27.9359 15.1069C28.1285 15.0422 28.1285 14.9776 28.0643 14.7189C27.9359 14.331 27.7433 13.6798 26.9684 12.3866C26.7116 12.128 26.84 11.934 27.0968 11.8694C27.482 11.8047 27.7388 11.6754 29.7977 11.4168C29.9903 11.3521 30.2471 11.4814 30.3755 11.6754C30.8249 12.4559 31.1459 13.2318 31.4715 14.2663C31.4715 14.3957 31.6641 14.5896 31.8567 14.5896C32.6271 14.5896 35.3326 14.6543 36.7496 14.9129C36.878 14.9129 37.1348 15.0422 37.1348 15.2362C37.52 16.4047 38.3592 21.9145 35.9104 27.7476C33.0215 34.3611 27.6791 37.0167 22.4652 37.8573Z" fill="white"/>
</svg>
