<svg width="463" height="60" viewBox="0 0 463 60" fill="none" xmlns="http://www.w3.org/2000/svg">
<path d="M204.597 60H30.003C13.4307 60 0 46.5693 0 30.003C0 13.4307 13.4307 0 30.003 0H182.612L204.597 60Z" fill="white"/>
<path d="M186.338 0H449.534C456.895 0 462.861 5.96651 462.861 13.3272V46.6728C462.861 54.0335 456.895 60 449.534 60H208.323L186.338 0Z" fill="#173748"/>
<path d="M62.6313 16.7729H53.3188C53.1162 16.7729 52.9541 16.935 52.9541 17.1376C52.9541 17.3267 53.1027 17.4888 53.2918 17.5023L54.1089 17.5698C55.3582 17.6981 55.3582 17.8602 55.3582 21.7635V32.9129C55.3582 36.823 55.3582 36.9783 54.1089 37.1066L53.2783 37.1741C53.0959 37.1876 52.9541 37.3429 52.9541 37.5253V37.5523C52.9541 37.7481 53.1094 37.9035 53.3053 37.9035H60.8958C61.0916 37.9035 61.2469 37.7481 61.2469 37.5523V37.5253C61.2469 37.3429 61.1051 37.1876 60.9228 37.1741L60.0922 37.1066C58.3296 36.9783 58.3296 36.8162 58.3296 32.9129V18.083C58.7415 18.002 59.1737 17.921 59.6059 17.8737C60.3758 17.8399 61.2807 17.8264 61.6386 17.8264C64.5222 17.8264 67.0546 18.9812 67.0546 22.7292C67.0546 27.4091 63.6105 28.1587 62.1384 28.206C62.1046 28.206 61.5306 28.206 61.1456 28.206C60.9498 28.206 60.7945 28.3613 60.7945 28.5571C60.7945 28.753 60.9498 28.9083 61.1456 28.9083H62.5368C65.5487 28.9083 70.4177 26.8891 70.4177 22.5333C70.4177 17.2456 65.677 16.7662 62.6313 16.7662" fill="#FF7500"/>
<path d="M81.9583 37.3361C87.3878 37.3361 89.434 32.6697 89.434 28.01C89.434 21.9727 86.4289 17.4076 81.4181 17.4076C76.4072 17.4076 73.814 21.3987 73.814 26.9295C73.814 33.4463 77.1366 37.3428 81.9583 37.3428M92.743 27.3617C92.743 33.4598 87.7998 38.3963 81.7084 38.3963C75.6171 38.3963 70.6738 33.453 70.6738 27.3617C70.6738 21.2704 75.6171 16.3271 81.7084 16.3271C87.7998 16.3271 92.743 21.2704 92.743 27.3617Z" fill="#FF7500"/>
<path d="M101.327 25.7747C103.859 27.2131 106.486 28.5638 106.486 32.4063C106.486 36.7283 102.482 38.3963 99.0849 38.3963C96.5862 38.3963 95.0465 37.721 94.0538 37.1132C93.4798 35.8639 93.0273 33.4935 93.0273 31.4744C93.5676 31.3393 94.1146 31.6635 94.2429 32.2105C94.7764 34.4727 96.1743 37.3428 99.9763 37.3428C102.185 37.3428 103.819 35.9044 103.819 33.4058C103.819 31.0692 101.867 29.4687 99.3685 28.3409L97.3156 27.2199C95.4922 26.2272 93.7904 24.2418 93.7904 21.8377C93.7904 17.9276 97.059 16.2933 100.456 16.2933C102.441 16.2933 104.042 16.8066 104.879 17.3198C105.136 18.3463 105.196 20.9395 105.196 21.7431C104.737 21.7431 104.339 21.4257 104.238 20.98C103.866 19.3863 103.042 17.3536 99.9425 17.3536C98.0854 17.3536 96.4512 18.6974 96.4512 20.8449C96.4512 22.7358 97.8288 23.7623 99.5576 24.782L101.32 25.7747H101.327Z" fill="#FF7500"/>
<path d="M106.467 37.5522C106.467 37.3631 106.615 37.201 106.804 37.1875L107.622 37.12C108.871 36.9917 108.871 36.8296 108.871 32.9263V21.7769C108.871 17.8668 108.871 17.7115 107.622 17.5832L106.804 17.5157C106.615 17.5021 106.467 17.3401 106.467 17.151C106.467 16.9484 106.629 16.7863 106.831 16.7863H113.882C114.084 16.7863 114.246 16.9484 114.246 17.151C114.246 17.3401 114.098 17.5021 113.909 17.5157L113.092 17.5832C111.842 17.7115 111.842 17.8736 111.842 21.7769V32.9263C111.842 36.8363 111.842 36.9917 113.092 37.12L113.909 37.1875C114.098 37.201 114.246 37.3631 114.246 37.5522C114.246 37.7548 114.084 37.9168 113.882 37.9168H106.831C106.629 37.9168 106.467 37.7548 106.467 37.5522Z" fill="#FF7500"/>
<path d="M120.525 37.2146L121.713 37.12C123.476 36.9917 123.476 36.8296 123.476 32.9263V17.6778H121.808C117.439 17.6778 117.236 18.1302 116.588 21.5203C116.547 21.7229 116.372 21.8715 116.162 21.8715C115.933 21.8715 115.743 21.6959 115.73 21.4663C115.71 21.1489 115.689 20.7234 115.689 20.4668C115.689 19.5079 115.784 18.5354 115.885 17.7791C115.96 17.205 116.453 16.7796 117.027 16.7796H132.896C133.477 16.7796 133.963 17.205 134.038 17.7791C134.139 18.5354 134.234 19.5079 134.234 20.4668C134.234 20.7234 134.207 21.1489 134.193 21.4663C134.18 21.6959 133.99 21.8715 133.761 21.8715C133.551 21.8715 133.376 21.7229 133.335 21.5203C132.687 18.1235 132.484 17.6778 128.115 17.6778H126.447V32.9263C126.447 36.8364 126.447 36.9917 128.244 37.12L129.398 37.2146V37.9169H120.525V37.2146Z" fill="#FF7500"/>
<path d="M135.673 37.5522C135.673 37.3631 135.821 37.201 136.011 37.1875L136.828 37.12C138.077 36.9917 138.077 36.8296 138.077 32.9263V21.7769C138.077 17.8668 138.077 17.7115 136.828 17.5832L136.011 17.5157C135.821 17.5021 135.673 17.3401 135.673 17.151C135.673 16.9484 135.835 16.7863 136.038 16.7863H143.088C143.29 16.7863 143.452 16.9484 143.452 17.151C143.452 17.3401 143.304 17.5021 143.115 17.5157L142.298 17.5832C141.048 17.7115 141.048 17.8736 141.048 21.7769V32.9263C141.048 36.8363 141.048 36.9917 142.298 37.12L143.115 37.1875C143.304 37.201 143.452 37.3631 143.452 37.5522C143.452 37.7548 143.29 37.9168 143.088 37.9168H136.038C135.835 37.9168 135.673 37.7548 135.673 37.5522Z" fill="#FF7500"/>
<path d="M178.71 37.0389C177.88 36.8769 177.555 36.1408 177.076 34.8577L170.12 16.7188C169.918 16.192 169.175 16.1853 168.965 16.7053C168.675 17.4143 168.378 18.1707 168.236 18.5151L161.571 34.7226C160.801 36.5797 160.639 36.9309 159.423 37.1267L159.133 37.174C158.95 37.201 158.815 37.3631 158.815 37.5454C158.815 37.7615 158.984 37.9303 159.194 37.9303H165.17C165.379 37.9303 165.548 37.7615 165.548 37.5522C165.548 37.3631 165.406 37.2078 165.224 37.1807L163.63 36.9714C163.279 36.9376 162.861 36.8431 162.861 36.2353C162.861 35.9787 163.117 35.1143 163.502 34.0878L165.136 29.6375C165.136 29.6375 165.15 29.6308 165.15 29.624H172.045C172.045 29.624 172.052 29.624 172.058 29.6308L174.3 35.6883C174.361 35.9112 174.489 36.134 174.489 36.3636C174.489 36.7148 174.071 36.8769 173.497 36.9714L172.362 37.174C172.18 37.2078 172.052 37.3631 172.052 37.5454V37.5589C172.052 37.7683 172.22 37.9371 172.43 37.9371H179.622C179.831 37.9371 180 37.7683 180 37.5589C180 37.3698 179.865 37.2078 179.683 37.1807L178.724 37.0389H178.71ZM168.587 20.6626L171.532 28.4152H165.542L168.587 20.6626Z" fill="#FF7500"/>
<path d="M66.9121 46.4462L66.6554 46.3921C66.6082 46.3786 66.5541 46.4056 66.5339 46.4529L66.4731 46.6217C66.203 47.3511 65.9194 48.1007 64.535 48.1007C62.7656 48.1007 62.1444 46.4799 62.1444 45.0955C62.1444 43.414 63.0493 42.4078 64.5687 42.4078C65.9801 42.4078 66.1827 43.3195 66.2773 43.7584C66.284 43.7989 66.2908 43.8327 66.2975 43.8597C66.311 43.9137 66.3651 43.9475 66.4191 43.934L66.6757 43.88C66.723 43.8665 66.7567 43.8259 66.7567 43.7787C66.7567 43.333 66.696 42.7725 66.6014 42.3538C66.6014 42.3267 66.5812 42.3065 66.5541 42.2862C66.2908 42.1242 65.5479 41.881 64.5687 41.881C62.894 41.881 60.9355 42.7657 60.9355 45.2644C60.9355 47.3578 62.2862 48.6139 64.5485 48.6139C65.4264 48.6139 66.2232 48.3911 66.5406 48.2425C66.5677 48.229 66.5812 48.2087 66.5947 48.1885C66.8175 47.628 66.9323 47.1687 66.9863 46.5542C66.9863 46.5002 66.9593 46.4529 66.9053 46.4462" fill="#FF7500"/>
<path d="M71.3369 41.881C69.0341 41.881 67.832 43.5963 67.832 45.2913C67.832 47.3038 69.1354 48.6071 71.1613 48.6071C73.1873 48.6071 74.6459 47.2025 74.6459 45.1833C74.6459 42.9007 72.9847 41.8743 71.3369 41.8743M71.3369 48.0939C69.9323 48.0939 69.0273 46.9256 69.0273 45.1158C69.0273 43.468 69.8715 42.401 71.1748 42.401C72.4782 42.401 73.4439 43.6233 73.4439 45.4399C73.4439 46.723 72.8901 48.1007 71.3369 48.1007" fill="#FF7500"/>
<path d="M83.0661 48.0601L82.7825 48.0061C82.6069 47.9791 82.5191 47.925 82.4988 47.8778C82.4583 47.7967 82.384 47.1957 82.33 46.0612L82.2422 44.4269C82.2085 43.7584 82.1679 43.1438 82.1477 42.7049C82.1274 42.3605 82.1139 42.0836 82.1139 42.0498C82.1139 42.016 82.1004 41.9823 82.0734 41.9688C82.0464 41.9485 82.0126 41.9418 81.9788 41.9553L81.7357 42.0431C81.7357 42.0431 81.6817 42.0768 81.675 42.1038C81.5129 42.536 79.676 46.0477 79.1763 46.9323C78.9669 46.5474 78.5077 45.6897 78.0283 44.7848C77.3665 43.549 76.6844 42.2659 76.5291 42.0025C76.5021 41.962 76.4548 41.9418 76.4075 41.9553L76.1509 42.0431C76.1104 42.0566 76.0834 42.0971 76.0834 42.1376C76.0834 42.3402 76.0428 43.0223 76.0023 43.6233L75.8267 46.4326C75.7457 47.6211 75.6714 47.8778 75.6444 47.9183C75.6174 47.9453 75.5499 47.9791 75.3945 48.0128L75.1582 48.0668C75.1109 48.0804 75.0771 48.1209 75.0771 48.1681V48.3775C75.0771 48.4315 75.1244 48.4788 75.1784 48.4788H77.1369C77.1909 48.4788 77.2381 48.4315 77.2381 48.3775V48.1681C77.2381 48.1141 77.1976 48.0736 77.1504 48.0668L76.7654 48.0128C76.421 47.9791 76.4143 47.925 76.4143 47.351C76.4143 47.1012 76.5088 45.1563 76.5561 44.2446C76.5899 44.3121 76.6236 44.3729 76.6574 44.4404C77.3259 45.7168 78.5145 47.9993 78.7171 48.4248C78.7373 48.4585 78.7711 48.4855 78.8116 48.4855C78.8251 48.4855 78.8386 48.4855 78.8521 48.4788L79.1155 48.3572C79.1155 48.3572 79.156 48.3302 79.1628 48.31C79.1898 48.2627 79.2101 48.2087 79.2303 48.1479C79.2506 48.1006 79.2708 48.0466 79.2911 48.0061C79.5275 47.5401 79.7638 47.0741 79.9934 46.6284C80.4932 45.6492 80.9456 44.7646 81.1887 44.2581C81.2022 44.5215 81.2225 44.8591 81.2428 45.2238C81.29 46.0071 81.3373 46.8986 81.3373 47.4861C81.3373 47.9048 81.3103 47.9791 80.9794 48.0196L80.608 48.0736C80.5607 48.0804 80.5202 48.1276 80.5202 48.1749V48.3842C80.5202 48.4383 80.5674 48.4855 80.6215 48.4855H83.0391C83.0931 48.4855 83.1404 48.4383 83.1404 48.3842V48.1749C83.1404 48.1276 83.1066 48.0804 83.0593 48.0736" fill="#FF7500"/>
<path d="M86.5644 48.0601L86.22 48.0331C85.9364 48.0106 85.7945 47.6324 85.7945 46.8986V42.6036C85.9566 42.5699 86.1187 42.5496 86.2808 42.5496C87.2735 42.5496 87.7732 43.002 87.7732 43.8935C87.7732 45.3319 86.6117 45.4062 86.3821 45.4062C86.328 45.4062 86.2808 45.4534 86.2808 45.5075V45.7168C86.2808 45.7708 86.328 45.8181 86.3821 45.8181H86.5441C87.5639 45.8181 88.9753 45.1293 88.9753 43.8327C88.9753 42.0296 87.1654 42.0296 86.5779 42.0296H84.113C84.059 42.0296 84.0117 42.0769 84.0117 42.1309V42.3402C84.0117 42.3943 84.0522 42.4348 84.1063 42.4415L84.4439 42.4686C84.6285 42.4866 84.7208 42.8647 84.7208 43.6031V46.8919C84.7208 47.6302 84.6285 48.0084 84.4439 48.0264L84.1063 48.0534C84.0522 48.0534 84.0117 48.1007 84.0117 48.1547V48.364C84.0117 48.4181 84.059 48.4653 84.113 48.4653H86.5644C86.6184 48.4653 86.6657 48.4181 86.6657 48.364V48.1547C86.6657 48.1007 86.6252 48.0534 86.5712 48.0534" fill="#FF7500"/>
<path d="M94.6954 48.0601L94.3239 48.0061C94.1416 47.9723 94.0606 47.8035 93.9187 47.4253L91.8118 41.9485C91.7915 41.8945 91.7307 41.8675 91.6835 41.8878L91.4066 41.9823C91.4066 41.9823 91.3593 42.0161 91.3458 42.0363C91.2715 42.2052 91.204 42.3875 91.1297 42.5631L89.151 47.3781C88.9282 47.9251 88.8944 47.9791 88.5973 48.0264L88.4149 48.0534C88.3677 48.0601 88.3271 48.1074 88.3271 48.1547V48.364C88.3271 48.418 88.3744 48.4653 88.4285 48.4653H90.4139C90.4679 48.4653 90.5152 48.418 90.5152 48.364V48.1547C90.5152 48.1006 90.4746 48.0601 90.4274 48.0534L89.8534 47.9791C89.7453 47.9723 89.7183 47.9453 89.7183 47.8643C89.7183 47.817 89.7723 47.6009 89.9006 47.2633L90.3598 46.0072C91.1297 45.8789 91.6835 45.9059 92.2507 46.0072L92.8923 47.7292C92.8923 47.7292 92.9058 47.7765 92.9193 47.8035C92.9328 47.8373 92.9463 47.8778 92.9463 47.898C92.9463 47.898 92.9463 47.9453 92.7369 47.9791L92.3115 48.0534C92.2642 48.0601 92.2237 48.1074 92.2237 48.1547V48.364C92.2237 48.418 92.271 48.4653 92.325 48.4653H94.6683C94.7224 48.4653 94.7696 48.418 94.7696 48.364V48.1547C94.7696 48.1006 94.7291 48.0601 94.6818 48.0534M92.0279 45.4399C91.8118 45.4197 91.5687 45.4129 91.2783 45.4129C91.0622 45.4129 90.8393 45.4264 90.6232 45.4467H90.5759L91.3188 43.5625L92.0346 45.4467L92.0279 45.4399Z" fill="#FF7500"/>
<path d="M101.921 42.0228H99.882C99.828 42.0228 99.7807 42.0701 99.7807 42.1241V42.3334C99.7807 42.3875 99.8213 42.4347 99.8753 42.4347L100.213 42.4618C100.625 42.4955 100.638 42.6373 100.638 43.7043V46.7027C99.5376 45.6087 96.9782 42.948 96.2151 41.9755C96.1881 41.9418 96.1408 41.9283 96.0935 41.9418L95.8774 42.0296C95.8369 42.0431 95.8099 42.0836 95.8099 42.1241V46.7838C95.8099 47.8305 95.7289 48.0061 95.4722 48.0263L95.1346 48.0533C95.0806 48.0533 95.04 48.1006 95.04 48.1546V48.364C95.04 48.418 95.0873 48.4653 95.1413 48.4653H97.1808C97.2348 48.4653 97.2821 48.418 97.2821 48.364V48.1546C97.2821 48.1006 97.2416 48.0533 97.1875 48.0533L96.8499 48.0263C96.465 47.9858 96.4514 47.8507 96.4514 46.7838V43.8529L99.1122 46.6622C99.8888 47.4591 100.416 48.0196 100.706 48.3235L100.888 48.5126C100.888 48.5126 100.936 48.5463 100.963 48.5463C100.976 48.5463 100.99 48.5463 101.003 48.5396L101.212 48.4518C101.253 48.4383 101.273 48.3977 101.273 48.3572V43.6976C101.273 42.6576 101.354 42.4753 101.584 42.455L101.921 42.428C101.976 42.428 102.016 42.3807 102.016 42.3267V42.1173C102.016 42.0633 101.969 42.016 101.915 42.016" fill="#FF7500"/>
<path d="M97.281 41.5028C97.281 41.5028 97.3283 41.5298 97.3485 41.5298C97.3485 41.5298 97.3485 41.5298 97.3553 41.5298C97.3823 41.5298 97.4093 41.5163 97.4295 41.4893L97.4498 41.469C97.5376 41.3542 97.7199 41.1178 97.9158 41.1178C98.0441 41.1178 98.2534 41.1921 98.4695 41.2732C98.7464 41.3745 99.0571 41.4893 99.3272 41.4893C99.7256 41.4893 100.063 41.2056 100.32 40.6451C100.34 40.6046 100.327 40.5573 100.293 40.5236L100.171 40.4088C100.171 40.4088 100.124 40.375 100.09 40.3818C100.063 40.3818 100.036 40.402 100.016 40.4223L99.989 40.456C99.908 40.5708 99.7661 40.7802 99.577 40.7802C99.3407 40.7802 99.0908 40.6789 98.8882 40.5979L98.8274 40.5776C98.6181 40.4966 98.3952 40.4155 98.1724 40.4155C97.6321 40.4155 97.2742 41.0098 97.1459 41.2394L97.1324 41.2597C97.1054 41.3002 97.1122 41.3542 97.1527 41.388L97.2877 41.5095L97.281 41.5028Z" fill="#FF7500"/>
<path d="M104.743 42.0228H102.447C102.393 42.0228 102.346 42.0701 102.346 42.1241V42.3335C102.346 42.3875 102.386 42.4348 102.44 42.4348L102.778 42.4618C102.962 42.4798 103.055 42.858 103.055 43.5963V46.8851C103.055 47.6234 102.962 48.0016 102.778 48.0196L102.44 48.0466C102.386 48.0466 102.346 48.0939 102.346 48.1479V48.3573C102.346 48.4113 102.393 48.4586 102.447 48.4586H104.743C104.797 48.4586 104.844 48.4113 104.844 48.3573V48.1479C104.844 48.0939 104.804 48.0466 104.75 48.0466L104.412 48.0196C104.228 48.0016 104.135 47.6234 104.135 46.8851V43.5963C104.135 42.858 104.228 42.4798 104.412 42.4618L104.75 42.4348C104.804 42.4348 104.844 42.3875 104.844 42.3335V42.1241C104.844 42.0701 104.797 42.0228 104.743 42.0228Z" fill="#FF7500"/>
<path d="M104.71 40.4088C104.609 40.3615 104.494 40.3547 104.386 40.3953L104.264 40.4425C103.967 40.5573 103.603 40.7059 103.076 41.0098C103.035 41.0301 103.015 41.0773 103.029 41.1246L103.083 41.3745C103.083 41.3745 103.11 41.4285 103.13 41.442C103.143 41.4487 103.164 41.4555 103.184 41.4555C103.191 41.4555 103.204 41.4555 103.218 41.4555C103.386 41.4015 103.927 41.2934 104.359 41.2056L104.622 41.1516C104.73 41.1313 104.818 41.0706 104.872 40.976C104.926 40.8815 104.946 40.7734 104.919 40.6586C104.892 40.5506 104.818 40.4628 104.717 40.4088" fill="#FF7500"/>
<path d="M111.659 48.0601L111.288 48.0061C111.105 47.9723 111.024 47.8035 110.883 47.4253L108.776 41.9485C108.755 41.8945 108.695 41.8675 108.647 41.8878L108.37 41.9823C108.37 41.9823 108.323 42.0161 108.31 42.0363C108.235 42.2187 108.154 42.4078 108.08 42.5968L106.115 47.3781C105.885 47.9251 105.858 47.9791 105.561 48.0264L105.379 48.0534C105.332 48.0601 105.291 48.1074 105.291 48.1547V48.364C105.291 48.418 105.338 48.4653 105.392 48.4653H107.378C107.432 48.4653 107.479 48.418 107.479 48.364V48.1547C107.479 48.1006 107.438 48.0601 107.391 48.0534L106.817 47.9791C106.709 47.9723 106.682 47.9453 106.682 47.8643C106.682 47.817 106.736 47.6009 106.864 47.2633L107.324 46.0072C108.094 45.8789 108.647 45.9059 109.215 46.0072L109.856 47.7292C109.856 47.7292 109.87 47.7765 109.883 47.8035C109.897 47.8373 109.91 47.871 109.91 47.898C109.91 47.898 109.91 47.9453 109.701 47.9791L109.275 48.0534C109.228 48.0601 109.188 48.1074 109.188 48.1547V48.364C109.188 48.418 109.235 48.4653 109.289 48.4653H111.632C111.686 48.4653 111.733 48.418 111.733 48.364V48.1547C111.733 48.1006 111.693 48.0601 111.646 48.0534M108.992 45.4399C108.776 45.4197 108.533 45.4129 108.242 45.4129C108.026 45.4129 107.803 45.4264 107.587 45.4467H107.54L108.283 43.5625L108.998 45.4467L108.992 45.4399Z" fill="#FF7500"/>
<path d="M118.23 42.0228H115.131C115.077 42.0228 115.029 42.0701 115.029 42.1241V42.3334C115.029 42.3874 115.07 42.4347 115.124 42.4347L115.461 42.4617C115.646 42.4797 115.738 42.8579 115.738 43.5963V46.885C115.738 47.6234 115.646 48.0015 115.461 48.0196L115.124 48.0466C115.07 48.0466 115.029 48.0938 115.029 48.1479V48.3572C115.029 48.4112 115.077 48.4585 115.131 48.4585H117.663C120.108 48.4585 121.566 47.1687 121.566 45.0077C121.566 43.1303 120.317 42.0093 118.23 42.0093M120.371 45.2575C120.371 47.0201 119.48 47.952 117.798 47.952C117.474 47.952 117.143 47.898 116.826 47.8372V42.6238C117.116 42.5833 117.42 42.5428 117.717 42.5428C119.48 42.5428 120.378 43.4544 120.378 45.2575" fill="#FF7500"/>
<path d="M126.928 46.696L126.692 46.6555C126.638 46.642 126.59 46.6825 126.577 46.7298L126.563 46.7905C126.388 47.5131 126.273 47.9926 124.889 47.9926C124.578 47.9926 124.247 47.9386 123.963 47.8845V45.3521H124.699C125.463 45.3521 125.517 45.3724 125.564 45.6628L125.611 45.9869C125.618 46.0342 125.665 46.0747 125.712 46.0747H125.955C126.01 46.0747 126.057 46.0274 126.057 45.9734V44.2716C126.057 44.2176 126.01 44.1703 125.955 44.1703H125.712C125.658 44.1703 125.618 44.2108 125.611 44.2581L125.564 44.5823C125.523 44.8726 125.463 44.8929 124.699 44.8929H123.963V42.4955H124.645C125.881 42.4955 125.901 42.5766 126.104 43.5693C126.118 43.6233 126.165 43.6571 126.219 43.6503L126.448 43.6098C126.496 43.6031 126.536 43.5558 126.536 43.5085C126.536 43.4815 126.536 43.4477 126.536 43.414C126.536 43.3532 126.55 43.2654 126.55 43.1303C126.55 42.6914 126.482 42.3335 126.442 42.1106C126.435 42.0633 126.388 42.0228 126.34 42.0228H122.268C122.214 42.0228 122.167 42.0701 122.167 42.1241V42.3335C122.167 42.3875 122.208 42.428 122.262 42.4348L122.599 42.4618C122.784 42.4798 122.876 42.858 122.876 43.5963V46.8851C122.876 47.6234 122.784 48.0016 122.599 48.0196L122.262 48.0466C122.208 48.0466 122.167 48.0939 122.167 48.1479V48.3573C122.167 48.4113 122.214 48.4586 122.268 48.4586H126.597C126.644 48.4586 126.685 48.4315 126.698 48.3843C126.86 47.8643 126.989 47.4118 127.016 46.7905C127.016 46.7365 126.982 46.6892 126.928 46.6825" fill="#FF7500"/>
<path d="M132.971 44.7375L132.89 44.6902L132.37 44.3999C131.809 44.069 131.506 43.7988 131.506 43.3261C131.506 42.7183 131.972 42.4009 132.431 42.4009C133.403 42.4009 133.545 43.1235 133.646 43.6165C133.653 43.6638 133.7 43.6975 133.748 43.6975H133.984C134.038 43.6975 134.085 43.6503 134.085 43.5962C134.085 43.4004 134.072 42.59 133.991 42.2659C133.984 42.2389 133.97 42.2186 133.943 42.2051C133.694 42.0498 133.207 41.8877 132.586 41.8877C131.634 41.8877 130.52 42.3402 130.52 43.6232C130.52 44.4269 131.107 45.0279 131.614 45.3048L132.228 45.6424C133.059 46.0139 133.484 46.4866 133.484 47.0403C133.484 47.6819 133.079 48.1006 132.451 48.1006C131.31 48.1006 130.925 47.1686 130.803 46.3853C130.803 46.3583 130.783 46.3313 130.756 46.3177C130.729 46.3042 130.702 46.2975 130.675 46.3042L130.371 46.3785C130.324 46.392 130.29 46.4325 130.29 46.4798C130.29 47.0808 130.418 47.7967 130.601 48.1884C130.607 48.2086 130.621 48.2221 130.641 48.2356C131.073 48.499 131.573 48.6273 132.181 48.6273C133.322 48.6273 134.47 48.0465 134.47 46.7567C134.47 45.6019 133.714 45.1697 132.978 44.7578" fill="#FF7500"/>
<path d="M139.968 46.696L139.732 46.6555C139.678 46.642 139.63 46.6825 139.617 46.7298L139.603 46.7905C139.428 47.5131 139.313 47.9926 137.935 47.9926C137.625 47.9926 137.294 47.9386 137.01 47.8845V45.3521H137.746C138.509 45.3521 138.563 45.3724 138.611 45.6628L138.658 45.9869C138.665 46.0342 138.712 46.0747 138.759 46.0747H139.002C139.056 46.0747 139.104 46.0274 139.104 45.9734V44.2716C139.104 44.2176 139.056 44.1703 139.002 44.1703H138.759C138.705 44.1703 138.665 44.2108 138.658 44.2581L138.611 44.5823C138.57 44.8726 138.509 44.8929 137.746 44.8929H137.01V42.4955H137.692C138.928 42.4955 138.948 42.5766 139.151 43.5693C139.164 43.6233 139.218 43.6571 139.266 43.6503L139.495 43.6098C139.543 43.6031 139.583 43.5558 139.583 43.5085C139.583 43.4815 139.583 43.4477 139.583 43.414C139.583 43.3532 139.597 43.2654 139.597 43.1303C139.597 42.6914 139.529 42.3335 139.489 42.1106C139.482 42.0633 139.435 42.0228 139.387 42.0228H135.315C135.261 42.0228 135.214 42.0701 135.214 42.1241V42.3335C135.214 42.3875 135.254 42.428 135.308 42.4348L135.646 42.4618C135.831 42.4798 135.923 42.858 135.923 43.5963V46.8851C135.923 47.6234 135.831 48.0016 135.646 48.0196L135.308 48.0466C135.254 48.0466 135.214 48.0939 135.214 48.1479V48.3573C135.214 48.4113 135.261 48.4586 135.315 48.4586H139.644C139.691 48.4586 139.732 48.4315 139.745 48.3843C139.907 47.8643 140.036 47.4118 140.063 46.7905C140.063 46.7365 140.029 46.6892 139.975 46.6825" fill="#FF7500"/>
<path d="M147.065 46.149H144.66C144.606 46.149 144.559 46.1963 144.559 46.2503V46.4596C144.559 46.5137 144.6 46.5609 144.654 46.5609L144.998 46.588C145.376 46.6105 145.565 46.9886 145.565 47.7225V47.9926C145.234 48.0669 144.836 48.0939 144.559 48.0939C142.662 48.0939 141.986 46.4731 141.986 45.0888C141.986 43.4072 142.891 42.401 144.411 42.401C145.822 42.401 146.025 43.3127 146.119 43.7516C146.126 43.7922 146.133 43.8259 146.139 43.8529C146.153 43.907 146.207 43.9407 146.261 43.9272L146.518 43.8732C146.565 43.8597 146.599 43.8192 146.599 43.7719C146.599 43.3262 146.538 42.7657 146.443 42.347C146.443 42.32 146.423 42.2997 146.396 42.2795C146.133 42.1174 145.39 41.8743 144.411 41.8743C142.736 41.8743 140.784 42.7589 140.784 45.2576C140.784 47.3848 142.135 48.6071 144.492 48.6071C145.579 48.6071 146.68 48.2087 146.889 48.1277C146.943 48.1074 146.97 48.0534 146.95 47.9994L146.882 47.79C146.869 47.7495 146.828 47.7157 146.781 47.7157H146.686C146.686 47.7157 146.653 47.7157 146.646 47.7157C146.632 47.682 146.632 47.5874 146.632 47.4794C146.632 46.6015 146.639 46.5947 146.72 46.5812L147.058 46.5542C147.112 46.5542 147.152 46.5069 147.152 46.4529V46.2435C147.152 46.1895 147.105 46.1422 147.051 46.1422" fill="#FF7500"/>
<path d="M153.893 42.0228H151.597C151.543 42.0228 151.495 42.0701 151.495 42.1241V42.3335C151.495 42.3875 151.536 42.4348 151.59 42.4348L151.928 42.4618C152.112 42.4798 152.205 42.858 152.205 43.5963V47.3983C152.076 47.5401 151.522 48.0939 150.597 48.0939C149.26 48.0939 149.01 47.3375 149.01 45.9464V43.6031C149.01 42.8647 149.103 42.4865 149.287 42.4685L149.625 42.4415C149.679 42.4415 149.719 42.3942 149.719 42.3402V42.1309C149.719 42.0769 149.672 42.0296 149.618 42.0296H147.322C147.268 42.0296 147.221 42.0769 147.221 42.1309V42.3402C147.221 42.3942 147.261 42.4415 147.315 42.4415L147.653 42.4685C147.837 42.4865 147.93 42.8647 147.93 43.6031V46.1017C147.93 47.3713 148.099 48.6139 150.152 48.6139C151.124 48.6139 151.826 48.2627 152.157 48.0939C152.225 48.0601 152.306 48.0196 152.326 48.0129C152.387 48.0129 152.434 48.0601 152.515 48.1547C152.542 48.1817 152.569 48.2154 152.603 48.2492L152.839 48.5193C152.839 48.5193 152.907 48.5599 152.947 48.5531L153.231 48.4653C153.271 48.4518 153.305 48.4113 153.305 48.364V43.5963C153.305 42.858 153.398 42.4798 153.582 42.4618L153.92 42.4348C153.974 42.4348 154.014 42.3875 154.014 42.3335V42.1241C154.014 42.0701 153.967 42.0228 153.913 42.0228" fill="#FF7500"/>
<path d="M160.417 48.0601C160.208 48.0601 160.059 48.0196 159.991 47.9791C159.809 47.8778 159.431 47.4186 158.979 46.6217C158.796 46.2976 158.587 45.8991 158.432 45.5953L158.323 45.3927C158.837 45.1293 159.593 44.5958 159.593 43.7044C159.593 42.0296 157.945 42.0296 157.324 42.0296H154.859C154.805 42.0296 154.758 42.0769 154.758 42.1309V42.3402C154.758 42.3943 154.798 42.4415 154.852 42.4415L155.19 42.4686C155.375 42.4866 155.467 42.8647 155.467 43.6031V46.8919C155.467 47.6302 155.375 48.0084 155.19 48.0264L154.852 48.0534C154.798 48.0534 154.758 48.1007 154.758 48.1547V48.364C154.758 48.4181 154.805 48.4653 154.859 48.4653H157.148C157.202 48.4653 157.25 48.4181 157.25 48.364V48.1547C157.25 48.1007 157.209 48.0534 157.155 48.0534L156.818 48.0264C156.637 48.0084 156.547 47.6302 156.547 46.8919V45.7438H156.797C156.986 45.7438 157.196 45.7438 157.317 45.8451C157.378 45.8924 157.527 46.0747 157.878 46.7433L158.256 47.4726C158.614 48.1277 159.107 48.4721 159.688 48.4721H160.417C160.471 48.4721 160.518 48.4248 160.518 48.3708V48.1614C160.518 48.1074 160.471 48.0601 160.417 48.0601ZM156.547 42.5969C156.709 42.5631 156.872 42.5428 157.034 42.5428C157.54 42.5428 158.398 42.7184 158.398 43.8867C158.398 44.7579 157.871 45.2779 156.986 45.2779H156.547V42.6036V42.5969Z" fill="#FF7500"/>
<path d="M163.819 41.881C161.517 41.881 160.314 43.5963 160.314 45.2913C160.314 47.3038 161.618 48.6071 163.644 48.6071C165.67 48.6071 167.135 47.2025 167.135 45.1833C167.135 42.9007 165.474 41.8743 163.826 41.8743M165.926 45.4399C165.926 46.723 165.373 48.1007 163.819 48.1007C162.415 48.1007 161.51 46.9324 161.51 45.1225C161.51 43.4748 162.354 42.4078 163.657 42.4078C164.961 42.4078 165.926 43.6301 165.926 45.4467" fill="#FF7500"/>
<path d="M170.546 44.7443L170.465 44.697L169.945 44.4066C169.385 44.0757 169.081 43.8056 169.081 43.3329C169.081 42.7251 169.547 42.4077 170.006 42.4077C170.978 42.4077 171.12 43.1303 171.221 43.6233C171.228 43.6705 171.275 43.7043 171.323 43.7043H171.559C171.613 43.7043 171.66 43.657 171.66 43.603C171.66 43.4072 171.647 42.5968 171.566 42.2726C171.559 42.2456 171.546 42.2254 171.519 42.2119C171.269 42.0565 170.783 41.8945 170.161 41.8945C169.209 41.8945 168.088 42.3469 168.088 43.63C168.088 44.4336 168.676 45.0347 169.182 45.3116L169.797 45.6492C170.627 46.0206 171.053 46.4934 171.053 47.0471C171.053 47.6887 170.647 48.1073 170.019 48.1073C168.871 48.1073 168.493 47.1754 168.372 46.3921C168.372 46.365 168.351 46.338 168.324 46.3245C168.297 46.311 168.27 46.3043 168.243 46.311L167.939 46.3853C167.892 46.3988 167.858 46.4393 167.858 46.4866C167.858 47.0809 167.987 47.8035 168.169 48.1951C168.176 48.2154 168.189 48.2289 168.21 48.2424C168.642 48.5058 169.148 48.6341 169.749 48.6341C170.891 48.6341 172.039 48.0533 172.039 46.7635C172.039 45.6087 171.282 45.1765 170.546 44.7645" fill="#FF7500"/>
<path d="M166.562 16.7728H160.181C159.978 16.7728 159.809 16.9349 159.809 17.1442V17.1578C159.809 17.3401 159.944 17.5022 160.127 17.5224L161.248 17.671C161.856 17.7655 162.497 17.9276 162.497 18.5692C162.497 19.5619 157.466 32.0214 156.73 33.946L151.186 19.6564C151.024 19.2715 150.767 18.5354 150.767 18.3733C150.767 17.7318 151.699 17.6372 152.205 17.5697L152.867 17.5089C153.056 17.4887 153.198 17.3333 153.198 17.1442C153.198 16.9417 153.036 16.7728 152.827 16.7728H145.587C145.385 16.7728 145.216 16.9349 145.216 17.1442C145.216 17.3333 145.358 17.4954 145.547 17.5157L146.141 17.5764C147.201 17.671 147.552 18.8595 148.032 20.0413L155.197 37.9371C155.447 38.5584 156.325 38.5517 156.568 37.9371C157.5 35.5398 159.188 31.2313 160.215 28.7596L162.396 23.5057C163.199 21.966 164.219 18.8933 164.928 18.191C165.185 17.9344 165.536 17.7453 165.887 17.6777L166.434 17.5494C166.603 17.5089 166.718 17.3603 166.718 17.1915V16.9484C166.718 16.8539 166.643 16.7796 166.549 16.7796" fill="#FF7500"/>
<path d="M26.5426 8.91888C14.8732 8.91888 5.40527 18.38 5.40527 30.0562C5.40527 41.7323 14.8664 51.1935 26.5426 51.1935C38.2187 51.1935 47.6798 41.7323 47.6798 30.0562C47.6798 18.38 38.2187 8.91888 26.5426 8.91888ZM26.2522 17.6979C26.9207 18.1707 27.5083 18.7447 28.2376 19.42C28.3727 19.5416 28.501 19.6901 28.9804 19.5213C29.9731 19.2309 32.2422 18.1099 33.8629 17.9613C34.599 17.86 34.7949 17.9613 35.2406 18.353C36.0915 19.0756 36.7263 19.6158 37.2463 20.1898C35.5715 20.3789 35.0312 20.514 34.6666 20.6085L34.491 20.6491H34.4572C33.6941 20.8449 33.4645 21.3716 33.397 21.5877C33.37 21.6823 33.343 21.8106 33.343 21.9592C33.343 22.2023 33.424 22.5062 33.6604 22.8236C34.0858 23.5056 34.3154 23.9784 34.464 24.3363C32.8973 24.8157 31.182 25.4775 30.4256 25.8152C29.9596 26.0313 29.6152 26.4432 29.5207 26.9227C29.5072 26.997 29.4937 27.0983 29.4937 27.2064C29.4937 27.5102 29.5882 27.9154 29.9596 28.3206C31.1144 29.5632 32.4313 32.386 32.4313 35.4857C32.4313 36.161 32.3705 36.8431 32.2287 37.5319C31.5804 40.7531 29.4059 43.2113 25.7795 44.832C23.8953 45.6762 21.9774 45.8517 20.0393 45.7842C20.1473 45.7774 20.2554 45.7639 20.3634 45.7504C24.0034 45.3047 26.5628 44.0419 28.3321 40.8949C30.7768 36.5527 28.9197 31.2177 25.2527 28.1991C24.2127 27.3414 23.0107 26.6796 21.8491 25.984C21.5588 25.8085 21.3899 25.5518 21.7613 25.1061C22.3624 24.2552 23.3618 22.9316 25.0366 21.6013C25.381 21.3581 25.2325 21.1623 25.0839 20.9597C24.4964 20.4667 24.0979 20.1696 23.3618 19.7306C22.9702 19.5348 22.8081 19.3255 23.1187 19.0418C23.4834 18.7042 24.0574 18.2044 25.4553 17.6169C25.7524 17.4346 26.0563 17.5494 26.2319 17.6912M12.4893 21.4594C12.7797 20.8854 13.4618 19.6023 14.083 18.8325C14.2316 18.6501 14.3599 18.5759 14.6908 18.6299C15.2851 18.7312 16.3386 19.1701 17.7095 19.5551C17.9661 19.6293 18.1079 19.6293 18.3308 19.3795C18.8913 18.7514 20.4647 17.2995 23.0242 16.2393C23.3146 16.1177 23.6995 16.111 24.0507 16.2865C24.3613 16.4351 24.699 16.5837 25.1041 16.7863C23.8886 17.3333 23.2538 17.8263 22.7608 18.2787C22.3421 18.6636 22.2476 19.0756 22.2476 19.3592C22.2476 19.4267 22.2476 19.4875 22.2611 19.5348C22.3286 20.0143 22.6392 20.3992 23.1795 20.6896L23.2538 20.7301C23.2268 20.7166 23.2065 20.7031 23.1795 20.6896C23.5712 20.9192 23.8481 21.1083 24.1114 21.3041C22.727 22.5129 21.8356 23.6812 21.2616 24.4983C20.8362 25.0386 20.8024 25.5248 20.8564 25.8422C20.9105 26.1596 21.0928 26.6053 21.66 26.943L22.2408 27.2874C23.2133 27.8546 24.1249 28.3949 24.9286 29.0567C28.0485 31.6296 30.0272 36.3501 27.7514 40.3952C26.2252 43.11 24.0169 44.5079 20.5863 44.9198C19.337 45.0751 18.1484 44.9603 17.0409 44.6834C17.4934 44.7375 17.9661 44.7712 18.4523 44.7645C21.032 44.7172 23.74 43.8325 25.1447 41.6175C28.6698 36.0732 24.6179 30.3398 19.1411 28.53C17.8986 28.118 15.8659 27.6723 14.2586 27.4697C13.6711 27.3954 13.5225 27.2131 13.7049 26.8079C14.029 26.0921 14.6706 24.7144 15.8321 22.9519C15.8861 22.8776 15.8591 22.6818 15.6363 22.6142C15.042 22.4454 13.8129 22.1145 12.8202 21.9659C12.469 21.9119 12.3407 21.7498 12.4825 21.4594M29.4464 49.0797C17.2503 50.9503 11.0441 41.7864 11.0441 41.7864C13.8399 44.4944 18.6009 48.8974 25.8267 45.5681C36.3143 40.8747 33.2214 30.4006 30.3513 27.3347C30.0069 26.9632 30.2298 26.6593 30.4729 26.5445C31.2968 26.1664 33.4848 25.3357 35.2068 24.8698C35.4027 24.809 35.4432 24.7077 35.3419 24.4646C35.1933 24.0324 35.0245 23.3841 34.1601 21.9929C33.89 21.6958 34.0115 21.527 34.3087 21.4527C34.6868 21.3716 35.0042 21.2231 37.1855 20.9867C37.4218 20.9462 37.6785 21.0407 37.773 21.2298C38.239 22.0605 38.5766 22.9046 38.9075 23.9784C38.9413 24.0864 39.1101 24.3093 39.2992 24.316C40.1028 24.3498 42.9932 24.3633 44.5126 24.6739C44.6342 24.7009 44.8976 24.8428 44.9583 25.0183C45.3635 26.2339 46.2617 32.0956 43.682 38.2815C40.7309 45.3655 35.0042 48.2221 29.4396 49.0797" fill="#FF7500"/>
<path d="M237.93 29.0473C237.321 30.198 236.347 31.1356 235.002 31.8601C233.656 32.5846 231.933 32.9499 229.833 32.9499H225.212L225.23 43.3H221.048L221.005 17.8205L229.809 17.8083C231.763 17.8083 233.419 18.1371 234.777 18.8068C236.134 19.4765 237.151 20.3837 237.827 21.5344C238.503 22.6851 238.837 23.9636 238.844 25.3822C238.844 26.679 238.539 27.9027 237.93 29.0534V29.0473ZM233.376 28.4507C234.156 27.7262 234.545 26.7094 234.545 25.3883C234.545 22.5998 232.962 21.2117 229.809 21.2178H225.188L225.2 29.5526H229.821C231.41 29.5405 232.597 29.1813 233.376 28.4568V28.4507Z" fill="white"/>
<path d="M259.756 34.6973L244.316 34.7216C244.438 36.335 245.041 37.6318 246.118 38.606C247.196 39.5801 248.517 40.0672 250.082 40.0672C252.328 40.0672 253.917 39.1174 254.843 37.2361H259.354C258.745 39.0869 257.643 40.609 256.042 41.8023C254.441 42.9895 252.456 43.5862 250.088 43.5923C248.158 43.5923 246.429 43.1661 244.894 42.3016C243.366 41.437 242.167 40.2133 241.296 38.6425C240.426 37.0656 239.987 35.2392 239.987 33.163C239.987 31.0869 240.401 29.2544 241.241 27.6775C242.082 26.1006 243.263 24.883 244.791 24.0245C246.319 23.1661 248.073 22.7338 250.051 22.7338C251.957 22.7338 253.655 23.1417 255.153 23.9697C256.645 24.7978 257.808 25.9667 258.642 27.4644C259.476 28.9682 259.896 30.6973 259.896 32.6516C259.896 33.4127 259.847 34.0946 259.75 34.7034L259.756 34.6973ZM255.531 31.3305C255.5 29.7901 254.952 28.5542 253.875 27.6288C252.797 26.7034 251.464 26.2407 249.875 26.2407C248.432 26.2407 247.196 26.7034 246.173 27.6227C245.15 28.542 244.541 29.7841 244.347 31.3487L255.531 31.3305Z" fill="white"/>
<path d="M276.993 23.6653C278.253 24.3228 279.239 25.2969 279.951 26.5937C280.664 27.8905 281.017 29.4552 281.023 31.2878L281.041 43.2087H276.895L276.877 31.921C276.877 30.1128 276.42 28.7246 275.513 27.7627C274.606 26.8007 273.37 26.3198 271.805 26.3198C270.241 26.3198 268.999 26.8068 268.085 27.7749C267.172 28.7429 266.716 30.131 266.716 31.9392L266.734 43.233H262.551L262.515 23.0321H266.697V25.3335C267.379 24.4994 268.256 23.854 269.315 23.3852C270.375 22.9164 271.507 22.6851 272.706 22.6851C274.295 22.6851 275.72 23.0077 276.98 23.6653H276.993Z" fill="white"/>
<path d="M287.951 42.6608C286.691 42.0885 285.692 41.3092 284.956 40.3168C284.219 39.3305 283.829 38.2224 283.774 36.9987H288.103C288.176 37.845 288.59 38.5634 289.333 39.1357C290.082 39.708 291.013 39.9941 292.14 39.9941C293.315 39.9941 294.222 39.7628 294.873 39.3122C295.519 38.8617 295.841 38.2772 295.841 37.571C295.841 36.816 295.476 36.2498 294.758 35.8845C294.033 35.5192 292.895 35.1174 291.324 34.6791C289.808 34.2651 288.572 33.8632 287.616 33.4736C286.66 33.0839 285.838 32.4873 285.138 31.6836C284.438 30.88 284.091 29.8145 284.085 28.4934C284.085 27.4157 284.402 26.4355 285.035 25.5406C285.668 24.6456 286.581 23.9454 287.762 23.4279C288.943 22.9104 290.307 22.6547 291.847 22.6486C294.143 22.6486 296 23.2209 297.406 24.3838C298.812 25.5406 299.567 27.1235 299.671 29.1266H295.488C295.415 28.2316 295.044 27.5071 294.386 26.9713C293.723 26.4355 292.834 26.1676 291.707 26.1676C290.605 26.1676 289.765 26.3807 289.181 26.7947C288.596 27.2087 288.304 27.7628 288.304 28.4447C288.304 28.9804 288.499 29.4371 288.895 29.8023C289.284 30.1676 289.765 30.4538 290.325 30.6608C290.886 30.8678 291.72 31.1296 292.822 31.4462C294.289 31.8358 295.494 32.2316 296.438 32.6334C297.382 33.0352 298.191 33.6258 298.879 34.4051C299.567 35.1844 299.921 36.2255 299.951 37.5223C299.951 38.673 299.634 39.7019 299.001 40.603C298.368 41.5101 297.467 42.2164 296.31 42.7339C295.147 43.2514 293.79 43.5071 292.225 43.5132C290.636 43.5132 289.211 43.2331 287.951 42.6608Z" fill="white"/>
<path d="M307.147 22.9531L307.184 43.1601H303.001L302.965 22.9592H307.147V22.9531Z" fill="white"/>
<path d="M314.807 42.1737C313.266 41.3092 312.055 40.0854 311.172 38.5146C310.289 36.9378 309.845 35.1113 309.845 33.0352C309.845 30.9834 310.289 29.163 311.19 27.5679C312.091 25.9789 313.327 24.7551 314.886 23.8967C316.451 23.0382 318.198 22.606 320.128 22.606C322.058 22.606 323.805 23.026 325.376 23.8784C326.941 24.7308 328.177 25.9545 329.084 27.5375C329.991 29.1265 330.447 30.9469 330.447 32.9987C330.447 35.0504 329.991 36.8769 329.065 38.4659C328.14 40.055 326.874 41.2848 325.279 42.1554C323.677 43.026 321.912 43.4644 319.982 43.4644C318.076 43.4644 316.353 43.0382 314.807 42.1737ZM323.002 39.0626C323.939 38.5451 324.706 37.778 325.291 36.749C325.875 35.7201 326.167 34.472 326.167 33.0047C326.167 31.5375 325.881 30.2955 325.315 29.2848C324.749 28.2741 324.006 27.507 323.075 26.9956C322.143 26.4842 321.145 26.2285 320.067 26.2285C318.989 26.2285 317.997 26.4903 317.078 27.0017C316.164 27.5192 315.434 28.2802 314.898 29.297C314.362 30.3137 314.094 31.5557 314.1 33.023C314.1 35.1965 314.661 36.8769 315.781 38.0641C316.895 39.2452 318.295 39.8358 319.982 39.8358C321.059 39.8358 322.064 39.574 323.008 39.0626H323.002Z" fill="white"/>
<path d="M347.58 23.5435C348.84 24.201 349.826 25.1752 350.538 26.472C351.251 27.7688 351.604 29.3335 351.61 31.166L351.628 43.0869H347.482L347.464 31.7992C347.464 29.991 347.007 28.6029 346.1 27.6409C345.193 26.679 343.957 26.198 342.392 26.198C340.828 26.198 339.586 26.6851 338.672 27.6531C337.759 28.6211 337.302 30.0093 337.302 31.8175L337.321 43.1112H333.138L333.102 22.9103H337.284V25.2117C337.966 24.3776 338.843 23.7322 339.902 23.2634C340.962 22.7946 342.094 22.5633 343.293 22.5633C344.882 22.5633 346.307 22.886 347.567 23.5435H347.58Z" fill="white"/>
<path d="M355.324 27.4887C356.164 25.924 357.309 24.7063 358.764 23.8357C360.219 22.9651 361.826 22.5267 363.586 22.5267C365.175 22.5267 366.563 22.8311 367.75 23.4522C368.937 24.0732 369.887 24.8464 370.593 25.7779V22.8433L374.807 22.8372L374.843 43.0442H370.624V40.0427C369.918 40.9986 368.95 41.7961 367.732 42.4293C366.508 43.0686 365.12 43.3852 363.555 43.3913C361.82 43.3913 360.231 42.9529 358.788 42.0579C357.345 41.169 356.201 39.9209 355.354 38.3258C354.508 36.7246 354.082 34.9103 354.082 32.8829C354.082 30.8555 354.496 29.0595 355.336 27.4887H355.324ZM369.735 29.2969C369.157 28.2741 368.408 27.4887 367.476 26.9529C366.545 26.4171 365.546 26.1493 364.469 26.1493C363.391 26.1493 362.393 26.4171 361.461 26.9407C360.53 27.4704 359.781 28.2375 359.208 29.2543C358.636 30.271 358.35 31.4765 358.35 32.8707C358.35 34.2649 358.642 35.4887 359.221 36.5359C359.799 37.5891 360.554 38.3867 361.498 38.9346C362.441 39.4826 363.434 39.7566 364.487 39.7566C365.54 39.7566 366.563 39.4826 367.494 38.9468C368.42 38.405 369.175 37.6196 369.747 36.5785C370.319 35.5374 370.606 34.3197 370.6 32.9255C370.593 31.5313 370.307 30.3197 369.729 29.2969H369.735Z" fill="white"/>
<path d="M378.721 27.4522C379.561 25.8876 380.706 24.6699 382.161 23.7993C383.616 22.9286 385.236 22.4903 387.02 22.4903C388.341 22.4903 389.644 22.7764 390.928 23.3426C392.213 23.9149 393.236 24.676 393.997 25.6318L393.978 15.8784H398.198L398.246 43.0078H394.027V39.9697C393.345 40.95 392.396 41.7597 391.19 42.3929C389.979 43.0321 388.596 43.3487 387.032 43.3548C385.272 43.3548 383.665 42.9165 382.21 42.0215C380.755 41.1326 379.604 39.8845 378.758 38.2894C377.912 36.6882 377.485 34.8739 377.485 32.8465C377.485 30.8191 377.899 29.023 378.74 27.4522H378.721ZM393.132 29.2605C392.554 28.2376 391.805 27.4522 390.873 26.9165C389.942 26.3807 388.943 26.1128 387.866 26.1128C386.788 26.1128 385.79 26.3807 384.858 26.9043C383.927 27.434 383.178 28.2011 382.606 29.2178C382.033 30.2346 381.747 31.4401 381.747 32.8343C381.747 34.2285 382.039 35.4522 382.618 36.4994C383.196 37.5527 383.951 38.3503 384.895 38.8982C385.838 39.4461 386.831 39.7201 387.884 39.7201C388.962 39.7201 389.96 39.4462 390.892 38.9104C391.817 38.3685 392.572 37.5831 393.144 36.542C393.717 35.5009 394.003 34.2833 393.997 32.8891C393.997 31.4949 393.705 30.2833 393.126 29.2605H393.132Z" fill="white"/>
<path d="M405.863 42.0154C404.323 41.1509 403.111 39.9271 402.229 38.3564C401.346 36.7795 400.901 34.953 400.901 32.8769C400.901 30.8252 401.346 29.0048 402.247 27.4096C403.148 25.8206 404.384 24.5969 405.942 23.7384C407.507 22.88 409.254 22.4477 411.184 22.4477C413.114 22.4477 414.862 22.8678 416.433 23.7201C417.997 24.5725 419.233 25.7962 420.14 27.3792C421.048 28.9682 421.504 30.7886 421.504 32.8404C421.504 34.8921 421.047 36.7186 420.122 38.3077C419.197 39.8967 417.93 41.1265 416.335 41.9972C414.734 42.8678 412.968 43.3061 411.038 43.3061C409.133 43.3061 407.41 42.88 405.863 42.0154ZM414.052 38.9043C414.99 38.3868 415.757 37.6197 416.341 36.5908C416.926 35.5618 417.218 34.3138 417.218 32.8465C417.218 31.3792 416.932 30.1372 416.366 29.1265C415.799 28.1159 415.057 27.3488 414.125 26.8373C413.194 26.3259 412.195 26.0702 411.118 26.0702C410.04 26.0702 409.047 26.332 408.128 26.8434C407.215 27.3609 406.484 28.122 405.949 29.1387C405.413 30.1555 405.145 31.3975 405.151 32.8647C405.151 35.0383 405.711 36.7186 406.831 37.9058C407.946 39.087 409.346 39.6775 411.032 39.6775C412.11 39.6775 413.114 39.4157 414.058 38.9043H414.052Z" fill="white"/>
<path d="M427.258 42.4172C425.997 41.8449 424.999 41.0656 424.262 40.0732C423.526 39.0869 423.136 37.9788 423.081 36.7551H427.41C427.483 37.6014 427.897 38.3198 428.64 38.8921C429.389 39.4644 430.32 39.7505 431.446 39.7505C432.621 39.7505 433.529 39.5192 434.18 39.0687C434.825 38.6181 435.148 38.0336 435.148 37.3274C435.148 36.5725 434.783 36.0062 434.064 35.641C433.34 35.2757 432.201 34.8738 430.631 34.4355C429.115 34.0215 427.879 33.6196 426.923 33.23C425.967 32.8403 425.145 32.2437 424.445 31.44C423.745 30.6364 423.398 29.5709 423.392 28.2498C423.392 27.1722 423.708 26.1919 424.341 25.297C424.975 24.402 425.888 23.7018 427.069 23.1843C428.256 22.6668 429.614 22.4111 431.154 22.405C433.449 22.405 435.306 22.9773 436.713 24.1402C438.119 25.297 438.874 26.8799 438.978 28.883H434.795C434.722 27.988 434.35 27.2635 433.693 26.7277C433.029 26.1919 432.14 25.9241 431.014 25.9241C429.912 25.9241 429.072 26.1371 428.487 26.5511C427.903 26.9652 427.611 27.5192 427.611 28.2011C427.611 28.7368 427.806 29.1935 428.201 29.5588C428.591 29.9241 429.072 30.2102 429.632 30.4172C430.192 30.6242 431.026 30.886 432.128 31.2026C433.596 31.5922 434.801 31.988 435.745 32.3898C436.688 32.7916 437.498 33.3822 438.186 34.1615C438.874 34.9408 439.227 35.9819 439.258 37.2787C439.258 38.4294 438.941 39.4583 438.308 40.3594C437.675 41.2665 436.774 41.9728 435.617 42.4903C434.454 43.0078 433.096 43.2635 431.532 43.2696C429.943 43.2696 428.518 42.9895 427.258 42.4172Z" fill="white"/>
<path d="M303.184 20.2557C302.673 19.7443 302.411 19.1111 302.411 18.35C302.411 17.589 302.667 16.9558 303.178 16.4444C303.69 15.933 304.323 15.6712 305.084 15.6712C305.814 15.6712 306.442 15.9269 306.953 16.4383C307.464 16.9497 307.726 17.589 307.726 18.344C307.726 19.105 307.47 19.7382 306.959 20.2496C306.448 20.761 305.827 21.0228 305.09 21.0228C304.329 21.0228 303.696 20.7671 303.184 20.2557Z" fill="#FF7500"/>
</svg>
