<svg width="24" height="21" viewBox="0 0 24 21" fill="none" xmlns="http://www.w3.org/2000/svg">
<path d="M15.1645 6.04862C15.5054 5.77102 15.9758 5.70162 16.3835 5.87626L16.3841 5.87564L20.0048 7.41308L20.0042 7.41371C20.2929 7.53394 20.5017 7.75496 20.6184 8.00383L20.6635 8.11436L20.6654 8.11998L20.6673 8.12623L22.5074 13.6247L22.5294 13.7052C22.6201 14.1088 22.3912 14.5234 21.9886 14.6569C21.5858 14.7904 21.1527 14.5952 20.9823 14.2179L20.9515 14.1405L19.176 8.83562L16.9645 7.89642L18.5587 15.8803L23.2239 18.4568C23.6199 18.6755 23.7629 19.1724 23.5433 19.5665C23.3236 19.9605 22.8243 20.1024 22.4284 19.8837L17.8554 17.359L13.0546 20.3565L13.0534 20.3571C13.0183 20.3789 12.9819 20.3974 12.9454 20.4152C12.8035 20.5325 12.6212 20.6038 12.4222 20.6038C12.223 20.6037 12.0404 20.5328 11.8983 20.4152C11.8662 20.3997 11.8344 20.383 11.8036 20.3646L11.7967 20.3608L11.7898 20.3565L6.98841 17.359L2.41602 19.8837L2.41351 19.8856C1.46928 20.4025 0.375039 19.5065 0.707018 18.4837L0.7089 18.4762L4.18086 8.11436C4.28359 7.8222 4.50912 7.55156 4.83961 7.41371L8.46026 5.87564L8.46277 5.87439C8.85569 5.709 9.33145 5.75835 9.68429 6.05299L9.68492 6.05236L12.4222 8.31607L15.1595 6.05236L15.1645 6.04862ZM7.92572 16.0177L11.6028 18.3126V9.76046L9.52242 8.03943L7.92572 16.0177ZM13.2422 9.76046V18.3126L16.9143 16.0202L15.322 8.04005L13.2422 9.76046ZM5.66776 8.83562L2.63121 17.8979L6.28135 15.8828L7.8793 7.89642L5.66776 8.83562Z" fill="white"/>
<path fill-rule="evenodd" clip-rule="evenodd" d="M12.349 12.4332C12.3883 12.4675 12.4523 12.4675 12.4916 12.4332C13.0524 11.9436 16.7713 8.56512 16.7713 4.95656C16.7713 2.1363 14.7495 0.608656 12.4965 0.60376H12.344C10.0861 0.608656 8.0693 2.14119 8.0693 4.95656C8.0693 8.56512 11.7882 11.9436 12.349 12.4332Z" fill="#FF7500"/>
</svg>
