<svg xmlns="http://www.w3.org/2000/svg" style="display:none">
	<!-- Icono: tab Documento -->
	<symbol id="icon-document" width="29" height="20" viewBox="0 0 29 20" fill="none">
		<path d="M0.273358 18.7935C0.260219 18.7345 0.25365 18.685 0.25 18.6507C0.258029 12.8356 0.266059 7.01979 0.273358 1.20395C0.312775 1.06411 0.440516 0.675904 0.822278 0.367086C1.08725 0.154409 1.42375 0.0320472 1.82887 0C10.0992 0 18.3694 0 26.6397 0C26.7536 0.00509842 27.5733 0.0524409 28.0128 0.707223C28.1682 0.939565 28.2266 1.17409 28.25 1.34016C28.2456 7.11156 28.2412 12.883 28.2369 18.6544C28.2383 18.6784 28.2391 18.7126 28.2369 18.7534C28.2157 19.181 27.9266 19.481 27.8478 19.5626C27.4011 20.0266 26.7412 20.0033 26.6405 19.9982C18.3702 19.9982 10.0999 19.9982 1.8296 19.9982C1.68215 19.9909 1.12594 19.945 0.685048 19.4985C0.428837 19.2392 0.320805 18.9545 0.274088 18.7942L0.273358 18.7935ZM1.56901 0.887853C1.2982 1.00366 1.08287 1.25057 1.0909 1.5572V18.441C1.08506 18.7789 1.37558 19.1212 1.71865 19.1242L27.0325 19.0805C27.0609 19.079 27.196 19.071 27.3011 18.961C27.4288 18.827 27.4062 18.6536 27.4033 18.6318C27.4128 12.9405 27.4222 7.24849 27.4317 1.5572C27.4179 1.22945 27.1492 0.869644 26.8032 0.874743L1.56901 0.887853Z" fill="#173748" />
		<path d="M14.5199 7.11636L25.5625 7.13967C26.1144 7.36618 25.8866 7.99402 25.3275 7.97945H14.6688C14.0469 7.98601 13.89 7.27077 14.5199 7.11636Z" fill="#173748" />
		<path d="M19.0782 14.451H25.837C26.1541 15.2093 25.6755 17.39 25.3542 17.3412H19.0783C18.7209 17.3631 18.7162 14.9679 19.0782 14.451Z" fill="#FF7500" />
		<path d="M14.5199 9.84756L25.5625 9.87087C26.1144 10.0974 25.8866 10.7252 25.3275 10.7107H14.6688C14.0469 10.7172 13.89 10.002 14.5199 9.84756Z" fill="#173748" />
		<path d="M3.14697 2.8902H11.353C11.7607 5.67066 11.7661 10.2945 11.353 10.1157L9.4231 8.6706L8.94034 5.7804L7.0093 4.817L5.56103 5.7804L5.07827 8.6706L3.14723 10.5974C2.68774 10.6779 2.68154 4.78556 3.14697 2.8902Z" fill="#FF7500" />
		<path d="M16.9789 4.38539L25.3806 4.37228C26.0448 4.42617 26.0434 5.19239 25.3806 5.24629H17.0753C16.5125 5.24848 16.4169 4.4859 16.9789 4.38539Z" fill="#173748" />
		<path d="M5.23121 16.9493L11.5577 16.9354C12.2037 17.0127 12.1788 17.7454 11.5577 17.8124L5.32757 17.8109C4.74945 17.8058 4.65383 17.0534 5.23121 16.9493Z" fill="#173748" />
		<path d="M14.5197 4.38539C15.6789 4.17344 15.6789 5.44513 14.5197 5.23318C13.9854 5.13559 13.9854 4.48299 14.5197 4.38539Z" fill="#173748" />
		<path d="M2.82676 16.9493C3.8173 16.7461 3.85598 17.9581 2.87202 17.8066C2.32529 17.7221 2.30923 17.0556 2.82676 16.9493Z" fill="#173748" />
		<path d="M19.5483 13.6732C21.3834 13.6681 23.2192 13.6623 25.0543 13.6572C25.1309 13.6572 25.5237 13.6674 25.8134 13.9784C25.9806 14.1568 26.0383 14.3542 26.0594 14.4547C26.0609 15.2916 26.0624 16.1285 26.0638 16.9653C26.0638 17.0105 26.0529 17.4125 25.7105 17.6616C25.4251 17.8699 25.112 17.8226 25.0536 17.8124H19.695C19.6556 17.8219 19.2906 17.9049 18.9826 17.6514C18.6899 17.4096 18.6884 17.06 18.6892 17.0156C18.6877 16.1787 18.6863 15.3418 18.6848 14.505C18.6797 14.446 18.6614 14.1794 18.8498 13.9485C19.1074 13.6324 19.5169 13.671 19.5469 13.6739L19.5483 13.6732ZM25.2441 14.5327H19.5067V16.9362H25.2441V14.5327Z" fill="#173748" />
		<path d="M3.32015 2.20177L11.0123 2.18575C11.1036 2.1872 11.4182 2.2025 11.6926 2.4414C11.8831 2.60673 11.9634 2.8012 11.9948 2.89661V13.2784C11.9467 13.4117 11.8598 13.5894 11.6919 13.7337C11.5678 13.8407 11.3634 13.9594 11.0116 13.9893C10.4649 14.0359 7.5115 14.0447 3.4676 13.9893C3.37636 13.9879 3.06175 13.9726 2.78729 13.7337C2.59678 13.5683 2.51648 13.3739 2.48509 13.2784L2.45809 3.03354C2.55152 2.57323 2.85153 2.26951 3.32088 2.2025L3.32015 2.20177ZM11.2014 9.72558V3.14352L11.1196 3.06195H3.36103L3.27928 3.14352V9.7263C3.74206 9.11522 4.30266 8.60902 4.96837 8.22518C4.2501 7.01103 4.75158 5.40722 5.95526 4.72694C8.23415 3.43996 10.7758 5.96076 9.51301 8.22518C10.178 8.60975 10.7393 9.11449 11.2014 9.72558ZM9.00716 6.99282C9.00716 6.01684 8.2159 5.22513 7.23923 5.22513C6.26257 5.22513 5.4713 6.01684 5.4713 6.99282C5.4713 7.96881 6.26257 8.76052 7.23923 8.76052C8.2159 8.76052 9.00716 7.96881 9.00716 6.99282ZM3.27855 12.1022C3.25081 12.3993 3.29825 12.7293 3.27855 13.0308L3.3603 13.1124H11.1189L11.2007 13.0308V12.1022C11.2007 11.9303 11.0569 11.4044 10.9977 11.2129C10.6977 10.2463 9.8977 9.34902 8.98745 8.92221C8.01006 9.82463 6.46987 9.82463 5.49174 8.92221C4.28514 9.49178 3.40191 10.7686 3.27855 12.1022Z" fill="#173748" />
	</symbol>
	<!-- Icono: tab Correo -->
	<symbol id="icon-mail" width="24" height="20" viewBox="0 0 24 20" fill="none">
        <path d="M11.7458 20C8.16818 20 4.59054 20 1.01289 20C0.344425 20 0.255995 19.9168 0.255995 19.3022C0.255995 15.6441 0.260492 11.9874 0.25 8.33075C0.25 8.0103 0.351919 7.78973 0.629197 7.59691C1.18675 7.20849 1.71583 6.78539 2.27039 6.39419C2.48172 6.24438 2.55366 6.0793 2.55066 5.83792C2.53867 4.81138 2.54317 3.78484 2.54617 2.7583C2.54767 2.25058 2.68106 2.1299 3.23712 2.12851C4.68346 2.12573 6.12981 2.12157 7.57465 2.13267C7.87741 2.13545 8.11572 2.07025 8.35253 1.88297C8.94007 1.41825 9.55008 0.978508 10.1571 0.535986C11.1373 -0.179817 12.2959 -0.178429 13.2836 0.538761C13.9206 1.00209 14.5441 1.48068 15.1916 1.93152C15.346 2.03973 15.5678 2.11741 15.7596 2.1188C17.2434 2.13406 18.7258 2.12712 20.2096 2.12712C20.8391 2.12712 20.9455 2.227 20.9455 2.81657C20.9455 3.84311 20.9365 4.86965 20.9575 5.89618C20.9605 6.05155 21.0669 6.24854 21.1943 6.35119C21.7713 6.80897 22.3858 7.22514 22.9599 7.68569C23.1068 7.8036 23.2372 8.02833 23.2372 8.20451C23.2536 11.9542 23.2506 15.7024 23.2476 19.4521C23.2476 19.889 23.1023 20 22.5537 20C18.9506 20 15.349 20 11.7458 20ZM3.5084 2.99829C3.49641 3.07043 3.48292 3.11482 3.48292 3.15782C3.48292 5.15403 3.47692 7.14884 3.49041 9.14504C3.49041 9.26157 3.60732 9.41555 3.71823 9.48907C4.72243 10.1522 5.73712 10.8014 6.75031 11.4534C7.67957 12.0513 8.61033 12.6464 9.5246 13.2318C9.56657 13.2165 9.58006 13.2151 9.58905 13.2082C9.68197 13.1499 9.7764 13.0944 9.86483 13.0306C11.0114 12.1941 12.182 12.0998 13.402 12.9044C13.4919 12.964 13.7138 12.9418 13.8217 12.8794C15.8016 11.7197 17.7695 10.5461 19.7479 9.38364C19.9503 9.26434 20.0282 9.13533 20.0267 8.9106C20.0162 7.05312 20.0207 5.19564 20.0207 3.33816C20.0207 3.22857 20.0072 3.11759 19.9997 2.99691H3.5084V2.99829ZM21.1448 19.1358C21.1598 19.1108 21.1748 19.0858 21.1898 19.0622C20.7896 18.7987 20.3894 18.5351 19.9878 18.2729C17.5867 16.704 15.1871 15.1323 12.783 13.5675C12.0651 13.1 11.3891 13.0903 10.7027 13.5397C7.97783 15.3251 5.2605 17.116 2.54017 18.9069C2.45924 18.9596 2.39029 19.0289 2.26139 19.1358H21.1463H21.1448ZM22.3169 8.87731C19.655 10.4546 17.0516 11.9958 14.3957 13.5689C17.0591 15.3084 19.664 17.0092 22.3169 18.7418V8.87592V8.87731ZM1.20024 8.92309V18.7321C3.73772 17.0633 6.22273 15.4291 8.73773 13.7742C6.20475 12.1442 3.72723 10.5489 1.20024 8.92309ZM13.7977 2.11464C13.8112 2.09105 13.8247 2.06747 13.8382 2.04389C13.444 1.75257 13.0558 1.45432 12.6541 1.17133C12.0501 0.745456 11.3636 0.752392 10.7611 1.18243C10.4359 1.41548 10.1196 1.65686 9.80188 1.89823C9.73443 1.94956 9.68347 2.01753 9.59204 2.11464H13.7977ZM20.971 8.65535C21.3442 8.4334 21.6514 8.25168 21.9916 8.05053C21.6334 7.78696 21.3262 7.56223 20.971 7.30005V8.65535ZM2.52219 7.29727C2.15048 7.57749 1.83873 7.81193 1.4985 8.06856C1.85672 8.29745 2.16547 8.49583 2.52219 8.72333V7.29727Z" fill="#173748"/>
        <path d="M13.7975 2.11317H9.59184C9.68477 2.01745 9.73572 1.94809 9.80167 1.89676C10.1179 1.65538 10.4357 1.41401 10.7609 1.18096C11.3634 0.749533 12.0499 0.743984 12.6539 1.16986C13.0556 1.45285 13.4438 1.7511 13.838 2.04242C13.8245 2.066 13.811 2.08958 13.7975 2.11317Z" fill="#FF7500"/>
        <path d="M20.971 8.65535V7.30005C21.3262 7.56223 21.6319 7.78696 21.9916 8.05053C21.6529 8.25168 21.3442 8.43479 20.971 8.65535Z" fill="#FF7500"/>
        <path d="M2.52219 7.29727V8.72333C2.16547 8.49583 1.85522 8.29745 1.4985 8.06856C1.84023 7.81193 2.15048 7.57749 2.52219 7.29727Z" fill="#FF7500"/>
        <path d="M11.7549 17.4536C12.5198 17.4536 13.1398 16.8798 13.1398 16.1719C13.1398 15.4639 12.5198 14.8901 11.7549 14.8901C10.9901 14.8901 10.37 15.4639 10.37 16.1719C10.37 16.8798 10.9901 17.4536 11.7549 17.4536Z" fill="#FF7500"/>
        <path d="M13.2683 5.35496L13.3429 5.36193C13.5119 5.39529 13.6393 5.53957 13.6393 5.71214C13.6393 5.8847 13.5119 6.02899 13.3429 6.06235L13.2683 6.06932L6.18565 6.06932C5.98077 6.06932 5.81467 5.90941 5.81467 5.71214C5.81467 5.51487 5.98077 5.35496 6.18565 5.35496L13.2683 5.35496Z" fill="#173748"/>
        <path d="M17.315 7.31946C17.5199 7.31946 17.686 7.47938 17.686 7.67665C17.686 7.87391 17.5199 8.03383 17.315 8.03383L6.18565 8.03383C5.98077 8.03383 5.81467 7.87391 5.81467 7.67665C5.81467 7.47938 5.98077 7.31946 6.18565 7.31946L17.315 7.31946Z" fill="#173748"/>
        <path d="M17.3149 5.35496C17.5198 5.35496 17.6859 5.51487 17.6859 5.71214C17.6859 5.90941 17.5198 6.06932 17.3149 6.06932H14.2797C14.0748 6.06932 13.9087 5.90941 13.9087 5.71214C13.9087 5.51487 14.0748 5.35496 14.2797 5.35496H17.3149Z" fill="#173748"/>
        <path d="M9.22086 9.28397C9.42575 9.28397 9.59184 9.44389 9.59184 9.64115C9.59184 9.83842 9.42575 9.99834 9.22086 9.99834H6.18565C5.98077 9.99834 5.81467 9.83842 5.81467 9.64115C5.81467 9.44389 5.98077 9.28397 6.18565 9.28397H9.22086Z" fill="#173748"/>
	</symbol>

	<!-- Icono: input contrasena candado -->
	<symbol id="icon-padlock" width="16" height="21" viewBox="0 0 16 21" fill="none">
        <path d="M2.04102 20.166C1.65907 20.166 1.33442 20.0323 1.06706 19.765C0.799696 19.4976 0.666016 19.173 0.666016 18.791V8.84518C0.666016 8.46324 0.799696 8.13858 1.06706 7.87122C1.33442 7.60386 1.65907 7.47018 2.04102 7.47018H3.64518V5.27018C3.64518 4.06324 4.06914 3.03581 4.91706 2.18789C5.76497 1.33997 6.7924 0.916016 7.99935 0.916016C9.20629 0.916016 10.2337 1.33997 11.0816 2.18789C11.9296 3.03581 12.3535 4.06324 12.3535 5.27018V7.47018H13.9577C14.3396 7.47018 14.6643 7.60386 14.9316 7.87122C15.199 8.13858 15.3327 8.46324 15.3327 8.84518V18.791C15.3327 19.173 15.199 19.4976 14.9316 19.765C14.6643 20.0323 14.3396 20.166 13.9577 20.166H2.04102ZM2.04102 18.791H13.9577V8.84518H2.04102V18.791ZM7.99935 15.5827C8.48824 15.5827 8.90456 15.4146 9.24831 15.0785C9.59206 14.7424 9.76393 14.3375 9.76393 13.8639C9.76393 13.4056 9.59206 12.9893 9.24831 12.615C8.90456 12.2407 8.48824 12.0535 7.99935 12.0535C7.51046 12.0535 7.09414 12.2407 6.75039 12.615C6.40664 12.9893 6.23477 13.4056 6.23477 13.8639C6.23477 14.3375 6.40664 14.7424 6.75039 15.0785C7.09414 15.4146 7.51046 15.5827 7.99935 15.5827ZM5.02018 7.47018H10.9785V5.27018C10.9785 4.44518 10.6882 3.7424 10.1077 3.16185C9.52713 2.58129 8.82435 2.29102 7.99935 2.29102C7.17435 2.29102 6.47157 2.58129 5.89102 3.16185C5.31046 3.7424 5.02018 4.44518 5.02018 5.27018V7.47018Z" fill="#5D6977"/>
	</symbol>

	<!-- Icono: input contrasena ver contrasena -->
	<symbol id="icon-eye-show" width="22" height="19" viewBox="0 0 22 19" fill="none">
        <path d="M14.4139 10.3978L13.4056 9.3895C13.8028 8.30478 13.5966 7.40339 12.7868 6.68533C11.9771 5.96728 11.0987 5.78395 10.1514 6.13533L9.1431 5.127C9.40282 4.95895 9.6931 4.83672 10.0139 4.76033C10.3348 4.68395 10.6632 4.64575 10.9993 4.64575C12.0841 4.64575 13.0046 5.02388 13.7608 5.78013C14.5171 6.53638 14.8952 7.45686 14.8952 8.54158C14.8952 8.8777 14.8532 9.20999 14.7691 9.53846C14.6851 9.86693 14.5667 10.1534 14.4139 10.3978ZM17.3702 13.3541L16.4535 12.4374C17.2021 11.8874 17.8553 11.2725 18.4129 10.5926C18.9705 9.91276 19.3792 9.22908 19.6389 8.54158C18.875 6.84575 17.7292 5.50513 16.2014 4.51971C14.6737 3.53429 13.016 3.04159 11.2285 3.04159C10.5868 3.04159 9.9299 3.1027 9.25768 3.22492C8.58546 3.34714 8.05838 3.49228 7.67643 3.66034L6.62226 2.58325C7.15699 2.33881 7.84067 2.12492 8.67331 1.94159C9.50594 1.75825 10.3195 1.66659 11.1139 1.66659C13.2987 1.66659 15.2962 2.28915 17.1066 3.53429C18.9171 4.77943 20.2424 6.44853 21.0827 8.54158C20.6855 9.51936 20.1737 10.4131 19.5473 11.2228C18.9209 12.0326 18.1952 12.743 17.3702 13.3541ZM18.6993 18.5332L14.8493 14.752C14.3146 14.9659 13.7112 15.1301 13.0389 15.2447C12.3667 15.3593 11.6868 15.4166 10.9993 15.4166C8.76879 15.4166 6.74449 14.794 4.92643 13.5489C3.10838 12.3037 1.77157 10.6346 0.916016 8.54158C1.22157 7.74714 1.64553 6.97179 2.18789 6.21554C2.73025 5.45929 3.39102 4.73742 4.17018 4.04992L1.28268 1.16242L2.24518 0.177002L19.5931 17.5249L18.6993 18.5332ZM5.10976 5.01242C4.54449 5.42492 3.99831 5.96728 3.47122 6.6395C2.94414 7.31172 2.56602 7.94575 2.33685 8.54158C3.11602 10.2374 4.28858 11.578 5.85456 12.5635C7.42053 13.5489 9.19657 14.0416 11.1827 14.0416C11.6868 14.0416 12.1834 14.011 12.6723 13.9499C13.1612 13.8888 13.5278 13.7971 13.7723 13.6749L12.3056 12.2083C12.1375 12.2846 11.9313 12.3419 11.6868 12.3801C11.4424 12.4183 11.2132 12.4374 10.9993 12.4374C9.9299 12.4374 9.01324 12.0631 8.24935 11.3145C7.48546 10.5659 7.10351 9.64158 7.10351 8.54158C7.10351 8.31242 7.12261 8.08325 7.16081 7.85408C7.199 7.62492 7.25629 7.41867 7.33268 7.23533L5.10976 5.01242Z" fill="#5D6977"/>
	</symbol>

	<!-- Icono: input contrasena ocultar contrasena -->
	<symbol id="icon-eye-hide" width="21" height="15" viewBox="0 0 21 15" fill="none">
        <path d="M10.4993 11.4376C11.5841 11.4376 12.5046 11.0595 13.2608 10.3032C14.0171 9.54696 14.3952 8.62647 14.3952 7.54175C14.3952 6.45703 14.0171 5.53654 13.2608 4.78029C12.5046 4.02404 11.5841 3.64591 10.4993 3.64591C9.41463 3.64591 8.49414 4.02404 7.73789 4.78029C6.98164 5.53654 6.60352 6.45703 6.60352 7.54175C6.60352 8.62647 6.98164 9.54696 7.73789 10.3032C8.49414 11.0595 9.41463 11.4376 10.4993 11.4376ZM10.4993 10.1084C9.78129 10.1084 9.174 9.86015 8.67747 9.36362C8.18095 8.8671 7.93268 8.2598 7.93268 7.54175C7.93268 6.82369 8.18095 6.2164 8.67747 5.71987C9.174 5.22335 9.78129 4.97508 10.4993 4.97508C11.2174 4.97508 11.8247 5.22335 12.3212 5.71987C12.8178 6.2164 13.066 6.82369 13.066 7.54175C13.066 8.2598 12.8178 8.8671 12.3212 9.36362C11.8247 9.86015 11.2174 10.1084 10.4993 10.1084ZM10.4993 14.4167C8.26879 14.4167 6.25213 13.7827 4.44935 12.5147C2.64657 11.2466 1.30213 9.58897 0.416016 7.54175C1.30213 5.49453 2.64657 3.83689 4.44935 2.56883C6.25213 1.30078 8.26879 0.666748 10.4993 0.666748C12.7299 0.666748 14.7466 1.30078 16.5493 2.56883C18.3521 3.83689 19.6966 5.49453 20.5827 7.54175C19.6966 9.58897 18.3521 11.2466 16.5493 12.5147C14.7466 13.7827 12.7299 14.4167 10.4993 14.4167ZM10.4993 13.0417C12.348 13.0417 14.0476 12.5414 15.5983 11.5407C17.149 10.54 18.3292 9.20703 19.1389 7.54175C18.3292 5.87647 17.149 4.54348 15.5983 3.54279C14.0476 2.5421 12.348 2.04175 10.4993 2.04175C8.65074 2.04175 6.95108 2.5421 5.40039 3.54279C3.8497 4.54348 2.66185 5.87647 1.83685 7.54175C2.66185 9.20703 3.8497 10.54 5.40039 11.5407C6.95108 12.5414 8.65074 13.0417 10.4993 13.0417Z" fill="#5D6977"/>
	</symbol>
</svg>
