<svg xmlns="http://www.w3.org/2000/svg" style="display:none">
  <!-- Icono: ARL -->
  <symbol id="ARL" width="36" height="30" viewBox="0 0 36 30" fill="none">
    <path d="M12.8336 2.62634C12.8336 7.0401 12.8336 11.4539 12.8336 16.0014C9.39045 16.0014 5.94725 16.0014 2.39972 16.0014C2.48186 14.3585 2.48186 14.3585 2.58792 13.7605C2.60008 13.6905 2.61224 13.6205 2.62477 13.5483C3.25103 10.1262 5.19456 7.0488 7.961 4.9514C8.05925 4.87676 8.1567 4.80106 8.25403 4.72522C8.61404 4.44703 8.61404 4.44703 8.77212 4.44703C8.88844 5.90024 8.9963 7.35375 9.0897 8.80863C9.0986 8.94653 9.1075 9.08443 9.11641 9.22233C9.15259 9.78356 9.18861 10.3448 9.22382 10.9061C9.24583 11.2566 9.26838 11.6071 9.29129 11.9576C9.29979 12.0891 9.30808 12.2207 9.31616 12.3523C9.32733 12.5341 9.33919 12.7158 9.35122 12.8975C9.35431 12.9507 9.35741 13.0038 9.3606 13.0585C9.38599 13.4267 9.41317 13.7713 9.68246 14.0406C9.97155 14.0718 9.97155 14.0718 10.2295 13.9575C10.4056 13.6887 10.3885 13.3948 10.3667 13.0844C10.3614 13.0055 10.3561 12.9266 10.3507 12.8453C10.3413 12.7164 10.3413 12.7164 10.3317 12.5849C10.3221 12.4452 10.3125 12.3055 10.3029 12.1658C10.2926 12.0159 10.2819 11.8661 10.2713 11.7163C10.249 11.4038 10.2275 11.0913 10.206 10.7788C10.1604 10.1154 10.1141 9.45201 10.0676 8.78866C10.0174 8.07249 9.96742 7.35632 9.9183 6.64008C9.89697 6.32947 9.87519 6.0189 9.85306 5.70835C9.84268 5.56167 9.83251 5.41497 9.82244 5.26826C9.81016 5.0895 9.79755 4.91077 9.78455 4.73206C9.77924 4.65313 9.77393 4.5742 9.76846 4.49288C9.76366 4.42446 9.75886 4.35604 9.75391 4.28555C9.75246 4.09379 9.77192 3.93157 9.82251 3.74676C9.92926 3.65694 9.92926 3.65694 10.0687 3.59194C10.1472 3.5547 10.1472 3.5547 10.2272 3.5167C10.2843 3.49152 10.3414 3.46634 10.4002 3.4404C10.4588 3.41364 10.5173 3.38688 10.5776 3.35931C12.2249 2.62634 12.2249 2.62634 12.8336 2.62634Z" fill="white"/>
    <path d="M2.31586 17.0346C2.41497 17.0342 2.41497 17.0342 2.51608 17.0338C2.62408 17.0344 2.62408 17.0344 2.73426 17.035C2.8112 17.0349 2.88813 17.0347 2.9674 17.0346C3.22567 17.0344 3.48393 17.0352 3.74219 17.0359C3.92714 17.036 4.11209 17.036 4.29703 17.0359C4.69545 17.0358 5.09387 17.0362 5.49229 17.037C6.06834 17.0382 6.64438 17.0385 7.22043 17.0387C8.15504 17.039 9.08965 17.0399 10.0243 17.0413C10.9321 17.0426 11.84 17.0435 12.7478 17.0441C12.8038 17.0442 12.8598 17.0442 12.9174 17.0442C13.1982 17.0444 13.4789 17.0446 13.7597 17.0448C16.0887 17.0462 18.4177 17.0488 20.7467 17.0518C20.7467 18.3921 20.7467 19.7324 20.7467 21.1134C18.4047 21.1195 16.0627 21.1247 13.7207 21.1277C13.444 21.128 13.1673 21.1284 12.8906 21.1287C12.8355 21.1288 12.7804 21.1289 12.7237 21.129C11.8326 21.1302 10.9415 21.1324 10.0504 21.135C9.13554 21.1376 8.22071 21.1391 7.30587 21.1397C6.74169 21.1401 6.17752 21.1413 5.61335 21.1436C5.18021 21.1452 4.74709 21.1454 4.31396 21.145C4.13666 21.1451 3.95935 21.1457 3.78205 21.1467C3.53944 21.1481 3.29688 21.1478 3.05426 21.147C2.98457 21.1479 2.91488 21.1487 2.84308 21.1495C2.23787 21.1444 1.66684 21.0173 1.2094 20.6013C0.771795 20.1495 0.754387 19.6481 0.758604 19.052C0.757205 18.982 0.755806 18.9121 0.754364 18.8401C0.754715 18.306 0.852078 17.93 1.20694 17.5251C1.25252 17.4873 1.29811 17.4496 1.34507 17.4107C1.39048 17.3719 1.43588 17.3331 1.48267 17.2931C1.74989 17.109 1.99274 17.0343 2.31586 17.0346Z" fill="white"/>
    <path d="M15.6316 0.0118028C15.6919 0.0113367 15.7523 0.0108705 15.8145 0.0103903C15.9419 0.00968285 16.0693 0.00935263 16.1967 0.00937517C16.3904 0.00906958 16.5839 0.00652631 16.7776 0.00387017C16.9018 0.00345906 17.026 0.00318122 17.1503 0.00304955C17.2362 0.00154002 17.2362 0.00154002 17.3239 0C17.7892 0.00365223 18.1474 0.134725 18.5073 0.432781C18.5385 0.470604 18.5698 0.508426 18.602 0.547395C18.6504 0.603316 18.6504 0.603316 18.6999 0.660367C18.9337 1.05575 18.9459 1.46673 18.9427 1.91303C18.9428 1.9735 18.9429 2.03397 18.943 2.09627C18.9433 2.29798 18.9425 2.49967 18.9417 2.70137C18.9417 2.84632 18.9417 2.99128 18.9418 3.13623C18.9418 3.52915 18.941 3.92206 18.94 4.31498C18.9392 4.72582 18.9391 5.13666 18.9389 5.54751C18.9385 6.32524 18.9373 7.10296 18.9359 7.88069C18.9344 8.76622 18.9336 9.65174 18.9329 10.5373C18.9314 12.3586 18.9288 14.18 18.9258 16.0013C17.262 16.0013 15.5982 16.0013 13.8839 16.0013C13.8776 14.0754 13.8725 12.1494 13.8694 10.2235C13.868 9.32923 13.866 8.43498 13.8628 7.54073C13.86 6.76129 13.8582 5.98185 13.8576 5.20241C13.8572 4.78971 13.8564 4.37702 13.8543 3.96432C13.8524 3.57578 13.8518 3.18725 13.8523 2.7987C13.8522 2.65621 13.8516 2.51371 13.8505 2.37121C13.8491 2.17635 13.8495 1.98157 13.8503 1.78671C13.8494 1.73058 13.8486 1.67445 13.8478 1.61662C13.8526 1.16189 13.9876 0.800032 14.2863 0.453844C14.3254 0.422611 14.3645 0.391378 14.4048 0.359199C14.4437 0.326883 14.4826 0.294567 14.5227 0.261272C14.8847 0.0249126 15.2119 0.0129363 15.6316 0.0118028Z" fill="white"/>
    <path d="M19.976 2.62634C20.7643 2.784 20.7643 2.784 21.108 2.92341C21.1822 2.95329 21.2564 2.98317 21.3328 3.01395C21.4079 3.04491 21.483 3.07587 21.5604 3.10777C21.6739 3.1534 21.6739 3.1534 21.7896 3.19996C22.1985 3.366 22.5957 3.54298 22.9872 3.74676C23.012 4.76738 22.9353 5.77996 22.8646 6.79756C22.852 6.98318 22.8395 7.16881 22.827 7.35444C22.7975 7.79057 22.7677 8.22668 22.7377 8.66278C22.6839 9.44485 22.6306 10.2269 22.5777 11.0091C22.5561 11.3268 22.5343 11.6446 22.5124 11.9624C22.501 12.1286 22.4897 12.2948 22.4784 12.4611C22.4732 12.5361 22.4679 12.6112 22.4625 12.6885C22.3777 13.3367 22.3777 13.3367 22.5364 13.9356C22.7097 14.0634 22.7097 14.0634 22.9609 14.0363C23.2151 13.9934 23.2151 13.9934 23.3373 13.7605C23.3674 13.6135 23.3674 13.6135 23.3775 13.4493C23.3827 13.3864 23.388 13.3235 23.3934 13.2587C23.3984 13.1904 23.4035 13.1221 23.4087 13.0517C23.4144 12.9801 23.4202 12.9084 23.4261 12.8346C23.444 12.6064 23.4609 12.3782 23.4774 12.1499C23.4825 12.0789 23.4876 12.0079 23.4929 11.9347C23.5238 11.4995 23.5527 11.0641 23.5808 10.6286C23.5963 10.3895 23.6119 10.1505 23.6277 9.9114C23.6723 9.23313 23.7164 8.55484 23.7605 7.87654C23.7877 7.45831 23.8152 7.0401 23.8427 6.6219C23.8582 6.3868 23.8733 6.15168 23.8885 5.91656C23.8979 5.77314 23.9074 5.62973 23.9168 5.48631C23.9209 5.42135 23.925 5.35638 23.9293 5.28945C23.9484 5.00328 23.9701 4.72682 24.0376 4.44703C24.6157 4.71007 25.0636 5.11655 25.5326 5.5348C25.6333 5.62425 25.7351 5.71236 25.8372 5.80023C27.6442 7.37443 28.9459 9.48138 29.7097 11.7429C29.7301 11.8032 29.7505 11.8635 29.7715 11.9256C29.8864 12.2817 29.9554 12.6176 29.9898 12.9902C29.9314 12.9891 29.873 12.988 29.8128 12.9869C26.6373 12.9351 23.96 13.7782 21.2436 15.4414C20.8996 15.6512 20.8996 15.6512 20.7463 15.6512C20.7463 15.7668 20.7463 15.8823 20.7463 16.0014C20.4921 16.0014 20.2379 16.0014 19.976 16.0014C19.976 11.5876 19.976 7.17385 19.976 2.62634Z" fill="white"/>
    <path d="M34.3921 15.6448C34.5473 15.729 34.5473 15.729 34.7489 15.7898C35.0187 15.8998 35.182 15.9973 35.3818 16.2114C35.544 16.6864 35.486 17.2271 35.4737 17.7211C35.4728 17.8715 35.4723 18.022 35.4721 18.1725C35.4708 18.488 35.4668 18.8034 35.4605 19.1188C35.4527 19.5203 35.4496 19.9215 35.4483 20.323C35.4469 20.7089 35.4428 21.0948 35.4387 21.4806C35.4381 21.5529 35.4376 21.6251 35.4371 21.6996C35.4269 22.7768 35.3583 23.8165 34.8347 24.7852C34.8106 24.8315 34.7865 24.8779 34.7617 24.9256C34.5625 25.2982 34.3287 25.6262 34.0513 25.9451C34.0209 25.9853 33.9906 26.0256 33.9594 26.0671C33.6213 26.5038 33.1627 26.8122 32.7208 27.1355C32.6727 27.1708 32.6245 27.206 32.575 27.2423C31.9611 27.6908 31.3415 28.1309 30.7197 28.5683C30.3388 28.8365 29.9603 29.1079 29.5827 29.3807C29.5295 29.4191 29.4764 29.4575 29.4216 29.4971C29.1395 29.6991 29.1395 29.6991 28.8705 29.9178C28.7293 30.0066 28.7293 30.0066 28.5869 29.9946C28.4447 29.9347 28.331 29.868 28.2057 29.7779C28.1363 29.7284 28.1363 29.7284 28.0654 29.6779C28.0158 29.642 27.9663 29.606 27.9152 29.5689C27.8367 29.5127 27.8367 29.5127 27.7567 29.4554C27.5904 29.3361 27.4245 29.2162 27.2587 29.0962C27.154 29.0208 27.0492 28.9454 26.9444 28.87C26.6822 28.6812 26.4204 28.4917 26.1588 28.3021C25.9954 28.1838 25.8318 28.066 25.6681 27.9482C25.3575 27.7247 25.0474 27.5004 24.7378 27.2756C24.6964 27.2456 24.655 27.2156 24.6124 27.1847C23.1744 26.1395 22.179 24.9343 21.8667 23.144C21.7137 22.1117 21.7654 21.0384 21.7583 19.9976C21.7557 19.6342 21.752 19.2709 21.7453 18.9075C21.7388 18.5543 21.7354 18.2013 21.7341 17.848C21.7332 17.7139 21.7311 17.5798 21.7279 17.4457C21.7041 16.399 21.7041 16.399 21.9321 16.1093C22.0949 15.9987 22.2426 15.9287 22.4269 15.8613C22.5154 15.8114 22.6032 15.7602 22.6898 15.707C26.5747 13.5843 30.5147 13.4361 34.3921 15.6448ZM24.5452 16.6753C24.4709 16.7089 24.3966 16.7425 24.32 16.7771C24.2502 16.8094 24.1805 16.8417 24.1086 16.875C24.046 16.9039 23.9834 16.9329 23.9189 16.9627C23.6688 17.1006 23.5681 17.1994 23.4773 17.4719C23.4699 17.6288 23.4669 17.7859 23.466 17.943C23.4657 17.9906 23.4653 18.0383 23.465 18.0873C23.4639 18.2452 23.4635 18.403 23.4631 18.5608C23.4629 18.615 23.4627 18.6693 23.4625 18.7251C23.4614 19.0127 23.4608 19.3004 23.4605 19.588C23.4601 19.8827 23.4584 20.1773 23.4564 20.472C23.4551 20.7005 23.4547 20.929 23.4546 21.1575C23.4544 21.2659 23.4539 21.3744 23.4529 21.4828C23.442 22.8621 23.7156 24.056 24.6852 25.0872C25.1424 25.53 25.6628 25.8868 26.1836 26.2501C26.3949 26.3977 26.605 26.5471 26.8152 26.6965C26.9629 26.801 27.1112 26.9047 27.2595 27.0083C27.4418 27.1359 27.621 27.2664 27.7984 27.4006C27.8593 27.4456 27.8593 27.4456 27.9214 27.4915C28.0296 27.5715 28.1368 27.6529 28.244 27.7343C28.5204 27.871 28.6445 27.8537 28.9393 27.7657C29.1467 27.6482 29.3327 27.5082 29.5214 27.3631C29.6329 27.2799 29.7444 27.1968 29.856 27.1136C29.9127 27.0708 29.9695 27.028 30.028 26.984C30.2485 26.819 30.4719 26.6583 30.6957 26.4979C30.9043 26.3483 31.1121 26.1976 31.3199 26.0468C31.4087 25.9824 31.4977 25.9182 31.5868 25.8542C32.5804 25.1402 33.4061 24.3279 33.673 23.0898C33.7744 22.4673 33.7929 21.8539 33.7922 21.2248C33.7925 21.1171 33.7928 21.0093 33.7931 20.9016C33.7937 20.6777 33.7936 20.4538 33.7933 20.23C33.7929 19.9436 33.7941 19.6572 33.7957 19.3708C33.7967 19.1491 33.7968 18.9275 33.7965 18.7058C33.7966 18.6002 33.797 18.4945 33.7977 18.3889C33.7985 18.2416 33.798 18.0944 33.7972 17.9471C33.7973 17.8636 33.7973 17.78 33.7974 17.6939C33.7683 17.4475 33.7104 17.3183 33.5611 17.1217C33.3983 17.0186 33.2484 16.9356 33.0753 16.8548C33.0263 16.8313 32.9774 16.8078 32.927 16.7836C30.0378 15.4212 27.4696 15.3517 24.5452 16.6753Z" fill="white"/>
    <path d="M32.3549 17.6552C32.4237 17.6865 32.4924 17.7178 32.5633 17.7501C32.6154 17.7738 32.6675 17.7976 32.7212 17.8221C32.7244 18.3919 32.7269 18.9617 32.7284 19.5315C32.7292 19.7962 32.7301 20.0609 32.7317 20.3256C32.7333 20.5816 32.7341 20.8377 32.7345 21.0938C32.7347 21.1908 32.7352 21.2879 32.736 21.3849C32.7416 22.1322 32.7445 22.9096 32.3886 23.5861C32.3557 23.6508 32.3228 23.7155 32.289 23.7822C31.9864 24.26 31.6255 24.5835 31.1631 24.9035C31.0514 24.9824 30.9397 25.0614 30.828 25.1404C30.7709 25.1805 30.7137 25.2206 30.6548 25.2619C30.3686 25.4637 30.0854 25.6695 29.802 25.8751C29.6538 25.9822 29.5057 26.0893 29.3568 26.1954C29.2653 26.2621 29.1754 26.3309 29.087 26.4016C28.7796 26.6425 28.7796 26.6425 28.5557 26.6555C28.2994 26.5389 28.0921 26.3773 27.8719 26.2033C27.7722 26.1265 27.6725 26.0498 27.5726 25.9733C27.4955 25.9141 27.4955 25.9141 27.4167 25.8537C27.1617 25.6617 26.8997 25.4798 26.6376 25.2974C25.6481 24.6022 24.8066 23.9951 24.5604 22.7421C24.5266 22.5032 24.5197 22.2767 24.5201 22.0354C24.5201 21.9896 24.5201 21.9438 24.5201 21.8966C24.5202 21.7465 24.5207 21.5965 24.5213 21.4465C24.5214 21.3419 24.5215 21.2373 24.5216 21.1327C24.5218 20.8585 24.5225 20.5843 24.5233 20.31C24.524 20.0298 24.5243 19.7496 24.5247 19.4693C24.5254 18.9202 24.5266 18.3711 24.5281 17.8221C24.7481 17.7207 24.9685 17.6202 25.189 17.5198C25.2505 17.4915 25.312 17.4631 25.3754 17.4339C27.7674 16.3477 30.0177 16.5906 32.3549 17.6552ZM29.5864 20.052C29.544 20.0952 29.5017 20.1384 29.458 20.183C29.2807 20.3642 29.1035 20.5454 28.9275 20.7279C28.7978 20.8623 28.667 20.9955 28.536 21.1286C28.4963 21.1703 28.4566 21.212 28.4157 21.255C28.3023 21.3692 28.3023 21.3692 28.0994 21.5335C27.869 21.5031 27.7594 21.4285 27.6002 21.2624C27.5414 21.202 27.5414 21.202 27.4814 21.1405C27.4412 21.0983 27.4011 21.0561 27.3598 21.0126C27.2796 20.9294 27.1993 20.8463 27.1188 20.7634C27.0659 20.708 27.0659 20.708 27.012 20.6514C26.8324 20.4799 26.7142 20.415 26.4669 20.3824C26.1319 20.4221 26.007 20.5075 25.7886 20.7632C25.7367 21.0064 25.7185 21.097 25.7886 21.3234C26.0799 21.7382 26.4771 22.0837 26.8477 22.4263C26.896 22.4715 26.9443 22.5167 26.9941 22.5633C27.449 23.0497 27.449 23.0497 28.0294 23.2841C28.3261 23.1553 28.5387 23.0109 28.7661 22.7824C28.8248 22.724 28.8834 22.6656 28.9438 22.6054C29.0057 22.5426 29.0677 22.4798 29.1315 22.4151C29.196 22.3504 29.2605 22.2858 29.327 22.2192C29.463 22.0829 29.5986 21.9462 29.734 21.8093C29.9076 21.6337 30.0818 21.4587 30.2563 21.284C30.4228 21.1171 30.589 20.9498 30.7552 20.7826C30.8179 20.7196 30.8805 20.6567 30.9451 20.5918C31.0026 20.5336 31.0601 20.4754 31.1194 20.4155C31.1702 20.3642 31.2211 20.3129 31.2734 20.26C31.4381 20.0815 31.4592 20.0083 31.4826 19.7609C31.4573 19.4624 31.3893 19.3612 31.1806 19.1526C30.518 18.8212 30.0027 19.6268 29.5864 20.052Z" fill="white"/>
  </symbol>

  <!-- Icono: SEGUROS -->
  <symbol id="SEGUROS" width="29" height="30" viewBox="0 0 29 30" fill="none">
    <path d="M14.6847 0.236691C14.9354 0.408271 15.1048 0.559491 15.2014 0.849311C15.2014 1.04685 15.2014 1.24438 15.2014 1.4479C14.1918 1.4479 13.1822 1.4479 12.142 1.4479C12.142 0.756197 12.142 0.756197 12.3415 0.516761C12.938 -0.0532279 13.9498 -0.159558 14.6847 0.236691Z" fill="white"/>
    <path d="M12.275 2.04232C12.3381 2.04292 12.4012 2.04352 12.4663 2.04414C12.5129 2.04491 12.5595 2.04568 12.6076 2.04648C12.4067 2.15586 12.1995 2.23116 11.9837 2.30597C11.1108 2.61293 10.4138 3.06143 9.74766 3.70923C9.70205 3.75072 9.65644 3.79222 9.60945 3.83497C7.36035 5.94239 6.88669 9.44849 6.75471 12.3555C6.48033 12.3182 6.31176 12.2299 6.08546 12.0729C5.1465 11.4591 4.07219 11.1899 2.95715 11.4059C2.30739 11.5491 1.73618 11.7621 1.2136 12.1809C0.992006 12.3555 0.992006 12.3555 0.777128 12.3555C0.635794 12.289 0.635794 12.289 0.502774 12.156C0.369345 10.0118 1.71241 7.75525 3.07172 6.21167C3.16802 6.10847 3.26501 6.00593 3.3627 5.90406C3.41363 5.8497 3.46456 5.79534 3.51703 5.73934C5.62998 3.54486 9.22039 2.00414 12.275 2.04232Z" fill="white"/>
    <path d="M14.7354 2.04642C15.2629 2.03115 15.765 2.0722 16.2859 2.1545C16.361 2.1663 16.4361 2.17811 16.5134 2.19027C19.239 2.64118 21.7679 3.80357 23.7808 5.70447C23.8338 5.75325 23.8869 5.80204 23.9416 5.8523C25.5189 7.35434 26.7389 9.72906 26.8652 11.9232C26.8402 12.1559 26.8402 12.1559 26.728 12.2931C26.5202 12.3774 26.4528 12.3705 26.2416 12.289C26.1068 12.1944 25.9777 12.0939 25.8475 11.993C25.0343 11.385 23.9286 11.2643 22.9499 11.3869C22.2275 11.5156 21.6225 11.824 21.0081 12.2183C20.7878 12.3555 20.7878 12.3555 20.5883 12.3555C20.5843 12.2804 20.5843 12.2804 20.5803 12.2037C20.4021 8.95824 19.7451 5.63138 17.2404 3.3381C16.5188 2.72177 15.6524 2.3311 14.7354 2.11293C14.7354 2.09098 14.7354 2.06903 14.7354 2.04642Z" fill="white"/>
    <path d="M14.0038 2.57861C15.5464 2.73288 16.698 3.43373 17.7283 4.57391C19.4535 6.72065 20.0525 9.66245 19.9897 12.3556C19.6835 12.2671 19.4515 12.1418 19.1874 11.9648C18.2548 11.364 17.1468 11.2301 16.0656 11.4286C15.3545 11.5972 14.749 11.9671 14.1368 12.3556C14.0929 12.3556 14.049 12.3556 14.0038 12.3556C14.0038 9.12918 14.0038 5.90278 14.0038 2.57861Z" fill="white"/>
    <path d="M13.3387 2.57861C13.3387 5.80501 13.3387 9.03141 13.3387 12.3556C13.0235 12.2505 12.8517 12.1772 12.5904 11.9981C11.7001 11.4194 10.6642 11.2058 9.61228 11.4037C8.98356 11.5396 8.34881 11.7439 7.85028 12.1644C7.67726 12.2952 7.56561 12.3313 7.35276 12.3556C7.24732 9.55181 7.96135 6.43428 9.86741 4.29332C10.7511 3.3435 12.0128 2.57861 13.3387 2.57861Z" fill="white"/>
    <path d="M12.8065 23.7288C13.3772 23.7288 13.9479 23.7288 14.5358 23.7288C14.5419 24.2434 14.5472 24.7579 14.5504 25.2726C14.5517 25.4473 14.5536 25.6221 14.5559 25.7968C14.5591 26.0492 14.5606 26.3017 14.5618 26.5541C14.5632 26.6311 14.5645 26.7082 14.5659 26.7875C14.5662 27.6632 14.3195 28.4901 13.7229 29.1454C12.9871 29.8532 12.2437 30.0143 11.2625 29.9991C10.4947 29.969 9.85396 29.5841 9.33139 29.0371C8.80968 28.4198 8.59544 27.6732 8.59641 26.8771C8.59612 26.8242 8.59584 26.7712 8.59554 26.7167C8.59516 26.6057 8.59513 26.4947 8.59542 26.3837C8.59563 26.2145 8.59406 26.0455 8.59238 25.8763C8.59223 25.7679 8.59218 25.6595 8.59225 25.551C8.59164 25.5009 8.59102 25.4508 8.59039 25.3992C8.59317 25.0809 8.64825 24.864 8.81594 24.5934C9.06671 24.3654 9.32592 24.36 9.65121 24.3702C9.89187 24.4053 10.0338 24.4989 10.2127 24.6599C10.3873 24.9092 10.3642 25.1815 10.3639 25.4739C10.3652 25.583 10.3666 25.6922 10.368 25.8014C10.3695 25.9725 10.3706 26.1437 10.371 26.3149C10.3716 26.4808 10.3739 26.6465 10.3763 26.8124C10.376 26.863 10.3757 26.9136 10.3753 26.9657C10.382 27.3337 10.4703 27.5477 10.6782 27.8524C10.9508 28.111 11.1907 28.2342 11.5636 28.2764C11.9636 28.2357 12.2716 28.0877 12.5363 27.7817C12.7203 27.5197 12.7487 27.3406 12.7537 27.0284C12.755 26.9551 12.7563 26.8819 12.7577 26.8065C12.7588 26.7275 12.7599 26.6485 12.7611 26.5671C12.7625 26.4862 12.7638 26.4053 12.7653 26.3219C12.7696 26.0631 12.7735 25.8042 12.7774 25.5453C12.7803 25.37 12.7832 25.1947 12.7861 25.0193C12.7933 24.5892 12.7999 24.159 12.8065 23.7288Z" fill="white"/>
    <path d="M12.8068 12.8211C12.9605 12.865 13.1141 12.9089 13.2724 12.9541C13.4744 12.9748 13.4744 12.9748 13.6715 12.9708C13.7359 12.9711 13.8004 12.9714 13.8668 12.9718C14.1181 12.9565 14.1181 12.9565 14.5361 12.8211C14.5361 16.2231 14.5361 19.6251 14.5361 23.1302C13.9654 23.1302 13.3948 23.1302 12.8068 23.1302C12.8068 19.7282 12.8068 16.3262 12.8068 12.8211Z" fill="white"/>
    <path d="M27.3969 14.5211C27.5443 14.6012 27.5443 14.6012 27.7358 14.6589C27.992 14.7634 28.1472 14.856 28.3369 15.0593C28.491 15.5105 28.4358 16.024 28.4242 16.4932C28.4233 16.6361 28.4229 16.779 28.4227 16.9219C28.4214 17.2216 28.4176 17.5211 28.4117 17.8208C28.4042 18.202 28.4013 18.5832 28.4001 18.9645C28.3987 19.331 28.3948 19.6975 28.3909 20.0639C28.3904 20.1326 28.3899 20.2012 28.3894 20.2719C28.3798 21.295 28.3146 22.2825 27.8173 23.2026C27.7944 23.2466 27.7715 23.2906 27.7479 23.3359C27.5587 23.6899 27.3367 24.0014 27.0732 24.3042C27.0444 24.3424 27.0156 24.3807 26.9859 24.4201C26.6648 24.8349 26.2292 25.1279 25.8095 25.4349C25.7638 25.4684 25.7181 25.5018 25.671 25.5363C25.088 25.9623 24.4995 26.3803 23.9089 26.7957C23.5472 27.0505 23.1877 27.3082 22.829 27.5674C22.7785 27.6038 22.728 27.6403 22.676 27.6779C22.408 27.8698 22.408 27.8698 22.1526 28.0775C22.0184 28.1618 22.0184 28.1618 21.8832 28.1504C21.7482 28.0935 21.6401 28.0301 21.5212 27.9446C21.4552 27.8976 21.4552 27.8976 21.3879 27.8496C21.3408 27.8155 21.2937 27.7813 21.2452 27.7461C21.1707 27.6927 21.1707 27.6927 21.0947 27.6383C20.9367 27.525 20.7792 27.4111 20.6217 27.2972C20.5222 27.2255 20.4227 27.1539 20.3232 27.0823C20.0741 26.9029 19.8255 26.7229 19.577 26.5428C19.4218 26.4306 19.2664 26.3186 19.1109 26.2068C18.8159 25.9945 18.5214 25.7815 18.2273 25.5679C18.1881 25.5394 18.1488 25.511 18.1083 25.4816C16.7425 24.4889 15.797 23.3442 15.5004 21.6438C15.3551 20.6634 15.4043 19.6439 15.3975 18.6554C15.3951 18.3102 15.3915 17.9651 15.3851 17.62C15.3789 17.2846 15.3757 16.9493 15.3745 16.6138C15.3736 16.4864 15.3716 16.359 15.3686 16.2316C15.3461 15.2375 15.3461 15.2375 15.5625 14.9624C15.7172 14.8573 15.8575 14.7908 16.0325 14.7268C16.1166 14.6794 16.2 14.6308 16.2822 14.5802C19.972 12.5641 23.7142 12.4234 27.3969 14.5211ZM18.0444 15.4999C17.9739 15.5318 17.9033 15.5637 17.8306 15.5966C17.7643 15.6273 17.6981 15.658 17.6298 15.6896C17.5703 15.7171 17.5108 15.7446 17.4496 15.7729C17.2121 15.9038 17.1164 15.9977 17.0302 16.2565C17.0232 16.4055 17.0203 16.5548 17.0195 16.704C17.0191 16.7492 17.0188 16.7944 17.0185 16.8411C17.0175 16.991 17.017 17.1409 17.0167 17.2908C17.0165 17.3423 17.0163 17.3938 17.0161 17.4468C17.0151 17.72 17.0145 17.9932 17.0142 18.2664C17.0138 18.5462 17.0122 18.8261 17.0103 19.106C17.0091 19.323 17.0087 19.54 17.0086 19.757C17.0084 19.86 17.0079 19.963 17.007 20.066C16.9966 21.376 17.2565 22.51 18.1775 23.4895C18.6117 23.91 19.1059 24.2488 19.6005 24.594C19.8013 24.7342 20.0009 24.876 20.2005 25.0179C20.3407 25.1172 20.4816 25.2157 20.6225 25.3141C20.7956 25.4352 20.9658 25.5592 21.1343 25.6866C21.1921 25.7294 21.1921 25.7294 21.2511 25.7729C21.3539 25.849 21.4557 25.9262 21.5575 26.0036C21.8201 26.1335 21.9379 26.117 22.2179 26.0335C22.4149 25.9219 22.5915 25.7889 22.7708 25.651C22.8767 25.572 22.9826 25.493 23.0886 25.4141C23.1425 25.3735 23.1964 25.3328 23.2519 25.2909C23.4613 25.1343 23.6735 24.9816 23.8861 24.8293C24.0842 24.6872 24.2816 24.5441 24.4789 24.4009C24.5633 24.3397 24.6478 24.2787 24.7324 24.218C25.6762 23.5398 26.4604 22.7682 26.7139 21.5924C26.8102 21.0011 26.8278 20.4184 26.8271 19.821C26.8274 19.7187 26.8277 19.6163 26.828 19.514C26.8285 19.3013 26.8285 19.0887 26.8281 18.8761C26.8277 18.6041 26.8289 18.3321 26.8304 18.0601C26.8314 17.8496 26.8315 17.639 26.8313 17.4285C26.8313 17.3281 26.8316 17.2278 26.8323 17.1274C26.8331 16.9876 26.8327 16.8478 26.8319 16.7079C26.8319 16.6285 26.832 16.5492 26.832 16.4674C26.8044 16.2333 26.7494 16.1106 26.6076 15.9239C26.453 15.826 26.3107 15.7471 26.1462 15.6704C26.0997 15.6481 26.0532 15.6258 26.0054 15.6028C23.2613 14.3088 20.822 14.2428 18.0444 15.4999Z" fill="white"/>
    <path d="M25.4017 16.4885C25.4671 16.5182 25.5324 16.548 25.5997 16.5786C25.6492 16.6012 25.6987 16.6237 25.7496 16.647C25.7527 17.1882 25.7551 17.7294 25.7565 18.2706C25.7572 18.522 25.7582 18.7734 25.7597 19.0248C25.7611 19.268 25.7619 19.5112 25.7623 19.7544C25.7625 19.8466 25.763 19.9388 25.7637 20.0309C25.7691 20.7406 25.7718 21.479 25.4337 22.1216C25.4025 22.1831 25.3713 22.2445 25.3391 22.3079C25.0518 22.7616 24.7089 23.0689 24.2698 23.3728C24.1637 23.4478 24.0576 23.5228 23.9515 23.5978C23.8972 23.6359 23.843 23.674 23.787 23.7132C23.5152 23.9049 23.2463 24.1004 22.977 24.2956C22.8363 24.3974 22.6956 24.4991 22.5542 24.5999C22.4673 24.6632 22.3819 24.7285 22.298 24.7957C22.006 25.0245 22.006 25.0245 21.7933 25.0368C21.5499 24.9261 21.353 24.7726 21.1438 24.6074C21.0492 24.5344 20.9544 24.4616 20.8596 24.3889C20.7863 24.3327 20.7863 24.3327 20.7116 24.2753C20.4693 24.0929 20.2204 23.9202 19.9716 23.7469C19.0318 23.0867 18.2325 22.5101 17.9987 21.3199C17.9665 21.093 17.96 20.8779 17.9604 20.6488C17.9604 20.6053 17.9604 20.5617 17.9604 20.5169C17.9604 20.3744 17.961 20.2319 17.9615 20.0894C17.9616 19.99 17.9617 19.8907 17.9618 19.7914C17.962 19.5309 17.9627 19.2705 17.9634 19.01C17.9641 18.7439 17.9644 18.4777 17.9647 18.2115C17.9654 17.69 17.9666 17.1685 17.968 16.647C18.177 16.5507 18.3863 16.4553 18.5957 16.3599C18.6541 16.333 18.7125 16.3061 18.7727 16.2783C21.0446 15.2466 23.1819 15.4774 25.4017 16.4885ZM22.7723 18.7649C22.732 18.806 22.6918 18.847 22.6504 18.8893C22.4819 19.0614 22.3136 19.2336 22.1465 19.4069C22.0233 19.5345 21.8991 19.6611 21.7746 19.7875C21.7369 19.8271 21.6992 19.8667 21.6604 19.9075C21.5527 20.016 21.5527 20.016 21.36 20.172C21.1411 20.1432 21.037 20.0724 20.8858 19.9145C20.83 19.8572 20.83 19.8572 20.773 19.7988C20.7348 19.7587 20.6967 19.7186 20.6575 19.6773C20.5813 19.5983 20.505 19.5194 20.4286 19.4407C20.3784 19.388 20.3784 19.388 20.3271 19.3343C20.1566 19.1714 20.0443 19.1098 19.8095 19.0787C19.4913 19.1165 19.3726 19.1976 19.1651 19.4404C19.1159 19.6714 19.0986 19.7574 19.1651 19.9725C19.4419 20.3665 19.8191 20.6946 20.1711 21.02C20.217 21.063 20.2628 21.1059 20.3101 21.1502C20.7422 21.6121 20.7422 21.6121 21.2935 21.8348C21.5752 21.7124 21.7772 21.5753 21.9932 21.3583C22.0489 21.3028 22.1046 21.2473 22.1619 21.1901C22.2208 21.1305 22.2796 21.0708 22.3402 21.0094C22.4015 20.9479 22.4628 20.8865 22.5259 20.8233C22.6551 20.6938 22.7839 20.564 22.9125 20.434C23.0774 20.2672 23.2428 20.101 23.4085 19.935C23.5667 19.7765 23.7246 19.6177 23.8824 19.4588C23.9419 19.399 24.0014 19.3393 24.0627 19.2777C24.1174 19.2224 24.172 19.1671 24.2283 19.1102C24.2766 19.0614 24.3249 19.0127 24.3746 18.9625C24.531 18.7929 24.5511 18.7235 24.5732 18.4885C24.5492 18.2049 24.4846 18.1089 24.2864 17.9107C23.6571 17.596 23.1677 18.361 22.7723 18.7649Z" fill="white"/>
  </symbol>

  <!-- Icono: ACCAI -->
  <symbol id="ACCAI" width="31" height="30" viewBox="0 0 31 30" fill="none">
    <path d="M15.396 3.54949C15.4414 3.54958 15.4867 3.54968 15.5335 3.54978C16.1845 3.55199 16.8231 3.56317 17.4626 3.69708C17.506 3.70593 17.5494 3.71479 17.5942 3.72391C19.7502 4.17485 21.7104 5.1514 23.3001 6.68242C23.3442 6.72467 23.3442 6.72467 23.3892 6.76777C23.812 7.17522 24.2014 7.58949 24.5478 8.0637C24.5861 8.11498 24.6243 8.16627 24.6626 8.21756C24.9316 8.58254 25.1704 8.96189 25.3945 9.35586C25.4107 9.38401 25.427 9.41216 25.4437 9.44117C26.4065 11.1231 26.8417 13.0287 26.8344 14.9534C26.8343 14.9987 26.8342 15.0441 26.8341 15.0908C26.8319 15.7418 26.8207 16.3804 26.6868 17.0197C26.6735 17.0849 26.6735 17.0849 26.66 17.1513C26.209 19.3071 25.2323 21.2671 23.7012 22.8567C23.673 22.8861 23.6448 22.9155 23.6158 22.9457C23.2083 23.3685 22.794 23.7579 22.3198 24.1043C22.2685 24.1426 22.2172 24.1808 22.1659 24.219C21.8009 24.488 21.4221 24.7279 21.0275 24.9509C20.996 24.9688 20.9645 24.9868 20.932 25.0052C19.901 25.5856 18.7794 25.9754 17.6213 26.2124C17.5893 26.219 17.5572 26.2256 17.5242 26.2323C16.8703 26.3566 16.223 26.3923 15.5586 26.3908C15.4276 26.3907 15.2966 26.3917 15.1656 26.3928C14.5697 26.3948 13.9951 26.3411 13.4075 26.2431C13.3315 26.2305 13.3315 26.2305 13.2539 26.2177C11.3259 25.8714 9.49663 24.9808 8.01553 23.7033C7.98233 23.6751 7.94913 23.6468 7.91492 23.6177C7.31312 23.0914 6.74846 22.5233 6.27764 21.8765C6.23947 21.8252 6.20129 21.774 6.1631 21.7228C5.89395 21.3578 5.65406 20.9789 5.43097 20.5843C5.41305 20.5528 5.39512 20.5213 5.37666 20.4888C4.79623 19.458 4.40636 18.3364 4.16932 17.1785C4.16275 17.1464 4.15619 17.1144 4.14942 17.0814C4.0169 16.3842 3.98838 15.6948 3.99107 14.9868C3.99117 14.9414 3.99127 14.8961 3.99137 14.8493C3.99358 14.1984 4.00476 13.5598 4.13868 12.9204C4.14754 12.877 4.15639 12.8336 4.16551 12.7888C4.6165 10.6331 5.59314 8.67305 7.1243 7.08344C7.15247 7.05406 7.18064 7.02468 7.20966 6.99441C7.61715 6.57164 8.03146 6.18221 8.50571 5.83583C8.557 5.7976 8.60829 5.75937 8.65959 5.72113C9.02453 5.45211 9.40342 5.21227 9.79799 4.98924C9.82951 4.97132 9.86102 4.9534 9.89349 4.93494C10.9244 4.35456 12.0461 3.96474 13.2042 3.72771C13.2362 3.72115 13.2682 3.71458 13.3012 3.70782C13.9985 3.57531 14.688 3.54679 15.396 3.54949ZM14.6998 7.48445C14.5597 7.68956 14.5156 7.8515 14.5172 8.09781C14.5173 8.13744 14.5174 8.17707 14.5176 8.21791C14.518 8.25892 14.5183 8.29993 14.5187 8.34218C14.5189 8.38388 14.5191 8.42558 14.5193 8.46854C14.5199 8.57124 14.5206 8.67392 14.5215 8.77661C14.4933 8.78115 14.465 8.78569 14.4359 8.79036C13.4914 8.94821 12.5552 9.5018 11.9841 10.275C11.4585 11.073 11.2389 11.9544 11.4106 12.9009C11.6067 13.7886 12.0838 14.4666 12.8445 14.9614C13.6247 15.4453 14.4834 15.6645 15.3759 15.8365C17.2284 16.1941 17.2284 16.1941 17.7299 16.886C17.9843 17.2915 18.1006 17.7048 17.9973 18.1782C17.8426 18.6392 17.5749 18.8878 17.1506 19.1139C16.1715 19.5284 15.0938 19.6116 14.0889 19.2244C13.5433 18.9791 13.1338 18.631 12.8727 18.0891C12.8373 17.9836 12.803 17.8778 12.7697 17.7716C12.667 17.4651 12.5194 17.2846 12.2489 17.1088C11.9967 17.0248 11.7259 17.0237 11.4802 17.1311C11.2468 17.2632 11.0852 17.4805 11.0012 17.7326C10.9695 18.0309 11.0299 18.2751 11.1376 18.5514C11.1589 18.607 11.1589 18.607 11.1807 18.6638C11.2969 18.9578 11.4324 19.2185 11.625 19.4704C11.6422 19.4932 11.6594 19.516 11.6772 19.5395C12.277 20.3242 13.2311 20.9936 14.2291 21.1343C14.3265 21.1453 14.4238 21.1551 14.5215 21.1635C14.5208 21.1887 14.5201 21.2138 14.5194 21.2397C14.5166 21.3554 14.5149 21.4711 14.5132 21.5868C14.512 21.6264 14.5109 21.6659 14.5098 21.7066C14.5062 22.0292 14.5453 22.2844 14.7638 22.5365C15.021 22.756 15.1848 22.8262 15.5241 22.8217C15.7915 22.7988 15.9543 22.6503 16.1257 22.4557C16.262 22.2561 16.3068 22.091 16.3181 21.8521C16.3199 21.8145 16.3218 21.7769 16.3237 21.7381C16.3255 21.6992 16.3272 21.6603 16.329 21.6203C16.331 21.5807 16.3329 21.5411 16.3349 21.5003C16.3396 21.4029 16.3441 21.3055 16.3485 21.2081C16.3731 21.203 16.3978 21.1979 16.4231 21.1926C17.5477 20.9542 18.6355 20.5231 19.3187 19.5429C19.795 18.7854 19.9525 17.9581 19.7575 17.0838C19.5297 16.1708 18.9625 15.4331 18.1755 14.9255C17.3526 14.4367 16.4632 14.2114 15.5297 14.0316C13.822 13.702 13.822 13.702 13.3506 13.0158C13.1306 12.6495 13.1211 12.174 13.2151 11.7623C13.4022 11.264 13.7372 10.9423 14.2146 10.7159C15.0129 10.389 15.8501 10.382 16.6498 10.7105C17.205 10.9844 17.5422 11.3909 17.8218 11.9318C17.9631 12.1997 18.1226 12.3593 18.3928 12.4944C18.6579 12.5421 18.8856 12.5152 19.1225 12.383C19.3479 12.2243 19.4782 12.0497 19.5383 11.7788C19.5841 11.2069 19.2021 10.667 18.8617 10.2383C18.2548 9.5286 17.4202 8.94611 16.4822 8.77661C16.4234 8.77661 16.3646 8.77661 16.304 8.77661C16.3047 8.75149 16.3054 8.72636 16.3061 8.70047C16.3089 8.58476 16.3106 8.46905 16.3123 8.35332C16.3134 8.3138 16.3146 8.27429 16.3157 8.23357C16.3193 7.91092 16.2802 7.6558 16.0617 7.40369C15.8045 7.18417 15.6407 7.11398 15.3013 7.11842C15.0339 7.1414 14.8712 7.28985 14.6998 7.48445Z" fill="white"/>
    <path d="M15.4599 0.000119269C15.5193 0.000245137 15.5788 0.000371006 15.64 0.000500688C16.4933 0.00340163 17.3303 0.0180549 18.1683 0.193581C18.2253 0.205184 18.2822 0.216788 18.3409 0.228743C20.622 0.705907 22.75 1.6185 24.5927 3.05535C24.6444 3.09465 24.696 3.13395 24.7492 3.17444C25.6596 3.88118 26.5137 4.71625 27.2209 5.6251C27.2662 5.68112 27.3115 5.73713 27.3582 5.79484C29.375 8.33019 30.4587 11.55 30.4515 14.7785C30.4513 14.9502 30.4527 15.1218 30.4542 15.2935C30.4568 16.0745 30.3864 16.8277 30.2579 17.5978C30.2414 17.6974 30.2414 17.6974 30.2246 17.799C29.8143 20.0833 28.8224 22.2549 27.3961 24.0806C27.3518 24.1374 27.3074 24.1941 27.2617 24.2526C26.5414 25.1508 25.7353 26.0008 24.8263 26.7088C24.7717 26.7534 24.717 26.798 24.6607 26.844C22.7946 28.3384 20.5071 29.3026 18.1683 29.7457C18.1211 29.7553 18.0738 29.7649 18.0251 29.7747C16.2706 30.1176 14.2473 30.0537 12.5032 29.6873C12.4143 29.669 12.4143 29.669 12.3235 29.6504C10.1542 29.1894 8.11802 28.2489 6.37085 26.884C6.31408 26.8396 6.25731 26.7953 6.19883 26.7496C5.30061 26.0292 4.45068 25.2232 3.74269 24.3142C3.67572 24.2322 3.67572 24.2322 3.6074 24.1486C2.11304 22.2824 1.14881 19.995 0.705708 17.6562C0.696147 17.6089 0.686585 17.5617 0.676734 17.513C0.357291 15.8785 0.364353 13.9129 0.705708 12.2831C0.717311 12.2262 0.728915 12.1692 0.74087 12.1106C1.32998 9.2943 2.61701 6.68952 4.63146 4.62226C4.73508 4.51592 4.83774 4.4087 4.94042 4.30144C5.35502 3.87294 5.78787 3.48927 6.26613 3.13335C6.37342 3.05343 6.47982 2.97243 6.58621 2.89132C7.07836 2.51952 7.58617 2.19065 8.12295 1.88728C8.15976 1.86608 8.19658 1.84488 8.23451 1.82303C10.4391 0.560937 12.937 -0.00948742 15.4599 0.000119269ZM6.37085 5.6251C6.34179 5.65257 6.31274 5.68003 6.28281 5.70832C5.81523 6.15202 5.41259 6.62728 5.02757 7.14359C5.00273 7.17625 4.9779 7.20891 4.95231 7.24255C4.52853 7.80075 4.18196 8.39083 3.8595 9.01251C3.83668 9.05624 3.81385 9.09997 3.79034 9.14503C2.86391 10.9431 2.43123 12.9147 2.43591 14.9295C2.43596 14.9834 2.43601 15.0374 2.43607 15.0929C2.44679 18.5289 3.82842 21.6745 6.19564 24.139C6.24563 24.1914 6.29561 24.2438 6.34712 24.2978C6.68394 24.6431 7.03905 24.9557 7.42211 25.2487C7.45976 25.2775 7.49741 25.3064 7.53621 25.3361C8.16885 25.8166 8.81775 26.2299 9.52463 26.592C9.56803 26.6145 9.61142 26.6371 9.65613 26.6603C12.6965 28.2275 16.2766 28.4338 19.5186 27.4066C21.4737 26.7628 23.1739 25.6748 24.6511 24.2558C24.7297 24.1808 24.7297 24.1808 24.8099 24.1043C25.1553 23.7675 25.4678 23.4124 25.7608 23.0293C25.7897 22.9917 25.8185 22.954 25.8482 22.9152C26.3287 22.2826 26.7421 21.6337 27.1041 20.9268C27.1266 20.8834 27.1492 20.84 27.1725 20.7953C28.1055 18.9851 28.5325 17.0048 28.5277 14.977C28.5276 14.9246 28.5276 14.8722 28.5275 14.8182C28.5165 11.3924 27.1233 8.25732 24.7679 5.80031C24.7157 5.74498 24.6634 5.68964 24.6096 5.63263C24.2064 5.21581 23.771 4.86187 23.3079 4.51544C23.2751 4.49052 23.2424 4.4656 23.2086 4.43992C22.6505 4.01625 22.0605 3.66977 21.4389 3.34737C21.3952 3.32455 21.3515 3.30173 21.3064 3.27821C16.4356 0.768571 10.3847 1.79207 6.37085 5.6251Z" fill="white"/>
  </symbol>


  <!-- Icono: +SALUD -->
  <symbol id="+SALUD" width="27" height="31" viewBox="0 0 27 31" fill="none">
    <path d="M9.17331 1.30628C6.66874 2.976 4.29214 3.95711 1.64741 4.40805C0.91615 4.52993 0.769898 4.57258 0.635833 4.70665L0.477393 4.86509L0.459112 10.4897C0.44083 16.3276 0.465206 17.0284 0.696772 18.1801C1.07459 20.057 2.07398 22.1533 3.4451 23.9571C5.76076 26.9979 9.38659 29.6244 12.8357 30.7456L13.4878 30.965L14.1581 30.7396C17.6011 29.6 21.1233 27.0711 23.439 24.0729C24.8528 22.2508 25.8948 20.0814 26.2787 18.1801C26.5103 17.0284 26.5347 16.3276 26.5164 10.4897L26.4981 4.86509L26.3397 4.70665C26.1995 4.56649 26.0594 4.52383 25.3342 4.40196C22.7809 3.97539 20.4835 3.04912 18.0216 1.44644L17.2842 0.965027H9.6791L9.17331 1.30628ZM17.0648 3.00647C19.1063 4.37758 21.6962 5.51103 23.9387 5.99854L24.7004 6.16917V11.1783C24.7004 14.207 24.6761 16.4373 24.6395 16.8151C24.2495 20.6664 21.3854 24.6396 17.0222 27.3758C16.23 27.8754 14.8711 28.5519 14.0789 28.8383L13.4878 29.0577L12.8906 28.8383C11.5194 28.3325 9.85582 27.4123 8.53346 26.4129C4.98074 23.7499 2.67727 20.185 2.34211 16.8456C2.29945 16.419 2.27508 14.3532 2.27508 11.1722V6.16917L3.03071 6.00464C5.00512 5.57198 7.16844 4.68227 9.16722 3.47569C9.61816 3.20756 10.0386 2.93943 10.1057 2.89068C10.2093 2.81146 10.6541 2.79928 13.4878 2.79318H16.748L17.0648 3.00647Z" fill="white"/>
    <path d="M9.92283 4.44463C9.0636 4.98089 7.45483 5.79747 6.47981 6.19357C5.77902 6.47388 4.58463 6.86998 3.82899 7.07108L3.5243 7.15639V11.9949C3.5243 16.4434 3.53039 16.8822 3.63399 17.388C4.27384 20.5385 6.687 23.756 10.1178 26.0473C10.8918 26.5653 12.1593 27.2356 12.9515 27.5586L13.4877 27.7719L14.0727 27.5342C17.0161 26.3337 20.0569 23.8231 21.7693 21.1722C22.5066 20.0327 23.0855 18.6372 23.3415 17.388C23.4451 16.8822 23.4512 16.4434 23.4512 11.9949V7.15639L23.1465 7.07108C21.0563 6.51654 18.765 5.52324 17.01 4.42026L16.364 4.01197L10.5932 4.02416L9.92283 4.44463ZM15.6084 9.10642C15.7425 9.19783 15.7425 9.21611 15.7425 10.8127V12.4215H17.3512C18.9478 12.4215 18.9661 12.4215 19.0575 12.5555C19.1428 12.6713 19.155 12.9821 19.155 14.7006C19.155 16.48 19.1428 16.7176 19.0514 16.8212C18.96 16.9248 18.8259 16.9309 17.3451 16.9309H15.7425V18.5275C15.7425 19.923 15.7303 20.1363 15.6389 20.2338C15.5475 20.3374 15.4012 20.3435 13.4999 20.3435C11.684 20.3435 11.4463 20.3313 11.3427 20.2399C11.2391 20.1485 11.233 20.0144 11.233 18.5336V16.9309H9.63642C8.24093 16.9309 8.02765 16.9187 7.93015 16.8273C7.82655 16.7359 7.82046 16.5897 7.82046 14.7128C7.82046 12.9821 7.83265 12.6713 7.91796 12.5555C8.00937 12.4215 8.02765 12.4215 9.62424 12.4215H11.233V10.8127C11.233 9.21611 11.233 9.19783 11.3671 9.10642C11.4829 9.02111 11.7936 9.00892 13.4877 9.00892C15.1818 9.00892 15.4926 9.02111 15.6084 9.10642Z" fill="white"/>
  </symbol>

  <!-- Icono: PENSIONADOS -->
  <symbol id="PENSIONADOS" width="31" height="30" viewBox="0 0 31 30" fill="none">
    <path d="M21.0957 1.37669C21.2298 1.44945 21.2298 1.44945 21.4039 1.50197C21.6368 1.59693 21.7779 1.68112 21.9504 1.86603C22.0905 2.27623 22.0404 2.7432 22.0298 3.16979C22.029 3.29974 22.0286 3.4297 22.0284 3.55965C22.0273 3.83215 22.0238 4.10447 22.0184 4.37692C22.0116 4.7236 22.009 5.07014 22.0079 5.41688C22.0066 5.75012 22.0031 6.08333 21.9995 6.41656C21.9991 6.47896 21.9986 6.54137 21.9982 6.60566C21.9894 7.53594 21.9302 8.43382 21.4779 9.27047C21.4571 9.31046 21.4363 9.35044 21.4149 9.39164C21.2429 9.71349 21.041 9.99675 20.8014 10.2721C20.7752 10.3069 20.749 10.3416 20.722 10.3775C20.43 10.7546 20.034 11.021 19.6523 11.3002C19.6108 11.3306 19.5692 11.3611 19.5264 11.3924C18.9963 11.7797 18.4612 12.1598 17.9242 12.5375C17.5953 12.7692 17.2684 13.0036 16.9423 13.2392C16.8964 13.2723 16.8505 13.3055 16.8032 13.3397C16.5595 13.5141 16.5595 13.5141 16.3272 13.703C16.2053 13.7797 16.2053 13.7797 16.0823 13.7693C15.9595 13.7176 15.8613 13.66 15.7531 13.5822C15.6931 13.5394 15.6931 13.5394 15.6319 13.4958C15.5891 13.4648 15.5463 13.4337 15.5022 13.4017C15.4345 13.3532 15.4345 13.3532 15.3653 13.3036C15.2217 13.2006 15.0785 13.0971 14.9353 12.9935C14.8448 12.9283 14.7543 12.8632 14.6638 12.7981C14.4374 12.635 14.2113 12.4714 13.9854 12.3076C13.8443 12.2055 13.703 12.1037 13.5616 12.002C13.2933 11.809 13.0256 11.6153 12.7582 11.4211C12.7224 11.3952 12.6867 11.3694 12.6499 11.3427C11.408 10.44 10.5484 9.39918 10.2787 7.85308C10.1466 6.96159 10.1912 6.03464 10.185 5.13582C10.1829 4.82196 10.1796 4.5082 10.1738 4.19439C10.1682 3.8894 10.1653 3.58449 10.1642 3.27945C10.1634 3.16361 10.1616 3.04778 10.1588 2.93197C10.1383 2.02804 10.1383 2.02804 10.3351 1.77788C10.4758 1.68234 10.6033 1.62188 10.7625 1.56365C10.8389 1.52055 10.9147 1.47635 10.9895 1.43042C14.3445 -0.402769 17.7472 -0.53073 21.0957 1.37669ZM12.5919 2.26668C12.5277 2.29568 12.4635 2.32469 12.3974 2.35457C12.3371 2.38247 12.2769 2.41038 12.2148 2.43913C12.1607 2.46412 12.1067 2.48912 12.0509 2.51487C11.835 2.63391 11.748 2.7193 11.6696 2.95458C11.6633 3.0901 11.6606 3.22579 11.6599 3.36145C11.6596 3.40258 11.6593 3.44372 11.659 3.4861C11.6581 3.62241 11.6577 3.75871 11.6573 3.89502C11.6572 3.94184 11.657 3.98865 11.6568 4.03689C11.6559 4.28529 11.6553 4.53368 11.6551 4.78209C11.6548 5.03657 11.6533 5.29103 11.6516 5.54551C11.6504 5.74283 11.6501 5.94016 11.65 6.13748C11.6499 6.23114 11.6494 6.3248 11.6486 6.41845C11.6391 7.60959 11.8754 8.64066 12.7128 9.53127C13.1076 9.91363 13.557 10.2217 14.0068 10.5356C14.1893 10.663 14.3707 10.792 14.5522 10.921C14.6798 11.0113 14.8078 11.1009 14.936 11.1903C15.0934 11.3005 15.2481 11.4132 15.4014 11.5291C15.4539 11.5679 15.4539 11.5679 15.5076 11.6076C15.601 11.6767 15.6936 11.747 15.7862 11.8173C16.0249 11.9354 16.132 11.9204 16.3867 11.8444C16.5658 11.743 16.7264 11.622 16.8894 11.4967C16.9857 11.4249 17.082 11.3531 17.1783 11.2813C17.2273 11.2443 17.2763 11.2074 17.3269 11.1693C17.5173 11.0268 17.7102 10.8881 17.9035 10.7495C18.0836 10.6203 18.2631 10.4902 18.4425 10.36C18.5192 10.3044 18.5961 10.2489 18.673 10.1937C19.5311 9.57703 20.2442 8.87547 20.4747 7.8063C20.5622 7.26867 20.5782 6.7389 20.5777 6.19568C20.5779 6.10262 20.5782 6.00956 20.5784 5.91649C20.5789 5.72316 20.5789 5.52984 20.5786 5.33651C20.5782 5.08917 20.5792 4.84187 20.5806 4.59453C20.5815 4.40309 20.5816 4.21166 20.5814 4.02022C20.5814 3.92898 20.5817 3.83774 20.5824 3.74651C20.5831 3.61933 20.5827 3.49221 20.582 3.36504C20.582 3.29288 20.5821 3.22072 20.5821 3.14637C20.557 2.93352 20.507 2.82193 20.378 2.65221C20.2374 2.56315 20.108 2.49145 19.9585 2.42165C19.9162 2.40136 19.874 2.38107 19.8304 2.36017C17.3353 1.18362 15.1174 1.1236 12.5919 2.26668Z" fill="white"/>
    <path d="M19.2814 3.16558C19.3408 3.19262 19.4002 3.21966 19.4614 3.24752C19.5064 3.26803 19.5514 3.28854 19.5978 3.30967C19.6006 3.80179 19.6027 4.29391 19.604 4.78603C19.6047 5.01462 19.6055 5.2432 19.6069 5.47178C19.6082 5.69295 19.6089 5.9141 19.6093 6.13527C19.6095 6.21907 19.6099 6.30287 19.6106 6.38666C19.6154 7.03202 19.6179 7.7034 19.3105 8.28768C19.2821 8.34358 19.2538 8.39948 19.2245 8.45707C18.9632 8.86966 18.6515 9.14911 18.2522 9.42541C18.1557 9.49359 18.0592 9.56178 17.9628 9.62999C17.9134 9.66462 17.8641 9.69926 17.8132 9.73494C17.566 9.9092 17.3215 10.087 17.0766 10.2645C16.9487 10.357 16.8208 10.4495 16.6922 10.5412C16.6132 10.5988 16.5355 10.6582 16.4592 10.7193C16.1937 10.9273 16.1937 10.9273 16.0003 10.9385C15.779 10.8378 15.6 10.6982 15.4097 10.548C15.3237 10.4817 15.2375 10.4154 15.1513 10.3493C15.0847 10.2982 15.0847 10.2982 15.0167 10.2461C14.7964 10.0802 14.5701 9.92314 14.3438 9.76559C13.4893 9.16527 12.7625 8.64094 12.5499 7.55877C12.5207 7.35242 12.5147 7.15685 12.5151 6.94848C12.5151 6.90891 12.5151 6.86933 12.5151 6.82856C12.5151 6.69898 12.5156 6.56941 12.5161 6.43983C12.5162 6.3495 12.5163 6.25918 12.5163 6.16885C12.5166 5.93202 12.5171 5.6952 12.5178 5.45838C12.5184 5.21636 12.5187 4.97433 12.519 4.7323C12.5197 4.25809 12.5207 3.78388 12.522 3.30967C12.712 3.22218 12.9023 3.13535 13.0927 3.04863C13.1458 3.02416 13.199 2.99969 13.2537 2.97447C15.3196 2.03636 17.263 2.24619 19.2814 3.16558ZM16.8905 5.23549C16.8539 5.27282 16.8173 5.31016 16.7796 5.34862C16.6265 5.50511 16.4734 5.66164 16.3214 5.81929C16.2094 5.93532 16.0965 6.05038 15.9833 6.16532C15.9491 6.20135 15.9148 6.23737 15.8795 6.27449C15.7815 6.37309 15.7815 6.37309 15.6063 6.51495C15.4073 6.48878 15.3126 6.42434 15.1752 6.28084C15.1243 6.22875 15.1243 6.22875 15.0725 6.1756C15.0379 6.13915 15.0032 6.10271 14.9675 6.06516C14.8983 5.99329 14.8289 5.92154 14.7594 5.84994C14.7137 5.80206 14.7137 5.80206 14.6671 5.75322C14.5121 5.60511 14.41 5.54907 14.1964 5.52086C13.9071 5.55519 13.7992 5.6289 13.6106 5.84971C13.5658 6.05976 13.55 6.13799 13.6106 6.33352C13.8622 6.69177 14.2052 6.99014 14.5253 7.28603C14.567 7.32509 14.6087 7.36415 14.6517 7.40439C15.0445 7.82441 15.0445 7.82441 15.5458 8.02688C15.802 7.91564 15.9857 7.79097 16.1821 7.5936C16.2327 7.54315 16.2833 7.4927 16.3355 7.44073C16.389 7.38648 16.4425 7.33224 16.4976 7.27635C16.5533 7.22051 16.6091 7.16468 16.6665 7.10715C16.7839 6.98944 16.901 6.87143 17.018 6.75318C17.1679 6.60153 17.3183 6.45042 17.469 6.29949C17.6128 6.15534 17.7564 6.01091 17.8999 5.86648C17.954 5.81211 18.0082 5.75775 18.0639 5.70173C18.1136 5.65147 18.1633 5.60121 18.2144 5.54943C18.2583 5.50513 18.3022 5.46082 18.3475 5.41517C18.4897 5.26098 18.5079 5.1978 18.5281 4.98413C18.5062 4.72633 18.4475 4.63896 18.2673 4.45874C17.695 4.17261 17.25 4.86827 16.8905 5.23549Z" fill="white"/>
    <path d="M21.2789 25.9747C21.436 26.1367 21.5499 26.3247 21.6696 26.5151C21.7055 26.57 21.7414 26.625 21.7784 26.6815C21.8931 26.8574 22.0061 27.0342 22.119 27.2112C22.233 27.3877 22.3472 27.564 22.4618 27.7401C22.5331 27.8498 22.6039 27.9598 22.6743 28.0701C22.7063 28.1197 22.7383 28.1694 22.7712 28.2206C22.7993 28.2645 22.8273 28.3085 22.8562 28.3537C22.9296 28.4672 22.9296 28.4672 23.0711 28.5252C23.0995 28.4656 23.0995 28.4656 23.1285 28.4049C23.2694 28.1327 23.4493 27.8858 23.6226 27.6334C23.6623 27.5754 23.7021 27.5173 23.743 27.4576C24.55 26.288 24.55 26.288 24.8633 25.9747C25.372 26.0072 25.8462 26.1248 26.3367 26.2591C26.4155 26.2806 26.4943 26.3021 26.5755 26.3242C27.481 26.5766 28.3516 26.8813 29.1973 27.293C29.242 27.3146 29.2867 27.3361 29.3328 27.3583C29.6184 27.5036 29.8275 27.6591 30.0331 27.9048C30.0755 28.1189 30.0755 28.1189 30.074 28.3558C30.0739 28.4411 30.0737 28.5265 30.0735 28.6144C30.0715 28.703 30.0696 28.7915 30.0676 28.8827C30.0677 28.9721 30.0679 29.0614 30.0681 29.1535C30.063 29.6412 30.063 29.6412 30.0331 29.8348C29.7799 30.0036 29.5905 29.9922 29.2978 29.9907C29.2162 29.9911 29.2162 29.9911 29.1331 29.9915C28.9503 29.9922 28.7676 29.9919 28.5849 29.9916C28.4541 29.9919 28.3234 29.9923 28.1926 29.9927C27.837 29.9936 27.4814 29.9937 27.1258 29.9935C26.8292 29.9934 26.5327 29.9937 26.2362 29.9941C25.5368 29.9948 24.8375 29.9949 24.1382 29.9945C23.4159 29.994 22.6936 29.9949 21.9713 29.9964C21.3518 29.9976 20.7324 29.998 20.1129 29.9978C19.7426 29.9976 19.3723 29.9978 19.002 29.9988C18.654 29.9996 18.3059 29.9995 17.9579 29.9986C17.8299 29.9984 17.7019 29.9986 17.574 29.9992C17.3997 29.9999 17.2255 29.9994 17.0513 29.9985C17.0002 29.999 16.9492 29.9995 16.8967 30C16.5567 29.9964 16.5567 29.9964 16.3883 29.879C16.2108 29.6017 16.2715 29.2048 16.2686 28.887C16.2649 28.8065 16.2612 28.726 16.2574 28.6431C16.2512 28.0683 16.2512 28.0683 16.4213 27.8198C16.5628 27.6898 16.7027 27.5899 16.8674 27.4912C16.938 27.4489 16.938 27.4489 17.0099 27.4057C17.1567 27.3252 17.3051 27.2543 17.4576 27.1853C17.5134 27.1595 17.5692 27.1337 17.6267 27.1072C18.5302 26.7004 19.4784 26.3989 20.4259 26.1126C20.4728 26.0983 20.5197 26.0839 20.568 26.0692C21.052 25.9283 21.052 25.9283 21.2789 25.9747Z" fill="white"/>
    <path d="M5.28698 25.9747C5.30879 26.0177 5.3306 26.0606 5.35306 26.1049C6.16227 27.9569 6.16227 27.9569 7.56168 29.2833C7.89628 29.2833 8.08964 29.1653 8.32638 28.9452C8.89522 28.3204 9.28564 27.555 9.68466 26.8168C9.7745 26.651 9.86494 26.4856 9.95594 26.3204C9.98417 26.2691 10.0124 26.2177 10.0415 26.1648C10.1121 26.0436 10.1121 26.0436 10.181 25.9747C10.6642 26.0023 11.08 26.1177 11.5338 26.2806C11.602 26.3047 11.6703 26.3288 11.7406 26.3536C12.4409 26.6062 13.1218 26.9002 13.8 27.2066C13.9558 27.277 14.112 27.3463 14.2684 27.4152C14.8592 27.6796 14.8592 27.6796 14.9372 27.8358C14.9541 28.1442 14.95 28.4532 14.9502 28.7621C14.951 28.8485 14.9519 28.9349 14.9527 29.0239C14.9529 29.1066 14.953 29.1893 14.9531 29.2745C14.9534 29.3505 14.9537 29.4265 14.954 29.5048C14.9372 29.6969 14.9372 29.6969 14.7994 29.9037C14.546 29.9882 14.3127 29.9824 14.0488 29.9819C13.9928 29.982 13.9368 29.9822 13.8791 29.9823C13.6909 29.9828 13.5026 29.9827 13.3143 29.9827C13.1796 29.9829 13.0448 29.9831 12.9101 29.9834C12.5437 29.984 12.1772 29.9841 11.8108 29.9842C11.5052 29.9842 11.1996 29.9845 10.894 29.9847C10.1732 29.9853 9.45235 29.9855 8.73153 29.9854C7.98723 29.9854 7.24294 29.9861 6.49864 29.9872C5.8602 29.9881 5.22177 29.9885 4.58333 29.9884C4.20176 29.9884 3.82019 29.9886 3.43862 29.9893C3.07987 29.99 2.72112 29.99 2.36236 29.9895C2.23053 29.9894 2.09871 29.9896 1.96689 29.99C1.78723 29.9905 1.6076 29.9902 1.42795 29.9897C1.37552 29.99 1.32309 29.9904 1.26908 29.9908C1.01429 29.9891 0.811733 29.9854 0.599708 29.8348C0.500786 29.6369 0.523086 29.467 0.524046 29.2462C0.524268 29.1564 0.52449 29.0667 0.524719 28.9742C0.525295 28.8791 0.525879 28.784 0.526469 28.6888C0.526815 28.5931 0.52713 28.4975 0.527412 28.4018C0.528226 28.1672 0.529362 27.9326 0.530777 27.6979C1.69172 27.0785 2.91436 26.5987 4.15824 26.1729C4.21655 26.1525 4.27485 26.1322 4.33493 26.1112C4.66628 26.0013 4.9379 25.9532 5.28698 25.9747Z" fill="white"/>
    <path d="M3.28815 20.0469C3.7054 20.0834 4.12208 20.1235 4.53859 20.1678C7.02088 20.4212 9.5003 20.398 11.9734 20.0469C11.9726 20.0942 11.9718 20.1416 11.971 20.1904C11.9703 20.2525 11.9697 20.3146 11.9691 20.3786C11.9683 20.4402 11.9675 20.5018 11.9667 20.5652C11.9658 20.7454 11.9658 20.7454 12.0423 20.943C12.0865 21.4726 12.1025 21.9555 11.7666 22.3905C11.6886 22.462 11.6096 22.5323 11.5296 22.6016C11.2889 22.825 11.2033 23.0649 11.1118 23.3728C10.818 24.3512 10.1772 25.1842 9.27217 25.6819C8.40697 26.0665 7.38987 26.2296 6.47807 25.9095C6.1963 25.7795 5.94735 25.6106 5.70071 25.4234C5.64482 25.3822 5.58893 25.341 5.53135 25.2985C5.33213 25.1271 5.17391 24.9412 5.02002 24.7298C4.97506 24.6683 4.97506 24.6683 4.92918 24.6054C4.65424 24.206 4.51086 23.7827 4.36002 23.3253C4.2275 22.942 4.09064 22.7296 3.75693 22.4885C3.51415 22.2968 3.42025 22.0681 3.35708 21.7701C3.33603 21.4754 3.34373 21.1817 3.35412 20.8867C3.36254 20.6004 3.32987 20.33 3.28815 20.0469Z" fill="white"/>
    <path d="M6.07502 12.46C7.17316 12.916 8.08881 12.8993 9.20748 12.4852C10.2644 12.0964 10.2644 12.0964 10.7321 12.2575C11.0699 12.4296 11.2307 12.6236 11.4214 12.9468C11.4984 13.188 11.4984 13.188 11.5582 13.4522C11.5811 13.5503 11.604 13.6484 11.627 13.7464C11.6442 13.8216 11.6442 13.8216 11.6618 13.8983C11.7188 14.1425 11.782 14.385 11.8447 14.6278C11.869 14.7232 11.8932 14.8185 11.9174 14.9139C11.9541 15.0585 11.9909 15.2032 12.0281 15.3477C12.065 15.491 12.1014 15.6346 12.1377 15.7781C12.159 15.8617 12.1804 15.9453 12.2024 16.0314C12.2437 16.2317 12.2695 16.397 12.2486 16.6001C12.0853 16.7634 12.0351 16.7603 11.8116 16.7792C11.7199 16.7873 11.7199 16.7873 11.6263 16.7957C11.5601 16.8008 11.4939 16.8059 11.4257 16.8112C11.3566 16.8169 11.2875 16.8226 11.2163 16.8284C11.009 16.845 10.8016 16.8605 10.5943 16.8759C10.5423 16.88 10.4903 16.8842 10.4367 16.8886C8.50067 17.0421 6.52909 16.9787 4.59732 16.8069C4.53194 16.8014 4.46657 16.7959 4.39921 16.7902C3.50694 16.7128 3.50694 16.7128 3.28845 16.5956C3.06075 16.1604 3.41972 15.386 3.54182 14.9501C3.55415 14.9059 3.56649 14.8617 3.57919 14.8162C4.14009 12.8108 4.14009 12.8108 4.59732 12.3265C5.0964 12.0714 5.5927 12.2481 6.07502 12.46Z" fill="white"/>
    <path d="M25.0867 16.5043C25.9932 17.2383 26.4761 18.3692 26.6366 19.5031C26.6803 19.9649 26.6849 20.4187 26.5865 20.874C26.4486 20.805 26.4486 20.805 26.3797 20.5982C26.0397 20.4909 25.7227 20.4556 25.3668 20.4406C24.1507 20.3886 23.2454 19.9252 22.3251 19.1383C22.1843 19.0109 22.1843 19.0109 22.037 18.9438C22.0177 18.9964 21.9984 19.0489 21.9785 19.103C21.6509 19.9469 21.1575 20.6225 20.3303 21.0385C20.0845 21.1406 19.8922 21.2186 19.6243 21.2186C19.257 20.3861 19.3143 19.2333 19.6243 18.3924C19.8666 17.7866 20.1958 17.3328 20.6583 16.8759C20.7015 16.8312 20.7447 16.7865 20.7892 16.7404C21.9838 15.5887 23.7794 15.566 25.0867 16.5043Z" fill="white"/>
    <path d="M22.3129 20.5292C22.6374 20.5705 22.8949 20.7134 23.1789 20.8653C23.8891 21.2294 24.5316 21.3658 25.3242 21.3968C25.762 21.4167 26.1674 21.5037 26.5867 21.6322C26.5492 22.0913 26.4096 22.4063 26.105 22.7534C25.9425 22.9742 25.8799 23.1705 25.8026 23.433C25.4586 24.5304 24.786 25.512 23.8098 26.1461C23.4232 26.3452 23.0743 26.3779 22.6576 26.2506C21.5644 25.7193 20.9126 24.7543 20.5207 23.6312C20.4863 23.498 20.4533 23.3644 20.4216 23.2305C20.3416 22.9064 20.2173 22.7186 19.9767 22.4895C19.9515 22.4568 19.9263 22.4241 19.9003 22.3904C19.9344 22.288 19.9344 22.288 19.9692 22.1836C20.1326 22.1026 20.1326 22.1026 20.344 22.0242C21.1786 21.6938 21.7975 21.2657 22.3129 20.5292Z" fill="white"/>
    <path d="M2.18513 16.3935C2.19943 16.4385 2.21374 16.4834 2.22848 16.5297C2.38111 16.9627 2.54699 17.2525 2.94336 17.4964C3.21257 17.6213 3.45313 17.663 3.74791 17.6905C3.83792 17.6991 3.92793 17.7077 4.02067 17.7165C4.06751 17.7207 4.11435 17.7249 4.1626 17.7292C4.30149 17.7417 4.4403 17.7549 4.57911 17.7682C5.68963 17.8731 6.79522 17.9241 7.91066 17.9229C7.99928 17.9229 7.99928 17.9229 8.08968 17.9229C8.92048 17.9221 9.74821 17.9017 10.5774 17.8496C10.7087 17.8415 10.7087 17.8415 10.8426 17.8333C11.9172 17.789 11.9172 17.789 12.8693 17.3585C13.0971 17.0697 13.1965 16.7464 13.2829 16.3935C13.6171 16.4323 13.8901 16.5361 14.1876 16.6864C14.2295 16.7063 14.2713 16.7261 14.3145 16.7465C14.5923 16.8851 14.7689 17.0285 14.9373 17.2896C14.9768 17.5661 14.9787 17.7091 14.8239 17.9444C13.5831 19.2613 10.7311 19.2961 9.07817 19.3575C2.33452 19.5386 2.33452 19.5386 0.698008 18.0158C0.549404 17.8297 0.530632 17.6937 0.526489 17.4576C0.642799 17.0813 0.811314 16.9498 1.1439 16.7653C1.87435 16.3935 1.87435 16.3935 2.18513 16.3935Z" fill="white"/>
    <path d="M24.1051 13.705C24.4131 13.9208 24.7175 14.1474 24.7944 14.5322C24.7997 14.693 24.8007 14.854 24.7944 15.0147C24.5484 15.1015 24.4022 15.0617 24.1568 14.9846C23.4108 14.7872 22.6776 14.8194 21.9388 15.0331C21.7191 15.0958 21.5056 15.1269 21.2789 15.1526C21.244 14.7246 21.2147 14.3578 21.5021 14.0152C22.1918 13.428 23.2989 13.2715 24.1051 13.705Z" fill="white"/>
  </symbol>

</svg>
