<svg width="24" height="25" viewBox="0 0 24 25" fill="none" xmlns="http://www.w3.org/2000/svg">
<path d="M20 0.673828H4C1.794 0.673828 0 2.46783 0 4.67383V16.6738C0 18.8798 1.794 20.6738 4 20.6738H6.923L10.671 23.8308C11.053 24.1698 11.533 24.3378 12.008 24.3378C12.476 24.3378 12.939 24.1758 13.301 23.8538L17.148 20.6738H20C22.206 20.6738 24 18.8798 24 16.6738V4.67383C24 2.46783 22.206 0.673828 20 0.673828ZM17.702 8.38583L11.909 14.0928C11.523 14.4798 11.013 14.6728 10.502 14.6728C9.991 14.6728 9.477 14.4778 9.086 14.0878L6.304 11.3918C5.907 11.0068 5.897 10.3738 6.282 9.97783C6.667 9.58083 7.3 9.57183 7.696 9.95583L10.489 12.6628L16.298 6.96183C16.694 6.57483 17.325 6.57883 17.712 6.97283C18.1 7.36583 18.096 7.99783 17.702 8.38583Z" fill="#39BA2E"/>
</svg>
