<svg width="24" height="24" viewBox="0 0 24 24" fill="none" xmlns="http://www.w3.org/2000/svg">
<path d="M20.4843 20C20.2946 19.9998 20.1089 19.9458 19.9489 19.8441C19.7888 19.7424 19.661 19.5972 19.5802 19.4256C19.4995 19.254 19.4693 19.063 19.493 18.8749C19.5167 18.6867 19.5935 18.5092 19.7143 18.363C21.1825 16.5675 21.9846 14.3194 21.9846 12C21.9846 9.6806 21.1825 7.43256 19.7143 5.63701C19.6306 5.53569 19.5677 5.41889 19.5292 5.29328C19.4907 5.16766 19.4773 5.03569 19.4898 4.9049C19.5023 4.77411 19.5404 4.64706 19.602 4.531C19.6636 4.41495 19.7475 4.31216 19.8488 4.2285C20.0534 4.05956 20.3167 3.97882 20.5809 4.00405C20.845 4.02927 21.0883 4.15839 21.2573 4.363C23.0188 6.51834 23.9811 9.21638 23.9811 12C23.9811 14.7836 23.0188 17.4817 21.2573 19.637C21.1632 19.7508 21.0451 19.8424 20.9115 19.9052C20.7778 19.9679 20.6319 20.0003 20.4843 20ZM4.15127 19.771C4.25261 19.6874 4.33648 19.5847 4.39811 19.4687C4.45974 19.3527 4.49791 19.2257 4.51045 19.095C4.52299 18.9642 4.50964 18.8323 4.47118 18.7067C4.43271 18.5811 4.36988 18.4643 4.28627 18.363C2.81807 16.5675 2.01598 14.3194 2.01598 12C2.01598 9.6806 2.81807 7.43256 4.28627 5.63701C4.36992 5.53576 4.43281 5.41902 4.47135 5.29347C4.50989 5.16791 4.52332 5.036 4.51088 4.90525C4.49843 4.77451 4.46036 4.64749 4.39883 4.53146C4.3373 4.41543 4.25352 4.31266 4.15227 4.22901C4.05102 4.14535 3.93429 4.08246 3.80873 4.04392C3.68318 4.00539 3.55126 3.99196 3.42052 4.0044C3.28977 4.01684 3.16276 4.05492 3.04673 4.11644C2.9307 4.17797 2.82792 4.26176 2.74427 4.363C0.982174 6.5181 0.0195312 9.21623 0.0195312 12C0.0195312 14.7838 0.982174 17.4819 2.74427 19.637C2.91317 19.8412 3.15623 19.97 3.42004 19.9952C3.68386 20.0203 3.94686 19.9397 4.15127 19.771ZM20.0003 12C19.9979 14.121 19.1543 16.1545 17.6545 17.6542C16.1547 19.154 14.1213 19.9976 12.0003 20C1.41227 19.624 1.41527 4.37401 12.0003 4.00001C14.1213 4.00239 16.1547 4.84601 17.6545 6.34578C19.1543 7.84556 19.9979 9.879 20.0003 12ZM13.0003 16C13.0003 15.7348 12.8949 15.4804 12.7074 15.2929C12.5198 15.1054 12.2655 15 12.0003 15C11.7351 15 11.4807 15.1054 11.2932 15.2929C11.1056 15.4804 11.0003 15.7348 11.0003 16C11.0003 16.2652 11.1056 16.5196 11.2932 16.7071C11.4807 16.8947 11.7351 17 12.0003 17C12.2655 17 12.5198 16.8947 12.7074 16.7071C12.8949 16.5196 13.0003 16.2652 13.0003 16ZM13.0003 8.00001C13.0003 7.73479 12.8949 7.48044 12.7074 7.2929C12.5198 7.10536 12.2655 7.00001 12.0003 7.00001C11.7351 7.00001 11.4807 7.10536 11.2932 7.2929C11.1056 7.48044 11.0003 7.73479 11.0003 8.00001V12C11.0003 12.2652 11.1056 12.5196 11.2932 12.7071C11.4807 12.8946 11.7351 13 12.0003 13C12.2655 13 12.5198 12.8946 12.7074 12.7071C12.8949 12.5196 13.0003 12.2652 13.0003 12V8.00001Z" fill="#FFB800"/>
</svg>
