<svg width="32" height="31" viewBox="0 0 32 31" fill="none" xmlns="http://www.w3.org/2000/svg">
<path d="M30.4821 10.9589C30.4819 6.04102 26.4765 2.04873 21.5281 2.04859H11.2534C6.30491 2.04859 2.29885 6.04093 2.29871 10.9589V20.2487C2.29871 25.1667 6.30482 29.1589 11.2534 29.1589H21.5281C26.4766 29.1588 30.4821 25.1666 30.4821 20.2487V10.9589ZM31.9269 20.2487C31.9269 25.9708 27.2683 30.6036 21.5281 30.6038H11.2534C5.51309 30.6038 0.853882 25.9709 0.853882 20.2487V10.9589C0.854024 5.23676 5.51318 0.60376 11.2534 0.60376H21.5281C27.2682 0.603896 31.9268 5.23685 31.9269 10.9589V20.2487Z" fill="white"/>
<path d="M8.07863 7.10897C8.41965 7.10897 8.72859 7.10897 9.03753 7.10897C10.3814 7.10897 11.7257 7.11069 13.0696 7.10554C13.1939 7.10554 13.2631 7.14789 13.3307 7.24862C14.7747 9.3937 16.2215 11.5371 17.6683 13.6799C17.6784 13.6953 17.6925 13.7085 17.7414 13.7663C17.774 13.7119 17.7966 13.6587 17.832 13.6163C19.635 11.4821 21.4397 9.34906 23.2416 7.21371C23.3058 7.13816 23.3699 7.10554 23.4684 7.10668C23.8758 7.11183 24.2832 7.10897 24.6907 7.10897C24.7312 7.10897 24.7717 7.10897 24.8398 7.10897C24.8027 7.16449 24.7835 7.19997 24.7582 7.22973C22.6704 9.69933 20.5832 12.1689 18.4921 14.6357C18.4111 14.7312 18.415 14.7913 18.4825 14.8909C20.4836 17.8481 22.4819 20.8082 24.4802 23.7672C24.7588 24.1792 25.0373 24.5907 25.3159 25.0028C25.344 25.0446 25.3699 25.0881 25.4166 25.1631H25.2393C23.6333 25.1631 22.0267 25.1613 20.4206 25.1659C20.2968 25.1659 20.2276 25.1247 20.1595 25.0234C18.6463 22.7765 17.1292 20.5324 15.6126 18.2877C15.5867 18.2493 15.5591 18.2116 15.5203 18.1572C15.3835 18.3186 15.2535 18.4714 15.1241 18.6254C13.3082 20.7733 11.4922 22.9213 9.67399 25.0675C9.63573 25.1121 9.56932 25.1585 9.5153 25.1591C9.06567 25.1665 8.61604 25.1631 8.16641 25.1625C8.14953 25.1625 8.13209 25.1562 8.08763 25.1476C8.13603 25.0869 8.17148 25.0406 8.20918 24.9959C10.1782 22.6671 12.1472 20.3383 14.1163 18.0095C14.3329 17.7531 14.5462 17.4939 14.7685 17.242C14.8394 17.1619 14.8191 17.1081 14.7685 17.0326C13.7651 15.5502 12.7634 14.0662 11.7618 12.5827C10.5592 10.8011 9.35548 9.0194 8.15291 7.23717C8.1304 7.2034 8.11183 7.16677 8.07863 7.10897ZM10.1523 8.29025C10.3014 8.50717 10.432 8.69718 10.5626 8.88719C12.8523 12.221 15.1421 15.5542 17.4319 18.8881C18.5793 20.5587 19.7268 22.2293 20.8742 23.9005C20.9276 23.9783 20.9704 24.051 21.0903 24.0499C21.7926 24.0436 22.4954 24.0464 23.1977 24.0459C23.2309 24.0459 23.2647 24.0367 23.3125 24.0293C23.2737 23.9686 23.2467 23.9245 23.2174 23.8822C22.617 23.0077 22.0171 22.1326 21.4161 21.2586C20.0481 19.2681 18.6789 17.2787 17.3115 15.2881C15.7347 12.9931 14.1585 10.6975 12.5845 8.40014C12.5231 8.31086 12.4573 8.28052 12.3526 8.2811C11.6734 8.28568 10.9947 8.28339 10.3155 8.28396C10.2744 8.28396 10.2334 8.28739 10.1518 8.2914L10.1523 8.29025Z" fill="white"/>
</svg>
