<svg width="32" height="31" viewBox="0 0 32 31" fill="none" xmlns="http://www.w3.org/2000/svg">
<path d="M30.5551 10.9589C30.5549 6.04102 26.5495 2.04873 21.6011 2.04859H11.3264C6.37791 2.04859 2.37185 6.04093 2.37171 10.9589V20.2487C2.37171 25.1667 6.37782 29.1589 11.3264 29.1589H21.6011C26.5496 29.1588 30.5551 25.1666 30.5551 20.2487V10.9589ZM31.9999 20.2487C31.9999 25.9708 27.3413 30.6036 21.6011 30.6038H11.3264C5.58609 30.6038 0.92688 25.9709 0.92688 20.2487V10.9589C0.927022 5.23676 5.58617 0.60376 11.3264 0.60376H21.6011C27.3412 0.603895 31.9998 5.23685 31.9999 10.9589V20.2487Z" fill="white"/>
<path d="M16.1893 21.8471C15.0331 21.8471 13.8794 21.8616 12.7232 21.8423C11.6666 21.8254 10.61 21.8229 9.55337 21.7407C9.29833 21.7214 9.04815 21.6803 8.80039 21.6126C8.34374 21.4893 8.00126 21.2161 7.74379 20.8268C7.3503 20.2344 7.1657 19.567 7.04425 18.8779C6.89851 18.0486 6.84022 17.2096 6.82807 16.3706C6.8135 15.4518 6.79892 14.5305 6.8645 13.6142C6.93494 12.6301 7.02725 11.6484 7.40131 10.7199C7.6102 10.2025 7.89196 9.731 8.40447 9.44568C8.74209 9.25709 9.11616 9.19906 9.49265 9.17004C10.0124 9.13135 10.5347 9.10476 11.0569 9.09267C13.8964 9.02497 16.7334 9.04431 19.5729 9.06124C20.661 9.06849 21.7468 9.08783 22.8325 9.16762C23.5151 9.21598 24.1418 9.39007 24.5547 9.99938C24.8049 10.3693 24.9943 10.7659 25.1158 11.1938C25.3587 12.0594 25.4437 12.9492 25.4947 13.8439C25.5408 14.6659 25.5311 15.488 25.5214 16.3101C25.5093 17.2966 25.4413 18.2783 25.2348 19.2455C25.1231 19.7677 24.9433 20.2658 24.6688 20.7301C24.3166 21.3273 23.7847 21.6174 23.1119 21.7069C22.5314 21.7843 21.9484 21.7891 21.3654 21.806C19.6409 21.8592 17.9139 21.852 16.1869 21.8447L16.1893 21.8471ZM13.8551 15.4469C13.8551 16.5301 13.8551 17.6134 13.8551 18.6966C13.8551 18.9021 13.8599 18.9045 14.0348 18.8006C15.8444 17.7222 17.6516 16.6414 19.4587 15.5606C19.6215 15.4639 19.6215 15.4493 19.4587 15.3526C17.6516 14.2718 15.842 13.191 14.0348 12.1126C13.8599 12.0087 13.8575 12.0111 13.8575 12.219C13.8575 13.295 13.8575 14.3734 13.8575 15.4493L13.8551 15.4469Z" fill="white"/>
</svg>
